G04*
G04 #@! TF.GenerationSoftware,Altium Limited,Altium Designer,25.6.2 (33)*
G04*
G04 Layer_Color=16711935*
%FSLAX44Y44*%
%MOMM*%
G71*
G04*
G04 #@! TF.SameCoordinates,F49642FE-DF47-4963-9727-11F46748976D*
G04*
G04*
G04 #@! TF.FilePolarity,Positive*
G04*
G01*
G75*
%ADD11C,0.2000*%
%ADD47C,0.1000*%
D11*
X584590Y634240D02*
X601590D01*
Y666240D01*
X584590D02*
X601590D01*
X584590Y634240D02*
Y666240D01*
X585840Y614250D02*
X600340D01*
X585840Y592250D02*
Y614250D01*
Y592250D02*
X600340D01*
Y614250D01*
X584590Y540260D02*
X601590D01*
Y572260D01*
X584590D02*
X601590D01*
X584590Y540260D02*
Y572260D01*
X649270Y199690D02*
X712170D01*
Y262590D01*
X649270D02*
X712170D01*
X649270Y199690D02*
Y262590D01*
X682380Y518670D02*
X699380D01*
Y550670D01*
X682380D02*
X699380D01*
X682380Y518670D02*
Y550670D01*
Y504950D02*
X699380D01*
X682380Y472950D02*
Y504950D01*
Y472950D02*
X699380D01*
Y504950D01*
X502490Y484240D02*
Y498740D01*
X480490D02*
X502490D01*
X480490Y484240D02*
Y498740D01*
Y484240D02*
X502490D01*
X440260Y481700D02*
Y496200D01*
X418260D02*
X440260D01*
X418260Y481700D02*
Y496200D01*
Y481700D02*
X440260D01*
X457525Y530085D02*
Y595135D01*
Y530085D02*
X492575D01*
Y595135D01*
X457525D02*
X492575D01*
X414390Y590120D02*
X428890D01*
X414390Y568120D02*
Y590120D01*
Y568120D02*
X428890D01*
Y590120D01*
X414390Y555830D02*
X428890D01*
X414390Y533830D02*
Y555830D01*
Y533830D02*
X428890D01*
Y555830D01*
X702310Y709920D02*
X727710D01*
X702310Y321320D02*
Y709920D01*
Y321320D02*
X727710D01*
Y709920D01*
X549910D02*
X575310D01*
X549910Y321320D02*
Y709920D01*
Y321320D02*
X575310D01*
Y709920D01*
X356870Y412760D02*
X382270D01*
Y521960D01*
X356870D02*
X382270D01*
X356870Y412760D02*
Y521960D01*
D47*
X618390Y169070D02*
Y189070D01*
Y181570D02*
Y189070D01*
X605890D02*
X618390D01*
X605890Y169070D02*
Y189070D01*
Y169070D02*
X618390D01*
Y284640D02*
Y304640D01*
Y297140D02*
Y304640D01*
X605890D02*
X618390D01*
X605890Y284640D02*
Y304640D01*
Y284640D02*
X618390D01*
X386550Y396950D02*
X438950D01*
X443950D02*
X449750D01*
X438200Y400950D02*
X444700D01*
X443950Y396950D02*
X444700Y400950D01*
X438200D02*
X438950Y396950D01*
X375750D02*
X381550D01*
X386550D02*
X387300Y400950D01*
X380800D02*
X381550Y396950D01*
X380800Y400950D02*
X387300D01*
X375750Y326950D02*
X449750D01*
X375750D02*
Y396950D01*
X449750Y326950D02*
Y396950D01*
M02*
