G04*
G04 #@! TF.GenerationSoftware,Altium Limited,Altium Designer,25.6.2 (33)*
G04*
G04 Layer_Color=128*
%FSLAX44Y44*%
%MOMM*%
G71*
G04*
G04 #@! TF.SameCoordinates,F49642FE-DF47-4963-9727-11F46748976D*
G04*
G04*
G04 #@! TF.FilePolarity,Positive*
G04*
G01*
G75*
%ADD49C,0.1270*%
D49*
X491470Y445770D02*
X501670D01*
X496570Y440670D02*
Y450870D01*
X466070Y445770D02*
X476270D01*
X471170Y440670D02*
Y450870D01*
X491470Y420370D02*
X501670D01*
X496570Y415270D02*
Y425470D01*
X466070Y420370D02*
X476270D01*
X471170Y415270D02*
Y425470D01*
X440670Y445770D02*
X450870D01*
X445770Y440670D02*
Y450870D01*
X440670Y420370D02*
X450870D01*
X445770Y415270D02*
Y425470D01*
X415270Y445770D02*
X425470D01*
X420370Y440670D02*
Y450870D01*
X415270Y420370D02*
X425470D01*
X420370Y415270D02*
Y425470D01*
X557410Y693420D02*
X567810D01*
X562610Y688220D02*
Y698620D01*
X709810Y668020D02*
X720210D01*
X715010Y662820D02*
Y673220D01*
X643270Y253640D02*
X653170D01*
X648220Y248690D02*
Y258590D01*
X708270Y253640D02*
X718170D01*
X713220Y248690D02*
Y258590D01*
X643270Y208640D02*
X653170D01*
X648220Y203690D02*
Y213590D01*
X708270Y208640D02*
X718170D01*
X713220Y203690D02*
Y213590D01*
X403250Y379450D02*
X416250D01*
X409750Y372950D02*
Y385950D01*
X403250Y344450D02*
X416250D01*
X409750Y337950D02*
Y350950D01*
X372090Y293370D02*
X382290D01*
X377190Y288270D02*
Y298470D01*
X397490Y293370D02*
X407690D01*
X402590Y288270D02*
Y298470D01*
X499090Y293370D02*
X509290D01*
X504190Y288270D02*
Y298470D01*
X549890Y293370D02*
X560090D01*
X554990Y288270D02*
Y298470D01*
X524490Y293370D02*
X534690D01*
X529590Y288270D02*
Y298470D01*
X473690Y293370D02*
X483890D01*
X478790Y288270D02*
Y298470D01*
X448290Y293370D02*
X458490D01*
X453390Y288270D02*
Y298470D01*
X422890Y293370D02*
X433090D01*
X427990Y288270D02*
Y298470D01*
X709810Y337820D02*
X720210D01*
X715010Y332620D02*
Y343020D01*
X709810Y363220D02*
X720210D01*
X715010Y358020D02*
Y368420D01*
X709810Y388620D02*
X720210D01*
X715010Y383420D02*
Y393820D01*
X709810Y414020D02*
X720210D01*
X715010Y408820D02*
Y419220D01*
X709810Y439420D02*
X720210D01*
X715010Y434220D02*
Y444620D01*
X709810Y464820D02*
X720210D01*
X715010Y459620D02*
Y470020D01*
X709810Y490220D02*
X720210D01*
X715010Y485020D02*
Y495420D01*
X709810Y515620D02*
X720210D01*
X715010Y510420D02*
Y520820D01*
X709810Y541020D02*
X720210D01*
X715010Y535820D02*
Y546220D01*
X709810Y566420D02*
X720210D01*
X715010Y561220D02*
Y571620D01*
X709810Y591820D02*
X720210D01*
X715010Y586620D02*
Y597020D01*
X709810Y617220D02*
X720210D01*
X715010Y612020D02*
Y622420D01*
X709810Y642620D02*
X720210D01*
X715010Y637420D02*
Y647820D01*
X709810Y693420D02*
X720210D01*
X715010Y688220D02*
Y698620D01*
X557410Y337820D02*
X567810D01*
X562610Y332620D02*
Y343020D01*
X557410Y363220D02*
X567810D01*
X562610Y358020D02*
Y368420D01*
X557410Y388620D02*
X567810D01*
X562610Y383420D02*
Y393820D01*
X557410Y414020D02*
X567810D01*
X562610Y408820D02*
Y419220D01*
X557410Y439420D02*
X567810D01*
X562610Y434220D02*
Y444620D01*
X557410Y464820D02*
X567810D01*
X562610Y459620D02*
Y470020D01*
X557410Y490220D02*
X567810D01*
X562610Y485020D02*
Y495420D01*
X557410Y515620D02*
X567810D01*
X562610Y510420D02*
Y520820D01*
X557410Y541020D02*
X567810D01*
X562610Y535820D02*
Y546220D01*
X557410Y566420D02*
X567810D01*
X562610Y561220D02*
Y571620D01*
X557410Y591820D02*
X567810D01*
X562610Y586620D02*
Y597020D01*
X557410Y617220D02*
X567810D01*
X562610Y612020D02*
Y622420D01*
X557410Y642620D02*
X567810D01*
X562610Y637420D02*
Y647820D01*
X557410Y668020D02*
X567810D01*
X562610Y662820D02*
Y673220D01*
X364370Y505460D02*
X374770D01*
X369570Y500260D02*
Y510660D01*
X364370Y480060D02*
X374770D01*
X369570Y474860D02*
Y485260D01*
X364370Y454660D02*
X374770D01*
X369570Y449460D02*
Y459860D01*
X364370Y429260D02*
X374770D01*
X369570Y424060D02*
Y434460D01*
X454914Y485140D02*
X462026D01*
X458470Y481584D02*
Y488696D01*
X479044Y520700D02*
X486156D01*
X482600Y517144D02*
Y524256D01*
X627634Y167640D02*
X634746D01*
X631190Y164084D02*
Y171196D01*
X608584Y262890D02*
X615696D01*
X612140Y259334D02*
Y266446D01*
X581914Y499110D02*
X589026D01*
X585470Y495554D02*
Y502666D01*
X431324Y468630D02*
X438436D01*
X434880Y465074D02*
Y472186D01*
X510794Y504190D02*
X517906D01*
X514350Y500634D02*
Y507746D01*
X614934Y579120D02*
X622046D01*
X618490Y575564D02*
Y582676D01*
X609854Y680720D02*
X616966D01*
X613410Y677164D02*
Y684276D01*
X418084Y604520D02*
X425196D01*
X421640Y600964D02*
Y608076D01*
X663734Y508000D02*
X670846D01*
X667290Y504444D02*
Y511556D01*
X536194Y499110D02*
X543306D01*
X539750Y495554D02*
Y502666D01*
X415544Y519430D02*
X422656D01*
X419100Y515874D02*
Y522986D01*
X653034Y563880D02*
X660146D01*
X656590Y560324D02*
Y567436D01*
X613226Y513912D02*
X620338D01*
X616782Y510356D02*
Y517468D01*
X625094Y488950D02*
X632206D01*
X628650Y485394D02*
Y492506D01*
X594614Y523240D02*
X601726D01*
X598170Y519684D02*
Y526796D01*
M02*
