G04*
G04 #@! TF.GenerationSoftware,Altium Limited,Altium Designer,25.6.2 (33)*
G04*
G04 Layer_Color=65535*
%FSLAX44Y44*%
%MOMM*%
G71*
G04*
G04 #@! TF.SameCoordinates,F49642FE-DF47-4963-9727-11F46748976D*
G04*
G04*
G04 #@! TF.FilePolarity,Positive*
G04*
G01*
G75*
%ADD10C,0.2500*%
%ADD11C,0.2000*%
%ADD12C,0.4000*%
%ADD13C,0.2540*%
D10*
X421820Y402070D02*
G03*
X421820Y402070I-1250J0D01*
G01*
X633720Y254190D02*
G03*
X633720Y254190I-1250J0D01*
G01*
X577540Y293370D02*
G03*
X577540Y293370I-1250J0D01*
G01*
X443350Y597610D02*
G03*
X443350Y597610I-1250J0D01*
G01*
X698760Y693420D02*
G03*
X698760Y693420I-1250J0D01*
G01*
X546360D02*
G03*
X546360Y693420I-1250J0D01*
G01*
X370820Y406760D02*
G03*
X370820Y406760I-1250J0D01*
G01*
D11*
X403920Y406920D02*
Y459220D01*
Y406920D02*
X513020D01*
Y459220D01*
X403920D02*
X513020D01*
X601590Y642990D02*
Y657490D01*
X584590Y642990D02*
Y657490D01*
X585840Y602500D02*
Y604000D01*
X600340Y602500D02*
Y604000D01*
X601590Y549010D02*
Y563510D01*
X584590Y549010D02*
Y563510D01*
X659670Y199690D02*
X701770D01*
X712170Y220090D02*
Y242190D01*
X659670Y262590D02*
X701770D01*
X649270Y220090D02*
Y242190D01*
X699380Y527420D02*
Y541920D01*
X682380Y527420D02*
Y541920D01*
Y481700D02*
Y496200D01*
X699380Y481700D02*
Y496200D01*
X386550Y396950D02*
X438950D01*
X443950D02*
X449750D01*
X438200Y400950D02*
X444700D01*
X443950Y396950D02*
X444700Y400950D01*
X438200D02*
X438950Y396950D01*
X375750D02*
X381550D01*
X386550D02*
X387300Y400950D01*
X380800D02*
X381550Y396950D01*
X380800Y400950D02*
X387300D01*
X375750Y326950D02*
X449750D01*
X375750D02*
Y396950D01*
X449750Y326950D02*
Y396950D01*
X571440Y279870D02*
Y306870D01*
X360740D02*
X571440D01*
X360740Y279870D02*
Y306870D01*
Y279870D02*
X571440D01*
X480543Y502317D02*
X502543D01*
X480490Y480740D02*
X502490D01*
X428510Y496200D02*
X430010D01*
X428510Y481700D02*
X430010D01*
X457525Y530085D02*
Y595135D01*
Y530085D02*
X492575D01*
Y595135D01*
X457525D02*
X492575D01*
X410813Y568173D02*
Y590173D01*
X432390Y568120D02*
Y590120D01*
X410813Y533883D02*
Y555883D01*
X432390Y533830D02*
Y555830D01*
X702310Y680720D02*
X727710D01*
X702310Y709920D02*
X727710D01*
X702310Y321320D02*
Y709920D01*
Y321320D02*
X727710D01*
Y709920D01*
X549910Y680720D02*
X575310D01*
X549910Y709920D02*
X575310D01*
X549910Y321320D02*
Y709920D01*
Y321320D02*
X575310D01*
Y709920D01*
X356870Y412760D02*
X382270D01*
Y521960D01*
X356870D02*
X382270D01*
X356870Y412760D02*
Y521960D01*
D12*
X605890Y157570D02*
X618390D01*
X605890Y273140D02*
X618390D01*
D13*
X487681Y398778D02*
X482603D01*
X485142D01*
Y386082D01*
X482603Y383543D01*
X480063D01*
X477524Y386082D01*
X492759Y396238D02*
X495298Y398778D01*
X500377D01*
X502916Y396238D01*
Y393699D01*
X500377Y391160D01*
X497837D01*
X500377D01*
X502916Y388621D01*
Y386082D01*
X500377Y383543D01*
X495298D01*
X492759Y386082D01*
X581665Y171448D02*
Y166369D01*
X584204Y163830D01*
X594361D01*
X596900Y166369D01*
Y171448D01*
X594361Y173987D01*
X584204D01*
X581665Y171448D01*
X596900Y179065D02*
X581665D01*
X596900Y189222D01*
X581665D01*
X585475Y284478D02*
Y279399D01*
X588014Y276860D01*
X598171D01*
X600710Y279399D01*
Y284478D01*
X598171Y287017D01*
X588014D01*
X585475Y284478D01*
Y302252D02*
Y292095D01*
X593092D01*
Y297173D01*
Y292095D01*
X600710D01*
X585475Y317487D02*
Y307330D01*
X593092D01*
Y312409D01*
Y307330D01*
X600710D01*
X368298Y346712D02*
X369567Y347981D01*
Y350520D01*
X368298Y351790D01*
X363220D01*
X361950Y350520D01*
Y347981D01*
X363220Y346712D01*
X365759D01*
Y349251D01*
X361950Y344173D02*
X369567D01*
X361950Y339094D01*
X369567D01*
Y336555D02*
X361950D01*
Y332746D01*
X363220Y331477D01*
X368298D01*
X369567Y332746D01*
Y336555D01*
Y389890D02*
X364489D01*
X361950Y387351D01*
X364489Y384812D01*
X369567D01*
Y382272D02*
Y379733D01*
Y381003D01*
X361950D01*
Y382272D01*
Y379733D01*
Y375924D02*
X369567D01*
X361950Y370846D01*
X369567D01*
X743843Y161290D02*
X751840D01*
X747841D01*
Y166622D01*
X743843D01*
X751840D01*
Y170620D02*
Y173286D01*
X750507Y174619D01*
X747841D01*
X746508Y173286D01*
Y170620D01*
X747841Y169287D01*
X750507D01*
X751840Y170620D01*
Y177285D02*
Y179951D01*
Y178618D01*
X743843D01*
Y177285D01*
Y189281D02*
X751840D01*
Y185282D01*
X750507Y183949D01*
X747841D01*
X746508Y185282D01*
Y189281D01*
X743843Y205276D02*
Y199944D01*
X747841D01*
X746508Y202610D01*
Y203943D01*
X747841Y205276D01*
X750507D01*
X751840Y203943D01*
Y201277D01*
X750507Y199944D01*
X745175Y213273D02*
X743843Y211940D01*
Y209275D01*
X745175Y207942D01*
X746508D01*
X747841Y209275D01*
Y211940D01*
X749174Y213273D01*
X750507D01*
X751840Y211940D01*
Y209275D01*
X750507Y207942D01*
X743843Y223937D02*
Y229268D01*
Y226602D01*
X751840D01*
Y233267D02*
Y235933D01*
X750507Y237265D01*
X747841D01*
X746508Y235933D01*
Y233267D01*
X747841Y231934D01*
X750507D01*
X751840Y233267D01*
Y247929D02*
X743843D01*
Y251927D01*
X745175Y253260D01*
X747841D01*
X749174Y251927D01*
Y247929D01*
Y250595D02*
X751840Y253260D01*
Y259925D02*
Y257259D01*
X750507Y255926D01*
X747841D01*
X746508Y257259D01*
Y259925D01*
X747841Y261258D01*
X749174D01*
Y255926D01*
X751840Y263924D02*
Y267922D01*
X750507Y269255D01*
X749174Y267922D01*
Y265257D01*
X747841Y263924D01*
X746508Y265257D01*
Y269255D01*
X745175Y273254D02*
X746508D01*
Y271921D01*
Y274587D01*
Y273254D01*
X750507D01*
X751840Y274587D01*
X746508Y279918D02*
Y282584D01*
X747841Y283917D01*
X751840D01*
Y279918D01*
X750507Y278585D01*
X749174Y279918D01*
Y283917D01*
X746508Y286583D02*
X751840D01*
X749174D01*
X747841Y287916D01*
X746508Y289249D01*
Y290582D01*
X745175Y295913D02*
X746508D01*
Y294580D01*
Y297246D01*
Y295913D01*
X750507D01*
X751840Y297246D01*
X734060Y181610D02*
X726063D01*
Y185609D01*
X727395Y186942D01*
X730061D01*
X731394Y185609D01*
Y181610D01*
X728728Y189607D02*
X734060D01*
X731394D01*
X730061Y190940D01*
X728728Y192273D01*
Y193606D01*
X734060Y201604D02*
Y198938D01*
X732727Y197605D01*
X730061D01*
X728728Y198938D01*
Y201604D01*
X730061Y202936D01*
X731394D01*
Y197605D01*
X734060Y205602D02*
Y209601D01*
X732727Y210934D01*
X731394Y209601D01*
Y206935D01*
X730061Y205602D01*
X728728Y206935D01*
Y210934D01*
X734060Y213600D02*
Y217598D01*
X732727Y218931D01*
X731394Y217598D01*
Y214933D01*
X730061Y213600D01*
X728728Y214933D01*
Y218931D01*
X726063Y229594D02*
Y234926D01*
Y232260D01*
X734060D01*
Y238925D02*
Y241591D01*
X732727Y242924D01*
X730061D01*
X728728Y241591D01*
Y238925D01*
X730061Y237592D01*
X732727D01*
X734060Y238925D01*
X727395Y258918D02*
X726063Y257586D01*
Y254920D01*
X727395Y253587D01*
X728728D01*
X730061Y254920D01*
Y257586D01*
X731394Y258918D01*
X732727D01*
X734060Y257586D01*
Y254920D01*
X732727Y253587D01*
X727395Y262917D02*
X728728D01*
Y261584D01*
Y264250D01*
Y262917D01*
X732727D01*
X734060Y264250D01*
X728728Y269582D02*
Y272247D01*
X730061Y273580D01*
X734060D01*
Y269582D01*
X732727Y268249D01*
X731394Y269582D01*
Y273580D01*
X728728Y276246D02*
X734060D01*
X731394D01*
X730061Y277579D01*
X728728Y278912D01*
Y280245D01*
X727395Y285576D02*
X728728D01*
Y284244D01*
Y286909D01*
Y285576D01*
X732727D01*
X734060Y286909D01*
X464823Y619757D02*
Y607062D01*
X467363Y604523D01*
X472441D01*
X474980Y607062D01*
Y619757D01*
X480058Y604523D02*
X485137D01*
X482598D01*
Y619757D01*
X480058Y617218D01*
X673102Y236218D02*
X670563Y238757D01*
X665485D01*
X662946Y236218D01*
Y233679D01*
X665485Y231140D01*
X670563D01*
X673102Y228601D01*
Y226062D01*
X670563Y223522D01*
X665485D01*
X662946Y226062D01*
X678181Y238757D02*
Y223522D01*
X683259Y228601D01*
X688338Y223522D01*
Y238757D01*
X693416Y223522D02*
X698494D01*
X695955D01*
Y238757D01*
X693416Y236218D01*
X624837Y636274D02*
X609603D01*
Y643892D01*
X612142Y646431D01*
X617220D01*
X619759Y643892D01*
Y636274D01*
Y641352D02*
X624837Y646431D01*
Y659127D02*
X609603D01*
X617220Y651509D01*
Y661666D01*
X623568Y543564D02*
X608332D01*
Y551182D01*
X610872Y553721D01*
X615950D01*
X618489Y551182D01*
Y543564D01*
Y548643D02*
X623568Y553721D01*
X610872Y558799D02*
X608332Y561338D01*
Y566417D01*
X610872Y568956D01*
X613411D01*
X615950Y566417D01*
Y563877D01*
Y566417D01*
X618489Y568956D01*
X621028D01*
X623568Y566417D01*
Y561338D01*
X621028Y558799D01*
X675638Y521974D02*
X660403D01*
Y529592D01*
X662942Y532131D01*
X668020D01*
X670559Y529592D01*
Y521974D01*
Y527052D02*
X675638Y532131D01*
Y547366D02*
Y537209D01*
X665481Y547366D01*
X662942D01*
X660403Y544827D01*
Y539748D01*
X662942Y537209D01*
X676908Y478793D02*
X661673D01*
Y486411D01*
X664212Y488950D01*
X669290D01*
X671829Y486411D01*
Y478793D01*
Y483872D02*
X676908Y488950D01*
Y494028D02*
Y499107D01*
Y496568D01*
X661673D01*
X664212Y494028D01*
X396237Y364489D02*
Y369567D01*
Y367028D01*
X383542D01*
X381003Y369567D01*
Y372107D01*
X383542Y374646D01*
X396237Y349254D02*
X393698Y354333D01*
X388620Y359411D01*
X383542D01*
X381003Y356872D01*
Y351793D01*
X383542Y349254D01*
X386081D01*
X388620Y351793D01*
Y359411D01*
X548641Y271777D02*
X543563D01*
X546102D01*
Y259082D01*
X543563Y256542D01*
X541023D01*
X538484Y259082D01*
X563876Y271777D02*
X553719D01*
Y264160D01*
X558797Y266699D01*
X561337D01*
X563876Y264160D01*
Y259082D01*
X561337Y256542D01*
X556258D01*
X553719Y259082D01*
X367535Y546857D02*
X362456D01*
X364995D01*
Y534161D01*
X362456Y531622D01*
X359917D01*
X357378Y534161D01*
X380231Y531622D02*
Y546857D01*
X372613Y539240D01*
X382770D01*
X675641Y703577D02*
X670563D01*
X673102D01*
Y690882D01*
X670563Y688343D01*
X668023D01*
X665484Y690882D01*
X690876Y688343D02*
X680719D01*
X690876Y698499D01*
Y701038D01*
X688337Y703577D01*
X683258D01*
X680719Y701038D01*
X590550Y703577D02*
X585472D01*
X588011D01*
Y690882D01*
X585472Y688343D01*
X582933D01*
X580393Y690882D01*
X595628Y688343D02*
X600707D01*
X598168D01*
Y703577D01*
X595628Y701038D01*
X398987Y577954D02*
X397821Y576787D01*
Y574455D01*
X398987Y573288D01*
X403652D01*
X404819Y574455D01*
Y576787D01*
X403652Y577954D01*
X397821Y584952D02*
Y580286D01*
X401320D01*
X400154Y582619D01*
Y583785D01*
X401320Y584952D01*
X403652D01*
X404819Y583785D01*
Y581453D01*
X403652Y580286D01*
X398987Y543664D02*
X397821Y542497D01*
Y540165D01*
X398987Y538998D01*
X403652D01*
X404819Y540165D01*
Y542497D01*
X403652Y543664D01*
X404819Y549495D02*
X397821D01*
X401320Y545996D01*
Y550662D01*
X612142Y599441D02*
X609603Y596902D01*
Y591823D01*
X612142Y589284D01*
X622298D01*
X624837Y591823D01*
Y596902D01*
X622298Y599441D01*
X612142Y604519D02*
X609603Y607058D01*
Y612137D01*
X612142Y614676D01*
X614681D01*
X617220Y612137D01*
Y609598D01*
Y612137D01*
X619759Y614676D01*
X622298D01*
X624837Y612137D01*
Y607058D01*
X622298Y604519D01*
X426720Y509269D02*
X425451Y510539D01*
X422912D01*
X421642Y509269D01*
Y504191D01*
X422912Y502921D01*
X425451D01*
X426720Y504191D01*
X434338Y502921D02*
X429260D01*
X434338Y508000D01*
Y509269D01*
X433068Y510539D01*
X430529D01*
X429260Y509269D01*
X492760Y473709D02*
X491490Y474979D01*
X488951D01*
X487682Y473709D01*
Y468631D01*
X488951Y467361D01*
X491490D01*
X492760Y468631D01*
X495299Y467361D02*
X497838D01*
X496569D01*
Y474979D01*
X495299Y473709D01*
M02*
