G04*
G04 #@! TF.GenerationSoftware,Altium Limited,Altium Designer,25.6.2 (33)*
G04*
G04 Layer_Physical_Order=2*
G04 Layer_Color=16711680*
%FSLAX44Y44*%
%MOMM*%
G71*
G04*
G04 #@! TF.SameCoordinates,F49642FE-DF47-4963-9727-11F46748976D*
G04*
G04*
G04 #@! TF.FilePolarity,Positive*
G04*
G01*
G75*
%ADD12C,0.4000*%
%ADD26R,1.5900X1.5900*%
%ADD27C,1.5900*%
%ADD28R,1.5400X1.5400*%
%ADD29C,1.5400*%
%ADD38C,1.5000*%
G04:AMPARAMS|DCode=39|XSize=1.5mm|YSize=1.5mm|CornerRadius=0.375mm|HoleSize=0mm|Usage=FLASHONLY|Rotation=0.000|XOffset=0mm|YOffset=0mm|HoleType=Round|Shape=RoundedRectangle|*
%AMROUNDEDRECTD39*
21,1,1.5000,0.7500,0,0,0.0*
21,1,0.7500,1.5000,0,0,0.0*
1,1,0.7500,0.3750,-0.3750*
1,1,0.7500,-0.3750,-0.3750*
1,1,0.7500,-0.3750,0.3750*
1,1,0.7500,0.3750,0.3750*
%
%ADD39ROUNDEDRECTD39*%
G04:AMPARAMS|DCode=40|XSize=1.95mm|YSize=1.95mm|CornerRadius=0.4875mm|HoleSize=0mm|Usage=FLASHONLY|Rotation=270.000|XOffset=0mm|YOffset=0mm|HoleType=Round|Shape=RoundedRectangle|*
%AMROUNDEDRECTD40*
21,1,1.9500,0.9750,0,0,270.0*
21,1,0.9750,1.9500,0,0,270.0*
1,1,0.9750,-0.4875,-0.4875*
1,1,0.9750,-0.4875,0.4875*
1,1,0.9750,0.4875,0.4875*
1,1,0.9750,0.4875,-0.4875*
%
%ADD40ROUNDEDRECTD40*%
%ADD41C,1.9500*%
%ADD42C,1.5200*%
G04:AMPARAMS|DCode=43|XSize=1.52mm|YSize=1.52mm|CornerRadius=0.38mm|HoleSize=0mm|Usage=FLASHONLY|Rotation=180.000|XOffset=0mm|YOffset=0mm|HoleType=Round|Shape=RoundedRectangle|*
%AMROUNDEDRECTD43*
21,1,1.5200,0.7600,0,0,180.0*
21,1,0.7600,1.5200,0,0,180.0*
1,1,0.7600,-0.3800,0.3800*
1,1,0.7600,0.3800,0.3800*
1,1,0.7600,0.3800,-0.3800*
1,1,0.7600,-0.3800,-0.3800*
%
%ADD43ROUNDEDRECTD43*%
%ADD44C,1.2700*%
%ADD45C,1.2000*%
G36*
X760730Y148590D02*
X758190Y146050D01*
X754380Y149860D01*
X355600D01*
Y708660D01*
X365760Y718820D01*
X760730D01*
Y148590D01*
D02*
G37*
%LPC*%
G36*
X725500Y703910D02*
X704520D01*
Y700589D01*
X671830D01*
X670059Y700237D01*
X668557Y699233D01*
X668557Y699233D01*
X638819Y669495D01*
X637816Y667994D01*
X637463Y666222D01*
X637463Y666222D01*
Y556540D01*
X608792Y527869D01*
X605763D01*
X605284Y528699D01*
X603629Y530354D01*
X601601Y531524D01*
X599340Y532130D01*
X597000D01*
X594739Y531524D01*
X592711Y530354D01*
X591056Y528699D01*
X589886Y526671D01*
X589280Y524410D01*
Y522070D01*
X589886Y519809D01*
X591056Y517781D01*
X592711Y516126D01*
X594739Y514956D01*
X597000Y514350D01*
X599340D01*
X601601Y514956D01*
X603629Y516126D01*
X604519Y517017D01*
X605938Y517034D01*
X607447Y515528D01*
X607892Y514826D01*
Y512742D01*
X608498Y510481D01*
X609458Y508819D01*
X609028Y507471D01*
X608251Y506279D01*
X592163D01*
X592163Y506279D01*
X591087Y506065D01*
X590929Y506224D01*
X588901Y507394D01*
X586640Y508000D01*
X584300D01*
X582039Y507394D01*
X580011Y506224D01*
X578356Y504569D01*
X577186Y502541D01*
X576580Y500280D01*
Y497940D01*
X577186Y495679D01*
X578356Y493651D01*
X580011Y491996D01*
X582039Y490826D01*
X584300Y490220D01*
X586640D01*
X588901Y490826D01*
X590929Y491996D01*
X592584Y493651D01*
X593754Y495679D01*
X594114Y497021D01*
X620557D01*
X621609Y494481D01*
X621536Y494409D01*
X620366Y492381D01*
X619760Y490120D01*
Y487780D01*
X620366Y485519D01*
X621536Y483491D01*
X623191Y481836D01*
X625219Y480666D01*
X627480Y480060D01*
X629820D01*
X632081Y480666D01*
X634109Y481836D01*
X634267Y481995D01*
X635343Y481781D01*
X635343Y481781D01*
X660400D01*
X660400Y481781D01*
X662171Y482133D01*
X663673Y483137D01*
X670563Y490027D01*
X670563Y490027D01*
X671567Y491529D01*
X671919Y493300D01*
X671919Y493300D01*
Y500407D01*
X672749Y500886D01*
X674404Y502541D01*
X675574Y504569D01*
X676180Y506830D01*
Y509170D01*
X675574Y511431D01*
X674404Y513459D01*
X672749Y515114D01*
X670721Y516284D01*
X670099Y516451D01*
X669340Y519284D01*
X672563Y522507D01*
X672563Y522507D01*
X673567Y524009D01*
X673919Y525780D01*
X673919Y525780D01*
Y641973D01*
X695337Y663391D01*
X705570D01*
X706616Y661579D01*
X708569Y659626D01*
X710961Y658245D01*
X713629Y657530D01*
X716391D01*
X719059Y658245D01*
X721451Y659626D01*
X723404Y661579D01*
X724785Y663971D01*
X725500Y666639D01*
Y669401D01*
X724785Y672069D01*
X723404Y674461D01*
X721451Y676414D01*
X719059Y677795D01*
X716391Y678510D01*
X713629D01*
X710961Y677795D01*
X708569Y676414D01*
X706616Y674461D01*
X705570Y672649D01*
X693420D01*
X693420Y672649D01*
X691649Y672297D01*
X690147Y671293D01*
X690147Y671293D01*
X666017Y647163D01*
X665013Y645661D01*
X664661Y643890D01*
X664661Y643890D01*
Y571973D01*
X662121Y570921D01*
X662049Y570994D01*
X660021Y572164D01*
X657760Y572770D01*
X655420D01*
X653159Y572164D01*
X651131Y570994D01*
X649476Y569339D01*
X649261Y568966D01*
X646721Y569647D01*
Y664305D01*
X673747Y691331D01*
X704520D01*
Y682930D01*
X725500D01*
Y703910D01*
D02*
G37*
G36*
X573100D02*
X552120D01*
Y695781D01*
X473241D01*
X471470Y695429D01*
X469968Y694425D01*
X469968Y694425D01*
X467625Y692082D01*
X466621Y690580D01*
X466269Y688809D01*
X466269Y688809D01*
Y493506D01*
X464572Y492598D01*
X463729Y492369D01*
X461901Y493424D01*
X459640Y494030D01*
X457300D01*
X455039Y493424D01*
X453011Y492254D01*
X451797Y491039D01*
X403860D01*
X403860Y491039D01*
X402089Y490687D01*
X400587Y489683D01*
X394323Y483419D01*
X379530D01*
X379345Y484109D01*
X377964Y486501D01*
X376011Y488454D01*
X373619Y489835D01*
X370951Y490550D01*
X368189D01*
X365521Y489835D01*
X363129Y488454D01*
X361176Y486501D01*
X359795Y484109D01*
X359080Y481441D01*
Y478679D01*
X359795Y476011D01*
X361176Y473619D01*
X363129Y471666D01*
X365521Y470285D01*
X368189Y469570D01*
X370951D01*
X373619Y470285D01*
X376011Y471666D01*
X377964Y473619D01*
X378277Y474161D01*
X396240D01*
X396240Y474161D01*
X398011Y474513D01*
X399513Y475517D01*
X405777Y481781D01*
X450166D01*
X450186Y481709D01*
X451356Y479681D01*
X453011Y478026D01*
X455039Y476856D01*
X457300Y476250D01*
X459640D01*
X461901Y476856D01*
X463729Y477911D01*
X464572Y477682D01*
X466269Y476774D01*
Y464442D01*
X455857Y454030D01*
X455622Y453678D01*
X452706Y453175D01*
X452503Y453235D01*
X451935Y453804D01*
X449645Y455126D01*
X447092Y455810D01*
X444448D01*
X441895Y455126D01*
X439605Y453804D01*
X437736Y451935D01*
X436414Y449645D01*
X435730Y447092D01*
Y444448D01*
X436414Y441895D01*
X437736Y439605D01*
X439605Y437736D01*
X441895Y436414D01*
X444448Y435730D01*
X447092D01*
X449645Y436414D01*
X451935Y437736D01*
X451961Y437762D01*
X454501Y436710D01*
Y435387D01*
X454501Y435387D01*
X454853Y433615D01*
X455857Y432113D01*
X462514Y425457D01*
X461814Y424245D01*
X461130Y421692D01*
Y419048D01*
X461814Y416495D01*
X463136Y414205D01*
X465005Y412336D01*
X467295Y411014D01*
X469848Y410330D01*
X472492D01*
X475045Y411014D01*
X477335Y412336D01*
X479204Y414205D01*
X480526Y416495D01*
X481210Y419048D01*
Y421692D01*
X480526Y424245D01*
X479204Y426535D01*
X477335Y428404D01*
X475045Y429726D01*
X472492Y430410D01*
X470653D01*
X467272Y433791D01*
X468587Y436068D01*
X469848Y435730D01*
X472492D01*
X475045Y436414D01*
X477335Y437736D01*
X479204Y439605D01*
X480526Y441895D01*
X481210Y444448D01*
Y447092D01*
X480526Y449645D01*
X479204Y451935D01*
X477335Y453804D01*
X475045Y455126D01*
X473935Y455423D01*
X473176Y458256D01*
X474171Y459252D01*
X474171Y459252D01*
X475174Y460754D01*
X475527Y462525D01*
Y511836D01*
X478067Y513052D01*
X479169Y512416D01*
X481430Y511810D01*
X483770D01*
X486031Y512416D01*
X488059Y513586D01*
X489714Y515241D01*
X490884Y517269D01*
X490904Y517341D01*
X529066D01*
X530038Y514994D01*
X524505Y509461D01*
X521861Y509492D01*
X521502Y509633D01*
X521386Y509727D01*
X519809Y511304D01*
X517781Y512474D01*
X515620Y513053D01*
Y504190D01*
Y495327D01*
X517781Y495906D01*
X519809Y497076D01*
X519881Y497149D01*
X522421Y496097D01*
Y413397D01*
X475517Y366493D01*
X474513Y364991D01*
X474161Y363220D01*
X474161Y363220D01*
Y302406D01*
X472564Y301484D01*
X470676Y299596D01*
X469341Y297284D01*
X468650Y294705D01*
Y292035D01*
X469341Y289456D01*
X470676Y287144D01*
X472564Y285256D01*
X474876Y283921D01*
X477455Y283230D01*
X480125D01*
X482704Y283921D01*
X485016Y285256D01*
X486904Y287144D01*
X488239Y289456D01*
X488930Y292035D01*
Y294705D01*
X488239Y297284D01*
X486904Y299596D01*
X485016Y301484D01*
X483419Y302406D01*
Y361303D01*
X530323Y408207D01*
X530323Y408207D01*
X531327Y409709D01*
X531679Y411480D01*
X531679Y411480D01*
Y491017D01*
X534219Y492069D01*
X534291Y491996D01*
X536319Y490826D01*
X538580Y490220D01*
X540920D01*
X543323Y488234D01*
X543400Y487716D01*
X537747Y482063D01*
X536743Y480561D01*
X536391Y478790D01*
X536391Y478790D01*
Y409587D01*
X500917Y374113D01*
X499913Y372611D01*
X499561Y370840D01*
X499561Y370840D01*
Y302406D01*
X497964Y301484D01*
X496076Y299596D01*
X494741Y297284D01*
X494050Y294705D01*
Y292035D01*
X494741Y289456D01*
X496076Y287144D01*
X497964Y285256D01*
X500276Y283921D01*
X502855Y283230D01*
X505525D01*
X508104Y283921D01*
X510416Y285256D01*
X512304Y287144D01*
X513639Y289456D01*
X514330Y292035D01*
Y294705D01*
X513639Y297284D01*
X512304Y299596D01*
X510416Y301484D01*
X508819Y302406D01*
Y368923D01*
X544293Y404397D01*
X544293Y404397D01*
X545297Y405899D01*
X545649Y407670D01*
X545649Y407670D01*
Y476873D01*
X551749Y482972D01*
X552221Y483127D01*
X555182Y482813D01*
X556169Y481826D01*
X558561Y480445D01*
X561229Y479730D01*
X563991D01*
X566659Y480445D01*
X569051Y481826D01*
X571004Y483779D01*
X572385Y486171D01*
X573100Y488839D01*
Y491601D01*
X572385Y494269D01*
X571004Y496661D01*
X569051Y498614D01*
X566659Y499995D01*
X563991Y500710D01*
X561229D01*
X560285Y500457D01*
X558359Y502383D01*
X556857Y503387D01*
X555085Y503739D01*
X555085Y503739D01*
X547343D01*
X546864Y504569D01*
X545209Y506224D01*
X543181Y507394D01*
X542086Y507688D01*
X540932Y510103D01*
X540934Y510535D01*
X541239Y510991D01*
X553170D01*
X554216Y509179D01*
X556169Y507226D01*
X558561Y505845D01*
X561229Y505130D01*
X563991D01*
X566659Y505845D01*
X569051Y507226D01*
X571004Y509179D01*
X572385Y511571D01*
X573100Y514239D01*
Y517001D01*
X572385Y519669D01*
X571004Y522061D01*
X569051Y524014D01*
X566659Y525395D01*
X563991Y526110D01*
X561229D01*
X558561Y525395D01*
X556169Y524014D01*
X554216Y522061D01*
X553170Y520249D01*
X550557D01*
X545563Y525243D01*
X544061Y526247D01*
X542290Y526599D01*
X542290Y526599D01*
X489273D01*
X488059Y527814D01*
X486031Y528984D01*
X483770Y529590D01*
X481430D01*
X479169Y528984D01*
X478067Y528348D01*
X475527Y529564D01*
Y686523D01*
X552120D01*
Y682930D01*
X573100D01*
Y703910D01*
D02*
G37*
G36*
X614680Y689583D02*
Y681990D01*
X622273D01*
X621694Y684151D01*
X620524Y686179D01*
X618869Y687834D01*
X616841Y689004D01*
X614680Y689583D01*
D02*
G37*
G36*
X612140D02*
X609979Y689004D01*
X607951Y687834D01*
X606296Y686179D01*
X605126Y684151D01*
X604547Y681990D01*
X612140D01*
Y689583D01*
D02*
G37*
G36*
X622273Y679450D02*
X614680D01*
Y671857D01*
X616841Y672436D01*
X618869Y673606D01*
X620524Y675261D01*
X621694Y677289D01*
X622273Y679450D01*
D02*
G37*
G36*
X612140D02*
X604547D01*
X605126Y677289D01*
X606296Y675261D01*
X607951Y673606D01*
X609979Y672436D01*
X612140Y671857D01*
Y679450D01*
D02*
G37*
G36*
X563991Y678510D02*
X561229D01*
X558561Y677795D01*
X556169Y676414D01*
X554216Y674461D01*
X552835Y672069D01*
X552120Y669401D01*
Y666639D01*
X552835Y663971D01*
X554216Y661579D01*
X556169Y659626D01*
X558561Y658245D01*
X561229Y657530D01*
X563991D01*
X566659Y658245D01*
X569051Y659626D01*
X571004Y661579D01*
X572385Y663971D01*
X573100Y666639D01*
Y669401D01*
X572385Y672069D01*
X571004Y674461D01*
X569051Y676414D01*
X566659Y677795D01*
X563991Y678510D01*
D02*
G37*
G36*
X716391Y653110D02*
X713629D01*
X710961Y652395D01*
X708569Y651014D01*
X706616Y649061D01*
X705235Y646669D01*
X704520Y644001D01*
Y641239D01*
X705235Y638571D01*
X706616Y636179D01*
X708569Y634226D01*
X710961Y632845D01*
X713629Y632130D01*
X716391D01*
X719059Y632845D01*
X721451Y634226D01*
X723404Y636179D01*
X724785Y638571D01*
X725500Y641239D01*
Y644001D01*
X724785Y646669D01*
X723404Y649061D01*
X721451Y651014D01*
X719059Y652395D01*
X716391Y653110D01*
D02*
G37*
G36*
X563991D02*
X561229D01*
X558561Y652395D01*
X556169Y651014D01*
X554216Y649061D01*
X552835Y646669D01*
X552120Y644001D01*
Y641239D01*
X552835Y638571D01*
X554216Y636179D01*
X556169Y634226D01*
X558561Y632845D01*
X561229Y632130D01*
X563991D01*
X566659Y632845D01*
X569051Y634226D01*
X571004Y636179D01*
X572385Y638571D01*
X573100Y641239D01*
Y644001D01*
X572385Y646669D01*
X571004Y649061D01*
X569051Y651014D01*
X566659Y652395D01*
X563991Y653110D01*
D02*
G37*
G36*
X716391Y627710D02*
X713629D01*
X710961Y626995D01*
X708569Y625614D01*
X706616Y623661D01*
X705235Y621269D01*
X704520Y618601D01*
Y615839D01*
X705235Y613171D01*
X706616Y610779D01*
X708569Y608826D01*
X710961Y607445D01*
X713629Y606730D01*
X716391D01*
X719059Y607445D01*
X721451Y608826D01*
X723404Y610779D01*
X724785Y613171D01*
X725500Y615839D01*
Y618601D01*
X724785Y621269D01*
X723404Y623661D01*
X721451Y625614D01*
X719059Y626995D01*
X716391Y627710D01*
D02*
G37*
G36*
X563991D02*
X561229D01*
X558561Y626995D01*
X556169Y625614D01*
X554216Y623661D01*
X552835Y621269D01*
X552120Y618601D01*
Y615839D01*
X552835Y613171D01*
X554216Y610779D01*
X556169Y608826D01*
X558561Y607445D01*
X561229Y606730D01*
X563991D01*
X566659Y607445D01*
X569051Y608826D01*
X571004Y610779D01*
X572385Y613171D01*
X573100Y615839D01*
Y618601D01*
X572385Y621269D01*
X571004Y623661D01*
X569051Y625614D01*
X566659Y626995D01*
X563991Y627710D01*
D02*
G37*
G36*
X422910Y613383D02*
Y605790D01*
X430503D01*
X429924Y607951D01*
X428754Y609979D01*
X427099Y611634D01*
X425071Y612804D01*
X422910Y613383D01*
D02*
G37*
G36*
X420370D02*
X418209Y612804D01*
X416181Y611634D01*
X414526Y609979D01*
X413356Y607951D01*
X412777Y605790D01*
X420370D01*
Y613383D01*
D02*
G37*
G36*
X430503Y603250D02*
X422910D01*
Y595657D01*
X425071Y596236D01*
X427099Y597406D01*
X428754Y599061D01*
X429924Y601089D01*
X430503Y603250D01*
D02*
G37*
G36*
X420370D02*
X412777D01*
X413356Y601089D01*
X414526Y599061D01*
X416181Y597406D01*
X418209Y596236D01*
X420370Y595657D01*
Y603250D01*
D02*
G37*
G36*
X716391Y602310D02*
X713629D01*
X710961Y601595D01*
X708569Y600214D01*
X706616Y598261D01*
X705235Y595869D01*
X704520Y593201D01*
Y590439D01*
X705235Y587771D01*
X706616Y585379D01*
X708569Y583426D01*
X710961Y582045D01*
X713629Y581330D01*
X716391D01*
X719059Y582045D01*
X721451Y583426D01*
X723404Y585379D01*
X724785Y587771D01*
X725500Y590439D01*
Y593201D01*
X724785Y595869D01*
X723404Y598261D01*
X721451Y600214D01*
X719059Y601595D01*
X716391Y602310D01*
D02*
G37*
G36*
X563991D02*
X561229D01*
X558561Y601595D01*
X556169Y600214D01*
X554216Y598261D01*
X552835Y595869D01*
X552120Y593201D01*
Y590439D01*
X552835Y587771D01*
X554216Y585379D01*
X556169Y583426D01*
X558561Y582045D01*
X561229Y581330D01*
X563991D01*
X566659Y582045D01*
X569051Y583426D01*
X571004Y585379D01*
X572385Y587771D01*
X573100Y590439D01*
Y593201D01*
X572385Y595869D01*
X571004Y598261D01*
X569051Y600214D01*
X566659Y601595D01*
X563991Y602310D01*
D02*
G37*
G36*
X619760Y587983D02*
Y580390D01*
X627353D01*
X626774Y582551D01*
X625604Y584579D01*
X623949Y586234D01*
X621921Y587404D01*
X619760Y587983D01*
D02*
G37*
G36*
X617220D02*
X615059Y587404D01*
X613031Y586234D01*
X611376Y584579D01*
X610206Y582551D01*
X609627Y580390D01*
X617220D01*
Y587983D01*
D02*
G37*
G36*
X627353Y577850D02*
X619760D01*
Y570257D01*
X621921Y570836D01*
X623949Y572006D01*
X625604Y573661D01*
X626774Y575689D01*
X627353Y577850D01*
D02*
G37*
G36*
X617220D02*
X609627D01*
X610206Y575689D01*
X611376Y573661D01*
X613031Y572006D01*
X615059Y570836D01*
X617220Y570257D01*
Y577850D01*
D02*
G37*
G36*
X716391Y576910D02*
X713629D01*
X710961Y576195D01*
X708569Y574814D01*
X706616Y572861D01*
X705235Y570469D01*
X704520Y567801D01*
Y565039D01*
X705235Y562371D01*
X706616Y559979D01*
X708569Y558026D01*
X710961Y556645D01*
X713629Y555930D01*
X716391D01*
X719059Y556645D01*
X721451Y558026D01*
X723404Y559979D01*
X724785Y562371D01*
X725500Y565039D01*
Y567801D01*
X724785Y570469D01*
X723404Y572861D01*
X721451Y574814D01*
X719059Y576195D01*
X716391Y576910D01*
D02*
G37*
G36*
X563991D02*
X561229D01*
X558561Y576195D01*
X556169Y574814D01*
X554216Y572861D01*
X552835Y570469D01*
X552120Y567801D01*
Y565039D01*
X552835Y562371D01*
X554216Y559979D01*
X556169Y558026D01*
X558561Y556645D01*
X561229Y555930D01*
X563991D01*
X566659Y556645D01*
X569051Y558026D01*
X571004Y559979D01*
X572385Y562371D01*
X573100Y565039D01*
Y567801D01*
X572385Y570469D01*
X571004Y572861D01*
X569051Y574814D01*
X566659Y576195D01*
X563991Y576910D01*
D02*
G37*
G36*
X716391Y551510D02*
X713629D01*
X710961Y550795D01*
X708569Y549414D01*
X706616Y547461D01*
X705235Y545069D01*
X704520Y542401D01*
Y539639D01*
X705235Y536971D01*
X706616Y534579D01*
X708569Y532626D01*
X710961Y531245D01*
X713629Y530530D01*
X716391D01*
X719059Y531245D01*
X721451Y532626D01*
X723404Y534579D01*
X724785Y536971D01*
X725500Y539639D01*
Y542401D01*
X724785Y545069D01*
X723404Y547461D01*
X721451Y549414D01*
X719059Y550795D01*
X716391Y551510D01*
D02*
G37*
G36*
X563991D02*
X561229D01*
X558561Y550795D01*
X556169Y549414D01*
X554216Y547461D01*
X552835Y545069D01*
X552120Y542401D01*
Y539639D01*
X552835Y536971D01*
X554216Y534579D01*
X556169Y532626D01*
X558561Y531245D01*
X561229Y530530D01*
X563991D01*
X566659Y531245D01*
X569051Y532626D01*
X571004Y534579D01*
X572385Y536971D01*
X573100Y539639D01*
Y542401D01*
X572385Y545069D01*
X571004Y547461D01*
X569051Y549414D01*
X566659Y550795D01*
X563991Y551510D01*
D02*
G37*
G36*
X420270Y528320D02*
X417930D01*
X415669Y527714D01*
X413641Y526544D01*
X411986Y524889D01*
X411507Y524059D01*
X383540D01*
X381769Y523707D01*
X380267Y522703D01*
X380267Y522703D01*
X372972Y515409D01*
X370951Y515950D01*
X368189D01*
X365521Y515235D01*
X363129Y513854D01*
X361176Y511901D01*
X359795Y509509D01*
X359080Y506841D01*
Y504079D01*
X359795Y501411D01*
X361176Y499019D01*
X363129Y497066D01*
X365521Y495685D01*
X368189Y494970D01*
X370951D01*
X373619Y495685D01*
X376011Y497066D01*
X377964Y499019D01*
X379345Y501411D01*
X380060Y504079D01*
Y506841D01*
X379519Y508862D01*
X385457Y514801D01*
X411507D01*
X411986Y513971D01*
X413641Y512316D01*
X415669Y511146D01*
X417930Y510540D01*
X420270D01*
X422531Y511146D01*
X424559Y512316D01*
X426214Y513971D01*
X427384Y515999D01*
X427990Y518260D01*
Y520600D01*
X427384Y522861D01*
X426214Y524889D01*
X424559Y526544D01*
X422531Y527714D01*
X420270Y528320D01*
D02*
G37*
G36*
X513080Y513053D02*
X510919Y512474D01*
X508891Y511304D01*
X507236Y509649D01*
X506066Y507621D01*
X505487Y505460D01*
X513080D01*
Y513053D01*
D02*
G37*
G36*
X716391Y526110D02*
X713629D01*
X710961Y525395D01*
X708569Y524014D01*
X706616Y522061D01*
X705235Y519669D01*
X704520Y517001D01*
Y514239D01*
X705235Y511571D01*
X706616Y509179D01*
X708569Y507226D01*
X710961Y505845D01*
X713629Y505130D01*
X716391D01*
X719059Y505845D01*
X721451Y507226D01*
X723404Y509179D01*
X724785Y511571D01*
X725500Y514239D01*
Y517001D01*
X724785Y519669D01*
X723404Y522061D01*
X721451Y524014D01*
X719059Y525395D01*
X716391Y526110D01*
D02*
G37*
G36*
X513080Y502920D02*
X505487D01*
X506066Y500759D01*
X507236Y498731D01*
X508891Y497076D01*
X510919Y495906D01*
X513080Y495327D01*
Y502920D01*
D02*
G37*
G36*
X716391Y500710D02*
X713629D01*
X710961Y499995D01*
X708569Y498614D01*
X706616Y496661D01*
X705235Y494269D01*
X704520Y491601D01*
Y488839D01*
X705235Y486171D01*
X706616Y483779D01*
X708569Y481826D01*
X710961Y480445D01*
X713629Y479730D01*
X716391D01*
X719059Y480445D01*
X721451Y481826D01*
X723404Y483779D01*
X724785Y486171D01*
X725500Y488839D01*
Y491601D01*
X724785Y494269D01*
X723404Y496661D01*
X721451Y498614D01*
X719059Y499995D01*
X716391Y500710D01*
D02*
G37*
G36*
X436150Y477493D02*
Y469900D01*
X443743D01*
X443164Y472061D01*
X441994Y474089D01*
X440339Y475744D01*
X438311Y476914D01*
X436150Y477493D01*
D02*
G37*
G36*
X433610D02*
X431449Y476914D01*
X429421Y475744D01*
X427766Y474089D01*
X426596Y472061D01*
X426017Y469900D01*
X433610D01*
Y477493D01*
D02*
G37*
G36*
X443743Y467360D02*
X436150D01*
Y459767D01*
X438311Y460346D01*
X440339Y461516D01*
X441994Y463171D01*
X443164Y465199D01*
X443743Y467360D01*
D02*
G37*
G36*
X433610D02*
X426017D01*
X426596Y465199D01*
X427766Y463171D01*
X429421Y461516D01*
X431449Y460346D01*
X433610Y459767D01*
Y467360D01*
D02*
G37*
G36*
X370951Y465150D02*
X370840D01*
Y455930D01*
X380060D01*
Y456041D01*
X379345Y458709D01*
X377964Y461101D01*
X376011Y463054D01*
X373619Y464435D01*
X370951Y465150D01*
D02*
G37*
G36*
X368300D02*
X368189D01*
X365521Y464435D01*
X363129Y463054D01*
X361176Y461101D01*
X359795Y458709D01*
X359080Y456041D01*
Y455930D01*
X368300D01*
Y465150D01*
D02*
G37*
G36*
X716391Y475310D02*
X713629D01*
X710961Y474595D01*
X708569Y473214D01*
X706616Y471261D01*
X705235Y468869D01*
X704520Y466201D01*
Y463439D01*
X705235Y460771D01*
X706616Y458379D01*
X708569Y456426D01*
X710961Y455045D01*
X713629Y454330D01*
X716391D01*
X719059Y455045D01*
X721451Y456426D01*
X723404Y458379D01*
X724785Y460771D01*
X725500Y463439D01*
Y466201D01*
X724785Y468869D01*
X723404Y471261D01*
X721451Y473214D01*
X719059Y474595D01*
X716391Y475310D01*
D02*
G37*
G36*
X563991D02*
X561229D01*
X558561Y474595D01*
X556169Y473214D01*
X554216Y471261D01*
X552835Y468869D01*
X552120Y466201D01*
Y463439D01*
X552835Y460771D01*
X554216Y458379D01*
X556169Y456426D01*
X558561Y455045D01*
X561229Y454330D01*
X563991D01*
X566659Y455045D01*
X569051Y456426D01*
X571004Y458379D01*
X572385Y460771D01*
X573100Y463439D01*
Y466201D01*
X572385Y468869D01*
X571004Y471261D01*
X569051Y473214D01*
X566659Y474595D01*
X563991Y475310D01*
D02*
G37*
G36*
X380060Y453390D02*
X370840D01*
Y444170D01*
X370951D01*
X373619Y444885D01*
X376011Y446266D01*
X377964Y448219D01*
X379345Y450611D01*
X380060Y453279D01*
Y453390D01*
D02*
G37*
G36*
X368300D02*
X359080D01*
Y453279D01*
X359795Y450611D01*
X361176Y448219D01*
X363129Y446266D01*
X365521Y444885D01*
X368189Y444170D01*
X368300D01*
Y453390D01*
D02*
G37*
G36*
X497892Y455810D02*
X495248D01*
X492695Y455126D01*
X490405Y453804D01*
X488536Y451935D01*
X487214Y449645D01*
X486530Y447092D01*
Y444448D01*
X487214Y441895D01*
X488536Y439605D01*
X490405Y437736D01*
X492695Y436414D01*
X495248Y435730D01*
X497892D01*
X500445Y436414D01*
X502735Y437736D01*
X504604Y439605D01*
X505926Y441895D01*
X506610Y444448D01*
Y447092D01*
X505926Y449645D01*
X504604Y451935D01*
X502735Y453804D01*
X500445Y455126D01*
X497892Y455810D01*
D02*
G37*
G36*
X421692D02*
X419048D01*
X416495Y455126D01*
X414205Y453804D01*
X412336Y451935D01*
X411014Y449645D01*
X410330Y447092D01*
Y444448D01*
X411014Y441895D01*
X412336Y439605D01*
X414205Y437736D01*
X416495Y436414D01*
X419048Y435730D01*
X421692D01*
X424245Y436414D01*
X426535Y437736D01*
X428404Y439605D01*
X429726Y441895D01*
X430410Y444448D01*
Y447092D01*
X429726Y449645D01*
X428404Y451935D01*
X426535Y453804D01*
X424245Y455126D01*
X421692Y455810D01*
D02*
G37*
G36*
X716391Y449910D02*
X713629D01*
X710961Y449195D01*
X708569Y447814D01*
X706616Y445861D01*
X705235Y443469D01*
X704520Y440801D01*
Y438039D01*
X705235Y435371D01*
X706616Y432979D01*
X708569Y431026D01*
X710961Y429645D01*
X713629Y428930D01*
X716391D01*
X719059Y429645D01*
X721451Y431026D01*
X723404Y432979D01*
X724785Y435371D01*
X725500Y438039D01*
Y440801D01*
X724785Y443469D01*
X723404Y445861D01*
X721451Y447814D01*
X719059Y449195D01*
X716391Y449910D01*
D02*
G37*
G36*
X563991D02*
X561229D01*
X558561Y449195D01*
X556169Y447814D01*
X554216Y445861D01*
X552835Y443469D01*
X552120Y440801D01*
Y438039D01*
X552835Y435371D01*
X554216Y432979D01*
X556169Y431026D01*
X558561Y429645D01*
X561229Y428930D01*
X563991D01*
X566659Y429645D01*
X569051Y431026D01*
X571004Y432979D01*
X572385Y435371D01*
X573100Y438039D01*
Y440801D01*
X572385Y443469D01*
X571004Y445861D01*
X569051Y447814D01*
X566659Y449195D01*
X563991Y449910D01*
D02*
G37*
G36*
X424120Y430533D02*
X421640D01*
Y421640D01*
X430533D01*
Y424120D01*
X430045Y426574D01*
X428655Y428655D01*
X426574Y430045D01*
X424120Y430533D01*
D02*
G37*
G36*
X419100D02*
X416620D01*
X414166Y430045D01*
X412085Y428655D01*
X410695Y426574D01*
X410207Y424120D01*
Y421640D01*
X419100D01*
Y430533D01*
D02*
G37*
G36*
X380060Y439750D02*
X359080D01*
Y418770D01*
X380060D01*
Y439750D01*
D02*
G37*
G36*
X716391Y424510D02*
X716280D01*
Y415290D01*
X725500D01*
Y415401D01*
X724785Y418069D01*
X723404Y420461D01*
X721451Y422414D01*
X719059Y423795D01*
X716391Y424510D01*
D02*
G37*
G36*
X713740D02*
X713629D01*
X710961Y423795D01*
X708569Y422414D01*
X706616Y420461D01*
X705235Y418069D01*
X704520Y415401D01*
Y415290D01*
X713740D01*
Y424510D01*
D02*
G37*
G36*
X497892Y430410D02*
X495248D01*
X492695Y429726D01*
X490405Y428404D01*
X488536Y426535D01*
X487214Y424245D01*
X486530Y421692D01*
Y419048D01*
X487214Y416495D01*
X488536Y414205D01*
X490405Y412336D01*
X492695Y411014D01*
X495248Y410330D01*
X497892D01*
X500445Y411014D01*
X502735Y412336D01*
X504604Y414205D01*
X505926Y416495D01*
X506610Y419048D01*
Y421692D01*
X505926Y424245D01*
X504604Y426535D01*
X502735Y428404D01*
X500445Y429726D01*
X497892Y430410D01*
D02*
G37*
G36*
X447092D02*
X444448D01*
X441895Y429726D01*
X439605Y428404D01*
X437736Y426535D01*
X436414Y424245D01*
X435730Y421692D01*
Y419048D01*
X436414Y416495D01*
X437736Y414205D01*
X439605Y412336D01*
X441895Y411014D01*
X444448Y410330D01*
X447092D01*
X449645Y411014D01*
X451935Y412336D01*
X453804Y414205D01*
X455126Y416495D01*
X455810Y419048D01*
Y421692D01*
X455126Y424245D01*
X453804Y426535D01*
X451935Y428404D01*
X449645Y429726D01*
X447092Y430410D01*
D02*
G37*
G36*
X430533Y419100D02*
X421640D01*
Y410207D01*
X424120D01*
X426574Y410695D01*
X428655Y412085D01*
X430045Y414166D01*
X430533Y416620D01*
Y419100D01*
D02*
G37*
G36*
X419100D02*
X410207D01*
Y416620D01*
X410695Y414166D01*
X412085Y412085D01*
X414166Y410695D01*
X416620Y410207D01*
X419100D01*
Y419100D01*
D02*
G37*
G36*
X725500Y412750D02*
X716280D01*
Y403530D01*
X716391D01*
X719059Y404245D01*
X721451Y405626D01*
X723404Y407579D01*
X724785Y409971D01*
X725500Y412639D01*
Y412750D01*
D02*
G37*
G36*
X713740D02*
X704520D01*
Y412639D01*
X705235Y409971D01*
X706616Y407579D01*
X708569Y405626D01*
X710961Y404245D01*
X713629Y403530D01*
X713740D01*
Y412750D01*
D02*
G37*
G36*
X716391Y399110D02*
X713629D01*
X710961Y398395D01*
X708569Y397014D01*
X706616Y395061D01*
X705235Y392669D01*
X704520Y390001D01*
Y387239D01*
X705235Y384571D01*
X706616Y382179D01*
X708569Y380226D01*
X710961Y378845D01*
X713629Y378130D01*
X716391D01*
X719059Y378845D01*
X721451Y380226D01*
X723404Y382179D01*
X724785Y384571D01*
X725500Y387239D01*
Y390001D01*
X724785Y392669D01*
X723404Y395061D01*
X721451Y397014D01*
X719059Y398395D01*
X716391Y399110D01*
D02*
G37*
G36*
X563991D02*
X561229D01*
X558561Y398395D01*
X556169Y397014D01*
X554216Y395061D01*
X552835Y392669D01*
X552120Y390001D01*
Y387239D01*
X552835Y384571D01*
X554216Y382179D01*
X556169Y380226D01*
X558561Y378845D01*
X561229Y378130D01*
X563991D01*
X566659Y378845D01*
X569051Y380226D01*
X571004Y382179D01*
X572385Y384571D01*
X573100Y387239D01*
Y390001D01*
X572385Y392669D01*
X571004Y395061D01*
X569051Y397014D01*
X566659Y398395D01*
X563991Y399110D01*
D02*
G37*
G36*
X414625Y391804D02*
X404875D01*
X402939Y391549D01*
X401135Y390802D01*
X399587Y389613D01*
X398398Y388064D01*
X397651Y386261D01*
X397396Y384325D01*
Y374575D01*
X397651Y372639D01*
X398398Y370835D01*
X399587Y369287D01*
X401135Y368098D01*
X402939Y367351D01*
X404875Y367096D01*
X414625D01*
X416561Y367351D01*
X418364Y368098D01*
X419913Y369287D01*
X421102Y370835D01*
X421849Y372639D01*
X422104Y374575D01*
Y384325D01*
X421849Y386261D01*
X421102Y388064D01*
X419913Y389613D01*
X418364Y390802D01*
X416561Y391549D01*
X414625Y391804D01*
D02*
G37*
G36*
X563991Y373710D02*
X563880D01*
Y364490D01*
X573100D01*
Y364601D01*
X572385Y367269D01*
X571004Y369661D01*
X569051Y371614D01*
X566659Y372995D01*
X563991Y373710D01*
D02*
G37*
G36*
X561340D02*
X561229D01*
X558561Y372995D01*
X556169Y371614D01*
X554216Y369661D01*
X552835Y367269D01*
X552120Y364601D01*
Y364490D01*
X561340D01*
Y373710D01*
D02*
G37*
G36*
X716391D02*
X713629D01*
X710961Y372995D01*
X708569Y371614D01*
X706616Y369661D01*
X705235Y367269D01*
X704520Y364601D01*
Y361839D01*
X705235Y359171D01*
X706616Y356779D01*
X708569Y354826D01*
X710961Y353445D01*
X713629Y352730D01*
X716391D01*
X719059Y353445D01*
X721451Y354826D01*
X723404Y356779D01*
X724785Y359171D01*
X725500Y361839D01*
Y364601D01*
X724785Y367269D01*
X723404Y369661D01*
X721451Y371614D01*
X719059Y372995D01*
X716391Y373710D01*
D02*
G37*
G36*
X573100Y361950D02*
X563880D01*
Y352730D01*
X563991D01*
X566659Y353445D01*
X569051Y354826D01*
X571004Y356779D01*
X572385Y359171D01*
X573100Y361839D01*
Y361950D01*
D02*
G37*
G36*
X561340D02*
X552120D01*
Y361839D01*
X552835Y359171D01*
X554216Y356779D01*
X556169Y354826D01*
X558561Y353445D01*
X561229Y352730D01*
X561340D01*
Y361950D01*
D02*
G37*
G36*
X411368Y356740D02*
X411020D01*
Y345720D01*
X422040D01*
Y346068D01*
X421203Y349194D01*
X419585Y351996D01*
X417296Y354285D01*
X414494Y355902D01*
X411368Y356740D01*
D02*
G37*
G36*
X408480D02*
X408132D01*
X405006Y355902D01*
X402204Y354285D01*
X399916Y351996D01*
X398298Y349194D01*
X397460Y346068D01*
Y345720D01*
X408480D01*
Y356740D01*
D02*
G37*
G36*
X422040Y343180D02*
X411020D01*
Y332160D01*
X411368D01*
X414494Y332998D01*
X417296Y334616D01*
X419585Y336904D01*
X421203Y339706D01*
X422040Y342832D01*
Y343180D01*
D02*
G37*
G36*
X408480D02*
X397460D01*
Y342832D01*
X398298Y339706D01*
X399916Y336904D01*
X402204Y334616D01*
X405006Y332998D01*
X408132Y332160D01*
X408480D01*
Y343180D01*
D02*
G37*
G36*
X716391Y348310D02*
X713629D01*
X710961Y347595D01*
X708569Y346214D01*
X706616Y344261D01*
X705235Y341869D01*
X704520Y339201D01*
Y336439D01*
X705235Y333771D01*
X706616Y331379D01*
X708569Y329426D01*
X710961Y328045D01*
X713629Y327330D01*
X716391D01*
X719059Y328045D01*
X721451Y329426D01*
X723404Y331379D01*
X724785Y333771D01*
X725500Y336439D01*
Y339201D01*
X724785Y341869D01*
X723404Y344261D01*
X721451Y346214D01*
X719059Y347595D01*
X716391Y348310D01*
D02*
G37*
G36*
X563991D02*
X561229D01*
X558561Y347595D01*
X556169Y346214D01*
X554216Y344261D01*
X552835Y341869D01*
X552120Y339201D01*
Y336439D01*
X552835Y333771D01*
X554216Y331379D01*
X556169Y329426D01*
X558561Y328045D01*
X561229Y327330D01*
X563991D01*
X566659Y328045D01*
X569051Y329426D01*
X571004Y331379D01*
X572385Y333771D01*
X573100Y336439D01*
Y339201D01*
X572385Y341869D01*
X571004Y344261D01*
X569051Y346214D01*
X566659Y347595D01*
X563991Y348310D01*
D02*
G37*
G36*
Y424510D02*
X561229D01*
X558561Y423795D01*
X556169Y422414D01*
X554216Y420461D01*
X552835Y418069D01*
X552120Y415401D01*
Y412639D01*
X552835Y409971D01*
X554216Y407579D01*
X556169Y405626D01*
X558561Y404245D01*
X561229Y403530D01*
X563991D01*
X566659Y404245D01*
X568671Y405406D01*
X576143D01*
X578126Y403423D01*
Y307098D01*
X573012Y301984D01*
X562998D01*
X561264Y303142D01*
X558790Y303634D01*
X551190D01*
X548716Y303142D01*
X546619Y301741D01*
X545218Y299644D01*
X544726Y297170D01*
Y289570D01*
X545218Y287096D01*
X546619Y284999D01*
X548716Y283598D01*
X551190Y283106D01*
X558790D01*
X561264Y283598D01*
X562998Y284756D01*
X576580D01*
X578809Y285050D01*
X579670Y285406D01*
X580887Y285910D01*
X582671Y287279D01*
X592831Y297439D01*
X592831Y297439D01*
X594200Y299223D01*
X595060Y301301D01*
X595354Y303530D01*
Y406990D01*
X595354Y406991D01*
X595207Y408105D01*
X595060Y409220D01*
X594200Y411297D01*
X592831Y413081D01*
X592831Y413081D01*
X585801Y420111D01*
X584017Y421480D01*
X582800Y421984D01*
X581940Y422340D01*
X579711Y422634D01*
X568671D01*
X566659Y423795D01*
X563991Y424510D01*
D02*
G37*
G36*
X530925Y303510D02*
X530860D01*
Y294640D01*
X539730D01*
Y294705D01*
X539039Y297284D01*
X537704Y299596D01*
X535816Y301484D01*
X533504Y302819D01*
X530925Y303510D01*
D02*
G37*
G36*
X528320D02*
X528255D01*
X525676Y302819D01*
X523364Y301484D01*
X521476Y299596D01*
X520141Y297284D01*
X519450Y294705D01*
Y294640D01*
X528320D01*
Y303510D01*
D02*
G37*
G36*
X539730Y292100D02*
X530860D01*
Y283230D01*
X530925D01*
X533504Y283921D01*
X535816Y285256D01*
X537704Y287144D01*
X539039Y289456D01*
X539730Y292035D01*
Y292100D01*
D02*
G37*
G36*
X528320D02*
X519450D01*
Y292035D01*
X520141Y289456D01*
X521476Y287144D01*
X523364Y285256D01*
X525676Y283921D01*
X528255Y283230D01*
X528320D01*
Y292100D01*
D02*
G37*
G36*
X454725Y303510D02*
X452055D01*
X449476Y302819D01*
X447164Y301484D01*
X445276Y299596D01*
X443941Y297284D01*
X443250Y294705D01*
Y292035D01*
X443941Y289456D01*
X445276Y287144D01*
X447164Y285256D01*
X449476Y283921D01*
X452055Y283230D01*
X454725D01*
X457304Y283921D01*
X459616Y285256D01*
X461504Y287144D01*
X462839Y289456D01*
X463530Y292035D01*
Y294705D01*
X462839Y297284D01*
X461504Y299596D01*
X459616Y301484D01*
X457304Y302819D01*
X454725Y303510D01*
D02*
G37*
G36*
X429325D02*
X426655D01*
X424076Y302819D01*
X421764Y301484D01*
X419876Y299596D01*
X418541Y297284D01*
X417850Y294705D01*
Y292035D01*
X418541Y289456D01*
X419876Y287144D01*
X421764Y285256D01*
X424076Y283921D01*
X426655Y283230D01*
X429325D01*
X431904Y283921D01*
X434216Y285256D01*
X436104Y287144D01*
X437439Y289456D01*
X438130Y292035D01*
Y294705D01*
X437439Y297284D01*
X436104Y299596D01*
X434216Y301484D01*
X431904Y302819D01*
X429325Y303510D01*
D02*
G37*
G36*
X403925D02*
X401255D01*
X398676Y302819D01*
X396364Y301484D01*
X394476Y299596D01*
X393141Y297284D01*
X392450Y294705D01*
Y292035D01*
X393141Y289456D01*
X394476Y287144D01*
X396364Y285256D01*
X398676Y283921D01*
X401255Y283230D01*
X403925D01*
X406504Y283921D01*
X408816Y285256D01*
X410704Y287144D01*
X412039Y289456D01*
X412730Y292035D01*
Y294705D01*
X412039Y297284D01*
X410704Y299596D01*
X408816Y301484D01*
X406504Y302819D01*
X403925Y303510D01*
D02*
G37*
G36*
X378525D02*
X375855D01*
X373276Y302819D01*
X370964Y301484D01*
X369076Y299596D01*
X367741Y297284D01*
X367050Y294705D01*
Y292035D01*
X367741Y289456D01*
X369076Y287144D01*
X370964Y285256D01*
X373276Y283921D01*
X375855Y283230D01*
X378525D01*
X381104Y283921D01*
X383416Y285256D01*
X385304Y287144D01*
X386639Y289456D01*
X387330Y292035D01*
Y294705D01*
X386639Y297284D01*
X385304Y299596D01*
X383416Y301484D01*
X381104Y302819D01*
X378525Y303510D01*
D02*
G37*
G36*
X613410Y271753D02*
Y264160D01*
X621003D01*
X620424Y266321D01*
X619254Y268349D01*
X617599Y270004D01*
X615571Y271174D01*
X613410Y271753D01*
D02*
G37*
G36*
X610870D02*
X608709Y271174D01*
X606681Y270004D01*
X605026Y268349D01*
X603856Y266321D01*
X603277Y264160D01*
X610870D01*
Y271753D01*
D02*
G37*
G36*
X658460Y263880D02*
X649490D01*
Y254910D01*
X658460D01*
Y263880D01*
D02*
G37*
G36*
X646950D02*
X637980D01*
Y254910D01*
X646950D01*
Y263880D01*
D02*
G37*
G36*
X621003Y261620D02*
X613410D01*
Y254027D01*
X615571Y254606D01*
X617599Y255776D01*
X619254Y257431D01*
X620424Y259459D01*
X621003Y261620D01*
D02*
G37*
G36*
X610870D02*
X603277D01*
X603856Y259459D01*
X605026Y257431D01*
X606681Y255776D01*
X608709Y254606D01*
X610870Y254027D01*
Y261620D01*
D02*
G37*
G36*
X714568Y263880D02*
X711872D01*
X709268Y263182D01*
X706933Y261834D01*
X705026Y259928D01*
X703678Y257593D01*
X702980Y254988D01*
Y252292D01*
X703678Y249688D01*
X705026Y247353D01*
X706933Y245446D01*
X709268Y244098D01*
X711872Y243400D01*
X714568D01*
X717172Y244098D01*
X719508Y245446D01*
X721414Y247353D01*
X722762Y249688D01*
X723460Y252292D01*
Y254988D01*
X722762Y257593D01*
X721414Y259928D01*
X719508Y261834D01*
X717172Y263182D01*
X714568Y263880D01*
D02*
G37*
G36*
X658460Y252370D02*
X649490D01*
Y243400D01*
X658460D01*
Y252370D01*
D02*
G37*
G36*
X646950D02*
X637980D01*
Y243400D01*
X646950D01*
Y252370D01*
D02*
G37*
G36*
X714568Y218880D02*
X711872D01*
X709268Y218182D01*
X706933Y216834D01*
X705026Y214928D01*
X703678Y212593D01*
X702980Y209988D01*
Y207292D01*
X703678Y204688D01*
X705026Y202353D01*
X706933Y200446D01*
X709268Y199098D01*
X711872Y198400D01*
X714568D01*
X717172Y199098D01*
X719508Y200446D01*
X721414Y202353D01*
X722762Y204688D01*
X723460Y207292D01*
Y209988D01*
X722762Y212593D01*
X721414Y214928D01*
X719508Y216834D01*
X717172Y218182D01*
X714568Y218880D01*
D02*
G37*
G36*
X649568D02*
X646872D01*
X644268Y218182D01*
X641933Y216834D01*
X640026Y214928D01*
X638678Y212593D01*
X637980Y209988D01*
Y207292D01*
X638678Y204688D01*
X640026Y202353D01*
X641933Y200446D01*
X644268Y199098D01*
X646872Y198400D01*
X649568D01*
X652172Y199098D01*
X654508Y200446D01*
X656414Y202353D01*
X657762Y204688D01*
X658460Y207292D01*
Y209988D01*
X657762Y212593D01*
X656414Y214928D01*
X654508Y216834D01*
X652172Y218182D01*
X649568Y218880D01*
D02*
G37*
G36*
X632460Y176503D02*
Y168910D01*
X640053D01*
X639474Y171071D01*
X638304Y173099D01*
X636649Y174754D01*
X634621Y175924D01*
X632460Y176503D01*
D02*
G37*
G36*
X629920D02*
X627759Y175924D01*
X625731Y174754D01*
X624076Y173099D01*
X622906Y171071D01*
X622327Y168910D01*
X629920D01*
Y176503D01*
D02*
G37*
G36*
X640053Y166370D02*
X632460D01*
Y158777D01*
X634621Y159356D01*
X636649Y160526D01*
X638304Y162181D01*
X639474Y164209D01*
X640053Y166370D01*
D02*
G37*
G36*
X629920D02*
X622327D01*
X622906Y164209D01*
X624076Y162181D01*
X625731Y160526D01*
X627759Y159356D01*
X629920Y158777D01*
Y166370D01*
D02*
G37*
%LPD*%
G36*
X664661Y553708D02*
Y527697D01*
X643243Y506279D01*
X625313D01*
X624537Y507471D01*
X624107Y508819D01*
X625066Y510481D01*
X625672Y512742D01*
Y515083D01*
X625424Y516008D01*
X659863Y550447D01*
X659863Y550447D01*
X660867Y551949D01*
X661219Y553720D01*
Y554463D01*
X662121Y555066D01*
X664661Y553708D01*
D02*
G37*
G36*
X658839Y505191D02*
X659006Y504569D01*
X660176Y502541D01*
X661831Y500886D01*
X662661Y500407D01*
Y495217D01*
X658483Y491039D01*
X637294D01*
X636934Y492381D01*
X635764Y494409D01*
X635691Y494481D01*
X636743Y497021D01*
X645160D01*
X645160Y497021D01*
X646931Y497373D01*
X648433Y498377D01*
X656006Y505950D01*
X658839Y505191D01*
D02*
G37*
D12*
X403860Y486410D02*
X457200D01*
X458470Y485140D01*
X470898Y462525D02*
Y688809D01*
X473241Y691152D01*
X459130Y450757D02*
X470898Y462525D01*
X473241Y691152D02*
X560342D01*
X482600Y520700D02*
X483870Y521970D01*
X542290D01*
X537210Y515620D02*
X548640D01*
X542290Y521970D02*
X548640Y515620D01*
X562610D01*
X527050Y505460D02*
X537210Y515620D01*
X459130Y435387D02*
Y450757D01*
Y435387D02*
X471170Y423347D01*
X628650Y488950D02*
X630315Y487285D01*
X634468D01*
X667290Y493300D02*
Y508000D01*
X634468Y487285D02*
X635343Y486410D01*
X660400D02*
X667290Y493300D01*
X635343Y486410D02*
X660400D01*
X592163Y501650D02*
X645160D01*
X669290Y525780D01*
X560342Y691152D02*
X562610Y693420D01*
X471170Y420370D02*
Y423347D01*
X669290Y643890D02*
X693420Y668020D01*
X715010D01*
X669290Y525780D02*
Y643890D01*
X591288Y500775D02*
X592163Y501650D01*
X587135Y500775D02*
X591288D01*
X585470Y499110D02*
X587135Y500775D01*
X478790Y363220D02*
X527050Y411480D01*
Y505460D01*
X369570D02*
X383540Y519430D01*
X369570Y480060D02*
X370840Y478790D01*
X396240D01*
X403860Y486410D01*
X555085Y499110D02*
X562610Y491586D01*
Y490220D02*
Y491586D01*
X539750Y499110D02*
X555085D01*
X561826Y489436D02*
X562610Y490220D01*
X541020Y407670D02*
Y478790D01*
X551666Y489436D02*
X561826D01*
X541020Y478790D02*
X551666Y489436D01*
X383540Y519430D02*
X419100D01*
X504190Y370840D02*
X541020Y407670D01*
X504190Y293370D02*
Y370840D01*
X478790Y293370D02*
Y363220D01*
X656590Y553720D02*
Y563880D01*
X616782Y513912D02*
X656590Y553720D01*
X598170Y523240D02*
X610709D01*
X642092Y554623D01*
Y666222D01*
X712470Y695960D02*
X715010Y693420D01*
X671830Y695960D02*
X712470D01*
X642092Y666222D02*
X671830Y695960D01*
D26*
X562610Y693420D02*
D03*
X715010D02*
D03*
X369570Y429260D02*
D03*
D27*
X715010Y668020D02*
D03*
Y337820D02*
D03*
Y363220D02*
D03*
Y388620D02*
D03*
Y414020D02*
D03*
Y439420D02*
D03*
Y464820D02*
D03*
Y490220D02*
D03*
Y515620D02*
D03*
Y541020D02*
D03*
Y566420D02*
D03*
Y591820D02*
D03*
Y617220D02*
D03*
Y642620D02*
D03*
X562610Y337820D02*
D03*
Y363220D02*
D03*
Y388620D02*
D03*
Y414020D02*
D03*
Y439420D02*
D03*
Y464820D02*
D03*
Y490220D02*
D03*
Y515620D02*
D03*
Y541020D02*
D03*
Y566420D02*
D03*
Y591820D02*
D03*
Y617220D02*
D03*
Y642620D02*
D03*
Y668020D02*
D03*
X369570Y505460D02*
D03*
Y480060D02*
D03*
Y454660D02*
D03*
D28*
X648220Y253640D02*
D03*
D29*
X713220D02*
D03*
X648220Y208640D02*
D03*
X713220D02*
D03*
D38*
X496570Y445770D02*
D03*
X471170D02*
D03*
X496570Y420370D02*
D03*
X471170D02*
D03*
X445770Y445770D02*
D03*
Y420370D02*
D03*
X420370Y445770D02*
D03*
D39*
Y420370D02*
D03*
D40*
X409750Y379450D02*
D03*
D41*
Y344450D02*
D03*
D42*
X377190Y293370D02*
D03*
X402590D02*
D03*
X504190D02*
D03*
X529590D02*
D03*
X478790D02*
D03*
X453390D02*
D03*
X427990D02*
D03*
D43*
X554990D02*
D03*
D44*
X458470Y485140D02*
D03*
X482600Y520700D02*
D03*
X631190Y167640D02*
D03*
X612140Y262890D02*
D03*
X585470Y499110D02*
D03*
X434880Y468630D02*
D03*
X514350Y504190D02*
D03*
X618490Y579120D02*
D03*
X613410Y680720D02*
D03*
X421640Y604520D02*
D03*
X667290Y508000D02*
D03*
X539750Y499110D02*
D03*
X419100Y519430D02*
D03*
X656590Y563880D02*
D03*
X616782Y513912D02*
D03*
X628650Y488950D02*
D03*
X598170Y523240D02*
D03*
D45*
X554990Y293370D02*
X576580D01*
X586740Y303530D02*
Y406991D01*
X576580Y293370D02*
X586740Y303530D01*
X562610Y414020D02*
X579711D01*
X586740Y406991D01*
M02*
