M48
;Layer_Color=9474304
;FILE_FORMAT=4:4
METRIC,LZ
;TYPE=PLATED
T01F00S00C0.7112
T02F00S00C0.9900
T03F00S00C1.0200
T04F00S00C1.0400
T05F00S00C1.3000
%
T01
X0063119Y0016764
X0061214Y0026289
X0062865Y0048895
X00616782Y00513912
X0059817Y0052324
X0058547Y0049911
X0066729Y00508
X0053975Y0049911
X0051435Y0050419
X004826Y005207
X0045847Y0048514
X0043488Y0046863
X004191Y0051943
X0042164Y0060452
X0061849Y0057912
X0065659Y0056388
X0061341Y0068072
T02
X0064822Y0020864
Y0025364
X0071322
Y0020864
T03
X0055499Y0029337
X0052959
X0050419
X0047879
X0045339
X0042799
X0040259
X0037719
X0042037Y0042037
X0044577
X0047117
Y0044577
X0049657
Y0042037
X0044577Y0044577
X0042037
T04
X0056261Y0033782
Y0036322
Y0038862
Y0041402
Y0043942
Y0046482
Y0049022
Y0051562
X0071501
Y0049022
Y0046482
Y0043942
Y0041402
Y0038862
Y0036322
Y0033782
X0036957Y0042926
Y0045466
Y0048006
Y0050546
X0056261Y0054102
Y0056642
Y0059182
Y0061722
Y0064262
Y0066802
Y0069342
X0071501
Y0066802
Y0064262
Y0061722
Y0059182
Y0056642
Y0054102
T05
X0040975Y0034445
Y0037945
M30
