G04*
G04 #@! TF.GenerationSoftware,Altium Limited,Altium Designer,25.6.2 (33)*
G04*
G04 Layer_Color=0*
%FSLAX44Y44*%
%MOMM*%
G71*
G04*
G04 #@! TF.SameCoordinates,F49642FE-DF47-4963-9727-11F46748976D*
G04*
G04*
G04 #@! TF.FilePolarity,Positive*
G04*
G01*
G75*
%ADD47C,0.1000*%
%ADD48C,0.0500*%
D47*
X588090Y650240D02*
X598090D01*
X593090Y645240D02*
Y655240D01*
X588090Y603250D02*
X598090D01*
X593090Y598250D02*
Y608250D01*
X588090Y556260D02*
X598090D01*
X593090Y551260D02*
Y561260D01*
X675720Y231140D02*
X685720D01*
X680720Y226140D02*
Y236140D01*
X685880Y534670D02*
X695880D01*
X690880Y529670D02*
Y539670D01*
X685880Y488950D02*
X695880D01*
X690880Y483950D02*
Y493950D01*
X491490Y486490D02*
Y496490D01*
X486490Y491490D02*
X496490D01*
X429260Y483950D02*
Y493950D01*
X424260Y488950D02*
X434260D01*
X475050Y557610D02*
Y567610D01*
X470050Y562610D02*
X480050D01*
X416640Y579120D02*
X426640D01*
X421640Y574120D02*
Y584120D01*
X416640Y544830D02*
X426640D01*
X421640Y539830D02*
Y549830D01*
X710010Y515620D02*
X720010D01*
X715010Y510620D02*
Y520620D01*
X557610Y515620D02*
X567610D01*
X562610Y510620D02*
Y520620D01*
X364570Y467360D02*
X374570D01*
X369570Y462360D02*
Y472360D01*
D48*
X458470Y428070D02*
Y438070D01*
X453470Y433070D02*
X463470D01*
X407750Y361950D02*
X417750D01*
X412750Y356950D02*
Y366950D01*
X461090Y293370D02*
X471090D01*
X466090Y288370D02*
Y298370D01*
M02*
