G04*
G04 #@! TF.GenerationSoftware,Altium Limited,Altium Designer,25.6.2 (33)*
G04*
G04 Layer_Color=32768*
%FSLAX44Y44*%
%MOMM*%
G71*
G04*
G04 #@! TF.SameCoordinates,F49642FE-DF47-4963-9727-11F46748976D*
G04*
G04*
G04 #@! TF.FilePolarity,Positive*
G04*
G01*
G75*
%ADD11C,0.2000*%
%ADD47C,0.1000*%
%ADD48C,0.0500*%
D11*
X583590Y628240D02*
X602590D01*
Y672240D01*
X583590D02*
X602590D01*
X583590Y628240D02*
Y672240D01*
X582590Y619250D02*
X603590D01*
X582590Y587250D02*
Y619250D01*
Y587250D02*
X603590D01*
Y619250D01*
X583590Y534260D02*
X602590D01*
Y578260D01*
X583590D02*
X602590D01*
X583590Y534260D02*
Y578260D01*
X639520Y198690D02*
X721920D01*
Y263590D01*
X639520D02*
X721920D01*
X639520Y198690D02*
Y263590D01*
X681380Y512670D02*
X700380D01*
Y556670D01*
X681380D02*
X700380D01*
X681380Y512670D02*
Y556670D01*
Y510950D02*
X700380D01*
X681380Y466950D02*
Y510950D01*
Y466950D02*
X700380D01*
Y510950D01*
X505490Y482990D02*
Y499990D01*
X477490D02*
X505490D01*
X477490Y482990D02*
Y499990D01*
Y482990D02*
X505490D01*
X445260Y478450D02*
Y499450D01*
X413260D02*
X445260D01*
X413260Y478450D02*
Y499450D01*
Y478450D02*
X445260D01*
X436078Y529085D02*
Y596135D01*
Y529085D02*
X514021D01*
Y596135D01*
X436078D02*
X514021D01*
X413140Y593120D02*
X430140D01*
X413140Y565120D02*
Y593120D01*
Y565120D02*
X430140D01*
Y593120D01*
X413140Y558830D02*
X430140D01*
X413140Y530830D02*
Y558830D01*
Y530830D02*
X430140D01*
Y558830D01*
X701310Y710920D02*
X728710D01*
X701310Y320320D02*
Y710920D01*
Y320320D02*
X728710D01*
Y710920D01*
X548910D02*
X576310D01*
X548910Y320320D02*
Y710920D01*
Y320320D02*
X576310D01*
Y710920D01*
X355870Y411760D02*
X383270D01*
Y522960D01*
X355870D02*
X383270D01*
X355870Y411760D02*
Y522960D01*
D47*
X612140Y176570D02*
Y181570D01*
X609640Y179070D02*
X614640D01*
X612140Y292140D02*
Y297140D01*
X609640Y294640D02*
X614640D01*
D48*
X401920Y461220D02*
X515020D01*
Y404920D02*
Y461220D01*
X401920Y404920D02*
X515020D01*
X401920D02*
Y461220D01*
X619140Y161570D02*
Y196570D01*
X605140D02*
X619140D01*
X605140Y161570D02*
Y196570D01*
Y161570D02*
X619140D01*
Y277140D02*
Y312140D01*
X605140D02*
X619140D01*
X605140Y277140D02*
Y312140D01*
Y277140D02*
X619140D01*
X451750Y324950D02*
Y402950D01*
X373750Y324950D02*
X451750D01*
X373750D02*
Y402950D01*
X451750D01*
X573440Y277870D02*
Y308870D01*
X358740D02*
X573440D01*
X358740Y277870D02*
Y308870D01*
Y277870D02*
X573440D01*
M02*
