M48
;Layer_Color=9474304
;FILE_FORMAT=4:4
METRIC,LZ
;TYPE=PLATED
T01F00S00C0.7112
T02F00S00C1.0200
T03F00S00C1.0400
T04F00S00C1.3000
%
T01
X0102616Y0081915
X0112649Y0084201
X01100559Y0088519
X0111125Y0096647
X0117983Y0097282
T02
X0093091Y0073914
X0095631
X0098171
Y0076454
X0100711
Y0073914
X0095631Y0076454
X0093091
T03
X0122047Y0064389
Y0066929
Y0069469
Y0072009
Y0074549
Y0077089
X0106807
Y0074549
Y0072009
Y0069469
Y0066929
Y0064389
Y0079629
Y0082169
Y0084709
Y0087249
Y0089789
Y0092329
Y0094869
Y0097409
Y0099949
X0122047
Y0097409
Y0094869
Y0092329
Y0089789
Y0087249
Y0084709
Y0082169
Y0079629
T04
X0098298Y0065588
Y0069088
X012857Y0080038
Y0083538
X0128778Y008921
Y009271
M30
