G04*
G04 #@! TF.GenerationSoftware,Altium Limited,Altium Designer,25.6.2 (33)*
G04*
G04 Layer_Color=65535*
%FSLAX44Y44*%
%MOMM*%
G71*
G04*
G04 #@! TF.SameCoordinates,E10141E4-A060-4BB7-8850-C9F2C3C4F881*
G04*
G04*
G04 #@! TF.FilePolarity,Positive*
G04*
G01*
G75*
%ADD10C,0.2500*%
%ADD11C,0.2000*%
%ADD12C,0.4000*%
%ADD13C,0.2540*%
D10*
X1204220Y999490D02*
G03*
X1204220Y999490I-1250J0D01*
G01*
X1051820D02*
G03*
X1051820Y999490I-1250J0D01*
G01*
X932360Y720840D02*
G03*
X932360Y720840I-1250J0D01*
G01*
X952550Y902410D02*
G03*
X952550Y902410I-1250J0D01*
G01*
D11*
X1233170Y627390D02*
Y1015990D01*
X1207770Y627390D02*
X1233170D01*
X1207770D02*
Y1015990D01*
X1233170D01*
X1207770Y986790D02*
X1233170D01*
X1080770Y627390D02*
Y1015990D01*
X1055370Y627390D02*
X1080770D01*
X1055370D02*
Y1015990D01*
X1080770D01*
X1055370Y986790D02*
X1080770D01*
X1247780Y874600D02*
Y944600D01*
X1321780Y874600D02*
Y944600D01*
X1247780D02*
X1321780D01*
X1310230Y870600D02*
X1316730D01*
X1315980Y874600D02*
X1316730Y870600D01*
X1310230D02*
X1310980Y874600D01*
X1315980D02*
X1321780D01*
X1258580D02*
X1259330Y870600D01*
X1252830D02*
X1253580Y874600D01*
X1252830Y870600D02*
X1259330D01*
X1247780Y874600D02*
X1253580D01*
X1258580D02*
X1310980D01*
X1022980Y638380D02*
Y708380D01*
X948980Y638380D02*
Y708380D01*
Y638380D02*
X1022980D01*
X954030Y712380D02*
X960530D01*
X954030D02*
X954780Y708380D01*
X959780D02*
X960530Y712380D01*
X948980Y708380D02*
X954780D01*
X1011430Y712380D02*
X1012180Y708380D01*
X1017180D02*
X1017930Y712380D01*
X1011430D02*
X1017930D01*
X1017180Y708380D02*
X1022980D01*
X959780D02*
X1012180D01*
X914460Y725690D02*
Y777990D01*
Y725690D02*
X1023560D01*
Y777990D01*
X914460D02*
X1023560D01*
X1245700Y782880D02*
Y852880D01*
X1319700Y782880D02*
Y852880D01*
X1245700D02*
X1319700D01*
X1308150Y778880D02*
X1314650D01*
X1313900Y782880D02*
X1314650Y778880D01*
X1308150D02*
X1308900Y782880D01*
X1313900D02*
X1319700D01*
X1256500D02*
X1257250Y778880D01*
X1250750D02*
X1251500Y782880D01*
X1250750Y778880D02*
X1257250D01*
X1245700Y782880D02*
X1251500D01*
X1256500D02*
X1308900D01*
X1199760Y734430D02*
Y748930D01*
X1182760Y734430D02*
Y748930D01*
Y682360D02*
Y696860D01*
X1199760Y682360D02*
Y696860D01*
X975880Y795390D02*
X977380D01*
X975880Y809890D02*
X977380D01*
X966725Y899935D02*
X1001775D01*
Y834885D02*
Y899935D01*
X966725Y834885D02*
X1001775D01*
X966725D02*
Y899935D01*
X924990Y793160D02*
X946990D01*
X925043Y814737D02*
X947043D01*
X941660Y874190D02*
Y896190D01*
X920083Y874243D02*
Y896243D01*
X941660Y837360D02*
Y859360D01*
X920083Y837413D02*
Y859413D01*
D12*
X1282610Y674470D02*
Y686970D01*
X1334680Y674470D02*
Y686970D01*
D13*
X1319532Y692155D02*
X1324611D01*
X1327150Y694694D01*
Y704851D01*
X1324611Y707390D01*
X1319532D01*
X1316993Y704851D01*
Y694694D01*
X1319532Y692155D01*
X1311915Y707390D02*
Y692155D01*
X1301758Y707390D01*
Y692155D01*
X1273812Y693425D02*
X1278891D01*
X1281430Y695964D01*
Y706121D01*
X1278891Y708660D01*
X1273812D01*
X1271273Y706121D01*
Y695964D01*
X1273812Y693425D01*
X1256038D02*
X1266195D01*
Y701042D01*
X1261117D01*
X1266195D01*
Y708660D01*
X1240803Y693425D02*
X1250960D01*
Y701042D01*
X1245882D01*
X1250960D01*
Y708660D01*
X1225549Y1022352D02*
X1230628D01*
X1228088D01*
Y1035048D01*
X1230628Y1037588D01*
X1233167D01*
X1235706Y1035048D01*
X1210314Y1037588D02*
X1220471D01*
X1210314Y1027431D01*
Y1024892D01*
X1212853Y1022352D01*
X1217932D01*
X1220471Y1024892D01*
X1069340Y1022352D02*
X1074418D01*
X1071879D01*
Y1035048D01*
X1074418Y1037588D01*
X1076957D01*
X1079497Y1035048D01*
X1064262Y1037588D02*
X1059183D01*
X1061722D01*
Y1022352D01*
X1064262Y1024892D01*
X942338Y694692D02*
X943607Y695961D01*
Y698500D01*
X942338Y699770D01*
X937260D01*
X935990Y698500D01*
Y695961D01*
X937260Y694692D01*
X939799D01*
Y697231D01*
X935990Y692152D02*
X943607D01*
X935990Y687074D01*
X943607D01*
Y684535D02*
X935990D01*
Y680726D01*
X937260Y679457D01*
X942338D01*
X943607Y680726D01*
Y684535D01*
Y665480D02*
X938529D01*
X935990Y662941D01*
X938529Y660402D01*
X943607D01*
Y657862D02*
Y655323D01*
Y656593D01*
X935990D01*
Y657862D01*
Y655323D01*
Y651515D02*
X943607D01*
X935990Y646436D01*
X943607D01*
X1328425Y913130D02*
X1343660D01*
Y920748D01*
X1341121Y923287D01*
X1330964D01*
X1328425Y920748D01*
Y913130D01*
Y938522D02*
X1330964Y933443D01*
X1336042Y928365D01*
X1341121D01*
X1343660Y930904D01*
Y935983D01*
X1341121Y938522D01*
X1338582D01*
X1336042Y935983D01*
Y928365D01*
X1328425Y876300D02*
X1343660D01*
Y883917D01*
X1341121Y886457D01*
X1330964D01*
X1328425Y883917D01*
Y876300D01*
Y901692D02*
Y891535D01*
X1336042D01*
X1333503Y896613D01*
Y899153D01*
X1336042Y901692D01*
X1341121D01*
X1343660Y899153D01*
Y894074D01*
X1341121Y891535D01*
X1254762Y904241D02*
Y899163D01*
Y901702D01*
X1267458D01*
X1269997Y899163D01*
Y896623D01*
X1267458Y894084D01*
X1254762Y919476D02*
X1257302Y914398D01*
X1262380Y909319D01*
X1267458D01*
X1269997Y911858D01*
Y916937D01*
X1267458Y919476D01*
X1264919D01*
X1262380Y916937D01*
Y909319D01*
X1015188Y678459D02*
Y683538D01*
Y680998D01*
X1002492D01*
X999952Y683538D01*
Y686077D01*
X1002492Y688616D01*
X999952Y665763D02*
X1015188D01*
X1007570Y673381D01*
Y663224D01*
X901701Y768350D02*
Y765811D01*
Y767081D01*
X908049D01*
X909319Y765811D01*
Y764542D01*
X908049Y763272D01*
X902971Y770890D02*
X901701Y772159D01*
Y774698D01*
X902971Y775968D01*
X904240D01*
X905510Y774698D01*
Y773429D01*
Y774698D01*
X906780Y775968D01*
X908049D01*
X909319Y774698D01*
Y772159D01*
X908049Y770890D01*
X1328425Y824230D02*
X1343660D01*
Y831848D01*
X1341121Y834387D01*
X1330964D01*
X1328425Y831848D01*
Y824230D01*
X1330964Y839465D02*
X1328425Y842004D01*
Y847083D01*
X1330964Y849622D01*
X1333503D01*
X1336042Y847083D01*
Y844543D01*
Y847083D01*
X1338582Y849622D01*
X1341121D01*
X1343660Y847083D01*
Y842004D01*
X1341121Y839465D01*
X1328425Y784860D02*
X1343660D01*
Y792477D01*
X1341121Y795017D01*
X1330964D01*
X1328425Y792477D01*
Y784860D01*
X1343660Y810252D02*
Y800095D01*
X1333503Y810252D01*
X1330964D01*
X1328425Y807713D01*
Y802634D01*
X1330964Y800095D01*
X1253493Y814071D02*
Y808992D01*
Y811532D01*
X1266188D01*
X1268727Y808992D01*
Y806453D01*
X1266188Y803914D01*
X1253493Y829306D02*
Y819149D01*
X1261110D01*
X1258571Y824228D01*
Y826767D01*
X1261110Y829306D01*
X1266188D01*
X1268727Y826767D01*
Y821688D01*
X1266188Y819149D01*
X1177289Y736602D02*
X1169671D01*
Y740410D01*
X1170941Y741680D01*
X1173480D01*
X1174750Y740410D01*
Y736602D01*
Y739141D02*
X1177289Y741680D01*
Y744219D02*
Y746758D01*
Y745489D01*
X1169671D01*
X1170941Y744219D01*
X1177289Y683262D02*
X1169671D01*
Y687071D01*
X1170941Y688340D01*
X1173480D01*
X1174750Y687071D01*
Y683262D01*
Y685801D02*
X1177289Y688340D01*
Y695958D02*
Y690880D01*
X1172210Y695958D01*
X1170941D01*
X1169671Y694688D01*
Y692149D01*
X1170941Y690880D01*
X1005839Y798831D02*
X1007109Y797561D01*
X1009648D01*
X1010918Y798831D01*
Y803909D01*
X1009648Y805179D01*
X1007109D01*
X1005839Y803909D01*
X998222Y805179D02*
X1003300D01*
X998222Y800100D01*
Y798831D01*
X999492Y797561D01*
X1002031D01*
X1003300Y798831D01*
X989328Y905511D02*
Y911859D01*
X988059Y913129D01*
X985520D01*
X984250Y911859D01*
Y905511D01*
X981711Y913129D02*
X979172D01*
X980441D01*
Y905511D01*
X981711Y906781D01*
X913010Y801371D02*
X914280Y800101D01*
X916819D01*
X918088Y801371D01*
Y806449D01*
X916819Y807719D01*
X914280D01*
X913010Y806449D01*
X910471Y807719D02*
X907932D01*
X909201D01*
Y800101D01*
X910471Y801371D01*
X908051Y882650D02*
X906781Y881381D01*
Y878842D01*
X908051Y877572D01*
X913129D01*
X914399Y878842D01*
Y881381D01*
X913129Y882650D01*
X914399Y888998D02*
X906781D01*
X910590Y885190D01*
Y890268D01*
X908051Y847090D02*
X906781Y845821D01*
Y843282D01*
X908051Y842012D01*
X913129D01*
X914399Y843282D01*
Y845821D01*
X913129Y847090D01*
X908051Y849630D02*
X906781Y850899D01*
Y853438D01*
X908051Y854708D01*
X909320D01*
X910590Y853438D01*
Y852169D01*
Y853438D01*
X911860Y854708D01*
X913129D01*
X914399Y853438D01*
Y850899D01*
X913129Y849630D01*
M02*
