G04*
G04 #@! TF.GenerationSoftware,Altium Limited,Altium Designer,25.6.2 (33)*
G04*
G04 Layer_Physical_Order=2*
G04 Layer_Color=16711680*
%FSLAX44Y44*%
%MOMM*%
G71*
G04*
G04 #@! TF.SameCoordinates,E10141E4-A060-4BB7-8850-C9F2C3C4F881*
G04*
G04*
G04 #@! TF.FilePolarity,Positive*
G04*
G01*
G75*
%ADD23R,1.5900X1.5900*%
%ADD24C,1.5900*%
%ADD30C,0.3500*%
%ADD31C,1.5000*%
%ADD35C,1.9500*%
G04:AMPARAMS|DCode=36|XSize=1.95mm|YSize=1.95mm|CornerRadius=0.4875mm|HoleSize=0mm|Usage=FLASHONLY|Rotation=90.000|XOffset=0mm|YOffset=0mm|HoleType=Round|Shape=RoundedRectangle|*
%AMROUNDEDRECTD36*
21,1,1.9500,0.9750,0,0,90.0*
21,1,0.9750,1.9500,0,0,90.0*
1,1,0.9750,0.4875,0.4875*
1,1,0.9750,0.4875,-0.4875*
1,1,0.9750,-0.4875,-0.4875*
1,1,0.9750,-0.4875,0.4875*
%
%ADD36ROUNDEDRECTD36*%
%ADD37C,1.5000*%
G04:AMPARAMS|DCode=38|XSize=1.5mm|YSize=1.5mm|CornerRadius=0.375mm|HoleSize=0mm|Usage=FLASHONLY|Rotation=0.000|XOffset=0mm|YOffset=0mm|HoleType=Round|Shape=RoundedRectangle|*
%AMROUNDEDRECTD38*
21,1,1.5000,0.7500,0,0,0.0*
21,1,0.7500,1.5000,0,0,0.0*
1,1,0.7500,0.3750,-0.3750*
1,1,0.7500,-0.3750,-0.3750*
1,1,0.7500,-0.3750,0.3750*
1,1,0.7500,0.3750,0.3750*
%
%ADD38ROUNDEDRECTD38*%
%ADD39C,1.2700*%
G36*
X1351280Y1029970D02*
Y635000D01*
X1338580Y622300D01*
X911860D01*
X900430Y633730D01*
Y1029970D01*
X911860Y1041400D01*
X1339850D01*
X1351280Y1029970D01*
D02*
G37*
%LPC*%
G36*
X1230960Y1009980D02*
X1209980D01*
Y989000D01*
X1230960D01*
Y1009980D01*
D02*
G37*
G36*
X1078560D02*
X1057580D01*
Y989000D01*
X1078560D01*
Y1009980D01*
D02*
G37*
G36*
X1181000Y981710D02*
X1178660D01*
X1176399Y981104D01*
X1174371Y979934D01*
X1172716Y978279D01*
X1172090Y977194D01*
X1167130D01*
X1165456Y976861D01*
X1164037Y975913D01*
X1158968Y970844D01*
X1118990D01*
X1118364Y971929D01*
X1116709Y973584D01*
X1114681Y974754D01*
X1112420Y975360D01*
X1110080D01*
X1107819Y974754D01*
X1105791Y973584D01*
X1104136Y971929D01*
X1102966Y969901D01*
X1102360Y967640D01*
Y965300D01*
X1102966Y963039D01*
X1104136Y961011D01*
X1105791Y959356D01*
X1107819Y958186D01*
X1110080Y957580D01*
X1112420D01*
X1114681Y958186D01*
X1116709Y959356D01*
X1118364Y961011D01*
X1118990Y962096D01*
X1160780D01*
X1162454Y962429D01*
X1163873Y963377D01*
X1168942Y968446D01*
X1172090D01*
X1172716Y967361D01*
X1174371Y965706D01*
X1176399Y964536D01*
X1178660Y963930D01*
X1181000D01*
X1183261Y964536D01*
X1185289Y965706D01*
X1186944Y967361D01*
X1188114Y969389D01*
X1188720Y971650D01*
Y973990D01*
X1188114Y976251D01*
X1186944Y978279D01*
X1185289Y979934D01*
X1183261Y981104D01*
X1181000Y981710D01*
D02*
G37*
G36*
X1221851Y984580D02*
X1219089D01*
X1216421Y983865D01*
X1214029Y982484D01*
X1212076Y980531D01*
X1210695Y978139D01*
X1209980Y975471D01*
Y972709D01*
X1210695Y970041D01*
X1212076Y967649D01*
X1214029Y965696D01*
X1216421Y964315D01*
X1219089Y963600D01*
X1221851D01*
X1224519Y964315D01*
X1226911Y965696D01*
X1228864Y967649D01*
X1230245Y970041D01*
X1230960Y972709D01*
Y975471D01*
X1230245Y978139D01*
X1228864Y980531D01*
X1226911Y982484D01*
X1224519Y983865D01*
X1221851Y984580D01*
D02*
G37*
G36*
X1069451D02*
X1066689D01*
X1064021Y983865D01*
X1061629Y982484D01*
X1059676Y980531D01*
X1058295Y978139D01*
X1057580Y975471D01*
Y972709D01*
X1058295Y970041D01*
X1059676Y967649D01*
X1061629Y965696D01*
X1064021Y964315D01*
X1066689Y963600D01*
X1069451D01*
X1072119Y964315D01*
X1074511Y965696D01*
X1076464Y967649D01*
X1077845Y970041D01*
X1078560Y972709D01*
Y975471D01*
X1077845Y978139D01*
X1076464Y980531D01*
X1074511Y982484D01*
X1072119Y983865D01*
X1069451Y984580D01*
D02*
G37*
G36*
X1221851Y959180D02*
X1219089D01*
X1216421Y958465D01*
X1214029Y957084D01*
X1212076Y955131D01*
X1210695Y952739D01*
X1209980Y950071D01*
Y947309D01*
X1210695Y944641D01*
X1212076Y942249D01*
X1214029Y940296D01*
X1216421Y938915D01*
X1219089Y938200D01*
X1221851D01*
X1224519Y938915D01*
X1226911Y940296D01*
X1228864Y942249D01*
X1230245Y944641D01*
X1230960Y947309D01*
Y950071D01*
X1230245Y952739D01*
X1228864Y955131D01*
X1226911Y957084D01*
X1224519Y958465D01*
X1221851Y959180D01*
D02*
G37*
G36*
X1069451D02*
X1066689D01*
X1064021Y958465D01*
X1061629Y957084D01*
X1059676Y955131D01*
X1058295Y952739D01*
X1057580Y950071D01*
Y947309D01*
X1058295Y944641D01*
X1059676Y942249D01*
X1061629Y940296D01*
X1064021Y938915D01*
X1066689Y938200D01*
X1069451D01*
X1072119Y938915D01*
X1074511Y940296D01*
X1076464Y942249D01*
X1077845Y944641D01*
X1078560Y947309D01*
Y950071D01*
X1077845Y952739D01*
X1076464Y955131D01*
X1074511Y957084D01*
X1072119Y958465D01*
X1069451Y959180D01*
D02*
G37*
G36*
X1289398Y939390D02*
X1286162D01*
X1283036Y938552D01*
X1280234Y936934D01*
X1277946Y934646D01*
X1276328Y931844D01*
X1275490Y928718D01*
Y925482D01*
X1276328Y922356D01*
X1277946Y919554D01*
X1280234Y917266D01*
X1283036Y915648D01*
X1286162Y914810D01*
X1289398D01*
X1292524Y915648D01*
X1295326Y917266D01*
X1297614Y919554D01*
X1299232Y922356D01*
X1300070Y925482D01*
Y928718D01*
X1299232Y931844D01*
X1297614Y934646D01*
X1295326Y936934D01*
X1292524Y938552D01*
X1289398Y939390D01*
D02*
G37*
G36*
X1221851Y933780D02*
X1219089D01*
X1216421Y933065D01*
X1214029Y931684D01*
X1212076Y929731D01*
X1210695Y927339D01*
X1209980Y924671D01*
Y921909D01*
X1210695Y919241D01*
X1212076Y916849D01*
X1214029Y914896D01*
X1216421Y913515D01*
X1219089Y912800D01*
X1221851D01*
X1224519Y913515D01*
X1226911Y914896D01*
X1228864Y916849D01*
X1230245Y919241D01*
X1230960Y921909D01*
Y924671D01*
X1230245Y927339D01*
X1228864Y929731D01*
X1226911Y931684D01*
X1224519Y933065D01*
X1221851Y933780D01*
D02*
G37*
G36*
X1069451D02*
X1066689D01*
X1064021Y933065D01*
X1061629Y931684D01*
X1059676Y929731D01*
X1058295Y927339D01*
X1057580Y924671D01*
Y921909D01*
X1058295Y919241D01*
X1059676Y916849D01*
X1061629Y914896D01*
X1064021Y913515D01*
X1066689Y912800D01*
X1069451D01*
X1072119Y913515D01*
X1074511Y914896D01*
X1076464Y916849D01*
X1077845Y919241D01*
X1078560Y921909D01*
Y924671D01*
X1077845Y927339D01*
X1076464Y929731D01*
X1074511Y931684D01*
X1072119Y933065D01*
X1069451Y933780D01*
D02*
G37*
G36*
X1221851Y908380D02*
X1219089D01*
X1216421Y907665D01*
X1214029Y906284D01*
X1212076Y904331D01*
X1210882Y902264D01*
X1205230D01*
X1203556Y901931D01*
X1202137Y900983D01*
X1190718Y889564D01*
X1108299D01*
X1107673Y890649D01*
X1106018Y892304D01*
X1103991Y893474D01*
X1101730Y894080D01*
X1099389D01*
X1097128Y893474D01*
X1095101Y892304D01*
X1093446Y890649D01*
X1092275Y888621D01*
X1091669Y886360D01*
Y884020D01*
X1092275Y881759D01*
X1093446Y879731D01*
X1095101Y878076D01*
X1097128Y876906D01*
X1099389Y876300D01*
X1101730D01*
X1103991Y876906D01*
X1106018Y878076D01*
X1107673Y879731D01*
X1108299Y880816D01*
X1192530D01*
X1194204Y881149D01*
X1195623Y882097D01*
X1207042Y893516D01*
X1210882D01*
X1212076Y891449D01*
X1214029Y889496D01*
X1216421Y888115D01*
X1219089Y887400D01*
X1221851D01*
X1224519Y888115D01*
X1226911Y889496D01*
X1228864Y891449D01*
X1230245Y893841D01*
X1230960Y896509D01*
Y899271D01*
X1230245Y901939D01*
X1228864Y904331D01*
X1226911Y906284D01*
X1224519Y907665D01*
X1221851Y908380D01*
D02*
G37*
G36*
X1069451D02*
X1066689D01*
X1064021Y907665D01*
X1061629Y906284D01*
X1059676Y904331D01*
X1058295Y901939D01*
X1057580Y899271D01*
Y896509D01*
X1058295Y893841D01*
X1059676Y891449D01*
X1061629Y889496D01*
X1064021Y888115D01*
X1066689Y887400D01*
X1069451D01*
X1072119Y888115D01*
X1074511Y889496D01*
X1076464Y891449D01*
X1077845Y893841D01*
X1078560Y896509D01*
Y899271D01*
X1077845Y901939D01*
X1076464Y904331D01*
X1074511Y906284D01*
X1072119Y907665D01*
X1069451Y908380D01*
D02*
G37*
G36*
X1292655Y904454D02*
X1282905D01*
X1280969Y904199D01*
X1279165Y903452D01*
X1277617Y902263D01*
X1276428Y900714D01*
X1275681Y898911D01*
X1275426Y896975D01*
Y887225D01*
X1275681Y885289D01*
X1276428Y883485D01*
X1277617Y881937D01*
X1279165Y880748D01*
X1280969Y880001D01*
X1282905Y879746D01*
X1292655D01*
X1294591Y880001D01*
X1296395Y880748D01*
X1297943Y881937D01*
X1299132Y883485D01*
X1299879Y885289D01*
X1300134Y887225D01*
Y896975D01*
X1299879Y898911D01*
X1299132Y900714D01*
X1297943Y902263D01*
X1296395Y903452D01*
X1294591Y904199D01*
X1292655Y904454D01*
D02*
G37*
G36*
X1221851Y882980D02*
X1219089D01*
X1216421Y882265D01*
X1214029Y880884D01*
X1212076Y878931D01*
X1210882Y876864D01*
X1198880D01*
X1197206Y876531D01*
X1195787Y875583D01*
X1184368Y864164D01*
X1144270D01*
X1142596Y863831D01*
X1141177Y862883D01*
X1128870Y850576D01*
X1127660Y850900D01*
X1125320D01*
X1123059Y850294D01*
X1121031Y849124D01*
X1119376Y847469D01*
X1118206Y845441D01*
X1117600Y843180D01*
Y840840D01*
X1118206Y838579D01*
X1119376Y836551D01*
X1121031Y834896D01*
X1123059Y833726D01*
X1125320Y833120D01*
X1127660D01*
X1129921Y833726D01*
X1131949Y834896D01*
X1133604Y836551D01*
X1134774Y838579D01*
X1135380Y840840D01*
Y843180D01*
X1135056Y844390D01*
X1146082Y855416D01*
X1186180D01*
X1187854Y855749D01*
X1189273Y856697D01*
X1200692Y868116D01*
X1210882D01*
X1212076Y866049D01*
X1214029Y864096D01*
X1216421Y862715D01*
X1219089Y862000D01*
X1221851D01*
X1224519Y862715D01*
X1226911Y864096D01*
X1228864Y866049D01*
X1230245Y868441D01*
X1230960Y871109D01*
Y873871D01*
X1230245Y876539D01*
X1228864Y878931D01*
X1226911Y880884D01*
X1224519Y882265D01*
X1221851Y882980D01*
D02*
G37*
G36*
X1069451D02*
X1066689D01*
X1064021Y882265D01*
X1061629Y880884D01*
X1059676Y878931D01*
X1058295Y876539D01*
X1057580Y873871D01*
Y871109D01*
X1058295Y868441D01*
X1059676Y866049D01*
X1061629Y864096D01*
X1064021Y862715D01*
X1066689Y862000D01*
X1069451D01*
X1072119Y862715D01*
X1074511Y864096D01*
X1076464Y866049D01*
X1077845Y868441D01*
X1078560Y871109D01*
Y873871D01*
X1077845Y876539D01*
X1076464Y878931D01*
X1074511Y880884D01*
X1072119Y882265D01*
X1069451Y882980D01*
D02*
G37*
G36*
X1221851Y857580D02*
X1219089D01*
X1216421Y856865D01*
X1214029Y855484D01*
X1212076Y853531D01*
X1210695Y851139D01*
X1209980Y848471D01*
Y845709D01*
X1210695Y843041D01*
X1212076Y840649D01*
X1214029Y838696D01*
X1216421Y837315D01*
X1219089Y836600D01*
X1221851D01*
X1224519Y837315D01*
X1226911Y838696D01*
X1228864Y840649D01*
X1230245Y843041D01*
X1230960Y845709D01*
Y848471D01*
X1230245Y851139D01*
X1228864Y853531D01*
X1226911Y855484D01*
X1224519Y856865D01*
X1221851Y857580D01*
D02*
G37*
G36*
X1069451D02*
X1066689D01*
X1064021Y856865D01*
X1061629Y855484D01*
X1059676Y853531D01*
X1058295Y851139D01*
X1057580Y848471D01*
Y845709D01*
X1058295Y843041D01*
X1059676Y840649D01*
X1061629Y838696D01*
X1064021Y837315D01*
X1066689Y836600D01*
X1069451D01*
X1072119Y837315D01*
X1074511Y838696D01*
X1076464Y840649D01*
X1077845Y843041D01*
X1078560Y845709D01*
Y848471D01*
X1077845Y851139D01*
X1076464Y853531D01*
X1074511Y855484D01*
X1072119Y856865D01*
X1069451Y857580D01*
D02*
G37*
G36*
X1287318Y847670D02*
X1284082D01*
X1280956Y846832D01*
X1278154Y845214D01*
X1275865Y842926D01*
X1274248Y840124D01*
X1273410Y836998D01*
Y833762D01*
X1274248Y830636D01*
X1275865Y827834D01*
X1278154Y825546D01*
X1280956Y823928D01*
X1284082Y823090D01*
X1287318D01*
X1290444Y823928D01*
X1293246Y825546D01*
X1295534Y827834D01*
X1297152Y830636D01*
X1297990Y833762D01*
Y836998D01*
X1297152Y840124D01*
X1295534Y842926D01*
X1293246Y845214D01*
X1290444Y846832D01*
X1287318Y847670D01*
D02*
G37*
G36*
X1221851Y832180D02*
X1219089D01*
X1216421Y831465D01*
X1214029Y830084D01*
X1212076Y828131D01*
X1210695Y825739D01*
X1209980Y823071D01*
Y820309D01*
X1210695Y817641D01*
X1212076Y815249D01*
X1214029Y813296D01*
X1216421Y811915D01*
X1219089Y811200D01*
X1221851D01*
X1224519Y811915D01*
X1226911Y813296D01*
X1228864Y815249D01*
X1230245Y817641D01*
X1230960Y820309D01*
Y823071D01*
X1230245Y825739D01*
X1228864Y828131D01*
X1226911Y830084D01*
X1224519Y831465D01*
X1221851Y832180D01*
D02*
G37*
G36*
X1069451D02*
X1066689D01*
X1064021Y831465D01*
X1061629Y830084D01*
X1059676Y828131D01*
X1058295Y825739D01*
X1057580Y823071D01*
Y820309D01*
X1058295Y817641D01*
X1059676Y815249D01*
X1061629Y813296D01*
X1064021Y811915D01*
X1066689Y811200D01*
X1069451D01*
X1072119Y811915D01*
X1074511Y813296D01*
X1076464Y815249D01*
X1077845Y817641D01*
X1078560Y820309D01*
Y823071D01*
X1077845Y825739D01*
X1076464Y828131D01*
X1074511Y830084D01*
X1072119Y831465D01*
X1069451Y832180D01*
D02*
G37*
G36*
X1290575Y812734D02*
X1280825D01*
X1278889Y812479D01*
X1277085Y811732D01*
X1275537Y810543D01*
X1274348Y808995D01*
X1273601Y807191D01*
X1273346Y805255D01*
Y795505D01*
X1273601Y793569D01*
X1274348Y791766D01*
X1275537Y790217D01*
X1277085Y789028D01*
X1278889Y788281D01*
X1280825Y788026D01*
X1290575D01*
X1292511Y788281D01*
X1294315Y789028D01*
X1295863Y790217D01*
X1297052Y791766D01*
X1297799Y793569D01*
X1298054Y795505D01*
Y805255D01*
X1297799Y807191D01*
X1297052Y808995D01*
X1295863Y810543D01*
X1294315Y811732D01*
X1292511Y812479D01*
X1290575Y812734D01*
D02*
G37*
G36*
X1221851Y806780D02*
X1219089D01*
X1216421Y806065D01*
X1214029Y804684D01*
X1212076Y802731D01*
X1210695Y800339D01*
X1209980Y797671D01*
Y794909D01*
X1210695Y792241D01*
X1212076Y789849D01*
X1214029Y787896D01*
X1216421Y786515D01*
X1219089Y785800D01*
X1221851D01*
X1224519Y786515D01*
X1226911Y787896D01*
X1228864Y789849D01*
X1230245Y792241D01*
X1230960Y794909D01*
Y797671D01*
X1230245Y800339D01*
X1228864Y802731D01*
X1226911Y804684D01*
X1224519Y806065D01*
X1221851Y806780D01*
D02*
G37*
G36*
X1069451D02*
X1066689D01*
X1064021Y806065D01*
X1061629Y804684D01*
X1059676Y802731D01*
X1058295Y800339D01*
X1057580Y797671D01*
Y794909D01*
X1058295Y792241D01*
X1059676Y789849D01*
X1061629Y787896D01*
X1064021Y786515D01*
X1066689Y785800D01*
X1069451D01*
X1072119Y786515D01*
X1074511Y787896D01*
X1076464Y789849D01*
X1077845Y792241D01*
X1078560Y794909D01*
Y797671D01*
X1077845Y800339D01*
X1076464Y802731D01*
X1074511Y804684D01*
X1072119Y806065D01*
X1069451Y806780D01*
D02*
G37*
G36*
X1221851Y781380D02*
X1219089D01*
X1216421Y780665D01*
X1214029Y779284D01*
X1212076Y777331D01*
X1210695Y774939D01*
X1209980Y772271D01*
Y769509D01*
X1210695Y766841D01*
X1212076Y764449D01*
X1214029Y762496D01*
X1216421Y761115D01*
X1219089Y760400D01*
X1221851D01*
X1224519Y761115D01*
X1226911Y762496D01*
X1228864Y764449D01*
X1230245Y766841D01*
X1230960Y769509D01*
Y772271D01*
X1230245Y774939D01*
X1228864Y777331D01*
X1226911Y779284D01*
X1224519Y780665D01*
X1221851Y781380D01*
D02*
G37*
G36*
X1069451D02*
X1066689D01*
X1064021Y780665D01*
X1061629Y779284D01*
X1059676Y777331D01*
X1058295Y774939D01*
X1057580Y772271D01*
Y769509D01*
X1058295Y766841D01*
X1059676Y764449D01*
X1061629Y762496D01*
X1064021Y761115D01*
X1066689Y760400D01*
X1069451D01*
X1072119Y761115D01*
X1074511Y762496D01*
X1076464Y764449D01*
X1077845Y766841D01*
X1078560Y769509D01*
Y772271D01*
X1077845Y774939D01*
X1076464Y777331D01*
X1074511Y779284D01*
X1072119Y780665D01*
X1069451Y781380D01*
D02*
G37*
G36*
X1008432Y774580D02*
X1005788D01*
X1003235Y773896D01*
X1000945Y772574D01*
X999076Y770705D01*
X997754Y768415D01*
X997070Y765862D01*
Y763218D01*
X997754Y760665D01*
X999076Y758375D01*
X1000945Y756506D01*
X1003235Y755184D01*
X1005788Y754500D01*
X1008432D01*
X1010985Y755184D01*
X1013275Y756506D01*
X1015144Y758375D01*
X1016466Y760665D01*
X1017150Y763218D01*
Y765862D01*
X1016466Y768415D01*
X1015144Y770705D01*
X1013275Y772574D01*
X1010985Y773896D01*
X1008432Y774580D01*
D02*
G37*
G36*
X983032D02*
X980388D01*
X977835Y773896D01*
X975545Y772574D01*
X973676Y770705D01*
X972354Y768415D01*
X971670Y765862D01*
Y763218D01*
X972354Y760665D01*
X973676Y758375D01*
X975545Y756506D01*
X977835Y755184D01*
X980388Y754500D01*
X983032D01*
X985585Y755184D01*
X987875Y756506D01*
X989744Y758375D01*
X991066Y760665D01*
X991750Y763218D01*
Y765862D01*
X991066Y768415D01*
X989744Y770705D01*
X987875Y772574D01*
X985585Y773896D01*
X983032Y774580D01*
D02*
G37*
G36*
X957632D02*
X954988D01*
X952435Y773896D01*
X950145Y772574D01*
X948276Y770705D01*
X946954Y768415D01*
X946270Y765862D01*
Y763218D01*
X946954Y760665D01*
X948276Y758375D01*
X950145Y756506D01*
X952435Y755184D01*
X954988Y754500D01*
X957632D01*
X960185Y755184D01*
X962475Y756506D01*
X964344Y758375D01*
X965666Y760665D01*
X966350Y763218D01*
Y765862D01*
X965666Y768415D01*
X964344Y770705D01*
X962475Y772574D01*
X960185Y773896D01*
X957632Y774580D01*
D02*
G37*
G36*
X932232D02*
X929588D01*
X927035Y773896D01*
X924745Y772574D01*
X922876Y770705D01*
X921554Y768415D01*
X920870Y765862D01*
Y763218D01*
X921554Y760665D01*
X922876Y758375D01*
X924745Y756506D01*
X927035Y755184D01*
X929588Y754500D01*
X932232D01*
X934785Y755184D01*
X937075Y756506D01*
X938944Y758375D01*
X940266Y760665D01*
X940950Y763218D01*
Y765862D01*
X940266Y768415D01*
X938944Y770705D01*
X937075Y772574D01*
X934785Y773896D01*
X932232Y774580D01*
D02*
G37*
G36*
X934660Y749303D02*
X932180D01*
Y740410D01*
X941073D01*
Y742890D01*
X940585Y745344D01*
X939195Y747425D01*
X937114Y748815D01*
X934660Y749303D01*
D02*
G37*
G36*
X929640D02*
X927160D01*
X924706Y748815D01*
X922625Y747425D01*
X921235Y745344D01*
X920747Y742890D01*
Y740410D01*
X929640D01*
Y749303D01*
D02*
G37*
G36*
X1221851Y755980D02*
X1219089D01*
X1216421Y755265D01*
X1214029Y753884D01*
X1212076Y751931D01*
X1210695Y749539D01*
X1209980Y746871D01*
Y744109D01*
X1210695Y741441D01*
X1212076Y739049D01*
X1214029Y737096D01*
X1216421Y735715D01*
X1219089Y735000D01*
X1221851D01*
X1224519Y735715D01*
X1226911Y737096D01*
X1228864Y739049D01*
X1230245Y741441D01*
X1230960Y744109D01*
Y746871D01*
X1230245Y749539D01*
X1228864Y751931D01*
X1226911Y753884D01*
X1224519Y755265D01*
X1221851Y755980D01*
D02*
G37*
G36*
X1069451D02*
X1066689D01*
X1064021Y755265D01*
X1061629Y753884D01*
X1059676Y751931D01*
X1058295Y749539D01*
X1057580Y746871D01*
Y744109D01*
X1058295Y741441D01*
X1059676Y739049D01*
X1061629Y737096D01*
X1064021Y735715D01*
X1066689Y735000D01*
X1069451D01*
X1072119Y735715D01*
X1074511Y737096D01*
X1076464Y739049D01*
X1077845Y741441D01*
X1078560Y744109D01*
Y746871D01*
X1077845Y749539D01*
X1076464Y751931D01*
X1074511Y753884D01*
X1072119Y755265D01*
X1069451Y755980D01*
D02*
G37*
G36*
X1008432Y749180D02*
X1005788D01*
X1003235Y748496D01*
X1000945Y747174D01*
X999076Y745305D01*
X997754Y743015D01*
X997070Y740462D01*
Y737818D01*
X997754Y735265D01*
X999076Y732975D01*
X1000945Y731106D01*
X1003235Y729784D01*
X1005788Y729100D01*
X1008432D01*
X1010985Y729784D01*
X1013275Y731106D01*
X1015144Y732975D01*
X1016466Y735265D01*
X1017150Y737818D01*
Y740462D01*
X1016466Y743015D01*
X1015144Y745305D01*
X1013275Y747174D01*
X1010985Y748496D01*
X1008432Y749180D01*
D02*
G37*
G36*
X983032D02*
X980388D01*
X977835Y748496D01*
X975545Y747174D01*
X973676Y745305D01*
X972354Y743015D01*
X971670Y740462D01*
Y737818D01*
X972354Y735265D01*
X973676Y732975D01*
X975545Y731106D01*
X977835Y729784D01*
X980388Y729100D01*
X983032D01*
X985585Y729784D01*
X987875Y731106D01*
X989744Y732975D01*
X991066Y735265D01*
X991750Y737818D01*
Y740462D01*
X991066Y743015D01*
X989744Y745305D01*
X987875Y747174D01*
X985585Y748496D01*
X983032Y749180D01*
D02*
G37*
G36*
X957632D02*
X954988D01*
X952435Y748496D01*
X950145Y747174D01*
X948276Y745305D01*
X946954Y743015D01*
X946270Y740462D01*
Y737818D01*
X946954Y735265D01*
X948276Y732975D01*
X950145Y731106D01*
X952435Y729784D01*
X954988Y729100D01*
X957632D01*
X960185Y729784D01*
X962475Y731106D01*
X964344Y732975D01*
X965666Y735265D01*
X966350Y737818D01*
Y740462D01*
X965666Y743015D01*
X964344Y745305D01*
X962475Y747174D01*
X960185Y748496D01*
X957632Y749180D01*
D02*
G37*
G36*
X941073Y737870D02*
X932180D01*
Y728977D01*
X934660D01*
X937114Y729465D01*
X939195Y730855D01*
X940585Y732936D01*
X941073Y735390D01*
Y737870D01*
D02*
G37*
G36*
X929640D02*
X920747D01*
Y735390D01*
X921235Y732936D01*
X922625Y730855D01*
X924706Y729465D01*
X927160Y728977D01*
X929640D01*
Y737870D01*
D02*
G37*
G36*
X1221851Y730580D02*
X1221740D01*
Y721360D01*
X1230960D01*
Y721471D01*
X1230245Y724139D01*
X1228864Y726531D01*
X1226911Y728484D01*
X1224519Y729865D01*
X1221851Y730580D01*
D02*
G37*
G36*
X1219200D02*
X1219089D01*
X1216421Y729865D01*
X1214029Y728484D01*
X1212076Y726531D01*
X1210695Y724139D01*
X1209980Y721471D01*
Y721360D01*
X1219200D01*
Y730580D01*
D02*
G37*
G36*
X1230960Y718820D02*
X1221740D01*
Y709600D01*
X1221851D01*
X1224519Y710315D01*
X1226911Y711696D01*
X1228864Y713649D01*
X1230245Y716041D01*
X1230960Y718709D01*
Y718820D01*
D02*
G37*
G36*
X1219200D02*
X1209980D01*
Y718709D01*
X1210695Y716041D01*
X1212076Y713649D01*
X1214029Y711696D01*
X1216421Y710315D01*
X1219089Y709600D01*
X1219200D01*
Y718820D01*
D02*
G37*
G36*
X1027533Y829277D02*
X1027533Y829277D01*
X1026160D01*
X1023539Y828932D01*
X1021097Y827920D01*
X1018999Y826311D01*
X1017390Y824213D01*
X1016378Y821771D01*
X1016033Y819150D01*
X1016378Y816529D01*
X1017390Y814087D01*
X1018999Y811989D01*
X1021097Y810380D01*
X1022608Y809754D01*
X1026193Y806169D01*
Y730250D01*
X1026193Y730250D01*
X1026498Y727934D01*
X1026538Y727629D01*
X1027550Y725187D01*
X1029159Y723089D01*
X1039147Y713102D01*
X1039147Y713102D01*
X1041245Y711492D01*
X1043687Y710481D01*
X1046308Y710136D01*
X1064690D01*
X1066689Y709600D01*
X1069451D01*
X1072119Y710315D01*
X1074511Y711696D01*
X1076464Y713649D01*
X1077845Y716041D01*
X1078560Y718709D01*
Y721471D01*
X1077845Y724139D01*
X1076464Y726531D01*
X1074511Y728484D01*
X1072119Y729865D01*
X1069451Y730580D01*
X1066689D01*
X1065975Y730389D01*
X1050502D01*
X1046447Y734445D01*
Y810363D01*
X1046447Y810363D01*
X1046142Y812679D01*
X1046102Y812984D01*
X1045683Y813996D01*
X1045090Y815426D01*
X1044715Y815915D01*
X1043481Y817524D01*
X1043481Y817524D01*
X1034694Y826311D01*
X1032597Y827920D01*
X1030154Y828932D01*
X1029849Y828972D01*
X1027533Y829277D01*
D02*
G37*
G36*
X987855Y703234D02*
X984250D01*
Y692150D01*
X995334D01*
Y695755D01*
X995079Y697691D01*
X994332Y699494D01*
X993143Y701043D01*
X991594Y702232D01*
X989791Y702979D01*
X987855Y703234D01*
D02*
G37*
G36*
X981710D02*
X978105D01*
X976169Y702979D01*
X974365Y702232D01*
X972817Y701043D01*
X971628Y699494D01*
X970881Y697691D01*
X970626Y695755D01*
Y692150D01*
X981710D01*
Y703234D01*
D02*
G37*
G36*
X1221851Y705180D02*
X1219089D01*
X1216421Y704465D01*
X1214029Y703084D01*
X1212076Y701131D01*
X1210695Y698739D01*
X1209980Y696071D01*
Y693309D01*
X1210695Y690641D01*
X1212076Y688249D01*
X1214029Y686296D01*
X1216421Y684915D01*
X1219089Y684200D01*
X1221851D01*
X1224519Y684915D01*
X1226911Y686296D01*
X1228864Y688249D01*
X1230245Y690641D01*
X1230960Y693309D01*
Y696071D01*
X1230245Y698739D01*
X1228864Y701131D01*
X1226911Y703084D01*
X1224519Y704465D01*
X1221851Y705180D01*
D02*
G37*
G36*
X1069451D02*
X1066689D01*
X1064021Y704465D01*
X1061629Y703084D01*
X1059676Y701131D01*
X1058295Y698739D01*
X1057580Y696071D01*
Y693309D01*
X1058295Y690641D01*
X1059676Y688249D01*
X1061629Y686296D01*
X1064021Y684915D01*
X1066689Y684200D01*
X1069451D01*
X1072119Y684915D01*
X1074511Y686296D01*
X1076464Y688249D01*
X1077845Y690641D01*
X1078560Y693309D01*
Y696071D01*
X1077845Y698739D01*
X1076464Y701131D01*
X1074511Y703084D01*
X1072119Y704465D01*
X1069451Y705180D01*
D02*
G37*
G36*
X995334Y689610D02*
X984250D01*
Y678526D01*
X987855D01*
X989791Y678781D01*
X991594Y679528D01*
X993143Y680717D01*
X994332Y682265D01*
X995079Y684069D01*
X995334Y686005D01*
Y689610D01*
D02*
G37*
G36*
X981710D02*
X970626D01*
Y686005D01*
X970881Y684069D01*
X971628Y682265D01*
X972817Y680717D01*
X974365Y679528D01*
X976169Y678781D01*
X978105Y678526D01*
X981710D01*
Y689610D01*
D02*
G37*
G36*
X1069451Y679780D02*
X1069340D01*
Y670560D01*
X1078560D01*
Y670671D01*
X1077845Y673339D01*
X1076464Y675731D01*
X1074511Y677684D01*
X1072119Y679065D01*
X1069451Y679780D01*
D02*
G37*
G36*
X1066800D02*
X1066689D01*
X1064021Y679065D01*
X1061629Y677684D01*
X1059676Y675731D01*
X1058295Y673339D01*
X1057580Y670671D01*
Y670560D01*
X1066800D01*
Y679780D01*
D02*
G37*
G36*
X1221851D02*
X1219089D01*
X1216421Y679065D01*
X1214029Y677684D01*
X1212076Y675731D01*
X1210695Y673339D01*
X1209980Y670671D01*
Y667909D01*
X1210695Y665241D01*
X1212076Y662849D01*
X1214029Y660896D01*
X1216421Y659515D01*
X1219089Y658800D01*
X1221851D01*
X1224519Y659515D01*
X1226911Y660896D01*
X1228864Y662849D01*
X1230245Y665241D01*
X1230960Y667909D01*
Y670671D01*
X1230245Y673339D01*
X1228864Y675731D01*
X1226911Y677684D01*
X1224519Y679065D01*
X1221851Y679780D01*
D02*
G37*
G36*
X1078560Y668020D02*
X1069340D01*
Y658800D01*
X1069451D01*
X1072119Y659515D01*
X1074511Y660896D01*
X1076464Y662849D01*
X1077845Y665241D01*
X1078560Y667909D01*
Y668020D01*
D02*
G37*
G36*
X1066800D02*
X1057580D01*
Y667909D01*
X1058295Y665241D01*
X1059676Y662849D01*
X1061629Y660896D01*
X1064021Y659515D01*
X1066689Y658800D01*
X1066800D01*
Y668020D01*
D02*
G37*
G36*
X984598Y668170D02*
X981362D01*
X978236Y667333D01*
X975434Y665714D01*
X973146Y663426D01*
X971527Y660624D01*
X970690Y657498D01*
Y654262D01*
X971527Y651136D01*
X973146Y648334D01*
X975434Y646046D01*
X978236Y644428D01*
X981362Y643590D01*
X984598D01*
X987724Y644428D01*
X990526Y646046D01*
X992814Y648334D01*
X994433Y651136D01*
X995270Y654262D01*
Y657498D01*
X994433Y660624D01*
X992814Y663426D01*
X990526Y665714D01*
X987724Y667333D01*
X984598Y668170D01*
D02*
G37*
G36*
X1221851Y654380D02*
X1219089D01*
X1216421Y653665D01*
X1214029Y652284D01*
X1212076Y650331D01*
X1210695Y647939D01*
X1209980Y645271D01*
Y642509D01*
X1210695Y639841D01*
X1212076Y637449D01*
X1214029Y635496D01*
X1216421Y634115D01*
X1219089Y633400D01*
X1221851D01*
X1224519Y634115D01*
X1226911Y635496D01*
X1228864Y637449D01*
X1230245Y639841D01*
X1230960Y642509D01*
Y645271D01*
X1230245Y647939D01*
X1228864Y650331D01*
X1226911Y652284D01*
X1224519Y653665D01*
X1221851Y654380D01*
D02*
G37*
G36*
X1069451D02*
X1066689D01*
X1064021Y653665D01*
X1061629Y652284D01*
X1059676Y650331D01*
X1058295Y647939D01*
X1057580Y645271D01*
Y642509D01*
X1058295Y639841D01*
X1059676Y637449D01*
X1061629Y635496D01*
X1064021Y634115D01*
X1066689Y633400D01*
X1069451D01*
X1072119Y634115D01*
X1074511Y635496D01*
X1076464Y637449D01*
X1077845Y639841D01*
X1078560Y642509D01*
Y645271D01*
X1077845Y647939D01*
X1076464Y650331D01*
X1074511Y652284D01*
X1072119Y653665D01*
X1069451Y654380D01*
D02*
G37*
%LPD*%
D23*
X1220470Y999490D02*
D03*
X1068070D02*
D03*
D24*
X1220470Y974090D02*
D03*
Y948690D02*
D03*
Y923290D02*
D03*
Y897890D02*
D03*
Y872490D02*
D03*
Y847090D02*
D03*
Y821690D02*
D03*
Y796290D02*
D03*
Y770890D02*
D03*
Y745490D02*
D03*
Y720090D02*
D03*
Y694690D02*
D03*
Y669290D02*
D03*
Y643890D02*
D03*
X1068070Y974090D02*
D03*
Y948690D02*
D03*
Y923290D02*
D03*
Y897890D02*
D03*
Y872490D02*
D03*
Y847090D02*
D03*
Y821690D02*
D03*
Y796290D02*
D03*
Y770890D02*
D03*
Y745490D02*
D03*
Y720090D02*
D03*
Y694690D02*
D03*
Y669290D02*
D03*
Y643890D02*
D03*
D30*
X1167130Y972820D02*
X1179830D01*
X1111250Y966470D02*
X1160780D01*
X1167130Y972820D01*
X1144270Y859790D02*
X1186180D01*
X1198880Y872490D02*
X1220470D01*
X1186180Y859790D02*
X1198880Y872490D01*
X1126490Y842010D02*
X1144270Y859790D01*
X1205230Y897890D02*
X1220470D01*
X1192530Y885190D02*
X1205230Y897890D01*
X1100559Y885190D02*
X1192530D01*
D31*
X1026160Y819150D02*
X1027533D01*
X1036320Y810363D01*
Y730250D02*
Y810363D01*
Y730250D02*
X1046308Y720262D01*
X1067898D01*
X1068070Y720090D01*
D35*
X1287780Y927100D02*
D03*
X982980Y655880D02*
D03*
X1285700Y835380D02*
D03*
D36*
X1287780Y892100D02*
D03*
X982980Y690880D02*
D03*
X1285700Y800380D02*
D03*
D37*
X1007110Y764540D02*
D03*
X981710D02*
D03*
X1007110Y739140D02*
D03*
X981710D02*
D03*
X956310Y764540D02*
D03*
Y739140D02*
D03*
X930910Y764540D02*
D03*
D38*
Y739140D02*
D03*
D39*
X1179830Y972820D02*
D03*
X1026160Y819150D02*
D03*
X1111250Y966470D02*
D03*
X1100559Y885190D02*
D03*
X1126490Y842010D02*
D03*
M02*
