G04*
G04 #@! TF.GenerationSoftware,Altium Limited,Altium Designer,25.6.2 (33)*
G04*
G04 Layer_Color=16711935*
%FSLAX44Y44*%
%MOMM*%
G71*
G04*
G04 #@! TF.SameCoordinates,E10141E4-A060-4BB7-8850-C9F2C3C4F881*
G04*
G04*
G04 #@! TF.FilePolarity,Positive*
G04*
G01*
G75*
%ADD11C,0.2000*%
%ADD41C,0.1000*%
D11*
X1233170Y627390D02*
Y1015990D01*
X1207770Y627390D02*
X1233170D01*
X1207770D02*
Y1015990D01*
X1233170D01*
X1080770Y627390D02*
Y1015990D01*
X1055370Y627390D02*
X1080770D01*
X1055370D02*
Y1015990D01*
X1080770D01*
X1199760Y725680D02*
Y757680D01*
X1182760Y725680D02*
X1199760D01*
X1182760D02*
Y757680D01*
X1199760D01*
X1182760Y673610D02*
Y705610D01*
X1199760D01*
Y673610D02*
Y705610D01*
X1182760Y673610D02*
X1199760D01*
X965630Y795390D02*
X987630D01*
X965630D02*
Y809890D01*
X987630D01*
Y795390D02*
Y809890D01*
X966725Y899935D02*
X1001775D01*
Y834885D02*
Y899935D01*
X966725Y834885D02*
X1001775D01*
X966725D02*
Y899935D01*
X924990Y796660D02*
X946990D01*
X924990D02*
Y811160D01*
X946990D01*
Y796660D02*
Y811160D01*
X938160Y874190D02*
Y896190D01*
X923660Y874190D02*
X938160D01*
X923660D02*
Y896190D01*
X938160D01*
Y837360D02*
Y859360D01*
X923660Y837360D02*
X938160D01*
X923660D02*
Y859360D01*
X938160D01*
D41*
X1247780Y874600D02*
Y944600D01*
X1321780Y874600D02*
Y944600D01*
X1247780D02*
X1321780D01*
X1310230Y870600D02*
X1316730D01*
X1315980Y874600D02*
X1316730Y870600D01*
X1310230D02*
X1310980Y874600D01*
X1315980D02*
X1321780D01*
X1258580D02*
X1259330Y870600D01*
X1252830D02*
X1253580Y874600D01*
X1252830Y870600D02*
X1259330D01*
X1247780Y874600D02*
X1253580D01*
X1258580D02*
X1310980D01*
X1022980Y638380D02*
Y708380D01*
X948980Y638380D02*
Y708380D01*
Y638380D02*
X1022980D01*
X954030Y712380D02*
X960530D01*
X954030D02*
X954780Y708380D01*
X959780D02*
X960530Y712380D01*
X948980Y708380D02*
X954780D01*
X1011430Y712380D02*
X1012180Y708380D01*
X1017180D02*
X1017930Y712380D01*
X1011430D02*
X1017930D01*
X1017180Y708380D02*
X1022980D01*
X959780D02*
X1012180D01*
X1245700Y782880D02*
Y852880D01*
X1319700Y782880D02*
Y852880D01*
X1245700D02*
X1319700D01*
X1308150Y778880D02*
X1314650D01*
X1313900Y782880D02*
X1314650Y778880D01*
X1308150D02*
X1308900Y782880D01*
X1313900D02*
X1319700D01*
X1256500D02*
X1257250Y778880D01*
X1250750D02*
X1251500Y782880D01*
X1250750Y778880D02*
X1257250D01*
X1245700Y782880D02*
X1251500D01*
X1256500D02*
X1308900D01*
X1271110Y674470D02*
Y686970D01*
X1251110Y674470D02*
X1271110D01*
X1251110D02*
Y686970D01*
X1258610D01*
X1251110D02*
X1271110D01*
X1323180Y674470D02*
Y686970D01*
X1303180Y674470D02*
X1323180D01*
X1303180D02*
Y686970D01*
X1310680D01*
X1303180D02*
X1323180D01*
M02*
