G04*
G04 #@! TF.GenerationSoftware,Altium Limited,Altium Designer,25.6.2 (33)*
G04*
G04 Layer_Color=255*
%FSLAX44Y44*%
%MOMM*%
G71*
G04*
G04 #@! TF.SameCoordinates,E10141E4-A060-4BB7-8850-C9F2C3C4F881*
G04*
G04*
G04 #@! TF.FilePolarity,Positive*
G04*
G01*
G75*
%ADD14R,1.2000X1.2000*%
%ADD15R,1.5000X1.0000*%
%ADD16R,0.9500X1.4000*%
%ADD17R,1.0043X0.8721*%
G04:AMPARAMS|DCode=18|XSize=1.0043mm|YSize=0.8721mm|CornerRadius=0.4361mm|HoleSize=0mm|Usage=FLASHONLY|Rotation=0.000|XOffset=0mm|YOffset=0mm|HoleType=Round|Shape=RoundedRectangle|*
%AMROUNDEDRECTD18*
21,1,1.0043,0.0000,0,0,0.0*
21,1,0.1322,0.8721,0,0,0.0*
1,1,0.8721,0.0661,0.0000*
1,1,0.8721,-0.0661,0.0000*
1,1,0.8721,-0.0661,0.0000*
1,1,0.8721,0.0661,0.0000*
%
%ADD18ROUNDEDRECTD18*%
G04:AMPARAMS|DCode=19|XSize=1.0043mm|YSize=3.1821mm|CornerRadius=0.4369mm|HoleSize=0mm|Usage=FLASHONLY|Rotation=0.000|XOffset=0mm|YOffset=0mm|HoleType=Round|Shape=RoundedRectangle|*
%AMROUNDEDRECTD19*
21,1,1.0043,2.3084,0,0,0.0*
21,1,0.1306,3.1821,0,0,0.0*
1,1,0.8737,0.0653,-1.1542*
1,1,0.8737,-0.0653,-1.1542*
1,1,0.8737,-0.0653,1.1542*
1,1,0.8737,0.0653,1.1542*
%
%ADD19ROUNDEDRECTD19*%
%ADD20R,0.9500X1.3500*%
%ADD21R,1.3500X0.9500*%
%ADD23R,1.5900X1.5900*%
%ADD24C,1.5900*%
%ADD35C,1.9500*%
G04:AMPARAMS|DCode=36|XSize=1.95mm|YSize=1.95mm|CornerRadius=0.4875mm|HoleSize=0mm|Usage=FLASHONLY|Rotation=90.000|XOffset=0mm|YOffset=0mm|HoleType=Round|Shape=RoundedRectangle|*
%AMROUNDEDRECTD36*
21,1,1.9500,0.9750,0,0,90.0*
21,1,0.9750,1.9500,0,0,90.0*
1,1,0.9750,0.4875,0.4875*
1,1,0.9750,0.4875,-0.4875*
1,1,0.9750,-0.4875,-0.4875*
1,1,0.9750,-0.4875,0.4875*
%
%ADD36ROUNDEDRECTD36*%
%ADD37C,1.5000*%
G04:AMPARAMS|DCode=38|XSize=1.5mm|YSize=1.5mm|CornerRadius=0.375mm|HoleSize=0mm|Usage=FLASHONLY|Rotation=0.000|XOffset=0mm|YOffset=0mm|HoleType=Round|Shape=RoundedRectangle|*
%AMROUNDEDRECTD38*
21,1,1.5000,0.7500,0,0,0.0*
21,1,0.7500,1.5000,0,0,0.0*
1,1,0.7500,0.3750,-0.3750*
1,1,0.7500,-0.3750,-0.3750*
1,1,0.7500,-0.3750,0.3750*
1,1,0.7500,0.3750,0.3750*
%
%ADD38ROUNDEDRECTD38*%
D14*
X1271610Y680720D02*
D03*
X1250610D02*
D03*
X1323680D02*
D03*
X1302680D02*
D03*
D15*
X1191260Y757680D02*
D03*
Y725680D02*
D03*
Y673610D02*
D03*
Y705610D02*
D03*
D16*
X985880Y802640D02*
D03*
X967380D02*
D03*
D17*
X951300Y890310D02*
D03*
D18*
Y867410D02*
D03*
Y844510D02*
D03*
D19*
X1017200Y867410D02*
D03*
D20*
X943490Y803910D02*
D03*
X928490D02*
D03*
D21*
X930910Y892690D02*
D03*
Y877690D02*
D03*
Y855860D02*
D03*
Y840860D02*
D03*
D23*
X1220470Y999490D02*
D03*
X1068070D02*
D03*
D24*
X1220470Y974090D02*
D03*
Y948690D02*
D03*
Y923290D02*
D03*
Y897890D02*
D03*
Y872490D02*
D03*
Y847090D02*
D03*
Y821690D02*
D03*
Y796290D02*
D03*
Y770890D02*
D03*
Y745490D02*
D03*
Y720090D02*
D03*
Y694690D02*
D03*
Y669290D02*
D03*
Y643890D02*
D03*
X1068070Y974090D02*
D03*
Y948690D02*
D03*
Y923290D02*
D03*
Y897890D02*
D03*
Y872490D02*
D03*
Y847090D02*
D03*
Y821690D02*
D03*
Y796290D02*
D03*
Y770890D02*
D03*
Y745490D02*
D03*
Y720090D02*
D03*
Y694690D02*
D03*
Y669290D02*
D03*
Y643890D02*
D03*
D35*
X1287780Y927100D02*
D03*
X982980Y655880D02*
D03*
X1285700Y835380D02*
D03*
D36*
X1287780Y892100D02*
D03*
X982980Y690880D02*
D03*
X1285700Y800380D02*
D03*
D37*
X1007110Y764540D02*
D03*
X981710D02*
D03*
X1007110Y739140D02*
D03*
X981710D02*
D03*
X956310Y764540D02*
D03*
Y739140D02*
D03*
X930910Y764540D02*
D03*
D38*
Y739140D02*
D03*
M02*
