G04*
G04 #@! TF.GenerationSoftware,Altium Limited,Altium Designer,25.6.2 (33)*
G04*
G04 Layer_Color=16711935*
%FSLAX44Y44*%
%MOMM*%
G71*
G04*
G04 #@! TF.SameCoordinates,E10141E4-A060-4BB7-8850-C9F2C3C4F881*
G04*
G04*
G04 #@! TF.FilePolarity,Positive*
G04*
G01*
G75*
%ADD11C,0.2000*%
G36*
X1222495Y820923D02*
X1222485D01*
X1222467D01*
X1222430D01*
X1222374Y820913D01*
X1222319Y820904D01*
X1222254D01*
X1222097Y820876D01*
X1221931Y820849D01*
X1221764Y820793D01*
X1221616Y820738D01*
X1221552Y820701D01*
X1221496Y820655D01*
X1221487Y820645D01*
X1221459Y820608D01*
X1221413Y820553D01*
X1221367Y820479D01*
X1221311Y820377D01*
X1221274Y820266D01*
X1221237Y820128D01*
X1221228Y819980D01*
Y819924D01*
X1221237Y819869D01*
X1221246Y819786D01*
X1221265Y819702D01*
X1221283Y819610D01*
X1221320Y819517D01*
X1221367Y819425D01*
X1221376Y819416D01*
X1221394Y819388D01*
X1221431Y819351D01*
X1221468Y819296D01*
X1221533Y819249D01*
X1221598Y819194D01*
X1221672Y819147D01*
X1221764Y819111D01*
X1221774D01*
X1221811Y819092D01*
X1221875Y819083D01*
X1221958Y819064D01*
X1222069Y819046D01*
X1222208Y819037D01*
X1222374Y819018D01*
X1222569D01*
X1226979D01*
Y818167D01*
X1222615D01*
X1222606D01*
X1222578D01*
X1222541D01*
X1222485D01*
X1222411Y818177D01*
X1222337D01*
X1222162Y818195D01*
X1221958Y818214D01*
X1221746Y818251D01*
X1221552Y818306D01*
X1221367Y818371D01*
X1221357D01*
X1221348Y818380D01*
X1221293Y818408D01*
X1221219Y818454D01*
X1221117Y818519D01*
X1221015Y818611D01*
X1220904Y818713D01*
X1220794Y818842D01*
X1220701Y818990D01*
X1220692Y819009D01*
X1220664Y819064D01*
X1220627Y819147D01*
X1220590Y819268D01*
X1220544Y819416D01*
X1220507Y819582D01*
X1220479Y819767D01*
X1220470Y819970D01*
Y820054D01*
X1220479Y820109D01*
X1220488Y820183D01*
X1220498Y820257D01*
X1220535Y820451D01*
X1220590Y820655D01*
X1220673Y820867D01*
X1220729Y820978D01*
X1220794Y821080D01*
X1220867Y821172D01*
X1220951Y821265D01*
X1220960Y821274D01*
X1220969Y821283D01*
X1221006Y821302D01*
X1221043Y821329D01*
X1221089Y821367D01*
X1221154Y821404D01*
X1221228Y821440D01*
X1221311Y821487D01*
X1221404Y821524D01*
X1221515Y821561D01*
X1221626Y821598D01*
X1221755Y821635D01*
X1221894Y821653D01*
X1222051Y821681D01*
X1222208Y821690D01*
X1222384D01*
X1222495Y820923D01*
D02*
G37*
G36*
X1220757Y817206D02*
X1220840Y817197D01*
X1220932Y817178D01*
X1221025Y817160D01*
X1221126Y817123D01*
X1221136D01*
X1221145Y817113D01*
X1221200Y817095D01*
X1221283Y817058D01*
X1221394Y817003D01*
X1221524Y816929D01*
X1221672Y816836D01*
X1221820Y816734D01*
X1221977Y816605D01*
X1221986D01*
X1221995Y816587D01*
X1222051Y816540D01*
X1222134Y816457D01*
X1222254Y816337D01*
X1222393Y816198D01*
X1222559Y816022D01*
X1222744Y815810D01*
X1222938Y815579D01*
X1222948Y815570D01*
X1222975Y815533D01*
X1223022Y815477D01*
X1223077Y815412D01*
X1223151Y815329D01*
X1223234Y815227D01*
X1223327Y815126D01*
X1223428Y815005D01*
X1223650Y814774D01*
X1223872Y814543D01*
X1223983Y814432D01*
X1224094Y814331D01*
X1224196Y814238D01*
X1224298Y814164D01*
X1224307D01*
X1224316Y814146D01*
X1224344Y814127D01*
X1224381Y814109D01*
X1224482Y814044D01*
X1224603Y813970D01*
X1224751Y813905D01*
X1224908Y813841D01*
X1225083Y813804D01*
X1225250Y813785D01*
X1225259D01*
X1225268D01*
X1225324Y813794D01*
X1225416Y813804D01*
X1225518Y813831D01*
X1225647Y813868D01*
X1225777Y813933D01*
X1225906Y814016D01*
X1226036Y814127D01*
X1226054Y814146D01*
X1226091Y814192D01*
X1226137Y814257D01*
X1226202Y814358D01*
X1226258Y814488D01*
X1226313Y814636D01*
X1226350Y814811D01*
X1226359Y815005D01*
Y815061D01*
X1226350Y815098D01*
X1226341Y815209D01*
X1226313Y815338D01*
X1226276Y815477D01*
X1226211Y815634D01*
X1226128Y815782D01*
X1226017Y815921D01*
X1225999Y815939D01*
X1225953Y815976D01*
X1225879Y816032D01*
X1225768Y816087D01*
X1225638Y816152D01*
X1225472Y816207D01*
X1225287Y816244D01*
X1225074Y816263D01*
X1225157Y817067D01*
X1225167D01*
X1225194Y817058D01*
X1225241D01*
X1225305Y817049D01*
X1225379Y817030D01*
X1225462Y817012D01*
X1225564Y816984D01*
X1225666Y816956D01*
X1225888Y816882D01*
X1226110Y816771D01*
X1226221Y816707D01*
X1226332Y816624D01*
X1226433Y816540D01*
X1226526Y816448D01*
X1226535Y816439D01*
X1226544Y816420D01*
X1226572Y816392D01*
X1226600Y816346D01*
X1226637Y816291D01*
X1226674Y816226D01*
X1226720Y816152D01*
X1226766Y816059D01*
X1226812Y815958D01*
X1226859Y815847D01*
X1226896Y815727D01*
X1226933Y815597D01*
X1226960Y815459D01*
X1226988Y815311D01*
X1226997Y815153D01*
X1227007Y814987D01*
Y814895D01*
X1226997Y814830D01*
X1226988Y814756D01*
X1226979Y814663D01*
X1226960Y814562D01*
X1226942Y814460D01*
X1226877Y814220D01*
X1226785Y813979D01*
X1226729Y813859D01*
X1226664Y813739D01*
X1226581Y813628D01*
X1226489Y813526D01*
X1226479Y813517D01*
X1226470Y813499D01*
X1226433Y813480D01*
X1226396Y813443D01*
X1226350Y813397D01*
X1226285Y813351D01*
X1226221Y813304D01*
X1226137Y813249D01*
X1225962Y813156D01*
X1225740Y813064D01*
X1225629Y813027D01*
X1225499Y813008D01*
X1225370Y812990D01*
X1225231Y812981D01*
X1225213D01*
X1225167D01*
X1225093Y812990D01*
X1224991Y812999D01*
X1224880Y813018D01*
X1224751Y813055D01*
X1224612Y813092D01*
X1224473Y813147D01*
X1224455Y813156D01*
X1224408Y813175D01*
X1224334Y813212D01*
X1224233Y813267D01*
X1224122Y813341D01*
X1223983Y813434D01*
X1223845Y813545D01*
X1223687Y813674D01*
X1223669Y813693D01*
X1223613Y813739D01*
X1223567Y813785D01*
X1223521Y813831D01*
X1223465Y813887D01*
X1223391Y813961D01*
X1223317Y814035D01*
X1223234Y814127D01*
X1223142Y814220D01*
X1223040Y814331D01*
X1222938Y814451D01*
X1222818Y814580D01*
X1222698Y814728D01*
X1222569Y814876D01*
X1222559Y814885D01*
X1222541Y814904D01*
X1222513Y814941D01*
X1222476Y814987D01*
X1222421Y815042D01*
X1222365Y815107D01*
X1222245Y815255D01*
X1222106Y815412D01*
X1221968Y815560D01*
X1221848Y815690D01*
X1221801Y815745D01*
X1221755Y815791D01*
X1221746Y815801D01*
X1221718Y815828D01*
X1221681Y815865D01*
X1221626Y815912D01*
X1221561Y815958D01*
X1221496Y816013D01*
X1221339Y816124D01*
Y812971D01*
X1220581D01*
Y817215D01*
X1220590D01*
X1220627D01*
X1220683D01*
X1220757Y817206D01*
D02*
G37*
G36*
X1070095Y820923D02*
X1070085D01*
X1070067D01*
X1070030D01*
X1069975Y820913D01*
X1069919Y820904D01*
X1069854D01*
X1069697Y820876D01*
X1069531Y820849D01*
X1069364Y820793D01*
X1069216Y820738D01*
X1069152Y820701D01*
X1069096Y820655D01*
X1069087Y820645D01*
X1069059Y820608D01*
X1069013Y820553D01*
X1068967Y820479D01*
X1068911Y820377D01*
X1068874Y820266D01*
X1068837Y820128D01*
X1068828Y819980D01*
Y819924D01*
X1068837Y819869D01*
X1068847Y819786D01*
X1068865Y819702D01*
X1068884Y819610D01*
X1068921Y819517D01*
X1068967Y819425D01*
X1068976Y819416D01*
X1068994Y819388D01*
X1069031Y819351D01*
X1069068Y819296D01*
X1069133Y819249D01*
X1069198Y819194D01*
X1069272Y819147D01*
X1069364Y819111D01*
X1069373D01*
X1069410Y819092D01*
X1069475Y819083D01*
X1069558Y819064D01*
X1069669Y819046D01*
X1069808Y819037D01*
X1069975Y819018D01*
X1070169D01*
X1074579D01*
Y818167D01*
X1070215D01*
X1070206D01*
X1070178D01*
X1070141D01*
X1070085D01*
X1070011Y818177D01*
X1069938D01*
X1069762Y818195D01*
X1069558Y818214D01*
X1069346Y818251D01*
X1069152Y818306D01*
X1068967Y818371D01*
X1068958D01*
X1068948Y818380D01*
X1068893Y818408D01*
X1068819Y818454D01*
X1068717Y818519D01*
X1068615Y818611D01*
X1068504Y818713D01*
X1068393Y818842D01*
X1068301Y818990D01*
X1068292Y819009D01*
X1068264Y819064D01*
X1068227Y819147D01*
X1068190Y819268D01*
X1068144Y819416D01*
X1068107Y819582D01*
X1068079Y819767D01*
X1068070Y819970D01*
Y820054D01*
X1068079Y820109D01*
X1068088Y820183D01*
X1068098Y820257D01*
X1068135Y820451D01*
X1068190Y820655D01*
X1068273Y820867D01*
X1068329Y820978D01*
X1068393Y821080D01*
X1068467Y821172D01*
X1068551Y821265D01*
X1068560Y821274D01*
X1068569Y821283D01*
X1068606Y821302D01*
X1068643Y821329D01*
X1068689Y821367D01*
X1068754Y821404D01*
X1068828Y821440D01*
X1068911Y821487D01*
X1069004Y821524D01*
X1069115Y821561D01*
X1069226Y821598D01*
X1069355Y821635D01*
X1069494Y821653D01*
X1069651Y821681D01*
X1069808Y821690D01*
X1069984D01*
X1070095Y820923D01*
D02*
G37*
G36*
X1072998Y816494D02*
X1073016Y816476D01*
X1073026Y816439D01*
X1073053Y816392D01*
X1073081Y816337D01*
X1073118Y816272D01*
X1073210Y816115D01*
X1073312Y815930D01*
X1073442Y815745D01*
X1073589Y815551D01*
X1073747Y815357D01*
X1073756Y815348D01*
X1073765Y815338D01*
X1073793Y815311D01*
X1073821Y815274D01*
X1073913Y815190D01*
X1074024Y815079D01*
X1074154Y814968D01*
X1074301Y814848D01*
X1074449Y814747D01*
X1074606Y814654D01*
Y814146D01*
X1068181D01*
Y814931D01*
X1073183D01*
X1073173Y814941D01*
X1073137Y814987D01*
X1073081Y815042D01*
X1073016Y815135D01*
X1072933Y815237D01*
X1072841Y815366D01*
X1072739Y815514D01*
X1072637Y815680D01*
Y815690D01*
X1072628Y815699D01*
X1072591Y815754D01*
X1072545Y815847D01*
X1072489Y815958D01*
X1072425Y816087D01*
X1072360Y816226D01*
X1072295Y816365D01*
X1072240Y816503D01*
X1072998D01*
Y816494D01*
D02*
G37*
G36*
X1197658Y738712D02*
X1197649Y738638D01*
Y738555D01*
X1197639Y738361D01*
X1197612Y738158D01*
X1197584Y737936D01*
X1197538Y737732D01*
X1197510Y737630D01*
X1197482Y737547D01*
Y737538D01*
X1197473Y737529D01*
X1197445Y737473D01*
X1197408Y737390D01*
X1197344Y737288D01*
X1197260Y737178D01*
X1197149Y737057D01*
X1197020Y736946D01*
X1196872Y736835D01*
X1196863D01*
X1196853Y736826D01*
X1196798Y736789D01*
X1196705Y736752D01*
X1196585Y736697D01*
X1196447Y736650D01*
X1196280Y736604D01*
X1196105Y736577D01*
X1195910Y736567D01*
X1195901D01*
X1195883D01*
X1195846D01*
X1195799Y736577D01*
X1195735D01*
X1195670Y736586D01*
X1195513Y736623D01*
X1195328Y736678D01*
X1195134Y736752D01*
X1194940Y736863D01*
X1194847Y736937D01*
X1194755Y737011D01*
X1194745Y737020D01*
X1194736Y737029D01*
X1194708Y737057D01*
X1194681Y737094D01*
X1194644Y737141D01*
X1194607Y737196D01*
X1194561Y737270D01*
X1194505Y737344D01*
X1194459Y737436D01*
X1194413Y737538D01*
X1194357Y737649D01*
X1194311Y737769D01*
X1194274Y737908D01*
X1194228Y738047D01*
X1194200Y738204D01*
X1194172Y738370D01*
X1194163Y738352D01*
X1194145Y738315D01*
X1194108Y738259D01*
X1194071Y738185D01*
X1193969Y738019D01*
X1193904Y737936D01*
X1193849Y737862D01*
X1193830Y737843D01*
X1193784Y737797D01*
X1193710Y737723D01*
X1193617Y737630D01*
X1193488Y737529D01*
X1193349Y737409D01*
X1193183Y737288D01*
X1192998Y737159D01*
X1191260Y736059D01*
Y737113D01*
X1192591Y737954D01*
X1192600D01*
X1192619Y737973D01*
X1192647Y737991D01*
X1192684Y738019D01*
X1192785Y738083D01*
X1192915Y738167D01*
X1193054Y738268D01*
X1193201Y738370D01*
X1193340Y738472D01*
X1193470Y738564D01*
X1193479Y738574D01*
X1193516Y738601D01*
X1193571Y738648D01*
X1193636Y738712D01*
X1193775Y738851D01*
X1193839Y738925D01*
X1193895Y738999D01*
X1193904Y739008D01*
X1193913Y739027D01*
X1193932Y739064D01*
X1193960Y739119D01*
X1193987Y739174D01*
X1194015Y739239D01*
X1194061Y739387D01*
Y739396D01*
X1194071Y739415D01*
Y739452D01*
X1194080Y739498D01*
X1194089Y739563D01*
Y739637D01*
X1194098Y739738D01*
Y740829D01*
X1191260D01*
Y741680D01*
X1197658D01*
Y738712D01*
D02*
G37*
G36*
X1196077Y734949D02*
X1196095Y734931D01*
X1196105Y734894D01*
X1196132Y734848D01*
X1196160Y734792D01*
X1196197Y734727D01*
X1196290Y734570D01*
X1196391Y734385D01*
X1196521Y734200D01*
X1196668Y734006D01*
X1196826Y733812D01*
X1196835Y733803D01*
X1196844Y733794D01*
X1196872Y733766D01*
X1196900Y733729D01*
X1196992Y733646D01*
X1197103Y733535D01*
X1197233Y733424D01*
X1197381Y733304D01*
X1197528Y733202D01*
X1197686Y733109D01*
Y732601D01*
X1191260D01*
Y733387D01*
X1196262D01*
X1196253Y733396D01*
X1196216Y733442D01*
X1196160Y733498D01*
X1196095Y733590D01*
X1196012Y733692D01*
X1195920Y733821D01*
X1195818Y733969D01*
X1195716Y734136D01*
Y734145D01*
X1195707Y734154D01*
X1195670Y734210D01*
X1195624Y734302D01*
X1195568Y734413D01*
X1195504Y734542D01*
X1195439Y734681D01*
X1195374Y734820D01*
X1195319Y734958D01*
X1196077D01*
Y734949D01*
D02*
G37*
G36*
X1191260Y695620D02*
X1191251D01*
X1191214D01*
X1191158D01*
X1191084Y695629D01*
X1191001Y695638D01*
X1190909Y695657D01*
X1190816Y695675D01*
X1190715Y695712D01*
X1190705D01*
X1190696Y695721D01*
X1190641Y695740D01*
X1190557Y695777D01*
X1190446Y695832D01*
X1190317Y695906D01*
X1190169Y695999D01*
X1190021Y696100D01*
X1189864Y696230D01*
X1189855D01*
X1189846Y696248D01*
X1189790Y696294D01*
X1189707Y696378D01*
X1189587Y696498D01*
X1189448Y696637D01*
X1189281Y696812D01*
X1189097Y697025D01*
X1188902Y697256D01*
X1188893Y697265D01*
X1188866Y697302D01*
X1188819Y697358D01*
X1188764Y697422D01*
X1188690Y697506D01*
X1188607Y697607D01*
X1188514Y697709D01*
X1188412Y697829D01*
X1188191Y698060D01*
X1187969Y698291D01*
X1187858Y698402D01*
X1187747Y698504D01*
X1187645Y698597D01*
X1187543Y698671D01*
X1187534D01*
X1187525Y698689D01*
X1187497Y698708D01*
X1187460Y698726D01*
X1187358Y698791D01*
X1187238Y698865D01*
X1187090Y698929D01*
X1186933Y698994D01*
X1186758Y699031D01*
X1186591Y699050D01*
X1186582D01*
X1186573D01*
X1186517Y699040D01*
X1186425Y699031D01*
X1186323Y699003D01*
X1186193Y698966D01*
X1186064Y698902D01*
X1185935Y698819D01*
X1185805Y698708D01*
X1185787Y698689D01*
X1185750Y698643D01*
X1185704Y698578D01*
X1185639Y698476D01*
X1185583Y698347D01*
X1185528Y698199D01*
X1185491Y698023D01*
X1185482Y697829D01*
Y697774D01*
X1185491Y697737D01*
X1185500Y697626D01*
X1185528Y697496D01*
X1185565Y697358D01*
X1185630Y697200D01*
X1185713Y697053D01*
X1185824Y696914D01*
X1185842Y696895D01*
X1185888Y696858D01*
X1185962Y696803D01*
X1186073Y696748D01*
X1186203Y696683D01*
X1186369Y696627D01*
X1186554Y696590D01*
X1186767Y696572D01*
X1186684Y695767D01*
X1186674D01*
X1186646Y695777D01*
X1186600D01*
X1186536Y695786D01*
X1186462Y695804D01*
X1186378Y695823D01*
X1186277Y695851D01*
X1186175Y695878D01*
X1185953Y695952D01*
X1185731Y696063D01*
X1185620Y696128D01*
X1185509Y696211D01*
X1185408Y696294D01*
X1185315Y696387D01*
X1185306Y696396D01*
X1185297Y696415D01*
X1185269Y696442D01*
X1185241Y696489D01*
X1185204Y696544D01*
X1185167Y696609D01*
X1185121Y696683D01*
X1185075Y696775D01*
X1185029Y696877D01*
X1184982Y696988D01*
X1184945Y697108D01*
X1184908Y697237D01*
X1184881Y697376D01*
X1184853Y697524D01*
X1184844Y697681D01*
X1184834Y697848D01*
Y697940D01*
X1184844Y698005D01*
X1184853Y698079D01*
X1184862Y698171D01*
X1184881Y698273D01*
X1184899Y698375D01*
X1184964Y698615D01*
X1185056Y698856D01*
X1185112Y698976D01*
X1185176Y699096D01*
X1185260Y699207D01*
X1185352Y699308D01*
X1185361Y699318D01*
X1185371Y699336D01*
X1185408Y699355D01*
X1185445Y699392D01*
X1185491Y699438D01*
X1185555Y699484D01*
X1185620Y699530D01*
X1185704Y699586D01*
X1185879Y699678D01*
X1186101Y699771D01*
X1186212Y699808D01*
X1186341Y699826D01*
X1186471Y699845D01*
X1186609Y699854D01*
X1186628D01*
X1186674D01*
X1186748Y699845D01*
X1186850Y699836D01*
X1186961Y699817D01*
X1187090Y699780D01*
X1187229Y699743D01*
X1187368Y699688D01*
X1187386Y699678D01*
X1187432Y699660D01*
X1187506Y699623D01*
X1187608Y699567D01*
X1187719Y699493D01*
X1187858Y699401D01*
X1187996Y699290D01*
X1188154Y699161D01*
X1188172Y699142D01*
X1188227Y699096D01*
X1188274Y699050D01*
X1188320Y699003D01*
X1188375Y698948D01*
X1188449Y698874D01*
X1188523Y698800D01*
X1188607Y698708D01*
X1188699Y698615D01*
X1188801Y698504D01*
X1188902Y698384D01*
X1189023Y698254D01*
X1189143Y698107D01*
X1189272Y697959D01*
X1189281Y697949D01*
X1189300Y697931D01*
X1189328Y697894D01*
X1189365Y697848D01*
X1189420Y697792D01*
X1189476Y697728D01*
X1189596Y697580D01*
X1189735Y697422D01*
X1189873Y697274D01*
X1189993Y697145D01*
X1190040Y697090D01*
X1190086Y697043D01*
X1190095Y697034D01*
X1190123Y697006D01*
X1190160Y696969D01*
X1190215Y696923D01*
X1190280Y696877D01*
X1190345Y696821D01*
X1190502Y696711D01*
Y699863D01*
X1191260D01*
Y695620D01*
D02*
G37*
G36*
Y694177D02*
X1189929Y693336D01*
X1189920D01*
X1189901Y693317D01*
X1189873Y693299D01*
X1189836Y693271D01*
X1189735Y693206D01*
X1189605Y693123D01*
X1189466Y693021D01*
X1189318Y692920D01*
X1189180Y692818D01*
X1189050Y692726D01*
X1189041Y692716D01*
X1189004Y692689D01*
X1188949Y692642D01*
X1188884Y692578D01*
X1188745Y692439D01*
X1188681Y692365D01*
X1188625Y692291D01*
X1188616Y692282D01*
X1188607Y692263D01*
X1188588Y692226D01*
X1188560Y692171D01*
X1188533Y692115D01*
X1188505Y692051D01*
X1188459Y691903D01*
Y691893D01*
X1188449Y691875D01*
Y691838D01*
X1188440Y691792D01*
X1188431Y691727D01*
Y691653D01*
X1188422Y691551D01*
Y690461D01*
X1191260D01*
Y689610D01*
X1184862D01*
Y692578D01*
X1184871Y692652D01*
Y692735D01*
X1184881Y692929D01*
X1184908Y693132D01*
X1184936Y693354D01*
X1184982Y693558D01*
X1185010Y693659D01*
X1185038Y693743D01*
Y693752D01*
X1185047Y693761D01*
X1185075Y693817D01*
X1185112Y693900D01*
X1185176Y694001D01*
X1185260Y694112D01*
X1185371Y694233D01*
X1185500Y694344D01*
X1185648Y694455D01*
X1185657D01*
X1185667Y694464D01*
X1185722Y694501D01*
X1185814Y694538D01*
X1185935Y694593D01*
X1186073Y694640D01*
X1186240Y694686D01*
X1186415Y694713D01*
X1186609Y694723D01*
X1186619D01*
X1186637D01*
X1186674D01*
X1186721Y694713D01*
X1186785D01*
X1186850Y694704D01*
X1187007Y694667D01*
X1187192Y694612D01*
X1187386Y694538D01*
X1187580Y694427D01*
X1187673Y694353D01*
X1187765Y694279D01*
X1187775Y694270D01*
X1187784Y694260D01*
X1187812Y694233D01*
X1187839Y694196D01*
X1187876Y694149D01*
X1187913Y694094D01*
X1187959Y694020D01*
X1188015Y693946D01*
X1188061Y693854D01*
X1188107Y693752D01*
X1188163Y693641D01*
X1188209Y693521D01*
X1188246Y693382D01*
X1188292Y693243D01*
X1188320Y693086D01*
X1188348Y692920D01*
X1188357Y692938D01*
X1188375Y692975D01*
X1188412Y693031D01*
X1188449Y693105D01*
X1188551Y693271D01*
X1188616Y693354D01*
X1188671Y693428D01*
X1188690Y693447D01*
X1188736Y693493D01*
X1188810Y693567D01*
X1188902Y693659D01*
X1189032Y693761D01*
X1189171Y693881D01*
X1189337Y694001D01*
X1189522Y694131D01*
X1191260Y695231D01*
Y694177D01*
D02*
G37*
G36*
X973801Y802631D02*
X973884D01*
X973986Y802622D01*
X974097Y802603D01*
X974226Y802585D01*
X974494Y802538D01*
X974772Y802464D01*
X975049Y802363D01*
X975179Y802298D01*
X975308Y802224D01*
X975317Y802215D01*
X975336Y802206D01*
X975373Y802178D01*
X975410Y802141D01*
X975465Y802104D01*
X975530Y802048D01*
X975604Y801984D01*
X975678Y801910D01*
X975752Y801826D01*
X975835Y801743D01*
X976001Y801531D01*
X976159Y801281D01*
X976297Y801004D01*
Y800994D01*
X976316Y800967D01*
X976325Y800920D01*
X976353Y800865D01*
X976371Y800791D01*
X976399Y800698D01*
X976436Y800597D01*
X976464Y800486D01*
X976491Y800366D01*
X976528Y800227D01*
X976575Y799940D01*
X976612Y799617D01*
X976630Y799284D01*
Y799275D01*
Y799238D01*
Y799182D01*
X976621Y799118D01*
Y799025D01*
X976612Y798933D01*
X976602Y798812D01*
X976584Y798692D01*
X976538Y798424D01*
X976473Y798128D01*
X976380Y797832D01*
X976251Y797546D01*
X976242Y797536D01*
X976233Y797509D01*
X976214Y797472D01*
X976177Y797426D01*
X976140Y797361D01*
X976094Y797287D01*
X975974Y797121D01*
X975816Y796936D01*
X975632Y796751D01*
X975419Y796566D01*
X975169Y796408D01*
X975160Y796399D01*
X975132Y796390D01*
X975095Y796372D01*
X975049Y796344D01*
X974975Y796316D01*
X974901Y796288D01*
X974809Y796251D01*
X974707Y796214D01*
X974596Y796177D01*
X974476Y796140D01*
X974217Y796085D01*
X973921Y796039D01*
X973616Y796020D01*
X973524D01*
X973459Y796030D01*
X973376Y796039D01*
X973274Y796048D01*
X973172Y796057D01*
X973052Y796085D01*
X972802Y796140D01*
X972525Y796224D01*
X972386Y796279D01*
X972257Y796344D01*
X972128Y796427D01*
X971998Y796510D01*
X971989Y796519D01*
X971970Y796529D01*
X971933Y796556D01*
X971887Y796603D01*
X971841Y796649D01*
X971776Y796714D01*
X971711Y796788D01*
X971637Y796862D01*
X971563Y796954D01*
X971489Y797065D01*
X971406Y797176D01*
X971332Y797296D01*
X971268Y797435D01*
X971194Y797573D01*
X971138Y797721D01*
X971083Y797888D01*
X971915Y798082D01*
Y798073D01*
X971924Y798054D01*
X971943Y798017D01*
X971961Y797971D01*
X971980Y797916D01*
X972007Y797842D01*
X972081Y797694D01*
X972174Y797527D01*
X972285Y797361D01*
X972423Y797204D01*
X972571Y797065D01*
X972590Y797047D01*
X972645Y797010D01*
X972738Y796963D01*
X972858Y796899D01*
X973015Y796843D01*
X973191Y796788D01*
X973403Y796751D01*
X973634Y796741D01*
X973708D01*
X973755Y796751D01*
X973819D01*
X973893Y796760D01*
X974069Y796788D01*
X974263Y796825D01*
X974467Y796889D01*
X974679Y796982D01*
X974873Y797102D01*
X974883D01*
X974892Y797121D01*
X974957Y797167D01*
X975040Y797241D01*
X975142Y797352D01*
X975262Y797490D01*
X975373Y797647D01*
X975474Y797842D01*
X975567Y798054D01*
Y798064D01*
X975576Y798082D01*
X975585Y798110D01*
X975595Y798156D01*
X975613Y798211D01*
X975632Y798276D01*
X975659Y798433D01*
X975696Y798618D01*
X975733Y798822D01*
X975752Y799044D01*
X975761Y799284D01*
Y799293D01*
Y799321D01*
Y799367D01*
Y799423D01*
X975752Y799487D01*
Y799570D01*
X975742Y799663D01*
X975733Y799765D01*
X975705Y799987D01*
X975659Y800227D01*
X975604Y800467D01*
X975530Y800708D01*
Y800717D01*
X975521Y800735D01*
X975502Y800763D01*
X975484Y800809D01*
X975428Y800920D01*
X975345Y801050D01*
X975243Y801198D01*
X975114Y801355D01*
X974966Y801494D01*
X974790Y801623D01*
X974781D01*
X974762Y801632D01*
X974735Y801651D01*
X974698Y801669D01*
X974651Y801688D01*
X974596Y801715D01*
X974467Y801771D01*
X974300Y801826D01*
X974115Y801873D01*
X973912Y801910D01*
X973699Y801919D01*
X973634D01*
X973579Y801910D01*
X973514D01*
X973450Y801900D01*
X973283Y801863D01*
X973089Y801817D01*
X972895Y801743D01*
X972691Y801642D01*
X972590Y801586D01*
X972497Y801512D01*
X972488Y801503D01*
X972479Y801494D01*
X972451Y801466D01*
X972414Y801438D01*
X972377Y801392D01*
X972331Y801336D01*
X972275Y801281D01*
X972229Y801207D01*
X972174Y801124D01*
X972109Y801031D01*
X972054Y800939D01*
X971998Y800828D01*
X971952Y800708D01*
X971906Y800578D01*
X971859Y800440D01*
X971822Y800292D01*
X970972Y800504D01*
Y800514D01*
X970981Y800551D01*
X971000Y800606D01*
X971027Y800680D01*
X971055Y800763D01*
X971092Y800865D01*
X971138Y800976D01*
X971194Y801096D01*
X971323Y801355D01*
X971489Y801614D01*
X971591Y801743D01*
X971693Y801873D01*
X971804Y801984D01*
X971933Y802095D01*
X971943Y802104D01*
X971961Y802122D01*
X972007Y802141D01*
X972054Y802178D01*
X972128Y802224D01*
X972201Y802270D01*
X972303Y802317D01*
X972405Y802363D01*
X972525Y802418D01*
X972654Y802464D01*
X972793Y802511D01*
X972941Y802557D01*
X973098Y802594D01*
X973265Y802612D01*
X973440Y802631D01*
X973625Y802640D01*
X973727D01*
X973801Y802631D01*
D02*
G37*
G36*
X970362Y802520D02*
Y802483D01*
Y802427D01*
X970352Y802354D01*
X970343Y802270D01*
X970325Y802178D01*
X970306Y802085D01*
X970269Y801984D01*
Y801974D01*
X970260Y801965D01*
X970241Y801910D01*
X970204Y801826D01*
X970149Y801715D01*
X970075Y801586D01*
X969983Y801438D01*
X969881Y801290D01*
X969751Y801133D01*
Y801124D01*
X969733Y801115D01*
X969687Y801059D01*
X969603Y800976D01*
X969483Y800856D01*
X969344Y800717D01*
X969169Y800551D01*
X968956Y800366D01*
X968725Y800172D01*
X968716Y800162D01*
X968679Y800135D01*
X968623Y800088D01*
X968559Y800033D01*
X968475Y799959D01*
X968374Y799876D01*
X968272Y799783D01*
X968152Y799681D01*
X967921Y799460D01*
X967690Y799238D01*
X967579Y799127D01*
X967477Y799016D01*
X967384Y798914D01*
X967310Y798812D01*
Y798803D01*
X967292Y798794D01*
X967273Y798766D01*
X967255Y798729D01*
X967190Y798627D01*
X967116Y798507D01*
X967052Y798359D01*
X966987Y798202D01*
X966950Y798027D01*
X966931Y797860D01*
Y797851D01*
Y797842D01*
X966941Y797786D01*
X966950Y797694D01*
X966978Y797592D01*
X967015Y797462D01*
X967079Y797333D01*
X967163Y797204D01*
X967273Y797074D01*
X967292Y797056D01*
X967338Y797019D01*
X967403Y796973D01*
X967505Y796908D01*
X967634Y796852D01*
X967782Y796797D01*
X967958Y796760D01*
X968152Y796751D01*
X968207D01*
X968244Y796760D01*
X968355Y796769D01*
X968485Y796797D01*
X968623Y796834D01*
X968781Y796899D01*
X968929Y796982D01*
X969067Y797093D01*
X969086Y797111D01*
X969123Y797157D01*
X969178Y797231D01*
X969234Y797342D01*
X969298Y797472D01*
X969354Y797638D01*
X969391Y797823D01*
X969409Y798036D01*
X970214Y797953D01*
Y797943D01*
X970204Y797916D01*
Y797869D01*
X970195Y797805D01*
X970177Y797731D01*
X970158Y797647D01*
X970130Y797546D01*
X970103Y797444D01*
X970029Y797222D01*
X969918Y797000D01*
X969853Y796889D01*
X969770Y796778D01*
X969687Y796677D01*
X969594Y796584D01*
X969585Y796575D01*
X969566Y796566D01*
X969539Y796538D01*
X969492Y796510D01*
X969437Y796473D01*
X969372Y796436D01*
X969298Y796390D01*
X969206Y796344D01*
X969104Y796298D01*
X968993Y796251D01*
X968873Y796214D01*
X968744Y796177D01*
X968605Y796150D01*
X968457Y796122D01*
X968300Y796113D01*
X968133Y796103D01*
X968041D01*
X967976Y796113D01*
X967902Y796122D01*
X967810Y796131D01*
X967708Y796150D01*
X967606Y796168D01*
X967366Y796233D01*
X967126Y796325D01*
X967005Y796381D01*
X966885Y796445D01*
X966774Y796529D01*
X966673Y796621D01*
X966663Y796630D01*
X966645Y796640D01*
X966626Y796677D01*
X966589Y796714D01*
X966543Y796760D01*
X966497Y796825D01*
X966451Y796889D01*
X966395Y796973D01*
X966303Y797148D01*
X966210Y797370D01*
X966173Y797481D01*
X966155Y797610D01*
X966136Y797740D01*
X966127Y797879D01*
Y797897D01*
Y797943D01*
X966136Y798017D01*
X966146Y798119D01*
X966164Y798230D01*
X966201Y798359D01*
X966238Y798498D01*
X966293Y798637D01*
X966303Y798655D01*
X966321Y798701D01*
X966358Y798775D01*
X966414Y798877D01*
X966488Y798988D01*
X966580Y799127D01*
X966691Y799265D01*
X966821Y799423D01*
X966839Y799441D01*
X966885Y799497D01*
X966931Y799543D01*
X966978Y799589D01*
X967033Y799644D01*
X967107Y799718D01*
X967181Y799792D01*
X967273Y799876D01*
X967366Y799968D01*
X967477Y800070D01*
X967597Y800172D01*
X967727Y800292D01*
X967875Y800412D01*
X968022Y800541D01*
X968032Y800551D01*
X968050Y800569D01*
X968087Y800597D01*
X968133Y800634D01*
X968189Y800689D01*
X968254Y800745D01*
X968401Y800865D01*
X968559Y801004D01*
X968707Y801142D01*
X968836Y801263D01*
X968892Y801309D01*
X968938Y801355D01*
X968947Y801364D01*
X968975Y801392D01*
X969012Y801429D01*
X969058Y801484D01*
X969104Y801549D01*
X969160Y801614D01*
X969271Y801771D01*
X966118D01*
Y802529D01*
X970362D01*
Y802520D01*
D02*
G37*
G36*
X989279Y870220D02*
Y870211D01*
Y870174D01*
Y870128D01*
Y870063D01*
X989270Y869980D01*
Y869888D01*
X989261Y869777D01*
X989252Y869666D01*
X989224Y869416D01*
X989187Y869157D01*
X989131Y868908D01*
X989095Y868788D01*
X989058Y868677D01*
Y868667D01*
X989048Y868649D01*
X989030Y868621D01*
X989011Y868584D01*
X988956Y868482D01*
X988873Y868353D01*
X988762Y868205D01*
X988632Y868057D01*
X988466Y867900D01*
X988262Y867761D01*
X988253D01*
X988235Y867743D01*
X988207Y867734D01*
X988161Y867706D01*
X988105Y867678D01*
X988031Y867650D01*
X987957Y867623D01*
X987865Y867586D01*
X987763Y867549D01*
X987652Y867521D01*
X987532Y867493D01*
X987393Y867465D01*
X987255Y867447D01*
X987107Y867428D01*
X986774Y867410D01*
X986691D01*
X986626Y867419D01*
X986552D01*
X986460Y867428D01*
X986358Y867438D01*
X986256Y867447D01*
X986025Y867484D01*
X985775Y867539D01*
X985535Y867613D01*
X985304Y867715D01*
X985295D01*
X985276Y867734D01*
X985248Y867752D01*
X985211Y867770D01*
X985110Y867844D01*
X984989Y867946D01*
X984851Y868076D01*
X984721Y868223D01*
X984592Y868408D01*
X984490Y868612D01*
Y868621D01*
X984481Y868640D01*
X984472Y868677D01*
X984453Y868723D01*
X984435Y868778D01*
X984416Y868852D01*
X984389Y868935D01*
X984370Y869037D01*
X984352Y869148D01*
X984324Y869268D01*
X984305Y869398D01*
X984287Y869536D01*
X984268Y869694D01*
X984259Y869860D01*
X984250Y870036D01*
Y870220D01*
Y873919D01*
X985100D01*
Y870220D01*
Y870211D01*
Y870184D01*
Y870137D01*
Y870082D01*
X985110Y870017D01*
Y869934D01*
X985119Y869758D01*
X985137Y869555D01*
X985165Y869351D01*
X985202Y869157D01*
X985221Y869074D01*
X985248Y868991D01*
X985258Y868972D01*
X985276Y868926D01*
X985322Y868861D01*
X985378Y868769D01*
X985443Y868677D01*
X985535Y868575D01*
X985646Y868473D01*
X985775Y868390D01*
X985794Y868381D01*
X985840Y868353D01*
X985923Y868325D01*
X986034Y868288D01*
X986164Y868242D01*
X986330Y868214D01*
X986506Y868186D01*
X986700Y868177D01*
X986792D01*
X986848Y868186D01*
X986931D01*
X987014Y868196D01*
X987218Y868233D01*
X987440Y868279D01*
X987652Y868353D01*
X987856Y868455D01*
X987948Y868519D01*
X988031Y868593D01*
X988041Y868603D01*
X988050Y868612D01*
X988068Y868640D01*
X988096Y868677D01*
X988124Y868732D01*
X988161Y868788D01*
X988198Y868871D01*
X988235Y868954D01*
X988272Y869056D01*
X988299Y869176D01*
X988336Y869314D01*
X988364Y869462D01*
X988392Y869629D01*
X988410Y869805D01*
X988429Y870008D01*
Y870220D01*
Y873919D01*
X989279D01*
Y870220D01*
D02*
G37*
G36*
X993329Y867521D02*
X992543D01*
Y872523D01*
X992534Y872513D01*
X992488Y872477D01*
X992432Y872421D01*
X992340Y872356D01*
X992238Y872273D01*
X992109Y872181D01*
X991961Y872079D01*
X991794Y871977D01*
X991785D01*
X991776Y871968D01*
X991720Y871931D01*
X991628Y871885D01*
X991517Y871829D01*
X991387Y871765D01*
X991249Y871700D01*
X991110Y871635D01*
X990971Y871580D01*
Y872338D01*
X990981D01*
X990999Y872356D01*
X991036Y872365D01*
X991082Y872393D01*
X991138Y872421D01*
X991203Y872458D01*
X991360Y872550D01*
X991545Y872652D01*
X991730Y872782D01*
X991924Y872930D01*
X992118Y873087D01*
X992127Y873096D01*
X992136Y873105D01*
X992164Y873133D01*
X992201Y873161D01*
X992284Y873253D01*
X992395Y873364D01*
X992506Y873493D01*
X992626Y873641D01*
X992728Y873789D01*
X992821Y873947D01*
X993329D01*
Y867521D01*
D02*
G37*
G36*
X933161Y803901D02*
X933244D01*
X933346Y803892D01*
X933457Y803873D01*
X933586Y803855D01*
X933854Y803808D01*
X934132Y803734D01*
X934409Y803633D01*
X934538Y803568D01*
X934668Y803494D01*
X934677Y803485D01*
X934696Y803475D01*
X934733Y803448D01*
X934770Y803411D01*
X934825Y803374D01*
X934890Y803318D01*
X934964Y803254D01*
X935038Y803180D01*
X935112Y803096D01*
X935195Y803013D01*
X935361Y802801D01*
X935519Y802551D01*
X935657Y802274D01*
Y802264D01*
X935676Y802237D01*
X935685Y802190D01*
X935713Y802135D01*
X935731Y802061D01*
X935759Y801969D01*
X935796Y801867D01*
X935824Y801756D01*
X935851Y801636D01*
X935888Y801497D01*
X935935Y801210D01*
X935972Y800887D01*
X935990Y800554D01*
Y800545D01*
Y800508D01*
Y800452D01*
X935981Y800387D01*
Y800295D01*
X935972Y800203D01*
X935962Y800082D01*
X935944Y799962D01*
X935898Y799694D01*
X935833Y799398D01*
X935740Y799102D01*
X935611Y798816D01*
X935602Y798807D01*
X935592Y798779D01*
X935574Y798742D01*
X935537Y798696D01*
X935500Y798631D01*
X935454Y798557D01*
X935334Y798391D01*
X935176Y798205D01*
X934992Y798021D01*
X934779Y797836D01*
X934529Y797679D01*
X934520Y797669D01*
X934492Y797660D01*
X934455Y797642D01*
X934409Y797614D01*
X934335Y797586D01*
X934261Y797558D01*
X934169Y797521D01*
X934067Y797484D01*
X933956Y797447D01*
X933836Y797410D01*
X933577Y797355D01*
X933281Y797309D01*
X932976Y797290D01*
X932884D01*
X932819Y797299D01*
X932736Y797309D01*
X932634Y797318D01*
X932532Y797327D01*
X932412Y797355D01*
X932162Y797410D01*
X931885Y797494D01*
X931746Y797549D01*
X931617Y797614D01*
X931488Y797697D01*
X931358Y797780D01*
X931349Y797790D01*
X931330Y797799D01*
X931293Y797827D01*
X931247Y797873D01*
X931201Y797919D01*
X931136Y797984D01*
X931071Y798058D01*
X930997Y798132D01*
X930923Y798224D01*
X930850Y798335D01*
X930766Y798446D01*
X930692Y798566D01*
X930628Y798705D01*
X930554Y798844D01*
X930498Y798991D01*
X930443Y799158D01*
X931275Y799352D01*
Y799343D01*
X931284Y799324D01*
X931303Y799287D01*
X931321Y799241D01*
X931339Y799186D01*
X931367Y799112D01*
X931441Y798964D01*
X931534Y798797D01*
X931645Y798631D01*
X931783Y798474D01*
X931931Y798335D01*
X931950Y798316D01*
X932005Y798279D01*
X932098Y798233D01*
X932218Y798169D01*
X932375Y798113D01*
X932551Y798058D01*
X932763Y798021D01*
X932995Y798011D01*
X933068D01*
X933115Y798021D01*
X933179D01*
X933253Y798030D01*
X933429Y798058D01*
X933623Y798095D01*
X933827Y798159D01*
X934039Y798252D01*
X934233Y798372D01*
X934243D01*
X934252Y798391D01*
X934317Y798437D01*
X934400Y798511D01*
X934501Y798622D01*
X934622Y798760D01*
X934733Y798917D01*
X934834Y799112D01*
X934927Y799324D01*
Y799333D01*
X934936Y799352D01*
X934945Y799380D01*
X934955Y799426D01*
X934973Y799481D01*
X934992Y799546D01*
X935019Y799703D01*
X935056Y799888D01*
X935093Y800092D01*
X935112Y800313D01*
X935121Y800554D01*
Y800563D01*
Y800591D01*
Y800637D01*
Y800693D01*
X935112Y800757D01*
Y800841D01*
X935102Y800933D01*
X935093Y801035D01*
X935066Y801257D01*
X935019Y801497D01*
X934964Y801737D01*
X934890Y801978D01*
Y801987D01*
X934881Y802005D01*
X934862Y802033D01*
X934844Y802079D01*
X934788Y802190D01*
X934705Y802320D01*
X934603Y802468D01*
X934474Y802625D01*
X934326Y802764D01*
X934150Y802893D01*
X934141D01*
X934122Y802902D01*
X934095Y802921D01*
X934058Y802939D01*
X934012Y802958D01*
X933956Y802986D01*
X933827Y803041D01*
X933660Y803096D01*
X933475Y803143D01*
X933272Y803180D01*
X933059Y803189D01*
X932995D01*
X932939Y803180D01*
X932874D01*
X932810Y803170D01*
X932643Y803133D01*
X932449Y803087D01*
X932255Y803013D01*
X932051Y802912D01*
X931950Y802856D01*
X931857Y802782D01*
X931848Y802773D01*
X931839Y802764D01*
X931811Y802736D01*
X931774Y802708D01*
X931737Y802662D01*
X931691Y802606D01*
X931635Y802551D01*
X931589Y802477D01*
X931534Y802394D01*
X931469Y802301D01*
X931413Y802209D01*
X931358Y802098D01*
X931312Y801978D01*
X931266Y801848D01*
X931219Y801710D01*
X931182Y801562D01*
X930332Y801774D01*
Y801784D01*
X930341Y801821D01*
X930359Y801876D01*
X930387Y801950D01*
X930415Y802033D01*
X930452Y802135D01*
X930498Y802246D01*
X930554Y802366D01*
X930683Y802625D01*
X930850Y802884D01*
X930951Y803013D01*
X931053Y803143D01*
X931164Y803254D01*
X931293Y803365D01*
X931303Y803374D01*
X931321Y803392D01*
X931367Y803411D01*
X931413Y803448D01*
X931488Y803494D01*
X931561Y803540D01*
X931663Y803587D01*
X931765Y803633D01*
X931885Y803688D01*
X932014Y803734D01*
X932153Y803781D01*
X932301Y803827D01*
X932458Y803864D01*
X932625Y803882D01*
X932800Y803901D01*
X932985Y803910D01*
X933087D01*
X933161Y803901D01*
D02*
G37*
G36*
X927438Y798797D02*
X927447Y798807D01*
X927493Y798844D01*
X927549Y798899D01*
X927641Y798964D01*
X927743Y799047D01*
X927872Y799139D01*
X928020Y799241D01*
X928187Y799343D01*
X928196D01*
X928205Y799352D01*
X928261Y799389D01*
X928353Y799435D01*
X928464Y799491D01*
X928594Y799555D01*
X928732Y799620D01*
X928871Y799685D01*
X929010Y799740D01*
Y798982D01*
X929000D01*
X928982Y798964D01*
X928945Y798954D01*
X928899Y798927D01*
X928843Y798899D01*
X928779Y798862D01*
X928621Y798770D01*
X928436Y798668D01*
X928251Y798538D01*
X928057Y798391D01*
X927863Y798233D01*
X927854Y798224D01*
X927845Y798215D01*
X927817Y798187D01*
X927780Y798159D01*
X927697Y798067D01*
X927586Y797956D01*
X927475Y797827D01*
X927355Y797679D01*
X927253Y797531D01*
X927160Y797373D01*
X926652D01*
Y803799D01*
X927438D01*
Y798797D01*
D02*
G37*
G36*
X934432Y885181D02*
X934525D01*
X934617Y885172D01*
X934738Y885162D01*
X934858Y885144D01*
X935126Y885098D01*
X935422Y885033D01*
X935718Y884940D01*
X936004Y884811D01*
X936013Y884802D01*
X936041Y884792D01*
X936078Y884774D01*
X936124Y884737D01*
X936189Y884700D01*
X936263Y884654D01*
X936430Y884534D01*
X936614Y884377D01*
X936799Y884192D01*
X936984Y883979D01*
X937141Y883729D01*
X937151Y883720D01*
X937160Y883692D01*
X937178Y883655D01*
X937206Y883609D01*
X937234Y883535D01*
X937262Y883461D01*
X937299Y883369D01*
X937336Y883267D01*
X937373Y883156D01*
X937410Y883036D01*
X937465Y882777D01*
X937511Y882481D01*
X937530Y882176D01*
Y882084D01*
X937521Y882019D01*
X937511Y881936D01*
X937502Y881834D01*
X937493Y881732D01*
X937465Y881612D01*
X937410Y881362D01*
X937326Y881085D01*
X937271Y880946D01*
X937206Y880817D01*
X937123Y880687D01*
X937040Y880558D01*
X937030Y880549D01*
X937021Y880530D01*
X936993Y880493D01*
X936947Y880447D01*
X936901Y880401D01*
X936836Y880336D01*
X936762Y880271D01*
X936688Y880198D01*
X936596Y880124D01*
X936485Y880050D01*
X936374Y879966D01*
X936254Y879892D01*
X936115Y879828D01*
X935976Y879754D01*
X935828Y879698D01*
X935662Y879643D01*
X935468Y880475D01*
X935477D01*
X935496Y880484D01*
X935533Y880503D01*
X935579Y880521D01*
X935634Y880539D01*
X935708Y880567D01*
X935856Y880641D01*
X936023Y880734D01*
X936189Y880845D01*
X936346Y880983D01*
X936485Y881131D01*
X936504Y881150D01*
X936540Y881205D01*
X936587Y881298D01*
X936651Y881418D01*
X936707Y881575D01*
X936762Y881751D01*
X936799Y881963D01*
X936809Y882195D01*
Y882269D01*
X936799Y882315D01*
Y882379D01*
X936790Y882453D01*
X936762Y882629D01*
X936725Y882823D01*
X936661Y883027D01*
X936568Y883239D01*
X936448Y883433D01*
Y883443D01*
X936430Y883452D01*
X936383Y883517D01*
X936309Y883600D01*
X936198Y883701D01*
X936060Y883822D01*
X935902Y883933D01*
X935708Y884034D01*
X935496Y884127D01*
X935486D01*
X935468Y884136D01*
X935440Y884145D01*
X935394Y884155D01*
X935339Y884173D01*
X935274Y884192D01*
X935117Y884219D01*
X934932Y884256D01*
X934728Y884293D01*
X934506Y884312D01*
X934266Y884321D01*
X934257D01*
X934229D01*
X934183D01*
X934127D01*
X934063Y884312D01*
X933979D01*
X933887Y884303D01*
X933785Y884293D01*
X933563Y884266D01*
X933323Y884219D01*
X933083Y884164D01*
X932842Y884090D01*
X932833D01*
X932814Y884081D01*
X932787Y884062D01*
X932740Y884044D01*
X932630Y883988D01*
X932500Y883905D01*
X932352Y883803D01*
X932195Y883674D01*
X932056Y883526D01*
X931927Y883350D01*
Y883341D01*
X931918Y883323D01*
X931899Y883295D01*
X931881Y883258D01*
X931862Y883212D01*
X931834Y883156D01*
X931779Y883027D01*
X931723Y882860D01*
X931677Y882675D01*
X931640Y882472D01*
X931631Y882259D01*
Y882195D01*
X931640Y882139D01*
Y882074D01*
X931649Y882010D01*
X931686Y881843D01*
X931733Y881649D01*
X931807Y881455D01*
X931908Y881252D01*
X931964Y881150D01*
X932038Y881057D01*
X932047Y881048D01*
X932056Y881039D01*
X932084Y881011D01*
X932112Y880974D01*
X932158Y880937D01*
X932214Y880891D01*
X932269Y880835D01*
X932343Y880789D01*
X932426Y880734D01*
X932519Y880669D01*
X932611Y880613D01*
X932722Y880558D01*
X932842Y880512D01*
X932972Y880466D01*
X933110Y880419D01*
X933258Y880382D01*
X933046Y879532D01*
X933036D01*
X932999Y879541D01*
X932944Y879559D01*
X932870Y879587D01*
X932787Y879615D01*
X932685Y879652D01*
X932574Y879698D01*
X932454Y879754D01*
X932195Y879883D01*
X931936Y880050D01*
X931807Y880151D01*
X931677Y880253D01*
X931566Y880364D01*
X931455Y880493D01*
X931446Y880503D01*
X931428Y880521D01*
X931409Y880567D01*
X931372Y880613D01*
X931326Y880687D01*
X931280Y880761D01*
X931234Y880863D01*
X931187Y880965D01*
X931132Y881085D01*
X931086Y881215D01*
X931039Y881353D01*
X930993Y881501D01*
X930956Y881658D01*
X930938Y881825D01*
X930919Y882000D01*
X930910Y882185D01*
Y882287D01*
X930919Y882361D01*
Y882444D01*
X930928Y882546D01*
X930947Y882657D01*
X930965Y882786D01*
X931012Y883054D01*
X931086Y883332D01*
X931187Y883609D01*
X931252Y883738D01*
X931326Y883868D01*
X931335Y883877D01*
X931344Y883896D01*
X931372Y883933D01*
X931409Y883970D01*
X931446Y884025D01*
X931502Y884090D01*
X931566Y884164D01*
X931640Y884238D01*
X931723Y884312D01*
X931807Y884395D01*
X932019Y884561D01*
X932269Y884719D01*
X932546Y884857D01*
X932556D01*
X932583Y884876D01*
X932630Y884885D01*
X932685Y884913D01*
X932759Y884931D01*
X932851Y884959D01*
X932953Y884996D01*
X933064Y885024D01*
X933184Y885051D01*
X933323Y885088D01*
X933610Y885135D01*
X933933Y885172D01*
X934266Y885190D01*
X934275D01*
X934312D01*
X934368D01*
X934432Y885181D01*
D02*
G37*
G36*
X937419Y876148D02*
Y875510D01*
X933277D01*
Y874641D01*
X932556D01*
Y875510D01*
X931021D01*
Y876296D01*
X932556D01*
Y879079D01*
X933277D01*
X937419Y876148D01*
D02*
G37*
G36*
X934432Y848351D02*
X934525D01*
X934617Y848342D01*
X934738Y848332D01*
X934858Y848314D01*
X935126Y848268D01*
X935422Y848203D01*
X935718Y848110D01*
X936004Y847981D01*
X936013Y847972D01*
X936041Y847962D01*
X936078Y847944D01*
X936124Y847907D01*
X936189Y847870D01*
X936263Y847824D01*
X936430Y847704D01*
X936614Y847546D01*
X936799Y847362D01*
X936984Y847149D01*
X937141Y846899D01*
X937151Y846890D01*
X937160Y846862D01*
X937178Y846825D01*
X937206Y846779D01*
X937234Y846705D01*
X937262Y846631D01*
X937299Y846539D01*
X937336Y846437D01*
X937373Y846326D01*
X937410Y846206D01*
X937465Y845947D01*
X937511Y845651D01*
X937530Y845346D01*
Y845254D01*
X937521Y845189D01*
X937511Y845106D01*
X937502Y845004D01*
X937493Y844902D01*
X937465Y844782D01*
X937410Y844532D01*
X937326Y844255D01*
X937271Y844116D01*
X937206Y843987D01*
X937123Y843857D01*
X937040Y843728D01*
X937030Y843719D01*
X937021Y843700D01*
X936993Y843663D01*
X936947Y843617D01*
X936901Y843571D01*
X936836Y843506D01*
X936762Y843441D01*
X936688Y843367D01*
X936596Y843294D01*
X936485Y843220D01*
X936374Y843136D01*
X936254Y843062D01*
X936115Y842998D01*
X935976Y842924D01*
X935828Y842868D01*
X935662Y842813D01*
X935468Y843645D01*
X935477D01*
X935496Y843654D01*
X935533Y843673D01*
X935579Y843691D01*
X935634Y843709D01*
X935708Y843737D01*
X935856Y843811D01*
X936023Y843904D01*
X936189Y844015D01*
X936346Y844153D01*
X936485Y844301D01*
X936504Y844320D01*
X936540Y844375D01*
X936587Y844468D01*
X936651Y844588D01*
X936707Y844745D01*
X936762Y844921D01*
X936799Y845133D01*
X936809Y845365D01*
Y845439D01*
X936799Y845485D01*
Y845549D01*
X936790Y845623D01*
X936762Y845799D01*
X936725Y845993D01*
X936661Y846197D01*
X936568Y846409D01*
X936448Y846603D01*
Y846613D01*
X936430Y846622D01*
X936383Y846687D01*
X936309Y846770D01*
X936198Y846871D01*
X936060Y846992D01*
X935902Y847103D01*
X935708Y847204D01*
X935496Y847297D01*
X935486D01*
X935468Y847306D01*
X935440Y847315D01*
X935394Y847325D01*
X935339Y847343D01*
X935274Y847362D01*
X935117Y847389D01*
X934932Y847426D01*
X934728Y847463D01*
X934506Y847482D01*
X934266Y847491D01*
X934257D01*
X934229D01*
X934183D01*
X934127D01*
X934063Y847482D01*
X933979D01*
X933887Y847473D01*
X933785Y847463D01*
X933563Y847436D01*
X933323Y847389D01*
X933083Y847334D01*
X932842Y847260D01*
X932833D01*
X932814Y847251D01*
X932787Y847232D01*
X932740Y847214D01*
X932630Y847158D01*
X932500Y847075D01*
X932352Y846973D01*
X932195Y846844D01*
X932056Y846696D01*
X931927Y846520D01*
Y846511D01*
X931918Y846492D01*
X931899Y846465D01*
X931881Y846428D01*
X931862Y846382D01*
X931834Y846326D01*
X931779Y846197D01*
X931723Y846030D01*
X931677Y845845D01*
X931640Y845642D01*
X931631Y845429D01*
Y845365D01*
X931640Y845309D01*
Y845244D01*
X931649Y845180D01*
X931686Y845013D01*
X931733Y844819D01*
X931807Y844625D01*
X931908Y844421D01*
X931964Y844320D01*
X932038Y844227D01*
X932047Y844218D01*
X932056Y844209D01*
X932084Y844181D01*
X932112Y844144D01*
X932158Y844107D01*
X932214Y844061D01*
X932269Y844005D01*
X932343Y843959D01*
X932426Y843904D01*
X932519Y843839D01*
X932611Y843783D01*
X932722Y843728D01*
X932842Y843682D01*
X932972Y843636D01*
X933110Y843589D01*
X933258Y843552D01*
X933046Y842702D01*
X933036D01*
X932999Y842711D01*
X932944Y842729D01*
X932870Y842757D01*
X932787Y842785D01*
X932685Y842822D01*
X932574Y842868D01*
X932454Y842924D01*
X932195Y843053D01*
X931936Y843220D01*
X931807Y843321D01*
X931677Y843423D01*
X931566Y843534D01*
X931455Y843663D01*
X931446Y843673D01*
X931428Y843691D01*
X931409Y843737D01*
X931372Y843783D01*
X931326Y843857D01*
X931280Y843931D01*
X931234Y844033D01*
X931187Y844135D01*
X931132Y844255D01*
X931086Y844385D01*
X931039Y844523D01*
X930993Y844671D01*
X930956Y844828D01*
X930938Y844995D01*
X930919Y845170D01*
X930910Y845355D01*
Y845457D01*
X930919Y845531D01*
Y845614D01*
X930928Y845716D01*
X930947Y845827D01*
X930965Y845956D01*
X931012Y846224D01*
X931086Y846502D01*
X931187Y846779D01*
X931252Y846908D01*
X931326Y847038D01*
X931335Y847047D01*
X931344Y847066D01*
X931372Y847103D01*
X931409Y847140D01*
X931446Y847195D01*
X931502Y847260D01*
X931566Y847334D01*
X931640Y847408D01*
X931723Y847482D01*
X931807Y847565D01*
X932019Y847731D01*
X932269Y847889D01*
X932546Y848027D01*
X932556D01*
X932583Y848046D01*
X932630Y848055D01*
X932685Y848083D01*
X932759Y848101D01*
X932851Y848129D01*
X932953Y848166D01*
X933064Y848194D01*
X933184Y848221D01*
X933323Y848258D01*
X933610Y848305D01*
X933933Y848342D01*
X934266Y848360D01*
X934275D01*
X934312D01*
X934368D01*
X934432Y848351D01*
D02*
G37*
G36*
X932814Y841186D02*
X932805D01*
X932787Y841176D01*
X932750Y841167D01*
X932703Y841158D01*
X932648Y841149D01*
X932583Y841130D01*
X932445Y841084D01*
X932278Y841019D01*
X932121Y840936D01*
X931973Y840843D01*
X931844Y840732D01*
X931834Y840714D01*
X931797Y840677D01*
X931751Y840603D01*
X931705Y840511D01*
X931649Y840400D01*
X931603Y840261D01*
X931566Y840104D01*
X931557Y839937D01*
Y839882D01*
X931566Y839845D01*
X931576Y839743D01*
X931603Y839614D01*
X931649Y839466D01*
X931714Y839309D01*
X931807Y839152D01*
X931936Y839004D01*
X931955Y838985D01*
X932010Y838939D01*
X932093Y838883D01*
X932204Y838809D01*
X932343Y838735D01*
X932500Y838680D01*
X932685Y838634D01*
X932888Y838615D01*
X932898D01*
X932916D01*
X932944D01*
X932981Y838624D01*
X933083Y838634D01*
X933203Y838661D01*
X933351Y838698D01*
X933499Y838763D01*
X933647Y838856D01*
X933785Y838976D01*
X933804Y838994D01*
X933841Y839041D01*
X933896Y839115D01*
X933961Y839216D01*
X934026Y839346D01*
X934081Y839503D01*
X934118Y839678D01*
X934137Y839873D01*
Y839956D01*
X934127Y840021D01*
X934118Y840104D01*
X934100Y840196D01*
X934081Y840307D01*
X934053Y840427D01*
X934747Y840335D01*
Y840289D01*
X934738Y840252D01*
Y840132D01*
X934756Y840030D01*
X934774Y839910D01*
X934802Y839771D01*
X934848Y839614D01*
X934913Y839466D01*
X934996Y839309D01*
Y839299D01*
X935006Y839290D01*
X935043Y839244D01*
X935107Y839179D01*
X935191Y839105D01*
X935311Y839031D01*
X935450Y838967D01*
X935607Y838920D01*
X935699Y838902D01*
X935801D01*
X935810D01*
X935819D01*
X935875D01*
X935949Y838920D01*
X936050Y838939D01*
X936161Y838976D01*
X936282Y839022D01*
X936402Y839096D01*
X936513Y839198D01*
X936522Y839207D01*
X936559Y839253D01*
X936605Y839318D01*
X936661Y839401D01*
X936707Y839512D01*
X936753Y839641D01*
X936790Y839789D01*
X936799Y839956D01*
Y840030D01*
X936781Y840113D01*
X936762Y840224D01*
X936725Y840344D01*
X936679Y840464D01*
X936605Y840594D01*
X936513Y840714D01*
X936504Y840723D01*
X936457Y840760D01*
X936393Y840816D01*
X936300Y840880D01*
X936180Y840945D01*
X936032Y841010D01*
X935856Y841065D01*
X935653Y841102D01*
X935791Y841888D01*
X935801D01*
X935828Y841879D01*
X935865Y841870D01*
X935921Y841860D01*
X935986Y841842D01*
X936060Y841814D01*
X936235Y841759D01*
X936439Y841666D01*
X936642Y841555D01*
X936836Y841417D01*
X937012Y841241D01*
X937021Y841232D01*
X937030Y841213D01*
X937049Y841186D01*
X937077Y841149D01*
X937114Y841102D01*
X937151Y841038D01*
X937188Y840973D01*
X937234Y840890D01*
X937308Y840705D01*
X937382Y840492D01*
X937428Y840242D01*
X937447Y840113D01*
Y839882D01*
X937437Y839780D01*
X937419Y839660D01*
X937391Y839512D01*
X937345Y839346D01*
X937289Y839179D01*
X937215Y839013D01*
Y839004D01*
X937206Y838994D01*
X937178Y838939D01*
X937123Y838856D01*
X937058Y838763D01*
X936966Y838652D01*
X936864Y838541D01*
X936744Y838430D01*
X936605Y838338D01*
X936587Y838329D01*
X936540Y838301D01*
X936457Y838264D01*
X936356Y838218D01*
X936235Y838171D01*
X936097Y838134D01*
X935939Y838107D01*
X935782Y838098D01*
X935764D01*
X935708D01*
X935634Y838107D01*
X935533Y838125D01*
X935413Y838153D01*
X935283Y838199D01*
X935154Y838255D01*
X935024Y838329D01*
X935006Y838338D01*
X934969Y838366D01*
X934904Y838421D01*
X934830Y838495D01*
X934747Y838587D01*
X934654Y838698D01*
X934571Y838828D01*
X934488Y838985D01*
Y838976D01*
X934479Y838957D01*
X934469Y838930D01*
X934460Y838893D01*
X934423Y838791D01*
X934368Y838661D01*
X934294Y838513D01*
X934201Y838366D01*
X934081Y838227D01*
X933942Y838098D01*
X933924Y838088D01*
X933868Y838051D01*
X933776Y837996D01*
X933656Y837940D01*
X933508Y837885D01*
X933332Y837829D01*
X933129Y837792D01*
X932907Y837783D01*
X932898D01*
X932870D01*
X932824D01*
X932768Y837792D01*
X932694Y837802D01*
X932611Y837820D01*
X932519Y837839D01*
X932417Y837857D01*
X932195Y837931D01*
X932075Y837987D01*
X931964Y838042D01*
X931844Y838116D01*
X931723Y838199D01*
X931603Y838292D01*
X931492Y838403D01*
X931483Y838412D01*
X931465Y838430D01*
X931437Y838467D01*
X931400Y838513D01*
X931354Y838569D01*
X931307Y838643D01*
X931252Y838726D01*
X931206Y838828D01*
X931150Y838930D01*
X931095Y839050D01*
X931049Y839170D01*
X931002Y839309D01*
X930965Y839457D01*
X930938Y839614D01*
X930919Y839771D01*
X930910Y839947D01*
Y840030D01*
X930919Y840085D01*
X930928Y840159D01*
X930938Y840242D01*
X930956Y840335D01*
X930975Y840437D01*
X931030Y840658D01*
X931123Y840890D01*
X931178Y841010D01*
X931243Y841121D01*
X931326Y841232D01*
X931409Y841343D01*
X931418Y841352D01*
X931437Y841370D01*
X931465Y841398D01*
X931502Y841426D01*
X931548Y841472D01*
X931612Y841518D01*
X931677Y841574D01*
X931760Y841629D01*
X931853Y841685D01*
X931945Y841740D01*
X932167Y841842D01*
X932426Y841925D01*
X932565Y841953D01*
X932713Y841971D01*
X932814Y841186D01*
D02*
G37*
%LPC*%
G36*
X1196946Y740829D02*
X1194829D01*
Y738925D01*
X1194838Y738814D01*
X1194847Y738684D01*
X1194856Y738537D01*
X1194875Y738389D01*
X1194903Y738241D01*
X1194940Y738111D01*
X1194949Y738093D01*
X1194967Y738056D01*
X1194995Y738000D01*
X1195032Y737926D01*
X1195088Y737843D01*
X1195152Y737760D01*
X1195236Y737677D01*
X1195328Y737612D01*
X1195337Y737603D01*
X1195374Y737584D01*
X1195430Y737557D01*
X1195504Y737520D01*
X1195587Y737492D01*
X1195679Y737464D01*
X1195790Y737446D01*
X1195901Y737436D01*
X1195910D01*
X1195920D01*
X1195975Y737446D01*
X1196058Y737455D01*
X1196169Y737473D01*
X1196280Y737520D01*
X1196410Y737575D01*
X1196530Y737658D01*
X1196650Y737769D01*
X1196659Y737788D01*
X1196696Y737834D01*
X1196742Y737908D01*
X1196798Y738028D01*
X1196853Y738167D01*
X1196900Y738352D01*
X1196937Y738564D01*
X1196946Y738814D01*
Y740829D01*
D02*
G37*
G36*
X1186619Y693854D02*
X1186609D01*
X1186600D01*
X1186545Y693844D01*
X1186462Y693835D01*
X1186351Y693817D01*
X1186240Y693770D01*
X1186110Y693715D01*
X1185990Y693632D01*
X1185870Y693521D01*
X1185861Y693502D01*
X1185824Y693456D01*
X1185777Y693382D01*
X1185722Y693262D01*
X1185667Y693123D01*
X1185620Y692938D01*
X1185583Y692726D01*
X1185574Y692476D01*
Y690461D01*
X1187691D01*
Y692365D01*
X1187682Y692476D01*
X1187673Y692605D01*
X1187663Y692753D01*
X1187645Y692901D01*
X1187617Y693049D01*
X1187580Y693179D01*
X1187571Y693197D01*
X1187553Y693234D01*
X1187525Y693290D01*
X1187488Y693364D01*
X1187432Y693447D01*
X1187368Y693530D01*
X1187284Y693613D01*
X1187192Y693678D01*
X1187183Y693687D01*
X1187146Y693706D01*
X1187090Y693733D01*
X1187016Y693770D01*
X1186933Y693798D01*
X1186841Y693826D01*
X1186730Y693844D01*
X1186619Y693854D01*
D02*
G37*
G36*
X933277Y878311D02*
Y876296D01*
X936143D01*
X933277Y878311D01*
D02*
G37*
%LPD*%
D11*
X1234170Y626390D02*
Y1016990D01*
X1206770Y626390D02*
X1234170D01*
X1206770D02*
Y1016990D01*
X1234170D01*
X1081770Y626390D02*
Y1016990D01*
X1054370Y626390D02*
X1081770D01*
X1054370D02*
Y1016990D01*
X1081770D01*
X1200760Y719680D02*
Y763680D01*
X1181760Y719680D02*
X1200760D01*
X1181760D02*
Y763680D01*
X1200760D01*
X1181760Y667610D02*
Y711610D01*
X1200760D01*
Y667610D02*
Y711610D01*
X1181760Y667610D02*
X1200760D01*
X960630Y792140D02*
X992630D01*
X960630D02*
Y813140D01*
X992630D01*
Y792140D02*
Y813140D01*
X945278Y900935D02*
X1023222D01*
Y833885D02*
Y900935D01*
X945278Y833885D02*
X1023222D01*
X945278D02*
Y900935D01*
X921990Y795410D02*
X949990D01*
X921990D02*
Y812410D01*
X949990D01*
Y795410D02*
Y812410D01*
X939410Y871190D02*
Y899190D01*
X922410Y871190D02*
X939410D01*
X922410D02*
Y899190D01*
X939410D01*
Y834360D02*
Y862360D01*
X922410Y834360D02*
X939410D01*
X922410D02*
Y862360D01*
X939410D01*
M02*
