G04*
G04 #@! TF.GenerationSoftware,Altium Limited,Altium Designer,25.6.2 (33)*
G04*
G04 Layer_Physical_Order=1*
G04 Layer_Color=255*
%FSLAX44Y44*%
%MOMM*%
G71*
G04*
G04 #@! TF.SameCoordinates,E10141E4-A060-4BB7-8850-C9F2C3C4F881*
G04*
G04*
G04 #@! TF.FilePolarity,Positive*
G04*
G01*
G75*
%ADD12C,0.4000*%
%ADD14R,1.2000X1.2000*%
%ADD15R,1.5000X1.0000*%
%ADD16R,0.9500X1.4000*%
%ADD17R,1.0043X0.8721*%
G04:AMPARAMS|DCode=18|XSize=1.0043mm|YSize=0.8721mm|CornerRadius=0.4361mm|HoleSize=0mm|Usage=FLASHONLY|Rotation=0.000|XOffset=0mm|YOffset=0mm|HoleType=Round|Shape=RoundedRectangle|*
%AMROUNDEDRECTD18*
21,1,1.0043,0.0000,0,0,0.0*
21,1,0.1322,0.8721,0,0,0.0*
1,1,0.8721,0.0661,0.0000*
1,1,0.8721,-0.0661,0.0000*
1,1,0.8721,-0.0661,0.0000*
1,1,0.8721,0.0661,0.0000*
%
%ADD18ROUNDEDRECTD18*%
G04:AMPARAMS|DCode=19|XSize=1.0043mm|YSize=3.1821mm|CornerRadius=0.4369mm|HoleSize=0mm|Usage=FLASHONLY|Rotation=0.000|XOffset=0mm|YOffset=0mm|HoleType=Round|Shape=RoundedRectangle|*
%AMROUNDEDRECTD19*
21,1,1.0043,2.3084,0,0,0.0*
21,1,0.1306,3.1821,0,0,0.0*
1,1,0.8737,0.0653,-1.1542*
1,1,0.8737,-0.0653,-1.1542*
1,1,0.8737,-0.0653,1.1542*
1,1,0.8737,0.0653,1.1542*
%
%ADD19ROUNDEDRECTD19*%
%ADD20R,0.9500X1.3500*%
%ADD21R,1.3500X0.9500*%
%ADD23R,1.5900X1.5900*%
%ADD24C,1.5900*%
%ADD30C,0.3500*%
%ADD31C,1.5000*%
%ADD32C,1.1000*%
%ADD33C,0.5000*%
%ADD34C,1.4000*%
%ADD35C,1.9500*%
G04:AMPARAMS|DCode=36|XSize=1.95mm|YSize=1.95mm|CornerRadius=0.4875mm|HoleSize=0mm|Usage=FLASHONLY|Rotation=90.000|XOffset=0mm|YOffset=0mm|HoleType=Round|Shape=RoundedRectangle|*
%AMROUNDEDRECTD36*
21,1,1.9500,0.9750,0,0,90.0*
21,1,0.9750,1.9500,0,0,90.0*
1,1,0.9750,0.4875,0.4875*
1,1,0.9750,0.4875,-0.4875*
1,1,0.9750,-0.4875,-0.4875*
1,1,0.9750,-0.4875,0.4875*
%
%ADD36ROUNDEDRECTD36*%
%ADD37C,1.5000*%
G04:AMPARAMS|DCode=38|XSize=1.5mm|YSize=1.5mm|CornerRadius=0.375mm|HoleSize=0mm|Usage=FLASHONLY|Rotation=0.000|XOffset=0mm|YOffset=0mm|HoleType=Round|Shape=RoundedRectangle|*
%AMROUNDEDRECTD38*
21,1,1.5000,0.7500,0,0,0.0*
21,1,0.7500,1.5000,0,0,0.0*
1,1,0.7500,0.3750,-0.3750*
1,1,0.7500,-0.3750,-0.3750*
1,1,0.7500,-0.3750,0.3750*
1,1,0.7500,0.3750,0.3750*
%
%ADD38ROUNDEDRECTD38*%
%ADD39C,1.2700*%
G36*
X1351280Y1029970D02*
Y635000D01*
X1338580Y622300D01*
X911860D01*
X900430Y633730D01*
Y1029970D01*
X901700Y1031240D01*
X914400Y1041400D01*
X1339850D01*
X1351280Y1029970D01*
D02*
G37*
%LPC*%
G36*
X1221851Y984580D02*
X1219089D01*
X1216421Y983865D01*
X1214029Y982484D01*
X1212076Y980531D01*
X1210695Y978139D01*
X1210612Y977829D01*
X1187203D01*
X1186944Y978279D01*
X1185289Y979934D01*
X1183261Y981104D01*
X1181000Y981710D01*
X1178660D01*
X1176399Y981104D01*
X1174371Y979934D01*
X1172716Y978279D01*
X1171546Y976251D01*
X1170940Y973990D01*
Y971650D01*
X1171546Y969389D01*
X1172716Y967361D01*
X1174371Y965706D01*
X1176399Y964536D01*
X1178660Y963930D01*
X1181000D01*
X1183261Y964536D01*
X1185289Y965706D01*
X1186944Y967361D01*
X1187937Y969081D01*
X1211249D01*
X1212076Y967649D01*
X1214029Y965696D01*
X1216421Y964315D01*
X1219089Y963600D01*
X1221851D01*
X1224519Y964315D01*
X1226911Y965696D01*
X1228864Y967649D01*
X1230245Y970041D01*
X1230960Y972709D01*
Y975471D01*
X1230245Y978139D01*
X1228864Y980531D01*
X1226911Y982484D01*
X1224519Y983865D01*
X1221851Y984580D01*
D02*
G37*
G36*
X1069451D02*
X1066689D01*
X1064021Y983865D01*
X1061629Y982484D01*
X1059676Y980531D01*
X1058295Y978139D01*
X1057580Y975471D01*
Y972709D01*
X1058295Y970041D01*
X1059676Y967649D01*
X1061629Y965696D01*
X1064021Y964315D01*
X1066689Y963600D01*
X1069451D01*
X1072119Y964315D01*
X1074511Y965696D01*
X1076464Y967649D01*
X1077845Y970041D01*
X1078560Y972709D01*
Y975471D01*
X1077845Y978139D01*
X1076464Y980531D01*
X1074511Y982484D01*
X1072119Y983865D01*
X1069451Y984580D01*
D02*
G37*
G36*
X1221851Y959180D02*
X1219089D01*
X1216421Y958465D01*
X1214029Y957084D01*
X1212076Y955131D01*
X1210695Y952739D01*
X1209980Y950071D01*
Y947309D01*
X1210695Y944641D01*
X1212076Y942249D01*
X1214029Y940296D01*
X1216421Y938915D01*
X1219089Y938200D01*
X1221851D01*
X1224519Y938915D01*
X1226911Y940296D01*
X1228864Y942249D01*
X1230245Y944641D01*
X1230960Y947309D01*
Y950071D01*
X1230245Y952739D01*
X1228864Y955131D01*
X1226911Y957084D01*
X1224519Y958465D01*
X1221851Y959180D01*
D02*
G37*
G36*
X1069451D02*
X1066689D01*
X1064021Y958465D01*
X1061629Y957084D01*
X1059676Y955131D01*
X1058295Y952739D01*
X1057580Y950071D01*
Y947309D01*
X1058295Y944641D01*
X1059676Y942249D01*
X1061629Y940296D01*
X1064021Y938915D01*
X1066689Y938200D01*
X1069451D01*
X1072119Y938915D01*
X1074511Y940296D01*
X1076464Y942249D01*
X1077845Y944641D01*
X1078560Y947309D01*
Y950071D01*
X1077845Y952739D01*
X1076464Y955131D01*
X1074511Y957084D01*
X1072119Y958465D01*
X1069451Y959180D01*
D02*
G37*
G36*
X1289398Y939390D02*
X1286162D01*
X1283036Y938552D01*
X1280740Y937227D01*
X1269897D01*
X1269897Y937227D01*
X1267276Y936882D01*
X1264834Y935870D01*
X1262736Y934261D01*
X1262736Y934260D01*
X1253949Y925474D01*
X1252340Y923376D01*
X1251328Y920934D01*
X1250983Y918313D01*
X1250983Y918313D01*
Y891883D01*
X1233835Y874734D01*
X1230489Y875631D01*
X1230245Y876539D01*
X1228864Y878931D01*
X1226911Y880884D01*
X1224519Y882265D01*
X1221851Y882980D01*
X1219089D01*
X1216421Y882265D01*
X1214029Y880884D01*
X1212076Y878931D01*
X1210695Y876539D01*
X1209980Y873871D01*
Y871109D01*
X1210695Y868441D01*
X1212076Y866049D01*
X1214029Y864096D01*
X1216421Y862715D01*
X1217329Y862471D01*
X1218226Y859125D01*
X1215343Y856243D01*
X1214029Y855484D01*
X1212076Y853531D01*
X1210695Y851139D01*
X1209980Y848471D01*
Y845709D01*
X1210695Y843041D01*
X1212076Y840649D01*
X1214029Y838696D01*
X1216421Y837315D01*
X1219089Y836600D01*
X1221851D01*
X1224519Y837315D01*
X1226911Y838696D01*
X1228864Y840649D01*
X1229509Y841766D01*
X1268270Y880528D01*
X1268271Y880528D01*
X1269880Y882625D01*
X1270892Y885067D01*
X1271237Y887688D01*
X1271237Y887689D01*
Y914119D01*
X1274091Y916973D01*
X1280740D01*
X1283036Y915648D01*
X1286162Y914810D01*
X1289398D01*
X1292524Y915648D01*
X1295326Y917266D01*
X1297614Y919554D01*
X1299232Y922356D01*
X1300070Y925482D01*
Y928718D01*
X1299232Y931844D01*
X1297614Y934646D01*
X1295326Y936934D01*
X1292524Y938552D01*
X1289398Y939390D01*
D02*
G37*
G36*
X1221851Y933780D02*
X1219089D01*
X1216421Y933065D01*
X1214029Y931684D01*
X1212076Y929731D01*
X1210695Y927339D01*
X1209980Y924671D01*
Y921909D01*
X1210695Y919241D01*
X1212076Y916849D01*
X1214029Y914896D01*
X1216421Y913515D01*
X1219089Y912800D01*
X1221851D01*
X1224519Y913515D01*
X1226911Y914896D01*
X1228864Y916849D01*
X1230245Y919241D01*
X1230960Y921909D01*
Y924671D01*
X1230245Y927339D01*
X1228864Y929731D01*
X1226911Y931684D01*
X1224519Y933065D01*
X1221851Y933780D01*
D02*
G37*
G36*
X1069451D02*
X1066689D01*
X1064021Y933065D01*
X1061629Y931684D01*
X1059676Y929731D01*
X1058295Y927339D01*
X1057580Y924671D01*
Y921909D01*
X1058295Y919241D01*
X1059676Y916849D01*
X1061629Y914896D01*
X1064021Y913515D01*
X1066689Y912800D01*
X1069451D01*
X1072119Y913515D01*
X1074511Y914896D01*
X1076464Y916849D01*
X1077845Y919241D01*
X1078560Y921909D01*
Y924671D01*
X1077845Y927339D01*
X1076464Y929731D01*
X1074511Y931684D01*
X1072119Y933065D01*
X1069451Y933780D01*
D02*
G37*
G36*
X940200Y899980D02*
X932180D01*
Y893960D01*
X940200D01*
Y899980D01*
D02*
G37*
G36*
X929640D02*
X921620D01*
Y893960D01*
X929640D01*
Y899980D01*
D02*
G37*
G36*
X958861Y897211D02*
X952570D01*
Y891580D01*
X958861D01*
Y897211D01*
D02*
G37*
G36*
X950030D02*
X943738D01*
Y891580D01*
X950030D01*
Y897211D01*
D02*
G37*
G36*
X1221851Y908380D02*
X1219089D01*
X1216421Y907665D01*
X1214029Y906284D01*
X1212076Y904331D01*
X1210695Y901939D01*
X1209980Y899271D01*
Y896509D01*
X1210695Y893841D01*
X1212076Y891449D01*
X1214029Y889496D01*
X1216421Y888115D01*
X1219089Y887400D01*
X1221851D01*
X1224519Y888115D01*
X1226911Y889496D01*
X1228864Y891449D01*
X1230245Y893841D01*
X1230960Y896509D01*
Y899271D01*
X1230245Y901939D01*
X1228864Y904331D01*
X1226911Y906284D01*
X1224519Y907665D01*
X1221851Y908380D01*
D02*
G37*
G36*
X1069451D02*
X1066689D01*
X1064021Y907665D01*
X1061629Y906284D01*
X1059676Y904331D01*
X1058295Y901939D01*
X1057580Y899271D01*
Y896509D01*
X1058295Y893841D01*
X1059676Y891449D01*
X1061629Y889496D01*
X1064021Y888115D01*
X1066689Y887400D01*
X1069451D01*
X1072119Y888115D01*
X1074511Y889496D01*
X1076464Y891449D01*
X1077845Y893841D01*
X1078560Y896509D01*
Y899271D01*
X1077845Y901939D01*
X1076464Y904331D01*
X1074511Y906284D01*
X1072119Y907665D01*
X1069451Y908380D01*
D02*
G37*
G36*
Y882980D02*
X1066689D01*
X1064021Y882265D01*
X1061629Y880884D01*
X1059676Y878931D01*
X1058295Y876539D01*
X1057580Y873871D01*
Y871109D01*
X1058295Y868441D01*
X1059676Y866049D01*
X1061629Y864096D01*
X1064021Y862715D01*
X1066689Y862000D01*
X1069451D01*
X1072119Y862715D01*
X1074511Y864096D01*
X1076464Y866049D01*
X1077845Y868441D01*
X1078560Y871109D01*
Y873871D01*
X1077845Y876539D01*
X1076464Y878931D01*
X1074511Y880884D01*
X1072119Y882265D01*
X1069451Y882980D01*
D02*
G37*
G36*
X1017853Y885920D02*
X1016547D01*
X1014744Y885683D01*
X1013063Y884987D01*
X1011620Y883879D01*
X1010512Y882436D01*
X1009816Y880755D01*
X1009579Y878952D01*
Y855868D01*
X1009816Y854064D01*
X1010512Y852384D01*
X1011620Y850941D01*
X1013063Y849833D01*
X1014744Y849137D01*
X1016547Y848900D01*
X1017853D01*
X1019656Y849137D01*
X1021337Y849833D01*
X1022780Y850941D01*
X1023887Y852384D01*
X1024584Y854064D01*
X1024821Y855868D01*
Y878952D01*
X1024584Y880755D01*
X1023887Y882436D01*
X1022780Y883879D01*
X1021337Y884987D01*
X1019656Y885683D01*
X1017853Y885920D01*
D02*
G37*
G36*
X1292655Y904454D02*
X1282905D01*
X1280969Y904199D01*
X1279165Y903452D01*
X1277617Y902263D01*
X1276428Y900714D01*
X1275681Y898911D01*
X1275426Y896975D01*
Y887225D01*
X1275681Y885289D01*
X1276428Y883485D01*
X1277617Y881937D01*
X1278923Y880934D01*
Y875415D01*
X1235498Y831989D01*
X1222565D01*
X1221851Y832180D01*
X1219089D01*
X1216421Y831465D01*
X1214029Y830084D01*
X1212076Y828131D01*
X1210695Y825739D01*
X1209980Y823071D01*
Y820309D01*
X1210695Y817641D01*
X1212076Y815249D01*
X1214029Y813296D01*
X1216421Y811915D01*
X1219089Y811200D01*
X1221851D01*
X1223850Y811736D01*
X1239692D01*
X1239692Y811736D01*
X1242313Y812081D01*
X1244067Y812807D01*
X1245766Y810264D01*
X1233844Y798342D01*
X1230531Y799271D01*
X1230245Y800339D01*
X1228864Y802731D01*
X1226911Y804684D01*
X1224519Y806065D01*
X1221851Y806780D01*
X1219089D01*
X1216421Y806065D01*
X1214029Y804684D01*
X1212076Y802731D01*
X1211030Y800919D01*
X1203960D01*
X1203960Y800919D01*
X1202189Y800567D01*
X1200687Y799563D01*
X1200687Y799563D01*
X1187987Y786863D01*
X1186983Y785361D01*
X1186631Y783590D01*
X1186631Y783590D01*
Y765220D01*
X1181220D01*
Y750140D01*
X1201300D01*
Y765220D01*
X1195889D01*
Y781673D01*
X1205877Y791661D01*
X1211030D01*
X1212076Y789849D01*
X1214029Y787896D01*
X1216421Y786515D01*
X1217488Y786229D01*
X1218419Y782916D01*
X1215821Y780319D01*
X1214029Y779284D01*
X1212076Y777331D01*
X1210695Y774939D01*
X1209980Y772271D01*
Y769509D01*
X1210695Y766841D01*
X1212076Y764449D01*
X1214029Y762496D01*
X1216421Y761115D01*
X1219089Y760400D01*
X1221851D01*
X1224519Y761115D01*
X1226911Y762496D01*
X1228864Y764449D01*
X1229233Y765089D01*
X1270460Y806315D01*
X1272692Y805495D01*
X1273346Y804959D01*
Y795505D01*
X1273601Y793569D01*
X1274348Y791766D01*
X1275537Y790217D01*
X1275573Y790188D01*
Y761471D01*
X1269719Y755617D01*
X1223207D01*
X1221851Y755980D01*
X1219089D01*
X1216421Y755265D01*
X1214029Y753884D01*
X1212076Y751931D01*
X1210695Y749539D01*
X1209980Y746871D01*
Y744109D01*
X1210695Y741441D01*
X1212076Y739049D01*
X1214029Y737096D01*
X1216421Y735715D01*
X1219089Y735000D01*
X1221851D01*
X1223207Y735363D01*
X1273913D01*
X1273913Y735363D01*
X1276534Y735708D01*
X1278977Y736720D01*
X1281074Y738329D01*
X1292861Y750116D01*
X1292861Y750116D01*
X1294470Y752214D01*
X1295482Y754656D01*
X1295827Y757277D01*
X1295827Y757277D01*
Y790188D01*
X1295863Y790217D01*
X1297052Y791766D01*
X1297799Y793569D01*
X1298054Y795505D01*
Y805255D01*
X1297799Y807191D01*
X1297052Y808995D01*
X1295863Y810543D01*
X1294315Y811732D01*
X1292511Y812479D01*
X1290575Y812734D01*
X1281121D01*
X1280585Y813388D01*
X1279765Y815620D01*
X1287235Y823090D01*
X1287318D01*
X1290444Y823928D01*
X1293246Y825546D01*
X1295534Y827834D01*
X1297152Y830636D01*
X1297990Y833762D01*
Y836998D01*
X1297152Y840124D01*
X1295534Y842926D01*
X1293246Y845214D01*
X1290444Y846832D01*
X1287318Y847670D01*
X1284082D01*
X1284057Y847663D01*
X1282504Y850353D01*
X1296210Y864059D01*
X1296211Y864059D01*
X1297820Y866157D01*
X1298832Y868599D01*
X1299177Y871220D01*
Y883593D01*
X1299879Y885289D01*
X1300134Y887225D01*
Y896975D01*
X1299879Y898911D01*
X1299132Y900714D01*
X1297943Y902263D01*
X1296395Y903452D01*
X1294591Y904199D01*
X1292655Y904454D01*
D02*
G37*
G36*
X993170Y812180D02*
X987150D01*
Y803910D01*
X993170D01*
Y812180D01*
D02*
G37*
G36*
X984610D02*
X978590D01*
Y803910D01*
X984610D01*
Y812180D01*
D02*
G37*
G36*
X950780Y802640D02*
X944760D01*
Y794620D01*
X950780D01*
Y802640D01*
D02*
G37*
G36*
X934660Y749303D02*
X932180D01*
Y740410D01*
X941073D01*
Y742890D01*
X940585Y745344D01*
X939195Y747425D01*
X937114Y748815D01*
X934660Y749303D01*
D02*
G37*
G36*
X929640D02*
X927160D01*
X924706Y748815D01*
X922625Y747425D01*
X921235Y745344D01*
X920747Y742890D01*
Y740410D01*
X929640D01*
Y749303D01*
D02*
G37*
G36*
X1230960Y1009980D02*
X1209980D01*
Y1003864D01*
X1177290D01*
X1175616Y1003531D01*
X1174197Y1002583D01*
X1151337Y979723D01*
X1150389Y978304D01*
X1150056Y976630D01*
Y760002D01*
X1127678Y737624D01*
X1079106D01*
X1077374Y740624D01*
X1077845Y741441D01*
X1078560Y744109D01*
Y746871D01*
X1077845Y749539D01*
X1076842Y751276D01*
X1077618Y753357D01*
X1078362Y754276D01*
X1116790D01*
X1118464Y754609D01*
X1119883Y755557D01*
X1141013Y776687D01*
X1141961Y778106D01*
X1142294Y779780D01*
Y977900D01*
X1141961Y979574D01*
X1141013Y980993D01*
X1119423Y1002583D01*
X1118004Y1003531D01*
X1116330Y1003864D01*
X1078560D01*
Y1009980D01*
X1057580D01*
Y989000D01*
X1078560D01*
Y995116D01*
X1114518D01*
X1133546Y976088D01*
Y851595D01*
X1130546Y849934D01*
X1129921Y850294D01*
X1127660Y850900D01*
X1125320D01*
X1123059Y850294D01*
X1121031Y849124D01*
X1119376Y847469D01*
X1118314Y845629D01*
X1118031Y845542D01*
X1115314Y846942D01*
Y859705D01*
X1115574Y861010D01*
Y958701D01*
X1116709Y959356D01*
X1118364Y961011D01*
X1119534Y963039D01*
X1120140Y965300D01*
Y967640D01*
X1119534Y969901D01*
X1118364Y971929D01*
X1116709Y973584D01*
X1114681Y974754D01*
X1112420Y975360D01*
X1110080D01*
X1107819Y974754D01*
X1105791Y973584D01*
X1104136Y971929D01*
X1102966Y969901D01*
X1102360Y967640D01*
Y965300D01*
X1102966Y963039D01*
X1104136Y961011D01*
X1105791Y959356D01*
X1106825Y958759D01*
Y895302D01*
X1104025Y893496D01*
X1103826Y893519D01*
X1101730Y894080D01*
X1099389D01*
X1097128Y893474D01*
X1095101Y892304D01*
X1093446Y890649D01*
X1092275Y888621D01*
X1091669Y886360D01*
Y884020D01*
X1092275Y881759D01*
X1093446Y879731D01*
X1095101Y878076D01*
X1096716Y877144D01*
Y859062D01*
X1081045Y843390D01*
X1078355Y844943D01*
X1078560Y845709D01*
Y848471D01*
X1077845Y851139D01*
X1076464Y853531D01*
X1074511Y855484D01*
X1072119Y856865D01*
X1069451Y857580D01*
X1066689D01*
X1064021Y856865D01*
X1061629Y855484D01*
X1059676Y853531D01*
X1058295Y851139D01*
X1057580Y848471D01*
Y845709D01*
X1058295Y843041D01*
X1058766Y842224D01*
X1057035Y839224D01*
X1055830D01*
X1054156Y838891D01*
X1052737Y837943D01*
X1048467Y833673D01*
X1047519Y832254D01*
X1047186Y830580D01*
Y812072D01*
X1029118Y794004D01*
X993170D01*
Y801370D01*
X985880D01*
X978590D01*
Y793917D01*
X977670Y793329D01*
X974670Y794971D01*
X974670Y796005D01*
Y799230D01*
X975213Y800541D01*
X975489Y802640D01*
Y810620D01*
X975213Y812719D01*
X974403Y814675D01*
X973114Y816354D01*
X963314Y826154D01*
X961635Y827443D01*
X959679Y828253D01*
X957580Y828529D01*
X945618D01*
X945021Y831529D01*
X946882Y832300D01*
X948979Y833909D01*
X949453Y834383D01*
X967395D01*
X977109Y824669D01*
X977109Y824669D01*
X979207Y823060D01*
X981649Y822048D01*
X984270Y821703D01*
X984270Y821703D01*
X1009285D01*
X1018999Y811989D01*
X1021097Y810380D01*
X1023539Y809368D01*
X1026160Y809023D01*
X1028781Y809368D01*
X1031223Y810380D01*
X1033321Y811989D01*
X1034930Y814087D01*
X1035942Y816529D01*
X1036287Y819150D01*
X1035942Y821771D01*
X1034930Y824213D01*
X1033321Y826311D01*
X1020641Y838991D01*
X1018543Y840600D01*
X1016101Y841612D01*
X1013480Y841957D01*
X1013480Y841957D01*
X988465D01*
X978751Y851671D01*
X976653Y853280D01*
X974211Y854292D01*
X971590Y854637D01*
X971590Y854637D01*
X945259D01*
X943200Y854366D01*
X940314Y855844D01*
X940200Y855920D01*
Y863150D01*
X932180D01*
Y855860D01*
X929640D01*
Y863150D01*
X922509D01*
Y867137D01*
X924203Y868831D01*
X929823D01*
X930701Y868467D01*
X932800Y868191D01*
X941497D01*
X943329Y866359D01*
X943467Y865311D01*
X944277Y863355D01*
X945566Y861676D01*
X947245Y860387D01*
X949201Y859577D01*
X951300Y859301D01*
X953399Y859577D01*
X955355Y860387D01*
X957034Y861676D01*
X958323Y863355D01*
X959133Y865311D01*
X959409Y867410D01*
Y869856D01*
X959133Y871955D01*
X958323Y873911D01*
X957034Y875591D01*
X952215Y880409D01*
X953458Y883409D01*
X958861D01*
Y889040D01*
X943738D01*
Y887258D01*
X943200Y886888D01*
X940200Y888465D01*
Y891420D01*
X930910D01*
X921620D01*
Y885400D01*
X918873Y884790D01*
X918745Y884773D01*
X916789Y883963D01*
X915109Y882674D01*
X908666Y876230D01*
X907377Y874551D01*
X906567Y872595D01*
X906291Y870496D01*
Y812354D01*
X906567Y810255D01*
X907377Y808299D01*
X908666Y806619D01*
X915860Y799426D01*
X917539Y798137D01*
X919495Y797327D01*
X921200Y797103D01*
Y794620D01*
X922591D01*
Y770210D01*
X921554Y768415D01*
X920870Y765862D01*
Y763218D01*
X921554Y760665D01*
X922876Y758375D01*
X924745Y756506D01*
X927035Y755184D01*
X929588Y754500D01*
X932232D01*
X934785Y755184D01*
X937075Y756506D01*
X938944Y758375D01*
X940266Y760665D01*
X940950Y763218D01*
Y765862D01*
X940266Y768415D01*
X938944Y770705D01*
X938809Y770839D01*
Y794620D01*
X942220D01*
Y803910D01*
X943490D01*
Y805180D01*
X950780D01*
Y812311D01*
X954221D01*
X959271Y807261D01*
Y802640D01*
X959547Y800541D01*
X960090Y799230D01*
Y793100D01*
X971679D01*
X973179Y793100D01*
X974908Y792557D01*
X976401Y790817D01*
X959629Y774045D01*
X957632Y774580D01*
X954988D01*
X952435Y773896D01*
X950145Y772574D01*
X948276Y770705D01*
X946954Y768415D01*
X946270Y765862D01*
Y763218D01*
X946954Y760665D01*
X948276Y758375D01*
X950145Y756506D01*
X952435Y755184D01*
X954988Y754500D01*
X957632D01*
X960185Y755184D01*
X962475Y756506D01*
X964344Y758375D01*
X965666Y760665D01*
X966350Y763218D01*
Y765862D01*
X965815Y767859D01*
X983199Y785243D01*
X985907Y784982D01*
X986969Y782335D01*
X980817Y776183D01*
X979869Y774764D01*
X979801Y774423D01*
X977835Y773896D01*
X975545Y772574D01*
X973676Y770705D01*
X972354Y768415D01*
X971670Y765862D01*
Y763218D01*
X972354Y760665D01*
X973676Y758375D01*
X973747Y758304D01*
X972505Y755304D01*
X968100D01*
X966426Y754971D01*
X965007Y754023D01*
X959629Y748645D01*
X957632Y749180D01*
X954988D01*
X952435Y748496D01*
X950145Y747174D01*
X948276Y745305D01*
X946954Y743015D01*
X946270Y740462D01*
Y737818D01*
X946954Y735265D01*
X948276Y732975D01*
X950145Y731106D01*
X952435Y729784D01*
X954988Y729100D01*
X957632D01*
X960185Y729784D01*
X962475Y731106D01*
X964344Y732975D01*
X965666Y735265D01*
X966350Y737818D01*
Y740462D01*
X965815Y742459D01*
X968364Y745008D01*
X969932Y744820D01*
X970395Y744475D01*
X971990Y741656D01*
X971670Y740462D01*
Y737818D01*
X972354Y735265D01*
X973676Y732975D01*
X975545Y731106D01*
X977835Y729784D01*
X980388Y729100D01*
X983032D01*
X985585Y729784D01*
X987875Y731106D01*
X989744Y732975D01*
X991066Y735265D01*
X991750Y737818D01*
Y740462D01*
X991215Y742459D01*
X995382Y746626D01*
X996273Y746449D01*
X997796Y743087D01*
X997754Y743015D01*
X997070Y740462D01*
Y737818D01*
X997754Y735265D01*
X999076Y732975D01*
X1000945Y731106D01*
X1003235Y729784D01*
X1005788Y729100D01*
X1008432D01*
X1010985Y729784D01*
X1013275Y731106D01*
X1015144Y732975D01*
X1016178Y734766D01*
X1026437D01*
X1031046Y730157D01*
X1032465Y729209D01*
X1034139Y728876D01*
X1057778D01*
X1058521Y727958D01*
X1059298Y725876D01*
X1058295Y724139D01*
X1057580Y721471D01*
Y718709D01*
X1058295Y716041D01*
X1059676Y713649D01*
X1061629Y711696D01*
X1064021Y710315D01*
X1066689Y709600D01*
X1069451D01*
X1072119Y710315D01*
X1074511Y711696D01*
X1076464Y713649D01*
X1077845Y716041D01*
X1078560Y718709D01*
Y721471D01*
X1077845Y724139D01*
X1076842Y725876D01*
X1077618Y727958D01*
X1078362Y728876D01*
X1129490D01*
X1131164Y729209D01*
X1132583Y730157D01*
X1157523Y755097D01*
X1158471Y756516D01*
X1158804Y758190D01*
Y974818D01*
X1179102Y995116D01*
X1209980D01*
Y989000D01*
X1230960D01*
Y1009980D01*
D02*
G37*
G36*
X941073Y737870D02*
X932180D01*
Y728977D01*
X934660D01*
X937114Y729465D01*
X939195Y730855D01*
X940585Y732936D01*
X941073Y735390D01*
Y737870D01*
D02*
G37*
G36*
X929640D02*
X920747D01*
Y735390D01*
X921235Y732936D01*
X922625Y730855D01*
X924706Y729465D01*
X927160Y728977D01*
X929640D01*
Y737870D01*
D02*
G37*
G36*
X1221851Y730580D02*
X1221740D01*
Y721360D01*
X1230960D01*
Y721471D01*
X1230245Y724139D01*
X1228864Y726531D01*
X1226911Y728484D01*
X1224519Y729865D01*
X1221851Y730580D01*
D02*
G37*
G36*
X987855Y703234D02*
X984250D01*
Y692150D01*
X995334D01*
Y695755D01*
X995079Y697691D01*
X994332Y699494D01*
X993143Y701043D01*
X991594Y702232D01*
X989791Y702979D01*
X987855Y703234D01*
D02*
G37*
G36*
X981710D02*
X978105D01*
X976169Y702979D01*
X974365Y702232D01*
X972817Y701043D01*
X971628Y699494D01*
X970881Y697691D01*
X970626Y695755D01*
Y692150D01*
X981710D01*
Y703234D01*
D02*
G37*
G36*
X1069451Y705180D02*
X1066689D01*
X1064021Y704465D01*
X1061629Y703084D01*
X1059676Y701131D01*
X1058295Y698739D01*
X1057580Y696071D01*
Y693309D01*
X1058295Y690641D01*
X1059676Y688249D01*
X1061629Y686296D01*
X1064021Y684915D01*
X1066689Y684200D01*
X1069451D01*
X1072119Y684915D01*
X1074511Y686296D01*
X1076464Y688249D01*
X1077845Y690641D01*
X1078560Y693309D01*
Y696071D01*
X1077845Y698739D01*
X1076464Y701131D01*
X1074511Y703084D01*
X1072119Y704465D01*
X1069451Y705180D01*
D02*
G37*
G36*
X1332220Y689260D02*
X1324950D01*
Y681990D01*
X1332220D01*
Y689260D01*
D02*
G37*
G36*
X1322410D02*
X1315140D01*
Y681990D01*
X1322410D01*
Y689260D01*
D02*
G37*
G36*
X1280150D02*
X1272880D01*
Y681990D01*
X1280150D01*
Y689260D01*
D02*
G37*
G36*
X1270340D02*
X1263070D01*
Y681990D01*
X1270340D01*
Y689260D01*
D02*
G37*
G36*
X995334Y689610D02*
X984250D01*
Y678526D01*
X987855D01*
X989791Y678781D01*
X991594Y679528D01*
X993143Y680717D01*
X994332Y682265D01*
X995079Y684069D01*
X995334Y686005D01*
Y689610D01*
D02*
G37*
G36*
X981710D02*
X970626D01*
Y686005D01*
X970881Y684069D01*
X971628Y682265D01*
X972817Y680717D01*
X974365Y679528D01*
X976169Y678781D01*
X978105Y678526D01*
X981710D01*
Y689610D01*
D02*
G37*
G36*
X1332220Y679450D02*
X1324950D01*
Y672180D01*
X1332220D01*
Y679450D01*
D02*
G37*
G36*
X1322410D02*
X1315140D01*
Y672180D01*
X1322410D01*
Y679450D01*
D02*
G37*
G36*
X1201300Y733220D02*
X1181220D01*
Y718140D01*
X1193813D01*
X1194260Y718051D01*
X1194260Y718051D01*
X1195643D01*
X1197772Y715922D01*
X1196624Y713150D01*
X1181220D01*
Y698070D01*
X1186631D01*
Y692531D01*
X1186631Y692531D01*
X1186983Y690759D01*
X1187987Y689257D01*
X1193323Y683922D01*
X1192175Y681150D01*
X1181220D01*
Y666070D01*
X1201300D01*
X1201300Y666070D01*
X1204300Y667088D01*
X1204988Y666628D01*
X1206954Y666237D01*
X1210428D01*
X1210695Y665241D01*
X1212076Y662849D01*
X1214029Y660896D01*
X1216421Y659515D01*
X1219089Y658800D01*
X1221851D01*
X1224519Y659515D01*
X1226911Y660896D01*
X1228864Y662849D01*
X1230245Y665241D01*
X1230960Y667909D01*
Y670671D01*
X1230245Y673339D01*
X1229534Y674571D01*
X1231019Y677571D01*
X1242070D01*
Y672180D01*
X1259150D01*
Y689260D01*
X1242070D01*
Y686829D01*
X1231508D01*
X1229776Y689829D01*
X1230245Y690641D01*
X1230960Y693309D01*
Y696071D01*
X1230245Y698739D01*
X1229534Y699971D01*
X1231019Y702971D01*
X1286923D01*
X1297634Y692260D01*
X1297043Y689260D01*
X1294140D01*
Y672180D01*
X1311220D01*
Y689260D01*
X1307309D01*
Y693760D01*
X1307309Y693760D01*
X1306957Y695531D01*
X1305953Y697033D01*
X1305953Y697033D01*
X1292113Y710873D01*
X1290611Y711877D01*
X1288840Y712229D01*
X1288840Y712229D01*
X1231508D01*
X1229776Y715229D01*
X1230245Y716041D01*
X1230960Y718709D01*
Y718820D01*
X1220470D01*
Y720090D01*
X1219200D01*
Y730580D01*
X1219089D01*
X1216421Y729865D01*
X1214029Y728484D01*
X1212076Y726531D01*
X1210695Y724139D01*
X1209980Y721471D01*
Y721049D01*
X1206980Y719806D01*
X1201300Y725486D01*
Y733220D01*
D02*
G37*
G36*
X1280150Y679450D02*
X1272880D01*
Y672180D01*
X1280150D01*
Y679450D01*
D02*
G37*
G36*
X1270340D02*
X1263070D01*
Y672180D01*
X1270340D01*
Y679450D01*
D02*
G37*
G36*
X1069451Y679780D02*
X1069340D01*
Y670560D01*
X1078560D01*
Y670671D01*
X1077845Y673339D01*
X1076464Y675731D01*
X1074511Y677684D01*
X1072119Y679065D01*
X1069451Y679780D01*
D02*
G37*
G36*
X1066800D02*
X1066689D01*
X1064021Y679065D01*
X1061629Y677684D01*
X1059676Y675731D01*
X1058295Y673339D01*
X1057580Y670671D01*
Y670560D01*
X1066800D01*
Y679780D01*
D02*
G37*
G36*
X1078560Y668020D02*
X1069340D01*
Y658800D01*
X1069451D01*
X1072119Y659515D01*
X1074511Y660896D01*
X1076464Y662849D01*
X1077845Y665241D01*
X1078560Y667909D01*
Y668020D01*
D02*
G37*
G36*
X1066800D02*
X1057580D01*
Y667909D01*
X1058295Y665241D01*
X1059676Y662849D01*
X1061629Y660896D01*
X1064021Y659515D01*
X1066689Y658800D01*
X1066800D01*
Y668020D01*
D02*
G37*
G36*
X1221851Y654380D02*
X1219089D01*
X1216421Y653665D01*
X1214029Y652284D01*
X1212076Y650331D01*
X1210695Y647939D01*
X1209980Y645271D01*
Y642509D01*
X1210695Y639841D01*
X1212076Y637449D01*
X1214029Y635496D01*
X1216421Y634115D01*
X1219089Y633400D01*
X1221851D01*
X1224519Y634115D01*
X1226911Y635496D01*
X1228864Y637449D01*
X1230245Y639841D01*
X1230960Y642509D01*
Y645271D01*
X1230245Y647939D01*
X1228864Y650331D01*
X1226911Y652284D01*
X1224519Y653665D01*
X1221851Y654380D01*
D02*
G37*
G36*
X984598Y668170D02*
X981362D01*
X978236Y667333D01*
X975434Y665714D01*
X973146Y663426D01*
X971527Y660624D01*
X970690Y657498D01*
Y654262D01*
X971527Y651136D01*
X973146Y648334D01*
X975434Y646046D01*
X978236Y644428D01*
X981362Y643590D01*
X983150D01*
X989654Y637086D01*
X991647Y635557D01*
X993968Y634596D01*
X996458Y634268D01*
X1063756D01*
X1064021Y634115D01*
X1066689Y633400D01*
X1069451D01*
X1072119Y634115D01*
X1074511Y635496D01*
X1076464Y637449D01*
X1077845Y639841D01*
X1078560Y642509D01*
Y645271D01*
X1077845Y647939D01*
X1076464Y650331D01*
X1074511Y652284D01*
X1072119Y653665D01*
X1069451Y654380D01*
X1066689D01*
X1064021Y653665D01*
X1063756Y653512D01*
X1000444D01*
X994835Y659121D01*
X994433Y660624D01*
X992814Y663426D01*
X990526Y665714D01*
X987724Y667333D01*
X984598Y668170D01*
D02*
G37*
%LPD*%
G36*
X1105994Y852834D02*
X1106566Y852416D01*
Y813352D01*
X1106118Y812904D01*
X1078362D01*
X1077618Y813822D01*
X1076842Y815904D01*
X1077845Y817641D01*
X1078560Y820309D01*
Y823071D01*
X1077845Y825739D01*
X1076842Y827476D01*
X1077618Y829557D01*
X1078362Y830476D01*
X1078690D01*
X1080364Y830809D01*
X1081783Y831757D01*
X1103566Y853540D01*
X1105994Y852834D01*
D02*
G37*
G36*
X1118314Y838391D02*
X1119376Y836551D01*
X1121031Y834896D01*
X1122116Y834270D01*
Y798102D01*
X1111518Y787504D01*
X1078362D01*
X1077618Y788422D01*
X1076842Y790504D01*
X1077845Y792241D01*
X1078560Y794909D01*
Y797671D01*
X1077845Y800339D01*
X1077374Y801156D01*
X1079106Y804156D01*
X1107930D01*
X1109604Y804489D01*
X1111023Y805437D01*
X1114033Y808447D01*
X1114981Y809866D01*
X1115314Y811540D01*
Y837078D01*
X1118031Y838478D01*
X1118314Y838391D01*
D02*
G37*
G36*
X1133546Y794396D02*
Y781592D01*
X1114978Y763024D01*
X1079106D01*
X1077374Y766024D01*
X1077845Y766841D01*
X1078560Y769509D01*
Y772271D01*
X1077845Y774939D01*
X1077374Y775756D01*
X1079106Y778756D01*
X1113330D01*
X1115004Y779089D01*
X1116423Y780037D01*
X1129583Y793197D01*
X1130531Y794616D01*
X1130546Y794691D01*
X1133546Y794396D01*
D02*
G37*
G36*
X1058766Y775756D02*
X1058295Y774939D01*
X1057580Y772271D01*
Y769509D01*
X1058295Y766841D01*
X1059676Y764449D01*
X1060827Y761743D01*
X1056568Y757484D01*
X1018093D01*
X1016361Y760484D01*
X1016466Y760665D01*
X1017150Y763218D01*
Y765862D01*
X1016466Y768415D01*
X1015449Y770176D01*
X1016075Y772003D01*
X1016915Y773176D01*
X1040562D01*
X1042236Y773509D01*
X1043655Y774457D01*
X1047954Y778756D01*
X1057035D01*
X1058766Y775756D01*
D02*
G37*
G36*
X1057580Y746871D02*
Y744109D01*
X1058295Y741441D01*
X1058766Y740624D01*
X1057035Y737624D01*
X1035951D01*
X1031342Y742233D01*
X1029923Y743181D01*
X1028249Y743514D01*
X1016411D01*
X1014798Y745943D01*
X1015955Y748736D01*
X1056149D01*
X1057580Y746871D01*
D02*
G37*
G36*
X1209367Y704327D02*
X1209367Y704327D01*
X1210363Y703661D01*
X1210984Y702744D01*
X1211503Y700138D01*
X1210695Y698739D01*
X1209980Y696071D01*
Y693309D01*
X1210695Y690641D01*
X1211164Y689829D01*
X1209432Y686829D01*
X1203508D01*
X1195889Y694448D01*
Y698070D01*
X1201300D01*
Y708474D01*
X1204072Y709622D01*
X1209367Y704327D01*
D02*
G37*
D12*
X1194260Y722680D02*
X1197560D01*
X1212640Y707600D02*
X1288840D01*
X1191260Y725680D02*
X1194260Y722680D01*
X1197560D02*
X1212640Y707600D01*
X1191260Y757680D02*
Y783590D01*
X1203960Y796290D01*
X1220470D01*
X1302680Y680720D02*
Y693760D01*
X1288840Y707600D02*
X1302680Y693760D01*
X1191260Y692531D02*
Y705610D01*
X1201590Y682200D02*
X1249130D01*
X1191260Y692531D02*
X1201590Y682200D01*
X1249130D02*
X1250610Y680720D01*
D14*
X1271610D02*
D03*
X1250610D02*
D03*
X1323680D02*
D03*
X1302680D02*
D03*
D15*
X1191260Y757680D02*
D03*
Y725680D02*
D03*
Y673610D02*
D03*
Y705610D02*
D03*
D16*
X985880Y802640D02*
D03*
X967380D02*
D03*
D17*
X951300Y890310D02*
D03*
D18*
Y867410D02*
D03*
Y844510D02*
D03*
D19*
X1017200Y867410D02*
D03*
D20*
X943490Y803910D02*
D03*
X928490D02*
D03*
D21*
X930910Y892690D02*
D03*
Y877690D02*
D03*
Y855860D02*
D03*
Y840860D02*
D03*
D23*
X1220470Y999490D02*
D03*
X1068070D02*
D03*
D24*
X1220470Y974090D02*
D03*
Y948690D02*
D03*
Y923290D02*
D03*
Y897890D02*
D03*
Y872490D02*
D03*
Y847090D02*
D03*
Y821690D02*
D03*
Y796290D02*
D03*
Y770890D02*
D03*
Y745490D02*
D03*
Y720090D02*
D03*
Y694690D02*
D03*
Y669290D02*
D03*
Y643890D02*
D03*
X1068070Y974090D02*
D03*
Y948690D02*
D03*
Y923290D02*
D03*
Y897890D02*
D03*
Y872490D02*
D03*
Y847090D02*
D03*
Y821690D02*
D03*
Y796290D02*
D03*
Y770890D02*
D03*
Y745490D02*
D03*
Y720090D02*
D03*
Y694690D02*
D03*
Y669290D02*
D03*
Y643890D02*
D03*
D30*
X1179830Y972820D02*
X1180465Y973455D01*
X1219835D02*
X1220470Y974090D01*
X1180465Y973455D02*
X1219835D01*
X1034139Y733250D02*
X1129490D01*
X1028249Y739140D02*
X1034139Y733250D01*
X1154430Y758190D02*
Y976630D01*
X1177290Y999490D02*
X1220470D01*
X1154430Y976630D02*
X1177290Y999490D01*
X1129490Y733250D02*
X1154430Y758190D01*
X1007110Y739140D02*
X1028249D01*
X1111199Y966420D02*
X1111250Y966470D01*
X1111199Y861010D02*
Y966420D01*
X1100559Y885190D02*
X1101090Y884660D01*
X1110940Y860750D02*
X1111199Y861010D01*
X1101090Y857250D02*
Y884660D01*
X1110940Y811540D02*
Y860750D01*
X1078690Y834850D02*
X1101090Y857250D01*
X1107930Y808530D02*
X1110940Y811540D01*
X1063000Y808530D02*
X1107930D01*
X1055830Y834850D02*
X1078690D01*
X1051560Y830580D02*
X1055830Y834850D01*
X1051560Y810260D02*
Y830580D01*
X1030930Y789630D02*
X1051560Y810260D01*
X981400Y789630D02*
X1030930D01*
X956310Y764540D02*
X981400Y789630D01*
X994410Y783590D02*
X1038060D01*
X983910Y773090D02*
X994410Y783590D01*
X994110Y768214D02*
X1003447Y777550D01*
X981710Y764540D02*
X983910Y766740D01*
Y773090D01*
X1040562Y777550D02*
X1046142Y783130D01*
X1003447Y777550D02*
X1040562D01*
X1038060Y783590D02*
X1063000Y808530D01*
X994110Y760266D02*
Y768214D01*
X995320Y752750D02*
X1011994D01*
X981710Y739140D02*
X995320Y752750D01*
X1011994D02*
X1012354Y753110D01*
X1058380D01*
X1126490Y796290D02*
Y842010D01*
X1113330Y783130D02*
X1126490Y796290D01*
X1046142Y783130D02*
X1113330D01*
X984773Y750930D02*
X994110Y760266D01*
X968100Y750930D02*
X984773D01*
X956310Y739140D02*
X968100Y750930D01*
X1137920Y779780D02*
Y977900D01*
X1058380Y753110D02*
X1063920Y758650D01*
X1068070Y999490D02*
X1116330D01*
X1137920Y977900D01*
X1116790Y758650D02*
X1137920Y779780D01*
X1063920Y758650D02*
X1116790D01*
D31*
X1285700Y757277D02*
Y800380D01*
X1273913Y745490D02*
X1285700Y757277D01*
X1220470Y745490D02*
X1273913D01*
X1220714Y770890D02*
X1285204Y835380D01*
X945259Y844510D02*
X971590D01*
X984270Y831830D02*
X1013480D01*
X971590Y844510D02*
X984270Y831830D01*
X930910Y840860D02*
X931120Y841070D01*
X941819D01*
X945259Y844510D01*
X1013480Y831830D02*
X1026160Y819150D01*
X1287780Y892100D02*
X1289050Y890830D01*
Y871220D02*
Y890830D01*
X1239692Y821862D02*
X1289050Y871220D01*
X1220642Y821862D02*
X1239692D01*
X1220470Y821690D02*
X1220642Y821862D01*
X1269897Y927100D02*
X1287780D01*
X1261110Y918313D02*
X1269897Y927100D01*
X1261110Y887688D02*
Y918313D01*
X1220512Y847090D02*
X1261110Y887688D01*
X1220470Y847090D02*
X1220512D01*
X1285204Y835380D02*
X1285700D01*
X1220470Y770890D02*
X1220714D01*
D32*
X967380Y802640D02*
Y810620D01*
X957580Y820420D02*
X967380Y810620D01*
X937130Y820420D02*
X957580D01*
X929240Y812530D02*
X937130Y820420D01*
X929240Y804660D02*
Y812530D01*
X914400Y812354D02*
X921594Y805160D01*
X914400Y870496D02*
X920844Y876940D01*
X921594Y805160D02*
X927740D01*
Y804660D02*
Y805160D01*
X920844Y876940D02*
X930160D01*
X927740Y804660D02*
X928490Y803910D01*
X914400Y812354D02*
Y870496D01*
X930160Y876940D02*
X930910Y877690D01*
X928490Y803410D02*
Y803910D01*
Y803410D02*
X930700Y801200D01*
Y764750D02*
Y801200D01*
Y764750D02*
X930910Y764540D01*
X928490Y803910D02*
X929240Y804660D01*
X931410Y877690D02*
X932800Y876300D01*
X944856D01*
X951300Y869856D01*
Y867410D02*
Y869856D01*
D33*
X1203960Y674370D02*
X1206954Y671376D01*
X1192020Y674370D02*
X1203960D01*
X1206954Y671376D02*
X1218384D01*
X1191260Y673610D02*
X1192020Y674370D01*
X1218384Y671376D02*
X1220470Y669290D01*
D34*
X996458Y643890D02*
X1068070D01*
X984468Y655880D02*
X996458Y643890D01*
X982980Y655880D02*
X984468D01*
D35*
X1287780Y927100D02*
D03*
X982980Y655880D02*
D03*
X1285700Y835380D02*
D03*
D36*
X1287780Y892100D02*
D03*
X982980Y690880D02*
D03*
X1285700Y800380D02*
D03*
D37*
X1007110Y764540D02*
D03*
X981710D02*
D03*
X1007110Y739140D02*
D03*
X981710D02*
D03*
X956310Y764540D02*
D03*
Y739140D02*
D03*
X930910Y764540D02*
D03*
D38*
Y739140D02*
D03*
D39*
X1179830Y972820D02*
D03*
X1026160Y819150D02*
D03*
X1111250Y966470D02*
D03*
X1100559Y885190D02*
D03*
X1126490Y842010D02*
D03*
M02*
