G04*
G04 #@! TF.GenerationSoftware,Altium Limited,Altium Designer,25.6.2 (33)*
G04*
G04 Layer_Color=128*
%FSLAX44Y44*%
%MOMM*%
G71*
G04*
G04 #@! TF.SameCoordinates,E10141E4-A060-4BB7-8850-C9F2C3C4F881*
G04*
G04*
G04 #@! TF.FilePolarity,Positive*
G04*
G01*
G75*
%ADD43C,0.1270*%
D43*
X1215270Y999490D02*
X1225670D01*
X1220470Y994290D02*
Y1004690D01*
X1215270Y974090D02*
X1225670D01*
X1220470Y968890D02*
Y979290D01*
X1215270Y948690D02*
X1225670D01*
X1220470Y943490D02*
Y953890D01*
X1215270Y923290D02*
X1225670D01*
X1220470Y918090D02*
Y928490D01*
X1215270Y897890D02*
X1225670D01*
X1220470Y892690D02*
Y903090D01*
X1215270Y872490D02*
X1225670D01*
X1220470Y867290D02*
Y877690D01*
X1215270Y847090D02*
X1225670D01*
X1220470Y841890D02*
Y852290D01*
X1215270Y821690D02*
X1225670D01*
X1220470Y816490D02*
Y826890D01*
X1215270Y796290D02*
X1225670D01*
X1220470Y791090D02*
Y801490D01*
X1215270Y770890D02*
X1225670D01*
X1220470Y765690D02*
Y776090D01*
X1215270Y745490D02*
X1225670D01*
X1220470Y740290D02*
Y750690D01*
X1215270Y720090D02*
X1225670D01*
X1220470Y714890D02*
Y725290D01*
X1215270Y694690D02*
X1225670D01*
X1220470Y689490D02*
Y699890D01*
X1215270Y669290D02*
X1225670D01*
X1220470Y664090D02*
Y674490D01*
X1215270Y643890D02*
X1225670D01*
X1220470Y638690D02*
Y649090D01*
X1062870Y999490D02*
X1073270D01*
X1068070Y994290D02*
Y1004690D01*
X1062870Y974090D02*
X1073270D01*
X1068070Y968890D02*
Y979290D01*
X1062870Y948690D02*
X1073270D01*
X1068070Y943490D02*
Y953890D01*
X1062870Y923290D02*
X1073270D01*
X1068070Y918090D02*
Y928490D01*
X1062870Y897890D02*
X1073270D01*
X1068070Y892690D02*
Y903090D01*
X1062870Y872490D02*
X1073270D01*
X1068070Y867290D02*
Y877690D01*
X1062870Y847090D02*
X1073270D01*
X1068070Y841890D02*
Y852290D01*
X1062870Y821690D02*
X1073270D01*
X1068070Y816490D02*
Y826890D01*
X1062870Y796290D02*
X1073270D01*
X1068070Y791090D02*
Y801490D01*
X1062870Y770890D02*
X1073270D01*
X1068070Y765690D02*
Y776090D01*
X1062870Y745490D02*
X1073270D01*
X1068070Y740290D02*
Y750690D01*
X1062870Y720090D02*
X1073270D01*
X1068070Y714890D02*
Y725290D01*
X1062870Y694690D02*
X1073270D01*
X1068070Y689490D02*
Y699890D01*
X1062870Y669290D02*
X1073270D01*
X1068070Y664090D02*
Y674490D01*
X1062870Y643890D02*
X1073270D01*
X1068070Y638690D02*
Y649090D01*
X1281280Y927100D02*
X1294280D01*
X1287780Y920600D02*
Y933600D01*
X1281280Y892100D02*
X1294280D01*
X1287780Y885600D02*
Y898600D01*
X976480Y655880D02*
X989480D01*
X982980Y649380D02*
Y662380D01*
X976480Y690880D02*
X989480D01*
X982980Y684380D02*
Y697380D01*
X1002010Y764540D02*
X1012210D01*
X1007110Y759440D02*
Y769640D01*
X976610Y764540D02*
X986810D01*
X981710Y759440D02*
Y769640D01*
X1002010Y739140D02*
X1012210D01*
X1007110Y734040D02*
Y744240D01*
X976610Y739140D02*
X986810D01*
X981710Y734040D02*
Y744240D01*
X951210Y764540D02*
X961410D01*
X956310Y759440D02*
Y769640D01*
X951210Y739140D02*
X961410D01*
X956310Y734040D02*
Y744240D01*
X925810Y764540D02*
X936010D01*
X930910Y759440D02*
Y769640D01*
X925810Y739140D02*
X936010D01*
X930910Y734040D02*
Y744240D01*
X1279200Y835380D02*
X1292200D01*
X1285700Y828880D02*
Y841880D01*
X1279200Y800380D02*
X1292200D01*
X1285700Y793880D02*
Y806880D01*
X1176274Y972820D02*
X1183386D01*
X1179830Y969264D02*
Y976376D01*
X1022604Y819150D02*
X1029716D01*
X1026160Y815594D02*
Y822706D01*
X1107694Y966470D02*
X1114806D01*
X1111250Y962914D02*
Y970026D01*
X1097003Y885190D02*
X1104116D01*
X1100559Y881634D02*
Y888746D01*
X1122934Y842010D02*
X1130046D01*
X1126490Y838454D02*
Y845566D01*
M02*
