G04*
G04 #@! TF.GenerationSoftware,Altium Limited,Altium Designer,25.6.2 (33)*
G04*
G04 Layer_Color=32768*
%FSLAX44Y44*%
%MOMM*%
G71*
G04*
G04 #@! TF.SameCoordinates,E10141E4-A060-4BB7-8850-C9F2C3C4F881*
G04*
G04*
G04 #@! TF.FilePolarity,Positive*
G04*
G01*
G75*
%ADD40C,0.1500*%
D40*
X1277282Y907101D02*
Y902103D01*
Y904602D01*
X1289778D01*
X1292278Y902103D01*
Y899603D01*
X1289778Y897104D01*
X1277282Y922096D02*
X1279782Y917098D01*
X1284780Y912099D01*
X1289778D01*
X1292278Y914598D01*
Y919597D01*
X1289778Y922096D01*
X1287279D01*
X1284780Y919597D01*
Y912099D01*
X993478Y675879D02*
Y680878D01*
Y678378D01*
X980982D01*
X978482Y680878D01*
Y683377D01*
X980982Y685876D01*
X978482Y663383D02*
X993478D01*
X985980Y670881D01*
Y660884D01*
X966511Y759338D02*
X961513D01*
X964012D01*
Y746842D01*
X961513Y744342D01*
X959013D01*
X956514Y746842D01*
X971509Y756838D02*
X974008Y759338D01*
X979007D01*
X981506Y756838D01*
Y754339D01*
X979007Y751840D01*
X976508D01*
X979007D01*
X981506Y749341D01*
Y746842D01*
X979007Y744342D01*
X974008D01*
X971509Y746842D01*
X1275202Y815381D02*
Y810383D01*
Y812882D01*
X1287698D01*
X1290198Y810383D01*
Y807883D01*
X1287698Y805384D01*
X1275202Y830376D02*
Y820379D01*
X1282700D01*
X1280201Y825378D01*
Y827877D01*
X1282700Y830376D01*
X1287698D01*
X1290198Y827877D01*
Y822878D01*
X1287698Y820379D01*
M02*
