G04*
G04 #@! TF.GenerationSoftware,Altium Limited,Altium Designer,25.5.2 (35)*
G04*
G04 Layer_Color=32768*
%FSLAX44Y44*%
%MOMM*%
G71*
G04*
G04 #@! TF.SameCoordinates,BE086167-A92D-4318-8729-62100742BBEE*
G04*
G04*
G04 #@! TF.FilePolarity,Positive*
G04*
G01*
G75*
%ADD11C,0.1500*%
D11*
X311999Y283502D02*
X316998D01*
X314498D01*
Y295998D01*
X316998Y298498D01*
X319497D01*
X321996Y295998D01*
X299503Y298498D02*
Y283502D01*
X307001Y291000D01*
X297004D01*
X101751Y61748D02*
X96753D01*
X99252D01*
Y49252D01*
X96753Y46752D01*
X94253D01*
X91754Y49252D01*
X116746Y61748D02*
X111748Y59248D01*
X106749Y54250D01*
Y49252D01*
X109248Y46752D01*
X114247D01*
X116746Y49252D01*
Y51751D01*
X114247Y54250D01*
X106749D01*
X357998Y123999D02*
Y128998D01*
Y126498D01*
X345502D01*
X343002Y128998D01*
Y131497D01*
X345502Y133996D01*
X355498Y119001D02*
X357998Y116502D01*
Y111503D01*
X355498Y109004D01*
X352999D01*
X350500Y111503D01*
Y114002D01*
Y111503D01*
X348001Y109004D01*
X345502D01*
X343002Y111503D01*
Y116502D01*
X345502Y119001D01*
M02*
