M48
;Layer_Color=9474304
;FILE_FORMAT=4:4
METRIC,LZ
;TYPE=PLATED
T01F00S00C0.7112
T02F00S00C0.7500
T03F00S00C0.8000
T04F00S00C0.9900
T05F00S00C1.0200
T06F00S00C1.0400
T07F00S00C1.3000
%
T01
X0004625Y000585
X00047Y000905
X001485Y0004925
X0014625Y0016525
X001305Y002145
X0013225Y003285
X00297Y0033375
X0026275Y002045
X0026375Y0017775
X003175Y00168
X0032675Y001885
X00392Y00122
X0031375Y00375
X0005Y0038725
X00049Y004085
T02
X0006275Y002255
X00103Y0022525
Y0032525
X0006275Y003255
T03
X00348Y003745
X00383
T04
X000715Y0035425
X001365
Y0039925
X000715
T05
X003505Y000326
Y00058
Y000834
Y001088
Y001342
Y001596
Y00185
Y002104
X003476Y002783
X003222
X002968
X002714
Y003037
X002968
X003222
X003476
T06
X000225Y000365
Y000619
Y000873
Y001127
Y001381
Y001635
Y001889
Y002143
Y002397
Y002651
Y002905
Y003159
Y003413
X001755Y0034205
Y0031665
Y0029125
Y0026585
Y0024045
Y0021505
Y0018965
Y0016425
Y0013885
Y0011345
Y0008805
Y0006265
Y0003725
X00392Y001769
Y002023
Y002277
Y002531
X001755Y0036745
Y0039285
X000225Y003921
Y003667
T07
X0008675Y0005125
X0012175
M30
