G04*
G04 #@! TF.GenerationSoftware,Altium Limited,Altium Designer,25.5.2 (35)*
G04*
G04 Layer_Physical_Order=1*
G04 Layer_Color=255*
%FSLAX44Y44*%
%MOMM*%
G71*
G04*
G04 #@! TF.SameCoordinates,BE086167-A92D-4318-8729-62100742BBEE*
G04*
G04*
G04 #@! TF.FilePolarity,Positive*
G04*
G01*
G75*
%ADD13C,0.2540*%
%ADD14C,1.2500*%
%ADD15R,1.2500X1.2500*%
%ADD16R,1.5400X1.5400*%
%ADD17C,1.5400*%
%ADD18C,1.5900*%
%ADD19R,1.5900X1.5900*%
%ADD24R,1.3000X1.3000*%
%ADD27C,1.3000*%
%ADD29C,1.5000*%
G04:AMPARAMS|DCode=30|XSize=1.5mm|YSize=1.5mm|CornerRadius=0.375mm|HoleSize=0mm|Usage=FLASHONLY|Rotation=180.000|XOffset=0mm|YOffset=0mm|HoleType=Round|Shape=RoundedRectangle|*
%AMROUNDEDRECTD30*
21,1,1.5000,0.7500,0,0,180.0*
21,1,0.7500,1.5000,0,0,180.0*
1,1,0.7500,-0.3750,0.3750*
1,1,0.7500,0.3750,0.3750*
1,1,0.7500,0.3750,-0.3750*
1,1,0.7500,-0.3750,-0.3750*
%
%ADD30ROUNDEDRECTD30*%
%ADD31C,1.5200*%
%ADD32C,1.9500*%
G04:AMPARAMS|DCode=33|XSize=1.52mm|YSize=1.52mm|CornerRadius=0.38mm|HoleSize=0mm|Usage=FLASHONLY|Rotation=270.000|XOffset=0mm|YOffset=0mm|HoleType=Round|Shape=RoundedRectangle|*
%AMROUNDEDRECTD33*
21,1,1.5200,0.7600,0,0,270.0*
21,1,0.7600,1.5200,0,0,270.0*
1,1,0.7600,-0.3800,-0.3800*
1,1,0.7600,-0.3800,0.3800*
1,1,0.7600,0.3800,0.3800*
1,1,0.7600,0.3800,-0.3800*
%
%ADD33ROUNDEDRECTD33*%
G04:AMPARAMS|DCode=34|XSize=1.95mm|YSize=1.95mm|CornerRadius=0.4875mm|HoleSize=0mm|Usage=FLASHONLY|Rotation=0.000|XOffset=0mm|YOffset=0mm|HoleType=Round|Shape=RoundedRectangle|*
%AMROUNDEDRECTD34*
21,1,1.9500,0.9750,0,0,0.0*
21,1,0.9750,1.9500,0,0,0.0*
1,1,0.9750,0.4875,-0.4875*
1,1,0.9750,-0.4875,-0.4875*
1,1,0.9750,-0.4875,0.4875*
1,1,0.9750,0.4875,0.4875*
%
%ADD34ROUNDEDRECTD34*%
%ADD35C,1.2700*%
G36*
X408750Y7500D02*
X406000Y4750D01*
X405500Y5250D01*
X8500D01*
Y429250D01*
X11750Y432500D01*
X408750D01*
Y7500D01*
D02*
G37*
%LPC*%
G36*
X50170Y417390D02*
X47830D01*
X45569Y416784D01*
X43541Y415614D01*
X41886Y413959D01*
X40716Y411931D01*
X40110Y409670D01*
Y407330D01*
X40716Y405069D01*
X41886Y403041D01*
X43541Y401386D01*
X45569Y400216D01*
X47830Y399610D01*
X50170D01*
X52431Y400216D01*
X54459Y401386D01*
X55938Y402865D01*
X59238D01*
X61260Y400598D01*
Y397902D01*
X61958Y395298D01*
X63306Y392962D01*
X65212Y391056D01*
X67547Y389708D01*
X70152Y389010D01*
X72848D01*
X75452Y389708D01*
X77787Y391056D01*
X79694Y392962D01*
X81042Y395298D01*
X81740Y397902D01*
Y400598D01*
X81042Y403203D01*
X79694Y405537D01*
X77787Y407444D01*
X75452Y408792D01*
X72848Y409490D01*
X70152D01*
X67547Y408792D01*
X66677Y408289D01*
X65469Y409497D01*
X64209Y410339D01*
X62722Y410635D01*
X57632D01*
X57284Y411931D01*
X56114Y413959D01*
X54459Y415614D01*
X52431Y416784D01*
X50170Y417390D01*
D02*
G37*
G36*
X32990Y402590D02*
X12010D01*
Y381610D01*
X32990D01*
Y388215D01*
X40792D01*
X41110Y387897D01*
Y386080D01*
X41716Y383819D01*
X42886Y381791D01*
X44541Y380136D01*
X46569Y378966D01*
X48830Y378360D01*
X51170D01*
X53431Y378966D01*
X55459Y380136D01*
X57114Y381791D01*
X58284Y383819D01*
X58890Y386080D01*
Y388420D01*
X58284Y390681D01*
X57114Y392709D01*
X55459Y394364D01*
X53431Y395534D01*
X51170Y396140D01*
X48830D01*
X46569Y395534D01*
X45232Y394762D01*
X45148Y394847D01*
X43887Y395689D01*
X42401Y395985D01*
X32990D01*
Y402590D01*
D02*
G37*
G36*
X315020Y383863D02*
Y376270D01*
X322613D01*
X322034Y378431D01*
X320864Y380459D01*
X319209Y382114D01*
X317181Y383284D01*
X315020Y383863D01*
D02*
G37*
G36*
X312480D02*
X310319Y383284D01*
X308291Y382114D01*
X306636Y380459D01*
X305466Y378431D01*
X304887Y376270D01*
X312480D01*
Y383863D01*
D02*
G37*
G36*
X357040Y383540D02*
X349270D01*
Y375770D01*
X357040D01*
Y383540D01*
D02*
G37*
G36*
X346730D02*
X338960D01*
Y375770D01*
X346730D01*
Y383540D01*
D02*
G37*
G36*
X322613Y373730D02*
X315020D01*
Y366137D01*
X317181Y366716D01*
X319209Y367886D01*
X320864Y369541D01*
X322034Y371569D01*
X322613Y373730D01*
D02*
G37*
G36*
X312480D02*
X304887D01*
X305466Y371569D01*
X306636Y369541D01*
X308291Y367886D01*
X310319Y366716D01*
X312480Y366137D01*
Y373730D01*
D02*
G37*
G36*
X357040Y373230D02*
X349270D01*
Y365460D01*
X357040D01*
Y373230D01*
D02*
G37*
G36*
X346730D02*
X338960D01*
Y365460D01*
X346730D01*
Y373230D01*
D02*
G37*
G36*
X146740Y364490D02*
X137770D01*
Y355520D01*
X146740D01*
Y364490D01*
D02*
G37*
G36*
Y352980D02*
X137770D01*
Y344010D01*
X146740D01*
Y352980D01*
D02*
G37*
G36*
X135230D02*
X126260D01*
Y344010D01*
X135230D01*
Y352980D01*
D02*
G37*
G36*
X176881Y352540D02*
X174119D01*
X171451Y351825D01*
X169059Y350444D01*
X167106Y348491D01*
X165725Y346099D01*
X165010Y343431D01*
Y340669D01*
X165725Y338001D01*
X167106Y335609D01*
X169059Y333656D01*
X171451Y332275D01*
X174119Y331560D01*
X176881D01*
X179549Y332275D01*
X181941Y333656D01*
X183894Y335609D01*
X185275Y338001D01*
X185990Y340669D01*
Y343431D01*
X185275Y346099D01*
X183894Y348491D01*
X181941Y350444D01*
X179549Y351825D01*
X176881Y352540D01*
D02*
G37*
G36*
X23881Y351790D02*
X21119D01*
X18451Y351075D01*
X16059Y349694D01*
X14106Y347741D01*
X12725Y345349D01*
X12010Y342681D01*
Y339919D01*
X12725Y337251D01*
X14106Y334859D01*
X16059Y332906D01*
X18451Y331525D01*
X21119Y330810D01*
X23881D01*
X26549Y331525D01*
X28941Y332906D01*
X30894Y334859D01*
X32275Y337251D01*
X32990Y339919D01*
Y342681D01*
X32275Y345349D01*
X30894Y347741D01*
X28941Y349694D01*
X26549Y351075D01*
X23881Y351790D01*
D02*
G37*
G36*
X133520Y337363D02*
Y329770D01*
X141113D01*
X140534Y331931D01*
X139364Y333959D01*
X137709Y335614D01*
X135681Y336784D01*
X133520Y337363D01*
D02*
G37*
G36*
X130980D02*
X128819Y336784D01*
X126791Y335614D01*
X125136Y333959D01*
X123966Y331931D01*
X123387Y329770D01*
X130980D01*
Y337363D01*
D02*
G37*
G36*
X104270Y334010D02*
Y326520D01*
X111760D01*
X111191Y328643D01*
X110034Y330647D01*
X108397Y332284D01*
X106393Y333441D01*
X104270Y334010D01*
D02*
G37*
G36*
X101730Y334010D02*
X99607Y333441D01*
X97603Y332284D01*
X95966Y330647D01*
X94809Y328643D01*
X94240Y326520D01*
X101730D01*
Y334010D01*
D02*
G37*
G36*
X63907Y334290D02*
X61593D01*
X59357Y333691D01*
X57353Y332534D01*
X55716Y330897D01*
X54843Y329385D01*
X46500D01*
X45013Y329089D01*
X43753Y328247D01*
X35291Y319785D01*
X32319D01*
X32275Y319949D01*
X30894Y322341D01*
X28941Y324294D01*
X26549Y325675D01*
X23881Y326390D01*
X21119D01*
X18451Y325675D01*
X16059Y324294D01*
X14106Y322341D01*
X12725Y319949D01*
X12010Y317281D01*
Y314519D01*
X12725Y311851D01*
X14106Y309459D01*
X16059Y307506D01*
X18451Y306125D01*
X21119Y305410D01*
X23881D01*
X26549Y306125D01*
X28941Y307506D01*
X30894Y309459D01*
X32275Y311851D01*
X32319Y312015D01*
X36900D01*
X38387Y312311D01*
X39647Y313153D01*
X48109Y321615D01*
X54843D01*
X55716Y320103D01*
X57353Y318466D01*
X58865Y317593D01*
Y297750D01*
X59161Y296263D01*
X60003Y295003D01*
X80365Y274641D01*
Y231238D01*
X80661Y229751D01*
X81503Y228491D01*
X82991Y227003D01*
X84251Y226161D01*
X85738Y225865D01*
X94210D01*
X94210Y216460D01*
X91701Y216385D01*
X77359D01*
X71540Y222204D01*
Y234290D01*
X53960D01*
Y216710D01*
X66046D01*
X73003Y209753D01*
X74263Y208911D01*
X75750Y208615D01*
X122058D01*
X122591Y207925D01*
X121342Y205385D01*
X36909D01*
X32190Y210104D01*
X32275Y210251D01*
X32990Y212919D01*
Y215681D01*
X32275Y218349D01*
X30894Y220741D01*
X28941Y222694D01*
X26549Y224075D01*
X23881Y224790D01*
X21119D01*
X18451Y224075D01*
X16059Y222694D01*
X14106Y220741D01*
X12725Y218349D01*
X12010Y215681D01*
Y212919D01*
X12725Y210251D01*
X14106Y207859D01*
X16059Y205906D01*
X18451Y204525D01*
X21119Y203810D01*
X23881D01*
X26549Y204525D01*
X26696Y204610D01*
X32553Y198753D01*
X33813Y197911D01*
X35300Y197615D01*
X165238D01*
X166520Y195075D01*
X165725Y193699D01*
X165010Y191031D01*
Y188269D01*
X165725Y185601D01*
X166548Y184175D01*
X165303Y181635D01*
X148992D01*
X143130Y187497D01*
X141869Y188339D01*
X140383Y188635D01*
X32990D01*
Y190281D01*
X32275Y192949D01*
X30894Y195341D01*
X28941Y197294D01*
X26549Y198675D01*
X23881Y199390D01*
X21119D01*
X18451Y198675D01*
X16059Y197294D01*
X14106Y195341D01*
X12725Y192949D01*
X12010Y190281D01*
Y187519D01*
X12725Y184851D01*
X14106Y182459D01*
X16059Y180506D01*
X18451Y179125D01*
X21119Y178410D01*
X23881D01*
X26549Y179125D01*
X28941Y180506D01*
X29460Y181025D01*
X30265Y180865D01*
X138773D01*
X143336Y176303D01*
X142850Y173701D01*
X142625Y173422D01*
X140791Y172364D01*
X139136Y170709D01*
X137966Y168681D01*
X137360Y166420D01*
Y164080D01*
X137966Y161819D01*
X139136Y159791D01*
X140791Y158136D01*
X142819Y156966D01*
X145080Y156360D01*
X147420D01*
X149681Y156966D01*
X151709Y158136D01*
X153364Y159791D01*
X153984Y160865D01*
X165144D01*
X166326Y158648D01*
X165120Y156375D01*
X162490D01*
X161003Y156079D01*
X159743Y155237D01*
X121091Y116585D01*
X32319D01*
X32275Y116749D01*
X30894Y119141D01*
X28941Y121094D01*
X26549Y122475D01*
X23881Y123190D01*
X21119D01*
X18451Y122475D01*
X16059Y121094D01*
X14106Y119141D01*
X12725Y116749D01*
X12010Y114081D01*
Y111319D01*
X12725Y108651D01*
X14106Y106259D01*
X16059Y104306D01*
X18451Y102925D01*
X21119Y102210D01*
X23881D01*
X26549Y102925D01*
X28941Y104306D01*
X30894Y106259D01*
X32275Y108651D01*
X32319Y108815D01*
X122700D01*
X124187Y109111D01*
X125447Y109953D01*
X164099Y148605D01*
X166828D01*
X167880Y146065D01*
X167106Y145291D01*
X165725Y142899D01*
X165010Y140231D01*
Y137469D01*
X165725Y134801D01*
X167106Y132409D01*
X169059Y130456D01*
X171451Y129075D01*
X174119Y128360D01*
X176881D01*
X179549Y129075D01*
X181941Y130456D01*
X183894Y132409D01*
X185275Y134801D01*
X185990Y137469D01*
Y140231D01*
X185275Y142899D01*
X183894Y145291D01*
X183120Y146065D01*
X184172Y148605D01*
X265740D01*
X267227Y148901D01*
X268487Y149743D01*
X325259Y206515D01*
X340253D01*
X340728Y204126D01*
X342129Y202029D01*
X344226Y200628D01*
X346700Y200136D01*
X354300D01*
X356774Y200628D01*
X358871Y202029D01*
X360272Y204126D01*
X360747Y206515D01*
X364150D01*
X365637Y206811D01*
X366897Y207653D01*
X374997Y215753D01*
X375839Y217013D01*
X376135Y218500D01*
Y231741D01*
X387004Y242610D01*
X402490D01*
Y263590D01*
X381510D01*
Y248104D01*
X369503Y236097D01*
X368661Y234837D01*
X368365Y233350D01*
Y220109D01*
X363205Y214949D01*
X360505Y215502D01*
X360272Y216674D01*
X358871Y218771D01*
X356774Y220172D01*
X354300Y220664D01*
X346700D01*
X344226Y220172D01*
X342129Y218771D01*
X340728Y216674D01*
X340253Y214285D01*
X323650D01*
X322163Y213989D01*
X320903Y213147D01*
X264131Y156375D01*
X185880D01*
X184533Y158915D01*
X185275Y160201D01*
X185990Y162869D01*
Y165631D01*
X185275Y168299D01*
X183894Y170691D01*
X183260Y171325D01*
X184312Y173865D01*
X255728D01*
X256636Y172291D01*
X258291Y170636D01*
X260319Y169466D01*
X262580Y168860D01*
X264920D01*
X267181Y169466D01*
X269209Y170636D01*
X270864Y172291D01*
X272034Y174319D01*
X272640Y176580D01*
Y178920D01*
X272034Y181181D01*
X270864Y183209D01*
X269209Y184864D01*
X267181Y186034D01*
X264920Y186640D01*
X262580D01*
X260319Y186034D01*
X258291Y184864D01*
X256636Y183209D01*
X255728Y181635D01*
X185697D01*
X184452Y184175D01*
X185275Y185601D01*
X185990Y188269D01*
Y191031D01*
X185275Y193699D01*
X184480Y195075D01*
X185762Y197615D01*
X257001D01*
X257052Y197626D01*
X257291Y197386D01*
X259319Y196216D01*
X261580Y195610D01*
X263920D01*
X266181Y196216D01*
X268209Y197386D01*
X269864Y199041D01*
X271034Y201069D01*
X271640Y203330D01*
Y205670D01*
X271034Y207931D01*
X269864Y209959D01*
X268209Y211614D01*
X266181Y212784D01*
X263920Y213390D01*
X261580D01*
X259319Y212784D01*
X257291Y211614D01*
X255636Y209959D01*
X254466Y207931D01*
X253860Y205670D01*
Y205385D01*
X184262D01*
X183210Y207925D01*
X183894Y208609D01*
X185275Y211001D01*
X185990Y213669D01*
Y216431D01*
X185275Y219099D01*
X183894Y221491D01*
X181941Y223444D01*
X179549Y224825D01*
X176881Y225540D01*
X174119D01*
X171451Y224825D01*
X169059Y223444D01*
X167106Y221491D01*
X165725Y219099D01*
X165010Y216431D01*
Y213669D01*
X165725Y211001D01*
X167106Y208609D01*
X167790Y207925D01*
X166738Y205385D01*
X137381D01*
X137169Y205682D01*
X136497Y207925D01*
X137614Y209041D01*
X138784Y211069D01*
X139390Y213330D01*
Y215670D01*
X138784Y217931D01*
X137614Y219959D01*
X135959Y221614D01*
X133931Y222784D01*
X131670Y223390D01*
X129330D01*
X127069Y222784D01*
X125041Y221614D01*
X123386Y219959D01*
X122216Y217931D01*
X121801Y216385D01*
X114299D01*
X111790Y216460D01*
X111790Y218925D01*
Y234040D01*
X94210D01*
Y233635D01*
X88135D01*
Y276250D01*
X87839Y277737D01*
X86997Y278997D01*
X66635Y299359D01*
Y317593D01*
X68147Y318466D01*
X69784Y320103D01*
X70941Y322107D01*
X71540Y324343D01*
Y326657D01*
X70941Y328893D01*
X69784Y330897D01*
X68147Y332534D01*
X66143Y333691D01*
X63907Y334290D01*
D02*
G37*
G36*
X141113Y327230D02*
X133520D01*
Y319637D01*
X135681Y320216D01*
X137709Y321386D01*
X139364Y323041D01*
X140534Y325069D01*
X141113Y327230D01*
D02*
G37*
G36*
X130980D02*
X123387D01*
X123966Y325069D01*
X125136Y323041D01*
X126791Y321386D01*
X128819Y320216D01*
X130980Y319637D01*
Y327230D01*
D02*
G37*
G36*
X111760Y323980D02*
X104270D01*
Y316490D01*
X106393Y317059D01*
X108397Y318216D01*
X110034Y319853D01*
X111191Y321857D01*
X111760Y323980D01*
D02*
G37*
G36*
X101730D02*
X94240D01*
X94809Y321857D01*
X95966Y319853D01*
X97603Y318216D01*
X99607Y317059D01*
X101730Y316490D01*
Y323980D01*
D02*
G37*
G36*
X176881Y327140D02*
X174119D01*
X171451Y326425D01*
X169059Y325044D01*
X167106Y323091D01*
X165725Y320699D01*
X165010Y318031D01*
Y315269D01*
X165725Y312601D01*
X167106Y310209D01*
X169059Y308256D01*
X171451Y306875D01*
X174119Y306160D01*
X176881D01*
X179549Y306875D01*
X181941Y308256D01*
X183894Y310209D01*
X185275Y312601D01*
X185990Y315269D01*
Y318031D01*
X185275Y320699D01*
X183894Y323091D01*
X181941Y325044D01*
X179549Y326425D01*
X176881Y327140D01*
D02*
G37*
G36*
X351350Y313863D02*
X348870D01*
Y304970D01*
X357763D01*
Y307450D01*
X357275Y309904D01*
X355885Y311985D01*
X353804Y313375D01*
X351350Y313863D01*
D02*
G37*
G36*
X346330D02*
X343850D01*
X341396Y313375D01*
X339315Y311985D01*
X337925Y309904D01*
X337437Y307450D01*
Y304970D01*
X346330D01*
Y313863D01*
D02*
G37*
G36*
X298170Y342640D02*
X295830D01*
X293569Y342034D01*
X291541Y340864D01*
X289886Y339209D01*
X288716Y337181D01*
X288110Y334920D01*
Y332580D01*
X288716Y330319D01*
X289886Y328291D01*
X291541Y326636D01*
X293015Y325785D01*
Y313080D01*
X292925Y313056D01*
X290635Y311734D01*
X288766Y309865D01*
X287444Y307575D01*
X286760Y305022D01*
Y302378D01*
X287444Y299825D01*
X288766Y297535D01*
X290635Y295666D01*
X292925Y294344D01*
X295478Y293660D01*
X298122D01*
X300675Y294344D01*
X302965Y295666D01*
X304834Y297535D01*
X306156Y299825D01*
X306840Y302378D01*
Y305022D01*
X306156Y307575D01*
X304834Y309865D01*
X302965Y311734D01*
X300785Y312993D01*
Y325670D01*
X302459Y326636D01*
X304114Y328291D01*
X305284Y330319D01*
X305890Y332580D01*
Y334920D01*
X305284Y337181D01*
X304114Y339209D01*
X302459Y340864D01*
X300431Y342034D01*
X298170Y342640D01*
D02*
G37*
G36*
X357763Y302430D02*
X348870D01*
Y293537D01*
X351350D01*
X353804Y294025D01*
X355885Y295415D01*
X357275Y297496D01*
X357763Y299950D01*
Y302430D01*
D02*
G37*
G36*
X346330D02*
X337437D01*
Y299950D01*
X337925Y297496D01*
X339315Y295415D01*
X341396Y294025D01*
X343850Y293537D01*
X346330D01*
Y302430D01*
D02*
G37*
G36*
X359250Y418885D02*
X169750D01*
X168263Y418589D01*
X167003Y417747D01*
X149280Y400024D01*
X147821Y400354D01*
X146639Y400975D01*
X146042Y403203D01*
X144694Y405537D01*
X142788Y407444D01*
X140452Y408792D01*
X137848Y409490D01*
X135152D01*
X132548Y408792D01*
X130212Y407444D01*
X128306Y405537D01*
X126958Y403203D01*
X126260Y400598D01*
Y397902D01*
X126958Y395298D01*
X128306Y392962D01*
X130212Y391056D01*
X132548Y389708D01*
X134775Y389111D01*
X135396Y387929D01*
X135726Y386470D01*
X119841Y370585D01*
X32319D01*
X32275Y370749D01*
X30894Y373141D01*
X28941Y375094D01*
X26549Y376475D01*
X23881Y377190D01*
X21119D01*
X18451Y376475D01*
X16059Y375094D01*
X14106Y373141D01*
X12725Y370749D01*
X12010Y368081D01*
Y365319D01*
X12725Y362651D01*
X14106Y360259D01*
X16059Y358306D01*
X18451Y356925D01*
X21119Y356210D01*
X23881D01*
X26549Y356925D01*
X28941Y358306D01*
X30894Y360259D01*
X32275Y362651D01*
X32319Y362815D01*
X61992D01*
X62850Y361327D01*
X63155Y360275D01*
X61958Y358203D01*
X61260Y355598D01*
Y352902D01*
X61958Y350298D01*
X63306Y347962D01*
X65212Y346056D01*
X67547Y344708D01*
X70152Y344010D01*
X72848D01*
X75452Y344708D01*
X77787Y346056D01*
X79694Y347962D01*
X81042Y350298D01*
X81740Y352902D01*
Y355598D01*
X81042Y358203D01*
X79845Y360275D01*
X80150Y361327D01*
X81008Y362815D01*
X121450D01*
X122937Y363111D01*
X123720Y363634D01*
X125323Y363119D01*
X126260Y362424D01*
Y355520D01*
X135230D01*
Y364490D01*
X128326D01*
X127274Y367030D01*
X162470Y402226D01*
X165010Y401174D01*
Y382360D01*
X185990D01*
Y388965D01*
X205041D01*
X268365Y325641D01*
Y313281D01*
X267525Y313056D01*
X265235Y311734D01*
X263366Y309865D01*
X262044Y307575D01*
X261360Y305022D01*
Y302378D01*
X262044Y299825D01*
X262627Y298815D01*
X261161Y296275D01*
X252169D01*
X185190Y363254D01*
X185275Y363401D01*
X185990Y366069D01*
Y368831D01*
X185275Y371499D01*
X183894Y373891D01*
X181941Y375844D01*
X179549Y377225D01*
X176881Y377940D01*
X174119D01*
X171451Y377225D01*
X169059Y375844D01*
X167106Y373891D01*
X165725Y371499D01*
X165010Y368831D01*
Y366069D01*
X165725Y363401D01*
X167106Y361009D01*
X169059Y359056D01*
X171451Y357675D01*
X174119Y356960D01*
X176881D01*
X179549Y357675D01*
X179696Y357760D01*
X247813Y289643D01*
X249073Y288801D01*
X250560Y288505D01*
X263944D01*
X264557Y287474D01*
X264867Y285965D01*
X263366Y284465D01*
X262044Y282175D01*
X261360Y279622D01*
Y276978D01*
X262044Y274425D01*
X263366Y272135D01*
X265235Y270266D01*
X267525Y268944D01*
X270078Y268260D01*
X272722D01*
X275275Y268944D01*
X277565Y270266D01*
X279434Y272135D01*
X280756Y274425D01*
X281440Y276978D01*
Y279622D01*
X280756Y282175D01*
X279434Y284465D01*
X277933Y285965D01*
X278243Y287474D01*
X278682Y288213D01*
X281212Y288395D01*
X287441Y282165D01*
X286760Y279622D01*
Y276978D01*
X287444Y274425D01*
X288766Y272135D01*
X290635Y270266D01*
X292925Y268944D01*
X295478Y268260D01*
X298122D01*
X300675Y268944D01*
X302965Y270266D01*
X304834Y272135D01*
X306156Y274425D01*
X306840Y276978D01*
Y279622D01*
X306156Y282175D01*
X304834Y284465D01*
X302965Y286334D01*
X300675Y287656D01*
X298122Y288340D01*
X295478D01*
X292935Y287659D01*
X285457Y295137D01*
X284197Y295979D01*
X282710Y296275D01*
X281639D01*
X280173Y298815D01*
X280756Y299825D01*
X281440Y302378D01*
Y305022D01*
X280756Y307575D01*
X279434Y309865D01*
X277565Y311734D01*
X276135Y312560D01*
Y327250D01*
X275839Y328737D01*
X274997Y329997D01*
X209397Y395597D01*
X208137Y396439D01*
X206650Y396735D01*
X185990D01*
Y403340D01*
X167176D01*
X166124Y405880D01*
X171359Y411115D01*
X357641D01*
X380615Y388141D01*
Y383220D01*
X379511Y382924D01*
X377449Y381734D01*
X375766Y380051D01*
X374576Y377989D01*
X373960Y375690D01*
Y373310D01*
X374576Y371011D01*
X375766Y368949D01*
X377449Y367266D01*
X379115Y366304D01*
Y296859D01*
X364441Y282185D01*
X356950D01*
X355634Y284465D01*
X353765Y286334D01*
X351475Y287656D01*
X348922Y288340D01*
X346278D01*
X343725Y287656D01*
X341435Y286334D01*
X339669Y284568D01*
X338620Y284529D01*
X336851Y284842D01*
X336257Y285732D01*
X328799Y293189D01*
X328365Y295666D01*
X330234Y297535D01*
X331556Y299825D01*
X332240Y302378D01*
Y305022D01*
X331556Y307575D01*
X330234Y309865D01*
X328365Y311734D01*
X326075Y313056D01*
X323522Y313740D01*
X320878D01*
X318325Y313056D01*
X316035Y311734D01*
X314166Y309865D01*
X312844Y307575D01*
X312160Y305022D01*
Y302378D01*
X312844Y299825D01*
X314166Y297535D01*
X316035Y295666D01*
X318325Y294344D01*
X320220Y293836D01*
Y292390D01*
X320516Y290903D01*
X320607Y290767D01*
X320613Y290709D01*
X319629Y288082D01*
X319510Y287973D01*
X318325Y287656D01*
X316035Y286334D01*
X314166Y284465D01*
X312844Y282175D01*
X312160Y279622D01*
Y276978D01*
X312844Y274425D01*
X314166Y272135D01*
X316035Y270266D01*
X316327Y270097D01*
X316745Y266923D01*
X312957Y263135D01*
X253609D01*
X222747Y293997D01*
X221487Y294839D01*
X220000Y295135D01*
X185319D01*
X185275Y295299D01*
X183894Y297691D01*
X181941Y299644D01*
X179549Y301025D01*
X176881Y301740D01*
X174119D01*
X171451Y301025D01*
X169059Y299644D01*
X167106Y297691D01*
X165725Y295299D01*
X165010Y292631D01*
Y289869D01*
X165725Y287201D01*
X167106Y284809D01*
X169059Y282856D01*
X171451Y281475D01*
X174119Y280760D01*
X176881D01*
X179549Y281475D01*
X181941Y282856D01*
X183894Y284809D01*
X185275Y287201D01*
X185319Y287365D01*
X218391D01*
X233675Y272081D01*
X232703Y269735D01*
X185319D01*
X185275Y269899D01*
X183894Y272291D01*
X181941Y274244D01*
X179549Y275625D01*
X176881Y276340D01*
X174119D01*
X171451Y275625D01*
X169059Y274244D01*
X167106Y272291D01*
X165725Y269899D01*
X165010Y267231D01*
Y264469D01*
X165725Y261801D01*
X167106Y259409D01*
X169059Y257456D01*
X171451Y256075D01*
X174119Y255360D01*
X176881D01*
X179549Y256075D01*
X181941Y257456D01*
X183894Y259409D01*
X185275Y261801D01*
X185319Y261965D01*
X236607D01*
X247149Y251423D01*
X248409Y250581D01*
X249896Y250285D01*
X316670D01*
X318157Y250581D01*
X319417Y251423D01*
X336257Y268263D01*
X337099Y269523D01*
X337366Y270866D01*
X338360Y271443D01*
X339935Y271767D01*
X341435Y270266D01*
X343725Y268944D01*
X346278Y268260D01*
X348922D01*
X351475Y268944D01*
X353765Y270266D01*
X355634Y272135D01*
X356950Y274415D01*
X366050D01*
X367537Y274711D01*
X368797Y275553D01*
X385747Y292503D01*
X386589Y293763D01*
X386885Y295250D01*
Y366304D01*
X388551Y367266D01*
X390234Y368949D01*
X391424Y371011D01*
X392040Y373310D01*
Y375690D01*
X391424Y377989D01*
X390234Y380051D01*
X388551Y381734D01*
X388385Y381830D01*
Y389750D01*
X388089Y391237D01*
X387247Y392497D01*
X361997Y417747D01*
X360737Y418589D01*
X359250Y418885D01*
D02*
G37*
G36*
X23881Y300990D02*
X21119D01*
X18451Y300275D01*
X16059Y298894D01*
X14106Y296941D01*
X12725Y294549D01*
X12010Y291881D01*
Y289119D01*
X12725Y286451D01*
X14106Y284059D01*
X16059Y282106D01*
X18451Y280725D01*
X21119Y280010D01*
X23881D01*
X26549Y280725D01*
X28941Y282106D01*
X30894Y284059D01*
X32275Y286451D01*
X32990Y289119D01*
Y291881D01*
X32275Y294549D01*
X30894Y296941D01*
X28941Y298894D01*
X26549Y300275D01*
X23881Y300990D01*
D02*
G37*
G36*
Y275590D02*
X21119D01*
X18451Y274875D01*
X16059Y273494D01*
X14106Y271541D01*
X12725Y269149D01*
X12010Y266481D01*
Y263719D01*
X12725Y261051D01*
X14106Y258659D01*
X16059Y256706D01*
X18451Y255325D01*
X21119Y254610D01*
X23881D01*
X26549Y255325D01*
X28941Y256706D01*
X30894Y258659D01*
X32275Y261051D01*
X32990Y263719D01*
Y266481D01*
X32275Y269149D01*
X30894Y271541D01*
X28941Y273494D01*
X26549Y274875D01*
X23881Y275590D01*
D02*
G37*
G36*
X176881Y250940D02*
X174119D01*
X171451Y250225D01*
X169059Y248844D01*
X167106Y246891D01*
X165725Y244499D01*
X165010Y241831D01*
Y239069D01*
X165725Y236401D01*
X167106Y234009D01*
X169059Y232056D01*
X171451Y230675D01*
X174119Y229960D01*
X176881D01*
X179549Y230675D01*
X181941Y232056D01*
X183894Y234009D01*
X185275Y236401D01*
X185990Y239069D01*
Y241831D01*
X185275Y244499D01*
X183894Y246891D01*
X181941Y248844D01*
X179549Y250225D01*
X176881Y250940D01*
D02*
G37*
G36*
X23881Y250190D02*
X21119D01*
X18451Y249475D01*
X16059Y248094D01*
X14106Y246141D01*
X12725Y243749D01*
X12010Y241081D01*
Y238319D01*
X12725Y235651D01*
X14106Y233259D01*
X16059Y231306D01*
X18451Y229925D01*
X21119Y229210D01*
X23881D01*
X26549Y229925D01*
X28941Y231306D01*
X30894Y233259D01*
X32275Y235651D01*
X32990Y238319D01*
Y241081D01*
X32275Y243749D01*
X30894Y246141D01*
X28941Y248094D01*
X26549Y249475D01*
X23881Y250190D01*
D02*
G37*
G36*
X393381Y238190D02*
X393270D01*
Y228970D01*
X402490D01*
Y229081D01*
X401775Y231749D01*
X400394Y234141D01*
X398441Y236094D01*
X396049Y237475D01*
X393381Y238190D01*
D02*
G37*
G36*
X390730D02*
X390619D01*
X387951Y237475D01*
X385559Y236094D01*
X383606Y234141D01*
X382225Y231749D01*
X381510Y229081D01*
Y228970D01*
X390730D01*
Y238190D01*
D02*
G37*
G36*
X402490Y226430D02*
X393270D01*
Y217210D01*
X393381D01*
X396049Y217925D01*
X398441Y219306D01*
X400394Y221259D01*
X401775Y223651D01*
X402490Y226319D01*
Y226430D01*
D02*
G37*
G36*
X390730D02*
X381510D01*
Y226319D01*
X382225Y223651D01*
X383606Y221259D01*
X385559Y219306D01*
X387951Y217925D01*
X390619Y217210D01*
X390730D01*
Y226430D01*
D02*
G37*
G36*
X393381Y212790D02*
X390619D01*
X387951Y212075D01*
X385559Y210694D01*
X383606Y208741D01*
X382225Y206349D01*
X381510Y203681D01*
Y200919D01*
X382225Y198251D01*
X382310Y198104D01*
X369253Y185047D01*
X368411Y183787D01*
X368115Y182300D01*
Y165359D01*
X366241Y163485D01*
X359957D01*
X359949Y163514D01*
X358614Y165826D01*
X356726Y167714D01*
X354414Y169049D01*
X351835Y169740D01*
X349165D01*
X346586Y169049D01*
X344274Y167714D01*
X342386Y165826D01*
X341409Y164135D01*
X328157D01*
X326285Y166437D01*
X326390Y166830D01*
Y169170D01*
X325784Y171431D01*
X324614Y173459D01*
X322959Y175114D01*
X320931Y176284D01*
X318670Y176890D01*
X316330D01*
X314069Y176284D01*
X312041Y175114D01*
X310386Y173459D01*
X309216Y171431D01*
X308610Y169170D01*
Y166830D01*
X309216Y164569D01*
X310386Y162541D01*
X312041Y160886D01*
X314069Y159716D01*
X316330Y159110D01*
X318670D01*
X320426Y159580D01*
X322503Y157503D01*
X323763Y156661D01*
X325250Y156365D01*
X340869D01*
X341051Y155686D01*
X342386Y153374D01*
X344274Y151486D01*
X346586Y150151D01*
X349165Y149460D01*
X351835D01*
X354414Y150151D01*
X356726Y151486D01*
X358614Y153374D01*
X359949Y155686D01*
X359957Y155715D01*
X367850D01*
X369337Y156011D01*
X370597Y156853D01*
X374747Y161003D01*
X375589Y162263D01*
X375885Y163750D01*
Y180691D01*
X387804Y192610D01*
X387951Y192525D01*
X390619Y191810D01*
X393381D01*
X396049Y192525D01*
X398441Y193906D01*
X400394Y195859D01*
X401775Y198251D01*
X402490Y200919D01*
Y203681D01*
X401775Y206349D01*
X400394Y208741D01*
X398441Y210694D01*
X396049Y212075D01*
X393381Y212790D01*
D02*
G37*
G36*
X328020Y197363D02*
Y189770D01*
X335613D01*
X335034Y191931D01*
X333864Y193959D01*
X332209Y195614D01*
X330181Y196784D01*
X328020Y197363D01*
D02*
G37*
G36*
X325480D02*
X323319Y196784D01*
X321291Y195614D01*
X319636Y193959D01*
X318466Y191931D01*
X317887Y189770D01*
X325480D01*
Y197363D01*
D02*
G37*
G36*
X351835Y195140D02*
X351770D01*
Y186270D01*
X360640D01*
Y186335D01*
X359949Y188914D01*
X358614Y191226D01*
X356726Y193114D01*
X354414Y194449D01*
X351835Y195140D01*
D02*
G37*
G36*
X349230D02*
X349165D01*
X346586Y194449D01*
X344274Y193114D01*
X342386Y191226D01*
X341051Y188914D01*
X340360Y186335D01*
Y186270D01*
X349230D01*
Y195140D01*
D02*
G37*
G36*
X335613Y187230D02*
X328020D01*
Y179637D01*
X330181Y180216D01*
X332209Y181386D01*
X333864Y183041D01*
X335034Y185069D01*
X335613Y187230D01*
D02*
G37*
G36*
X325480D02*
X317887D01*
X318466Y185069D01*
X319636Y183041D01*
X321291Y181386D01*
X323319Y180216D01*
X325480Y179637D01*
Y187230D01*
D02*
G37*
G36*
X360640Y183730D02*
X351770D01*
Y174860D01*
X351835D01*
X354414Y175551D01*
X356726Y176886D01*
X358614Y178774D01*
X359949Y181086D01*
X360640Y183665D01*
Y183730D01*
D02*
G37*
G36*
X349230D02*
X340360D01*
Y183665D01*
X341051Y181086D01*
X342386Y178774D01*
X344274Y176886D01*
X346586Y175551D01*
X349165Y174860D01*
X349230D01*
Y183730D01*
D02*
G37*
G36*
X23881Y173990D02*
X21119D01*
X18451Y173275D01*
X16059Y171894D01*
X14106Y169941D01*
X12725Y167549D01*
X12010Y164881D01*
Y162119D01*
X12725Y159451D01*
X14106Y157059D01*
X16059Y155106D01*
X18451Y153725D01*
X21119Y153010D01*
X23881D01*
X26549Y153725D01*
X28941Y155106D01*
X30894Y157059D01*
X32275Y159451D01*
X32990Y162119D01*
Y164881D01*
X32275Y167549D01*
X30894Y169941D01*
X28941Y171894D01*
X26549Y173275D01*
X23881Y173990D01*
D02*
G37*
G36*
Y148590D02*
X21119D01*
X18451Y147875D01*
X16059Y146494D01*
X14106Y144541D01*
X12725Y142149D01*
X12010Y139481D01*
Y136719D01*
X12725Y134051D01*
X14106Y131659D01*
X16059Y129706D01*
X18451Y128325D01*
X21119Y127610D01*
X23881D01*
X26549Y128325D01*
X28941Y129706D01*
X30894Y131659D01*
X32275Y134051D01*
X32990Y136719D01*
Y139481D01*
X32275Y142149D01*
X30894Y144541D01*
X28941Y146494D01*
X26549Y147875D01*
X23881Y148590D01*
D02*
G37*
G36*
X393381Y187390D02*
X390619D01*
X387951Y186675D01*
X385559Y185294D01*
X383606Y183341D01*
X382225Y180949D01*
X381510Y178281D01*
Y175519D01*
X382225Y172851D01*
X383606Y170459D01*
X385559Y168506D01*
X387951Y167125D01*
X388115Y167081D01*
Y130022D01*
X386541Y129114D01*
X384886Y127459D01*
X383978Y125885D01*
X381359D01*
X370297Y136947D01*
X369037Y137789D01*
X367550Y138085D01*
X359957D01*
X359949Y138114D01*
X358614Y140426D01*
X356726Y142314D01*
X354414Y143649D01*
X351835Y144340D01*
X349165D01*
X346586Y143649D01*
X344274Y142314D01*
X342386Y140426D01*
X341051Y138114D01*
X340360Y135535D01*
Y132865D01*
X341051Y130286D01*
X342386Y127974D01*
X344274Y126086D01*
X346586Y124751D01*
X349165Y124060D01*
X351835D01*
X354414Y124751D01*
X356726Y126086D01*
X358614Y127974D01*
X359949Y130286D01*
X359957Y130315D01*
X365941D01*
X377003Y119253D01*
X378263Y118411D01*
X379750Y118115D01*
X383978D01*
X384886Y116541D01*
X386541Y114886D01*
X388569Y113716D01*
X390830Y113110D01*
X393170D01*
X395431Y113716D01*
X397459Y114886D01*
X399114Y116541D01*
X400284Y118569D01*
X400890Y120830D01*
Y123170D01*
X400284Y125431D01*
X399114Y127459D01*
X397459Y129114D01*
X395885Y130022D01*
Y167081D01*
X396049Y167125D01*
X398441Y168506D01*
X400394Y170459D01*
X401775Y172851D01*
X402490Y175519D01*
Y178281D01*
X401775Y180949D01*
X400394Y183341D01*
X398441Y185294D01*
X396049Y186675D01*
X393381Y187390D01*
D02*
G37*
G36*
X176881Y123940D02*
X176770D01*
Y114720D01*
X185990D01*
Y114831D01*
X185275Y117499D01*
X183894Y119891D01*
X181941Y121844D01*
X179549Y123225D01*
X176881Y123940D01*
D02*
G37*
G36*
X174230D02*
X174119D01*
X171451Y123225D01*
X169059Y121844D01*
X167106Y119891D01*
X165725Y117499D01*
X165010Y114831D01*
Y114720D01*
X174230D01*
Y123940D01*
D02*
G37*
G36*
X185990Y112180D02*
X176770D01*
Y102960D01*
X176881D01*
X179549Y103675D01*
X181941Y105056D01*
X183894Y107009D01*
X185275Y109401D01*
X185990Y112069D01*
Y112180D01*
D02*
G37*
G36*
X174230D02*
X165010D01*
Y112069D01*
X165725Y109401D01*
X167106Y107009D01*
X169059Y105056D01*
X171451Y103675D01*
X174119Y102960D01*
X174230D01*
Y112180D01*
D02*
G37*
G36*
X351835Y118940D02*
X349165D01*
X346586Y118249D01*
X344274Y116914D01*
X342386Y115026D01*
X341051Y112714D01*
X340360Y110135D01*
Y107465D01*
X341051Y104886D01*
X342386Y102574D01*
X344274Y100686D01*
X346586Y99351D01*
X349165Y98660D01*
X351835D01*
X354414Y99351D01*
X356726Y100686D01*
X358614Y102574D01*
X359949Y104886D01*
X360640Y107465D01*
Y110135D01*
X359949Y112714D01*
X358614Y115026D01*
X356726Y116914D01*
X354414Y118249D01*
X351835Y118940D01*
D02*
G37*
G36*
X176881Y98540D02*
X174119D01*
X171451Y97825D01*
X169059Y96444D01*
X167106Y94491D01*
X165725Y92099D01*
X165010Y89431D01*
Y86669D01*
X165725Y84001D01*
X167106Y81609D01*
X169059Y79656D01*
X171451Y78275D01*
X174119Y77560D01*
X176881D01*
X179549Y78275D01*
X181941Y79656D01*
X183894Y81609D01*
X185275Y84001D01*
X185990Y86669D01*
Y89431D01*
X185275Y92099D01*
X183894Y94491D01*
X181941Y96444D01*
X179549Y97825D01*
X176881Y98540D01*
D02*
G37*
G36*
X23881Y97790D02*
X21119D01*
X18451Y97075D01*
X16059Y95694D01*
X14106Y93741D01*
X12725Y91349D01*
X12010Y88681D01*
Y85919D01*
X12725Y83251D01*
X14106Y80859D01*
X16059Y78906D01*
X18451Y77525D01*
X21119Y76810D01*
X23881D01*
X26549Y77525D01*
X28941Y78906D01*
X30894Y80859D01*
X32275Y83251D01*
X32990Y85919D01*
Y88681D01*
X32275Y91349D01*
X30894Y93741D01*
X28941Y95694D01*
X26549Y97075D01*
X23881Y97790D01*
D02*
G37*
G36*
X351835Y93540D02*
X349165D01*
X346586Y92849D01*
X344274Y91514D01*
X342386Y89626D01*
X341051Y87314D01*
X340360Y84735D01*
Y82065D01*
X341051Y79486D01*
X342386Y77174D01*
X344274Y75286D01*
X346586Y73951D01*
X349165Y73260D01*
X351835D01*
X354414Y73951D01*
X356726Y75286D01*
X358614Y77174D01*
X359949Y79486D01*
X360640Y82065D01*
Y84735D01*
X359949Y87314D01*
X358614Y89626D01*
X356726Y91514D01*
X354414Y92849D01*
X351835Y93540D01*
D02*
G37*
G36*
X23881Y72390D02*
X23770D01*
Y63170D01*
X32990D01*
Y63281D01*
X32275Y65949D01*
X30894Y68341D01*
X28941Y70294D01*
X26549Y71675D01*
X23881Y72390D01*
D02*
G37*
G36*
X21230D02*
X21119D01*
X18451Y71675D01*
X16059Y70294D01*
X14106Y68341D01*
X12725Y65949D01*
X12010Y63281D01*
Y63170D01*
X21230D01*
Y72390D01*
D02*
G37*
G36*
X47520Y67363D02*
Y59770D01*
X55113D01*
X54534Y61931D01*
X53364Y63959D01*
X51709Y65614D01*
X49681Y66784D01*
X47520Y67363D01*
D02*
G37*
G36*
X44980D02*
X42819Y66784D01*
X40791Y65614D01*
X39136Y63959D01*
X37966Y61931D01*
X37387Y59770D01*
X44980D01*
Y67363D01*
D02*
G37*
G36*
X123368Y63540D02*
X123020D01*
Y52520D01*
X134040D01*
Y52868D01*
X133202Y55994D01*
X131584Y58796D01*
X129296Y61084D01*
X126494Y62702D01*
X123368Y63540D01*
D02*
G37*
G36*
X120480D02*
X120132D01*
X117006Y62702D01*
X114204Y61084D01*
X111916Y58796D01*
X110297Y55994D01*
X109460Y52868D01*
Y52520D01*
X120480D01*
Y63540D01*
D02*
G37*
G36*
X176881Y73140D02*
X174119D01*
X171451Y72425D01*
X169059Y71044D01*
X167106Y69091D01*
X165725Y66699D01*
X165010Y64031D01*
Y61269D01*
X165725Y58601D01*
X167106Y56209D01*
X169059Y54256D01*
X171451Y52875D01*
X174119Y52160D01*
X176881D01*
X179549Y52875D01*
X181941Y54256D01*
X183894Y56209D01*
X185275Y58601D01*
X185990Y61269D01*
Y64031D01*
X185275Y66699D01*
X183894Y69091D01*
X181941Y71044D01*
X179549Y72425D01*
X176881Y73140D01*
D02*
G37*
G36*
X32990Y60630D02*
X23770D01*
Y51410D01*
X23881D01*
X26549Y52125D01*
X28941Y53506D01*
X30894Y55459D01*
X32275Y57851D01*
X32990Y60519D01*
Y60630D01*
D02*
G37*
G36*
X21230D02*
X12010D01*
Y60519D01*
X12725Y57851D01*
X14106Y55459D01*
X16059Y53506D01*
X18451Y52125D01*
X21119Y51410D01*
X21230D01*
Y60630D01*
D02*
G37*
G36*
X149770Y58113D02*
Y50520D01*
X157363D01*
X156784Y52681D01*
X155614Y54709D01*
X153959Y56364D01*
X151931Y57534D01*
X149770Y58113D01*
D02*
G37*
G36*
X147230D02*
X145069Y57534D01*
X143041Y56364D01*
X141386Y54709D01*
X140216Y52681D01*
X139637Y50520D01*
X147230D01*
Y58113D01*
D02*
G37*
G36*
X55113Y57230D02*
X47520D01*
Y49637D01*
X49681Y50216D01*
X51709Y51386D01*
X53364Y53041D01*
X54534Y55069D01*
X55113Y57230D01*
D02*
G37*
G36*
X44980D02*
X37387D01*
X37966Y55069D01*
X39136Y53041D01*
X40791Y51386D01*
X42819Y50216D01*
X44980Y49637D01*
Y57230D01*
D02*
G37*
G36*
X351835Y68140D02*
X349165D01*
X346586Y67449D01*
X344274Y66114D01*
X342386Y64226D01*
X341051Y61914D01*
X340360Y59335D01*
Y56665D01*
X341051Y54086D01*
X342386Y51774D01*
X344274Y49886D01*
X346586Y48551D01*
X349165Y47860D01*
X351835D01*
X354414Y48551D01*
X356726Y49886D01*
X358614Y51774D01*
X359949Y54086D01*
X360640Y56665D01*
Y59335D01*
X359949Y61914D01*
X358614Y64226D01*
X356726Y66114D01*
X354414Y67449D01*
X351835Y68140D01*
D02*
G37*
G36*
X157363Y47980D02*
X149770D01*
Y40387D01*
X151931Y40966D01*
X153959Y42136D01*
X155614Y43791D01*
X156784Y45819D01*
X157363Y47980D01*
D02*
G37*
G36*
X147230D02*
X139637D01*
X140216Y45819D01*
X141386Y43791D01*
X143041Y42136D01*
X145069Y40966D01*
X147230Y40387D01*
Y47980D01*
D02*
G37*
G36*
X48170Y99390D02*
X45830D01*
X43569Y98784D01*
X41541Y97614D01*
X39886Y95959D01*
X38716Y93931D01*
X38110Y91670D01*
Y89330D01*
X38716Y87069D01*
X39886Y85041D01*
X41541Y83386D01*
X43569Y82216D01*
X45830Y81610D01*
X48170D01*
X49926Y82080D01*
X62753Y69253D01*
X64013Y68411D01*
X65500Y68115D01*
X82865D01*
Y63604D01*
X81875D01*
X79939Y63349D01*
X78135Y62602D01*
X76587Y61413D01*
X75398Y59865D01*
X74651Y58061D01*
X74396Y56125D01*
Y46375D01*
X74651Y44439D01*
X75278Y42925D01*
X74869Y41828D01*
X73924Y40385D01*
X32319D01*
X32275Y40549D01*
X30894Y42941D01*
X28941Y44894D01*
X26549Y46275D01*
X23881Y46990D01*
X21119D01*
X18451Y46275D01*
X16059Y44894D01*
X14106Y42941D01*
X12725Y40549D01*
X12010Y37881D01*
Y35119D01*
X12725Y32451D01*
X14106Y30059D01*
X16059Y28106D01*
X18451Y26725D01*
X21119Y26010D01*
X23881D01*
X26549Y26725D01*
X28941Y28106D01*
X30894Y30059D01*
X32275Y32451D01*
X32319Y32615D01*
X83250D01*
X84737Y32911D01*
X85997Y33753D01*
X88497Y36253D01*
X89339Y37513D01*
X89614Y38896D01*
X91625D01*
X93561Y39151D01*
X95365Y39898D01*
X96913Y41087D01*
X98102Y42635D01*
X98849Y44439D01*
X99104Y46375D01*
Y56125D01*
X98849Y58061D01*
X98102Y59865D01*
X96913Y61413D01*
X95365Y62602D01*
X93561Y63349D01*
X91625Y63604D01*
X90635D01*
Y70512D01*
X90339Y71999D01*
X89497Y73259D01*
X88009Y74747D01*
X86749Y75589D01*
X85262Y75885D01*
X67109D01*
X55420Y87574D01*
X55890Y89330D01*
Y91670D01*
X55284Y93931D01*
X54114Y95959D01*
X52459Y97614D01*
X50431Y98784D01*
X48170Y99390D01*
D02*
G37*
G36*
X134040Y49980D02*
X123020D01*
Y38960D01*
X123368D01*
X126494Y39798D01*
X129296Y41416D01*
X131584Y43704D01*
X133202Y46506D01*
X134040Y49632D01*
Y49980D01*
D02*
G37*
G36*
X120480D02*
X109460D01*
Y49632D01*
X110297Y46506D01*
X111916Y43704D01*
X114204Y41416D01*
X117006Y39798D01*
X120132Y38960D01*
X120480D01*
Y49980D01*
D02*
G37*
G36*
X176881Y47740D02*
X174119D01*
X171451Y47025D01*
X169059Y45644D01*
X167106Y43691D01*
X165725Y41299D01*
X165010Y38631D01*
Y35869D01*
X165725Y33201D01*
X167106Y30809D01*
X169059Y28856D01*
X171451Y27475D01*
X174119Y26760D01*
X176881D01*
X179549Y27475D01*
X181941Y28856D01*
X183894Y30809D01*
X185275Y33201D01*
X185990Y35869D01*
Y38631D01*
X185275Y41299D01*
X183894Y43691D01*
X181941Y45644D01*
X179549Y47025D01*
X176881Y47740D01*
D02*
G37*
G36*
X351835Y42740D02*
X349165D01*
X346586Y42049D01*
X344274Y40714D01*
X342386Y38826D01*
X341051Y36514D01*
X340360Y33935D01*
Y31265D01*
X341051Y28686D01*
X342386Y26374D01*
X344274Y24486D01*
X346586Y23151D01*
X349165Y22460D01*
X351835D01*
X354414Y23151D01*
X356726Y24486D01*
X358614Y26374D01*
X359949Y28686D01*
X360640Y31265D01*
Y33935D01*
X359949Y36514D01*
X358614Y38826D01*
X356726Y40714D01*
X354414Y42049D01*
X351835Y42740D01*
D02*
G37*
%LPD*%
D13*
X65500Y72000D02*
X85262D01*
X86750Y51250D02*
Y70512D01*
X85262Y72000D02*
X86750Y70512D01*
X47000Y90500D02*
X65500Y72000D01*
X128556Y212556D02*
X130500Y214500D01*
X125306Y212556D02*
X128556D01*
X125250Y212500D02*
X125306Y212556D01*
X75750Y212500D02*
X125250D01*
X62750Y225500D02*
X75750Y212500D01*
X26115Y188900D02*
X30265Y184750D01*
X140383D01*
X147383Y177750D01*
X22500Y188900D02*
X26115D01*
X260001Y204500D02*
X262750D01*
X257001Y201500D02*
X260001Y204500D01*
X22500Y214300D02*
X35300Y201500D01*
X257001D01*
X100750Y229750D02*
X103000Y227500D01*
X85738Y229750D02*
X100750D01*
X84250Y231238D02*
X85738Y229750D01*
X84250Y231238D02*
Y276250D01*
X62750Y297750D02*
X84250Y276250D01*
X62750Y297750D02*
Y325500D01*
X46500D02*
X62750D01*
X36900Y315900D02*
X46500Y325500D01*
X22500Y315900D02*
X36900D01*
X70222Y399250D02*
X71500D01*
X146750Y164750D02*
X175000D01*
X175500Y164250D01*
X146250Y165250D02*
X146750Y164750D01*
X50750Y406750D02*
X62722D01*
X70222Y399250D01*
X49000Y408500D02*
X50750Y406750D01*
X42401Y392100D02*
X47251Y387250D01*
X22500Y392100D02*
X42401D01*
X47251Y387250D02*
X50000D01*
X349850Y160250D02*
X350500Y159600D01*
X325250Y160250D02*
X349850D01*
X317500Y168000D02*
X325250Y160250D01*
X147383Y177750D02*
X263750D01*
X323650Y210400D02*
X350500D01*
X162490Y152490D02*
X265740D01*
X323650Y210400D01*
X350500D02*
X364150D01*
X85750Y50250D02*
X86750Y51250D01*
X85750Y39000D02*
Y50250D01*
X83250Y36500D02*
X85750Y39000D01*
X22500Y36500D02*
X83250D01*
X122700Y112700D02*
X162490Y152490D01*
X22500Y112700D02*
X122700D01*
X364150Y210400D02*
X372250Y218500D01*
Y233350D01*
X392000Y253100D01*
X350500Y159600D02*
X367850D01*
X372000Y163750D01*
Y182300D01*
X392000Y202300D01*
X350500Y134200D02*
X367550D01*
X379750Y122000D01*
X392000D01*
Y176900D01*
X296800Y303700D02*
X296900Y303800D01*
Y333650D01*
X297000Y333750D01*
X206650Y392850D02*
X272250Y327250D01*
X366050Y278300D02*
X383000Y295250D01*
Y374500D01*
X252000Y259250D02*
X314566D01*
X322200Y266884D02*
Y278300D01*
X249896Y254170D02*
X316670D01*
X333510Y271010D01*
X314566Y259250D02*
X322200Y266884D01*
Y303700D02*
X324105Y301795D01*
Y292390D02*
Y301795D01*
Y292390D02*
X333510Y282985D01*
Y271010D02*
Y282985D01*
X238216Y265850D02*
X249896Y254170D01*
X175500Y265850D02*
X238216D01*
X220000Y291250D02*
X252000Y259250D01*
X175500Y291250D02*
X220000D01*
X175500Y367450D02*
X250560Y292390D01*
X282710D01*
X296800Y278300D01*
X347600D02*
X366050D01*
X383000Y374500D02*
X384500Y376000D01*
Y389750D01*
X359250Y415000D02*
X384500Y389750D01*
X169750Y415000D02*
X359250D01*
X121450Y366700D02*
X169750Y415000D01*
X22500Y366700D02*
X121450D01*
X272250Y304550D02*
Y327250D01*
X175500Y392850D02*
X206650D01*
X271400Y303700D02*
X272250Y304550D01*
D14*
X103000Y325250D02*
D03*
X62750Y325500D02*
D03*
D15*
X103000Y225250D02*
D03*
X62750Y225500D02*
D03*
D16*
X136500Y354250D02*
D03*
D17*
X71500D02*
D03*
X136500Y399250D02*
D03*
X71500D02*
D03*
D18*
X175500Y164250D02*
D03*
X392000Y227700D02*
D03*
Y202300D02*
D03*
Y176900D02*
D03*
X175500Y367450D02*
D03*
X22500Y188900D02*
D03*
X175500Y113450D02*
D03*
X22500Y61900D02*
D03*
Y214300D02*
D03*
Y112700D02*
D03*
X175500Y342050D02*
D03*
Y316650D02*
D03*
Y291250D02*
D03*
Y265850D02*
D03*
Y240450D02*
D03*
Y215050D02*
D03*
Y189650D02*
D03*
Y138850D02*
D03*
Y88050D02*
D03*
Y62650D02*
D03*
Y37250D02*
D03*
X22500Y366700D02*
D03*
Y341300D02*
D03*
Y315900D02*
D03*
Y290500D02*
D03*
Y265100D02*
D03*
Y239700D02*
D03*
Y163500D02*
D03*
Y138100D02*
D03*
Y87300D02*
D03*
Y36500D02*
D03*
D19*
X392000Y253100D02*
D03*
X175500Y392850D02*
D03*
X22500Y392100D02*
D03*
D24*
X348000Y374500D02*
D03*
D27*
X383000D02*
D03*
D29*
X271400Y278300D02*
D03*
X296800D02*
D03*
X271400Y303700D02*
D03*
X296800D02*
D03*
X322200Y278300D02*
D03*
Y303700D02*
D03*
X347600Y278300D02*
D03*
D30*
Y303700D02*
D03*
D31*
X350500Y159600D02*
D03*
Y185000D02*
D03*
Y134200D02*
D03*
Y83400D02*
D03*
Y108800D02*
D03*
Y58000D02*
D03*
Y32600D02*
D03*
D32*
X121750Y51250D02*
D03*
D33*
X350500Y210400D02*
D03*
D34*
X86750Y51250D02*
D03*
D35*
X47000Y90500D02*
D03*
X130500Y214500D02*
D03*
X146250Y165250D02*
D03*
X49000Y408500D02*
D03*
X50000Y387250D02*
D03*
X132250Y328500D02*
D03*
X313750Y375000D02*
D03*
X326750Y188500D02*
D03*
X148500Y49250D02*
D03*
X46250Y58500D02*
D03*
X317500Y168000D02*
D03*
X263750Y177750D02*
D03*
X392000Y122000D02*
D03*
X262750Y204500D02*
D03*
X297000Y333750D02*
D03*
M02*
