G04*
G04 #@! TF.GenerationSoftware,Altium Limited,Altium Designer,25.5.2 (35)*
G04*
G04 Layer_Color=32768*
%FSLAX44Y44*%
%MOMM*%
G71*
G04*
G04 #@! TF.SameCoordinates,BE086167-A92D-4318-8729-62100742BBEE*
G04*
G04*
G04 #@! TF.FilePolarity,Positive*
G04*
G01*
G75*
%ADD12C,0.2000*%
%ADD37C,0.0500*%
D12*
X409000Y374500D02*
G03*
X322000Y374500I-43500J0D01*
G01*
D02*
G03*
X409000Y374500I43500J0D01*
G01*
X89000Y218000D02*
X117000D01*
Y332500D01*
X89000D02*
X117000D01*
X89000Y218000D02*
Y332500D01*
X62800Y409200D02*
X145200D01*
X62800Y344300D02*
Y409200D01*
Y344300D02*
X145200D01*
Y409200D01*
X48750Y218250D02*
X76750D01*
Y332750D01*
X48750D02*
X76750D01*
X48750Y218250D02*
Y332750D01*
X405700Y159400D02*
Y270600D01*
X378300Y159400D02*
X405700D01*
X378300D02*
Y270600D01*
X405700D01*
X189200Y19750D02*
Y410350D01*
X161800Y19750D02*
X189200D01*
X161800D02*
Y410350D01*
X189200D01*
X36200Y19000D02*
Y409600D01*
X8800Y19000D02*
X36200D01*
X8800D02*
Y409600D01*
X36200D01*
D37*
X252950Y262850D02*
X366050D01*
X252950D02*
Y319150D01*
X366050D01*
Y262850D02*
Y319150D01*
X63250Y93250D02*
X141250D01*
Y15250D02*
Y93250D01*
X63250Y15250D02*
X141250D01*
X63250D02*
Y93250D01*
X366000Y14150D02*
Y228850D01*
X335000Y14150D02*
X366000D01*
X335000D02*
Y228850D01*
X366000D01*
M02*
