G04*
G04 #@! TF.GenerationSoftware,Altium Limited,Altium Designer,25.5.2 (35)*
G04*
G04 Layer_Color=16711935*
%FSLAX44Y44*%
%MOMM*%
G71*
G04*
G04 #@! TF.SameCoordinates,BE086167-A92D-4318-8729-62100742BBEE*
G04*
G04*
G04 #@! TF.FilePolarity,Positive*
G04*
G01*
G75*
%ADD12C,0.2000*%
G36*
X103000Y281269D02*
X102986D01*
X102952D01*
X102896D01*
X102827Y281276D01*
X102744Y281283D01*
X102653Y281303D01*
X102556Y281324D01*
X102459Y281359D01*
X102452D01*
X102438Y281366D01*
X102418Y281373D01*
X102383Y281387D01*
X102348Y281407D01*
X102300Y281428D01*
X102189Y281484D01*
X102057Y281553D01*
X101911Y281643D01*
X101759Y281747D01*
X101606Y281872D01*
X101599Y281879D01*
X101586Y281886D01*
X101565Y281907D01*
X101530Y281941D01*
X101495Y281976D01*
X101447Y282025D01*
X101391Y282073D01*
X101329Y282136D01*
X101260Y282205D01*
X101190Y282281D01*
X101107Y282364D01*
X101024Y282461D01*
X100934Y282558D01*
X100844Y282670D01*
X100746Y282780D01*
X100642Y282905D01*
X100636Y282919D01*
X100601Y282954D01*
X100559Y283002D01*
X100497Y283072D01*
X100428Y283155D01*
X100344Y283252D01*
X100254Y283363D01*
X100150Y283474D01*
X99935Y283710D01*
X99706Y283938D01*
X99595Y284049D01*
X99485Y284153D01*
X99381Y284244D01*
X99283Y284320D01*
X99277Y284327D01*
X99263Y284334D01*
X99235Y284354D01*
X99200Y284375D01*
X99152Y284410D01*
X99103Y284438D01*
X98978Y284507D01*
X98833Y284576D01*
X98673Y284639D01*
X98507Y284680D01*
X98424Y284687D01*
X98340Y284694D01*
X98333D01*
X98320D01*
X98292D01*
X98264Y284687D01*
X98223D01*
X98174Y284673D01*
X98070Y284653D01*
X97945Y284611D01*
X97813Y284549D01*
X97744Y284514D01*
X97682Y284465D01*
X97619Y284417D01*
X97557Y284354D01*
X97550Y284347D01*
X97543Y284341D01*
X97529Y284320D01*
X97508Y284292D01*
X97480Y284257D01*
X97453Y284216D01*
X97390Y284119D01*
X97335Y283987D01*
X97279Y283841D01*
X97245Y283668D01*
X97231Y283571D01*
Y283418D01*
X97238Y283377D01*
Y283328D01*
X97252Y283273D01*
X97273Y283148D01*
X97314Y283002D01*
X97376Y282850D01*
X97418Y282773D01*
X97460Y282697D01*
X97515Y282628D01*
X97578Y282558D01*
X97584Y282552D01*
X97591Y282545D01*
X97612Y282531D01*
X97640Y282503D01*
X97675Y282482D01*
X97716Y282454D01*
X97765Y282420D01*
X97820Y282392D01*
X97883Y282357D01*
X97952Y282330D01*
X98118Y282274D01*
X98299Y282233D01*
X98403Y282226D01*
X98514Y282219D01*
X98431Y281414D01*
X98417D01*
X98389Y281421D01*
X98347Y281428D01*
X98285Y281435D01*
X98209Y281449D01*
X98118Y281470D01*
X98021Y281491D01*
X97917Y281525D01*
X97813Y281560D01*
X97696Y281602D01*
X97584Y281657D01*
X97474Y281712D01*
X97356Y281782D01*
X97252Y281858D01*
X97148Y281941D01*
X97058Y282038D01*
X97051Y282045D01*
X97037Y282066D01*
X97016Y282094D01*
X96981Y282136D01*
X96947Y282191D01*
X96905Y282260D01*
X96863Y282337D01*
X96815Y282427D01*
X96773Y282524D01*
X96732Y282635D01*
X96690Y282753D01*
X96655Y282884D01*
X96621Y283023D01*
X96600Y283169D01*
X96586Y283328D01*
X96579Y283495D01*
Y283585D01*
X96586Y283647D01*
X96593Y283724D01*
X96607Y283814D01*
X96621Y283918D01*
X96642Y284022D01*
X96669Y284139D01*
X96704Y284257D01*
X96746Y284382D01*
X96794Y284500D01*
X96856Y284625D01*
X96926Y284743D01*
X97002Y284854D01*
X97092Y284958D01*
X97099Y284965D01*
X97113Y284979D01*
X97148Y285006D01*
X97182Y285041D01*
X97231Y285083D01*
X97293Y285131D01*
X97363Y285180D01*
X97446Y285228D01*
X97529Y285277D01*
X97626Y285325D01*
X97730Y285374D01*
X97841Y285415D01*
X97966Y285450D01*
X98091Y285478D01*
X98223Y285492D01*
X98361Y285499D01*
X98368D01*
X98375D01*
X98396D01*
X98424D01*
X98500Y285492D01*
X98597Y285478D01*
X98715Y285457D01*
X98840Y285429D01*
X98978Y285395D01*
X99117Y285339D01*
X99124D01*
X99131Y285332D01*
X99152Y285325D01*
X99179Y285311D01*
X99256Y285270D01*
X99353Y285214D01*
X99471Y285138D01*
X99602Y285048D01*
X99741Y284944D01*
X99894Y284812D01*
X99901Y284805D01*
X99914Y284798D01*
X99935Y284771D01*
X99970Y284743D01*
X100012Y284701D01*
X100060Y284653D01*
X100122Y284597D01*
X100185Y284528D01*
X100261Y284445D01*
X100344Y284354D01*
X100441Y284257D01*
X100539Y284146D01*
X100649Y284029D01*
X100760Y283897D01*
X100885Y283751D01*
X101017Y283599D01*
X101024Y283592D01*
X101045Y283571D01*
X101072Y283529D01*
X101114Y283488D01*
X101163Y283425D01*
X101218Y283363D01*
X101343Y283217D01*
X101475Y283065D01*
X101613Y282919D01*
X101676Y282850D01*
X101731Y282787D01*
X101787Y282732D01*
X101828Y282690D01*
X101835Y282683D01*
X101863Y282656D01*
X101904Y282621D01*
X101960Y282572D01*
X102022Y282517D01*
X102092Y282461D01*
X102244Y282351D01*
Y285506D01*
X103000D01*
Y281269D01*
D02*
G37*
G36*
Y279820D02*
X101669Y278974D01*
X101662Y278967D01*
X101641Y278960D01*
X101613Y278939D01*
X101572Y278911D01*
X101523Y278883D01*
X101468Y278842D01*
X101343Y278759D01*
X101197Y278661D01*
X101052Y278564D01*
X100913Y278460D01*
X100788Y278363D01*
X100781D01*
X100774Y278349D01*
X100740Y278322D01*
X100684Y278280D01*
X100622Y278218D01*
X100552Y278155D01*
X100483Y278079D01*
X100414Y278003D01*
X100365Y277933D01*
X100358Y277927D01*
X100344Y277899D01*
X100323Y277864D01*
X100296Y277815D01*
X100268Y277753D01*
X100240Y277691D01*
X100213Y277621D01*
X100192Y277545D01*
Y277538D01*
X100185Y277517D01*
X100178Y277483D01*
X100171Y277434D01*
Y277365D01*
X100164Y277282D01*
X100157Y277185D01*
Y276096D01*
X103000D01*
Y275250D01*
X96600D01*
Y278225D01*
X96607Y278301D01*
Y278377D01*
X96614Y278467D01*
X96621Y278571D01*
X96642Y278779D01*
X96676Y278994D01*
X96718Y279202D01*
X96746Y279293D01*
X96773Y279383D01*
Y279390D01*
X96780Y279403D01*
X96794Y279424D01*
X96808Y279459D01*
X96849Y279542D01*
X96912Y279639D01*
X96995Y279757D01*
X97106Y279875D01*
X97231Y279993D01*
X97383Y280097D01*
X97390D01*
X97404Y280111D01*
X97425Y280125D01*
X97460Y280138D01*
X97501Y280159D01*
X97550Y280180D01*
X97605Y280208D01*
X97668Y280236D01*
X97813Y280284D01*
X97973Y280326D01*
X98153Y280353D01*
X98347Y280367D01*
X98354D01*
X98375D01*
X98417D01*
X98458Y280360D01*
X98521Y280353D01*
X98590Y280347D01*
X98666Y280333D01*
X98750Y280312D01*
X98930Y280256D01*
X99027Y280222D01*
X99124Y280180D01*
X99221Y280131D01*
X99318Y280069D01*
X99408Y280000D01*
X99498Y279923D01*
X99505Y279917D01*
X99519Y279903D01*
X99540Y279875D01*
X99575Y279840D01*
X99609Y279792D01*
X99651Y279736D01*
X99699Y279667D01*
X99748Y279584D01*
X99796Y279494D01*
X99845Y279396D01*
X99894Y279286D01*
X99942Y279161D01*
X99984Y279029D01*
X100025Y278883D01*
X100060Y278724D01*
X100088Y278557D01*
Y278564D01*
X100095Y278571D01*
X100115Y278613D01*
X100150Y278675D01*
X100192Y278752D01*
X100240Y278835D01*
X100289Y278918D01*
X100351Y279001D01*
X100407Y279071D01*
X100414Y279077D01*
X100421Y279084D01*
X100441Y279105D01*
X100469Y279133D01*
X100504Y279168D01*
X100545Y279209D01*
X100642Y279299D01*
X100767Y279403D01*
X100913Y279521D01*
X101079Y279646D01*
X101260Y279771D01*
X103000Y280880D01*
Y279820D01*
D02*
G37*
G36*
X106233Y375953D02*
X106226D01*
X106212D01*
X106184Y375946D01*
X106150Y375939D01*
X106108Y375932D01*
X106066Y375925D01*
X105948Y375897D01*
X105824Y375863D01*
X105692Y375821D01*
X105560Y375765D01*
X105435Y375696D01*
X105421Y375689D01*
X105387Y375654D01*
X105331Y375606D01*
X105262Y375537D01*
X105179Y375447D01*
X105102Y375336D01*
X105019Y375204D01*
X104943Y375051D01*
Y375044D01*
X104936Y375030D01*
X104929Y375010D01*
X104915Y374975D01*
X104901Y374933D01*
X104881Y374885D01*
X104867Y374829D01*
X104853Y374767D01*
X104818Y374621D01*
X104783Y374448D01*
X104763Y374268D01*
X104756Y374067D01*
Y373983D01*
X104763Y373942D01*
Y373893D01*
X104776Y373782D01*
X104790Y373651D01*
X104811Y373505D01*
X104846Y373359D01*
X104894Y373221D01*
Y373214D01*
X104901Y373207D01*
X104908Y373186D01*
X104922Y373158D01*
X104957Y373096D01*
X104998Y373013D01*
X105054Y372922D01*
X105123Y372825D01*
X105199Y372742D01*
X105290Y372666D01*
X105303Y372659D01*
X105331Y372638D01*
X105387Y372603D01*
X105456Y372569D01*
X105539Y372541D01*
X105629Y372506D01*
X105733Y372486D01*
X105837Y372479D01*
X105844D01*
X105851D01*
X105886D01*
X105948Y372486D01*
X106018Y372499D01*
X106101Y372520D01*
X106191Y372555D01*
X106281Y372597D01*
X106364Y372659D01*
X106371Y372666D01*
X106399Y372694D01*
X106441Y372735D01*
X106496Y372798D01*
X106552Y372874D01*
X106614Y372978D01*
X106677Y373096D01*
X106739Y373234D01*
X106746Y373248D01*
X106753Y373262D01*
X106760Y373290D01*
X106767Y373318D01*
X106781Y373359D01*
X106801Y373415D01*
X106815Y373470D01*
X106836Y373546D01*
X106864Y373623D01*
X106884Y373720D01*
X106912Y373824D01*
X106947Y373942D01*
X106975Y374067D01*
X107016Y374212D01*
X107051Y374372D01*
Y374379D01*
X107058Y374406D01*
X107072Y374455D01*
X107086Y374510D01*
X107106Y374587D01*
X107127Y374670D01*
X107155Y374753D01*
X107183Y374850D01*
X107245Y375058D01*
X107314Y375259D01*
X107349Y375356D01*
X107384Y375447D01*
X107418Y375530D01*
X107453Y375599D01*
Y375606D01*
X107467Y375620D01*
X107481Y375641D01*
X107495Y375675D01*
X107543Y375759D01*
X107613Y375856D01*
X107703Y375974D01*
X107800Y376084D01*
X107918Y376195D01*
X108042Y376286D01*
X108049D01*
X108056Y376292D01*
X108077Y376306D01*
X108105Y376320D01*
X108181Y376355D01*
X108278Y376396D01*
X108396Y376438D01*
X108535Y376473D01*
X108687Y376501D01*
X108847Y376507D01*
X108854D01*
X108868D01*
X108895D01*
X108930Y376501D01*
X108972D01*
X109020Y376493D01*
X109145Y376473D01*
X109284Y376438D01*
X109429Y376396D01*
X109589Y376327D01*
X109748Y376237D01*
X109755D01*
X109769Y376223D01*
X109790Y376209D01*
X109818Y376188D01*
X109894Y376119D01*
X109991Y376029D01*
X110095Y375918D01*
X110199Y375779D01*
X110303Y375620D01*
X110393Y375433D01*
Y375426D01*
X110400Y375412D01*
X110414Y375377D01*
X110428Y375342D01*
X110442Y375294D01*
X110463Y375232D01*
X110483Y375162D01*
X110504Y375086D01*
X110525Y375003D01*
X110546Y374912D01*
X110580Y374718D01*
X110608Y374496D01*
X110615Y374261D01*
Y374143D01*
X110608Y374080D01*
X110601Y374004D01*
X110594Y373928D01*
X110587Y373838D01*
X110560Y373644D01*
X110518Y373429D01*
X110456Y373214D01*
X110379Y373006D01*
Y372999D01*
X110365Y372985D01*
X110359Y372950D01*
X110338Y372915D01*
X110310Y372874D01*
X110282Y372818D01*
X110213Y372701D01*
X110116Y372562D01*
X109998Y372423D01*
X109866Y372291D01*
X109707Y372174D01*
X109700Y372167D01*
X109686Y372160D01*
X109665Y372146D01*
X109630Y372125D01*
X109589Y372104D01*
X109540Y372076D01*
X109478Y372056D01*
X109416Y372021D01*
X109270Y371965D01*
X109096Y371917D01*
X108909Y371875D01*
X108701Y371855D01*
X108639Y372666D01*
X108646D01*
X108667Y372673D01*
X108694D01*
X108736Y372680D01*
X108791Y372694D01*
X108847Y372707D01*
X108979Y372749D01*
X109124Y372804D01*
X109277Y372888D01*
X109422Y372985D01*
X109485Y373047D01*
X109547Y373117D01*
X109554Y373124D01*
X109561Y373130D01*
X109575Y373158D01*
X109596Y373186D01*
X109617Y373228D01*
X109644Y373276D01*
X109672Y373331D01*
X109707Y373394D01*
X109734Y373470D01*
X109762Y373553D01*
X109790Y373644D01*
X109811Y373741D01*
X109832Y373852D01*
X109845Y373969D01*
X109859Y374094D01*
Y374295D01*
X109852Y374351D01*
Y374413D01*
X109845Y374483D01*
X109838Y374566D01*
X109825Y374649D01*
X109790Y374836D01*
X109741Y375017D01*
X109672Y375190D01*
X109623Y375273D01*
X109575Y375342D01*
Y375349D01*
X109561Y375356D01*
X109527Y375398D01*
X109464Y375453D01*
X109381Y375516D01*
X109284Y375578D01*
X109166Y375634D01*
X109041Y375675D01*
X108972Y375682D01*
X108895Y375689D01*
X108889D01*
X108882D01*
X108840Y375682D01*
X108778Y375675D01*
X108701Y375661D01*
X108611Y375627D01*
X108514Y375585D01*
X108424Y375530D01*
X108334Y375447D01*
X108327Y375433D01*
X108313Y375419D01*
X108292Y375391D01*
X108271Y375356D01*
X108251Y375315D01*
X108223Y375259D01*
X108188Y375197D01*
X108153Y375121D01*
X108119Y375030D01*
X108084Y374926D01*
X108042Y374809D01*
X108001Y374670D01*
X107959Y374524D01*
X107911Y374358D01*
X107869Y374171D01*
Y374157D01*
X107862Y374122D01*
X107848Y374073D01*
X107828Y374004D01*
X107814Y373921D01*
X107786Y373824D01*
X107765Y373720D01*
X107731Y373609D01*
X107668Y373373D01*
X107606Y373137D01*
X107571Y373026D01*
X107536Y372929D01*
X107502Y372832D01*
X107467Y372756D01*
Y372749D01*
X107453Y372728D01*
X107439Y372701D01*
X107418Y372666D01*
X107398Y372617D01*
X107363Y372562D01*
X107287Y372444D01*
X107197Y372305D01*
X107086Y372174D01*
X106954Y372042D01*
X106884Y371986D01*
X106815Y371931D01*
X106808D01*
X106794Y371917D01*
X106774Y371903D01*
X106746Y371889D01*
X106711Y371868D01*
X106663Y371848D01*
X106552Y371792D01*
X106420Y371744D01*
X106267Y371702D01*
X106094Y371674D01*
X105907Y371660D01*
X105900D01*
X105886D01*
X105858D01*
X105824Y371667D01*
X105775D01*
X105726Y371674D01*
X105595Y371695D01*
X105449Y371730D01*
X105290Y371785D01*
X105123Y371861D01*
X105033Y371903D01*
X104950Y371959D01*
X104943D01*
X104929Y371972D01*
X104908Y371986D01*
X104874Y372014D01*
X104797Y372076D01*
X104693Y372174D01*
X104582Y372291D01*
X104465Y372437D01*
X104354Y372603D01*
X104249Y372798D01*
Y372804D01*
X104236Y372825D01*
X104229Y372853D01*
X104208Y372895D01*
X104194Y372943D01*
X104173Y373006D01*
X104145Y373075D01*
X104125Y373158D01*
X104104Y373241D01*
X104076Y373339D01*
X104042Y373546D01*
X104014Y373775D01*
X104000Y374025D01*
Y374108D01*
X104007Y374171D01*
Y374247D01*
X104014Y374330D01*
X104021Y374427D01*
X104035Y374538D01*
X104062Y374767D01*
X104104Y375010D01*
X104166Y375252D01*
X104249Y375488D01*
Y375495D01*
X104263Y375516D01*
X104277Y375544D01*
X104298Y375585D01*
X104326Y375634D01*
X104354Y375689D01*
X104437Y375821D01*
X104541Y375966D01*
X104672Y376119D01*
X104825Y376272D01*
X105005Y376403D01*
X105012Y376410D01*
X105026Y376417D01*
X105054Y376431D01*
X105096Y376452D01*
X105144Y376480D01*
X105199Y376507D01*
X105269Y376542D01*
X105345Y376570D01*
X105421Y376604D01*
X105512Y376632D01*
X105713Y376688D01*
X105928Y376729D01*
X106046Y376743D01*
X106163Y376750D01*
X106233Y375953D01*
D02*
G37*
G36*
X110504Y370211D02*
X106302Y369247D01*
X106295D01*
X106274Y369240D01*
X106240Y369233D01*
X106191Y369220D01*
X106129Y369206D01*
X106059Y369192D01*
X105983Y369171D01*
X105893Y369150D01*
X105796Y369129D01*
X105692Y369109D01*
X105477Y369067D01*
X105241Y369019D01*
X104998Y368977D01*
X105012D01*
X105040Y368963D01*
X105096Y368956D01*
X105158Y368935D01*
X105241Y368921D01*
X105331Y368901D01*
X105428Y368873D01*
X105525Y368852D01*
X105733Y368797D01*
X105830Y368776D01*
X105928Y368748D01*
X106011Y368727D01*
X106080Y368713D01*
X106136Y368699D01*
X106177Y368686D01*
X110504Y367465D01*
Y366446D01*
X107259Y365537D01*
X107245Y365531D01*
X107204Y365524D01*
X107141Y365503D01*
X107051Y365482D01*
X106947Y365454D01*
X106822Y365420D01*
X106683Y365385D01*
X106524Y365343D01*
X106357Y365302D01*
X106177Y365260D01*
X105990Y365219D01*
X105796Y365177D01*
X105401Y365101D01*
X104998Y365031D01*
X105005D01*
X105026Y365024D01*
X105061Y365017D01*
X105102Y365010D01*
X105165Y364997D01*
X105234Y364983D01*
X105310Y364962D01*
X105401Y364941D01*
X105498Y364920D01*
X105602Y364899D01*
X105720Y364872D01*
X105837Y364844D01*
X106101Y364782D01*
X106385Y364712D01*
X110504Y363707D01*
Y362854D01*
X104104Y364608D01*
Y365434D01*
X108979Y366772D01*
X108986D01*
X109006Y366779D01*
X109034Y366786D01*
X109076Y366800D01*
X109124Y366813D01*
X109180Y366827D01*
X109305Y366862D01*
X109429Y366897D01*
X109554Y366931D01*
X109610Y366945D01*
X109658Y366959D01*
X109700Y366973D01*
X109727Y366980D01*
X109721D01*
X109707Y366987D01*
X109686D01*
X109651Y367001D01*
X109617Y367007D01*
X109568Y367015D01*
X109471Y367042D01*
X109353Y367070D01*
X109221Y367105D01*
X109096Y367139D01*
X108979Y367174D01*
X104104Y368519D01*
Y369400D01*
X110504Y371085D01*
Y370211D01*
D02*
G37*
G36*
X108923Y361779D02*
X108930Y361758D01*
X108951Y361724D01*
X108972Y361675D01*
X109000Y361620D01*
X109041Y361550D01*
X109083Y361474D01*
X109124Y361398D01*
X109235Y361217D01*
X109367Y361023D01*
X109506Y360822D01*
X109665Y360635D01*
X109672Y360628D01*
X109686Y360614D01*
X109707Y360587D01*
X109741Y360552D01*
X109783Y360517D01*
X109825Y360469D01*
X109943Y360365D01*
X110067Y360247D01*
X110213Y360129D01*
X110365Y360025D01*
X110525Y359935D01*
Y359428D01*
X104104D01*
Y360212D01*
X109103D01*
X109090Y360226D01*
X109055Y360261D01*
X109006Y360323D01*
X108937Y360413D01*
X108854Y360517D01*
X108764Y360649D01*
X108667Y360794D01*
X108563Y360961D01*
Y360968D01*
X108549Y360982D01*
X108535Y361003D01*
X108521Y361037D01*
X108493Y361079D01*
X108472Y361127D01*
X108410Y361238D01*
X108348Y361363D01*
X108278Y361502D01*
X108216Y361647D01*
X108160Y361786D01*
X108916D01*
X108923Y361779D01*
D02*
G37*
G36*
X62750Y283800D02*
X57751D01*
X57764Y283786D01*
X57799Y283752D01*
X57848Y283689D01*
X57917Y283599D01*
X58000Y283495D01*
X58090Y283363D01*
X58187Y283218D01*
X58291Y283051D01*
Y283044D01*
X58305Y283030D01*
X58319Y283010D01*
X58333Y282975D01*
X58361Y282933D01*
X58382Y282885D01*
X58444Y282774D01*
X58506Y282649D01*
X58576Y282510D01*
X58638Y282365D01*
X58694Y282226D01*
X57938D01*
X57931Y282233D01*
X57924Y282254D01*
X57903Y282288D01*
X57882Y282337D01*
X57854Y282393D01*
X57813Y282462D01*
X57771Y282538D01*
X57730Y282614D01*
X57619Y282795D01*
X57487Y282989D01*
X57348Y283190D01*
X57189Y283377D01*
X57182Y283384D01*
X57168Y283398D01*
X57147Y283426D01*
X57113Y283460D01*
X57071Y283495D01*
X57029Y283544D01*
X56912Y283648D01*
X56787Y283766D01*
X56641Y283883D01*
X56488Y283987D01*
X56329Y284077D01*
Y284584D01*
X62750D01*
Y283800D01*
D02*
G37*
G36*
Y280070D02*
X61419Y279224D01*
X61412Y279217D01*
X61391Y279210D01*
X61363Y279189D01*
X61322Y279161D01*
X61273Y279133D01*
X61218Y279092D01*
X61093Y279009D01*
X60947Y278911D01*
X60802Y278815D01*
X60663Y278710D01*
X60538Y278613D01*
X60531D01*
X60524Y278599D01*
X60490Y278572D01*
X60434Y278530D01*
X60372Y278468D01*
X60302Y278405D01*
X60233Y278329D01*
X60164Y278253D01*
X60115Y278183D01*
X60108Y278176D01*
X60094Y278149D01*
X60073Y278114D01*
X60046Y278066D01*
X60018Y278003D01*
X59990Y277941D01*
X59963Y277871D01*
X59942Y277795D01*
Y277788D01*
X59935Y277767D01*
X59928Y277733D01*
X59921Y277684D01*
Y277615D01*
X59914Y277532D01*
X59907Y277435D01*
Y276346D01*
X62750D01*
Y275500D01*
X56350D01*
Y278475D01*
X56357Y278551D01*
Y278627D01*
X56364Y278717D01*
X56371Y278821D01*
X56391Y279029D01*
X56426Y279244D01*
X56468Y279452D01*
X56495Y279543D01*
X56523Y279633D01*
Y279640D01*
X56530Y279653D01*
X56544Y279674D01*
X56558Y279709D01*
X56599Y279792D01*
X56662Y279889D01*
X56745Y280007D01*
X56856Y280125D01*
X56981Y280243D01*
X57133Y280347D01*
X57140D01*
X57154Y280361D01*
X57175Y280375D01*
X57210Y280389D01*
X57251Y280409D01*
X57300Y280430D01*
X57355Y280458D01*
X57418Y280486D01*
X57563Y280534D01*
X57723Y280576D01*
X57903Y280604D01*
X58097Y280617D01*
X58104D01*
X58125D01*
X58167D01*
X58208Y280610D01*
X58271Y280604D01*
X58340Y280597D01*
X58416Y280583D01*
X58499Y280562D01*
X58680Y280506D01*
X58777Y280472D01*
X58874Y280430D01*
X58971Y280382D01*
X59068Y280319D01*
X59158Y280250D01*
X59248Y280174D01*
X59255Y280167D01*
X59269Y280153D01*
X59290Y280125D01*
X59325Y280090D01*
X59359Y280042D01*
X59401Y279986D01*
X59449Y279917D01*
X59498Y279834D01*
X59546Y279744D01*
X59595Y279647D01*
X59644Y279536D01*
X59692Y279411D01*
X59734Y279279D01*
X59775Y279133D01*
X59810Y278974D01*
X59838Y278808D01*
Y278815D01*
X59845Y278821D01*
X59865Y278863D01*
X59900Y278925D01*
X59942Y279002D01*
X59990Y279085D01*
X60039Y279168D01*
X60101Y279251D01*
X60157Y279321D01*
X60164Y279328D01*
X60171Y279335D01*
X60191Y279355D01*
X60219Y279383D01*
X60254Y279418D01*
X60295Y279459D01*
X60392Y279550D01*
X60517Y279653D01*
X60663Y279771D01*
X60829Y279896D01*
X61010Y280021D01*
X62750Y281131D01*
Y280070D01*
D02*
G37*
G36*
X394025Y214237D02*
X394018D01*
X393990D01*
X393955Y214230D01*
X393907D01*
X393844Y214223D01*
X393775Y214217D01*
X393623Y214196D01*
X393456Y214161D01*
X393290Y214113D01*
X393213Y214085D01*
X393137Y214050D01*
X393075Y214009D01*
X393019Y213967D01*
X393005Y213953D01*
X392978Y213918D01*
X392936Y213863D01*
X392887Y213787D01*
X392839Y213690D01*
X392797Y213572D01*
X392770Y213440D01*
X392756Y213287D01*
Y213232D01*
X392763Y213176D01*
X392776Y213100D01*
X392790Y213010D01*
X392818Y212920D01*
X392853Y212830D01*
X392901Y212740D01*
X392908Y212726D01*
X392929Y212698D01*
X392964Y212663D01*
X393005Y212608D01*
X393061Y212559D01*
X393130Y212504D01*
X393206Y212455D01*
X393297Y212414D01*
X393310Y212407D01*
X393345Y212400D01*
X393408Y212386D01*
X393491Y212365D01*
X393602Y212351D01*
X393740Y212337D01*
X393900Y212330D01*
X393997Y212323D01*
X394094D01*
X398504D01*
Y211478D01*
X394142D01*
X394136D01*
X394108D01*
X394066D01*
X394011D01*
X393941Y211485D01*
X393865D01*
X393775Y211491D01*
X393685Y211505D01*
X393484Y211526D01*
X393276Y211561D01*
X393075Y211609D01*
X392985Y211644D01*
X392894Y211679D01*
X392887D01*
X392874Y211686D01*
X392853Y211699D01*
X392825Y211713D01*
X392742Y211762D01*
X392645Y211831D01*
X392541Y211914D01*
X392430Y212018D01*
X392326Y212150D01*
X392229Y212296D01*
Y212303D01*
X392222Y212317D01*
X392208Y212337D01*
X392194Y212372D01*
X392173Y212407D01*
X392159Y212455D01*
X392139Y212511D01*
X392118Y212573D01*
X392069Y212719D01*
X392034Y212885D01*
X392007Y213072D01*
X392000Y213280D01*
Y213364D01*
X392007Y213419D01*
X392014Y213489D01*
X392028Y213572D01*
X392042Y213662D01*
X392062Y213759D01*
X392083Y213863D01*
X392118Y213967D01*
X392152Y214078D01*
X392201Y214182D01*
X392256Y214293D01*
X392319Y214390D01*
X392395Y214487D01*
X392478Y214577D01*
X392485Y214584D01*
X392499Y214598D01*
X392527Y214619D01*
X392569Y214646D01*
X392617Y214681D01*
X392679Y214716D01*
X392756Y214757D01*
X392839Y214799D01*
X392936Y214834D01*
X393040Y214875D01*
X393158Y214910D01*
X393290Y214945D01*
X393428Y214965D01*
X393581Y214986D01*
X393740Y215000D01*
X393914D01*
X394025Y214237D01*
D02*
G37*
G36*
X393844Y209585D02*
X393837D01*
X393817Y209578D01*
X393789Y209571D01*
X393747Y209564D01*
X393699Y209557D01*
X393636Y209536D01*
X393505Y209501D01*
X393359Y209446D01*
X393206Y209370D01*
X393068Y209279D01*
X393005Y209224D01*
X392943Y209168D01*
Y209161D01*
X392929Y209155D01*
X392915Y209134D01*
X392894Y209106D01*
X392846Y209037D01*
X392797Y208940D01*
X392742Y208822D01*
X392693Y208683D01*
X392659Y208531D01*
X392652Y208447D01*
X392645Y208357D01*
Y208302D01*
X392652Y208260D01*
X392659Y208211D01*
X392666Y208156D01*
X392700Y208024D01*
X392749Y207872D01*
X392783Y207796D01*
X392825Y207712D01*
X392874Y207629D01*
X392929Y207553D01*
X392991Y207477D01*
X393068Y207400D01*
X393075Y207393D01*
X393088Y207386D01*
X393109Y207366D01*
X393144Y207338D01*
X393193Y207310D01*
X393241Y207275D01*
X393303Y207241D01*
X393373Y207199D01*
X393449Y207164D01*
X393532Y207130D01*
X393629Y207095D01*
X393727Y207067D01*
X393837Y207040D01*
X393955Y207019D01*
X394073Y207012D01*
X394205Y207005D01*
X394212D01*
X394233D01*
X394267D01*
X394316Y207012D01*
X394371Y207019D01*
X394441Y207026D01*
X394510Y207040D01*
X394593Y207054D01*
X394760Y207095D01*
X394940Y207164D01*
X395023Y207206D01*
X395106Y207262D01*
X395190Y207317D01*
X395266Y207386D01*
X395273Y207393D01*
X395280Y207400D01*
X395301Y207428D01*
X395328Y207456D01*
X395356Y207490D01*
X395391Y207539D01*
X395425Y207588D01*
X395467Y207650D01*
X395502Y207719D01*
X395536Y207789D01*
X395599Y207962D01*
X395626Y208052D01*
X395647Y208156D01*
X395654Y208260D01*
X395661Y208371D01*
Y208433D01*
X395654Y208510D01*
X395640Y208600D01*
X395620Y208711D01*
X395585Y208829D01*
X395543Y208947D01*
X395481Y209065D01*
X395474Y209078D01*
X395453Y209113D01*
X395411Y209168D01*
X395363Y209238D01*
X395294Y209307D01*
X395217Y209390D01*
X395127Y209467D01*
X395030Y209536D01*
X395134Y210271D01*
X398421Y209654D01*
Y206471D01*
X397672D01*
Y209030D01*
X395952Y209370D01*
X395959Y209363D01*
X395973Y209342D01*
X395987Y209314D01*
X396015Y209272D01*
X396043Y209217D01*
X396077Y209155D01*
X396119Y209085D01*
X396153Y209002D01*
X396188Y208919D01*
X396230Y208822D01*
X396292Y208621D01*
X396320Y208510D01*
X396341Y208399D01*
X396348Y208281D01*
X396355Y208163D01*
Y208128D01*
X396348Y208080D01*
Y208024D01*
X396334Y207955D01*
X396327Y207872D01*
X396306Y207775D01*
X396285Y207678D01*
X396250Y207567D01*
X396216Y207456D01*
X396167Y207338D01*
X396112Y207220D01*
X396043Y207102D01*
X395966Y206984D01*
X395876Y206866D01*
X395772Y206755D01*
X395765Y206748D01*
X395744Y206728D01*
X395710Y206700D01*
X395668Y206665D01*
X395613Y206617D01*
X395536Y206568D01*
X395460Y206520D01*
X395370Y206464D01*
X395266Y206409D01*
X395148Y206360D01*
X395030Y206305D01*
X394891Y206263D01*
X394753Y206228D01*
X394600Y206201D01*
X394441Y206180D01*
X394274Y206173D01*
X394267D01*
X394233D01*
X394191D01*
X394129Y206180D01*
X394052Y206187D01*
X393969Y206201D01*
X393872Y206215D01*
X393761Y206235D01*
X393650Y206263D01*
X393525Y206298D01*
X393401Y206339D01*
X393276Y206388D01*
X393151Y206443D01*
X393019Y206513D01*
X392894Y206589D01*
X392776Y206679D01*
X392770Y206686D01*
X392742Y206707D01*
X392707Y206742D01*
X392659Y206790D01*
X392596Y206852D01*
X392534Y206929D01*
X392458Y207019D01*
X392388Y207123D01*
X392319Y207234D01*
X392243Y207359D01*
X392180Y207497D01*
X392125Y207650D01*
X392069Y207809D01*
X392034Y207983D01*
X392007Y208163D01*
X392000Y208357D01*
Y208440D01*
X392007Y208503D01*
X392014Y208579D01*
X392028Y208662D01*
X392042Y208759D01*
X392062Y208863D01*
X392083Y208974D01*
X392118Y209092D01*
X392159Y209210D01*
X392208Y209328D01*
X392263Y209446D01*
X392326Y209564D01*
X392402Y209675D01*
X392485Y209786D01*
X392492Y209792D01*
X392506Y209806D01*
X392534Y209834D01*
X392575Y209869D01*
X392624Y209917D01*
X392679Y209966D01*
X392749Y210014D01*
X392832Y210070D01*
X392915Y210125D01*
X393012Y210181D01*
X393123Y210229D01*
X393234Y210278D01*
X393359Y210326D01*
X393491Y210361D01*
X393636Y210389D01*
X393782Y210410D01*
X393844Y209585D01*
D02*
G37*
G36*
X177525Y214287D02*
X177518D01*
X177490D01*
X177455Y214280D01*
X177407D01*
X177344Y214273D01*
X177275Y214267D01*
X177122Y214246D01*
X176956Y214211D01*
X176790Y214163D01*
X176713Y214135D01*
X176637Y214100D01*
X176575Y214058D01*
X176519Y214017D01*
X176505Y214003D01*
X176478Y213968D01*
X176436Y213913D01*
X176388Y213837D01*
X176339Y213740D01*
X176297Y213622D01*
X176270Y213490D01*
X176256Y213337D01*
Y213282D01*
X176263Y213226D01*
X176276Y213150D01*
X176290Y213060D01*
X176318Y212970D01*
X176353Y212880D01*
X176401Y212790D01*
X176408Y212776D01*
X176429Y212748D01*
X176464Y212713D01*
X176505Y212658D01*
X176561Y212609D01*
X176630Y212554D01*
X176706Y212505D01*
X176797Y212464D01*
X176810Y212457D01*
X176845Y212450D01*
X176908Y212436D01*
X176991Y212415D01*
X177102Y212401D01*
X177240Y212387D01*
X177400Y212380D01*
X177497Y212374D01*
X177594D01*
X182004D01*
Y211528D01*
X177642D01*
X177636D01*
X177608D01*
X177566D01*
X177511D01*
X177442Y211535D01*
X177365D01*
X177275Y211541D01*
X177185Y211555D01*
X176984Y211576D01*
X176776Y211611D01*
X176575Y211659D01*
X176485Y211694D01*
X176394Y211729D01*
X176388D01*
X176374Y211736D01*
X176353Y211749D01*
X176325Y211763D01*
X176242Y211812D01*
X176145Y211881D01*
X176041Y211964D01*
X175930Y212068D01*
X175826Y212200D01*
X175729Y212346D01*
Y212353D01*
X175722Y212367D01*
X175708Y212387D01*
X175694Y212422D01*
X175673Y212457D01*
X175659Y212505D01*
X175639Y212561D01*
X175618Y212623D01*
X175569Y212769D01*
X175534Y212935D01*
X175507Y213122D01*
X175500Y213330D01*
Y213414D01*
X175507Y213469D01*
X175514Y213538D01*
X175528Y213622D01*
X175541Y213712D01*
X175562Y213809D01*
X175583Y213913D01*
X175618Y214017D01*
X175652Y214128D01*
X175701Y214232D01*
X175756Y214343D01*
X175819Y214440D01*
X175895Y214537D01*
X175978Y214627D01*
X175985Y214634D01*
X175999Y214648D01*
X176027Y214669D01*
X176068Y214697D01*
X176117Y214731D01*
X176179Y214766D01*
X176256Y214807D01*
X176339Y214849D01*
X176436Y214884D01*
X176540Y214925D01*
X176658Y214960D01*
X176790Y214995D01*
X176928Y215015D01*
X177081Y215036D01*
X177240Y215050D01*
X177414D01*
X177525Y214287D01*
D02*
G37*
G36*
X175777Y210564D02*
X175861Y210557D01*
X175951Y210536D01*
X176048Y210515D01*
X176145Y210480D01*
X176152D01*
X176166Y210473D01*
X176186Y210467D01*
X176221Y210453D01*
X176256Y210432D01*
X176304Y210411D01*
X176415Y210356D01*
X176547Y210286D01*
X176693Y210196D01*
X176845Y210092D01*
X176998Y209967D01*
X177005Y209960D01*
X177019Y209953D01*
X177039Y209933D01*
X177074Y209898D01*
X177109Y209863D01*
X177157Y209815D01*
X177213Y209766D01*
X177275Y209704D01*
X177344Y209634D01*
X177414Y209558D01*
X177497Y209475D01*
X177580Y209378D01*
X177670Y209281D01*
X177760Y209170D01*
X177857Y209059D01*
X177962Y208934D01*
X177969Y208920D01*
X178003Y208886D01*
X178045Y208837D01*
X178107Y208768D01*
X178176Y208685D01*
X178260Y208587D01*
X178350Y208477D01*
X178454Y208365D01*
X178669Y208130D01*
X178898Y207901D01*
X179009Y207790D01*
X179119Y207686D01*
X179223Y207596D01*
X179321Y207520D01*
X179328Y207513D01*
X179341Y207506D01*
X179369Y207485D01*
X179404Y207464D01*
X179452Y207429D01*
X179501Y207402D01*
X179626Y207332D01*
X179771Y207263D01*
X179931Y207201D01*
X180097Y207159D01*
X180180Y207152D01*
X180264Y207145D01*
X180271D01*
X180285D01*
X180312D01*
X180340Y207152D01*
X180382D01*
X180430Y207166D01*
X180534Y207187D01*
X180659Y207228D01*
X180791Y207291D01*
X180860Y207325D01*
X180922Y207374D01*
X180985Y207423D01*
X181047Y207485D01*
X181054Y207492D01*
X181061Y207499D01*
X181075Y207520D01*
X181096Y207547D01*
X181124Y207582D01*
X181151Y207624D01*
X181214Y207721D01*
X181269Y207852D01*
X181325Y207998D01*
X181359Y208171D01*
X181373Y208269D01*
Y208421D01*
X181366Y208463D01*
Y208511D01*
X181352Y208567D01*
X181332Y208692D01*
X181290Y208837D01*
X181227Y208990D01*
X181186Y209066D01*
X181144Y209142D01*
X181089Y209212D01*
X181026Y209281D01*
X181019Y209288D01*
X181013Y209295D01*
X180992Y209309D01*
X180964Y209336D01*
X180929Y209357D01*
X180888Y209385D01*
X180839Y209419D01*
X180784Y209447D01*
X180721Y209482D01*
X180652Y209510D01*
X180486Y209565D01*
X180305Y209607D01*
X180201Y209614D01*
X180090Y209621D01*
X180173Y210425D01*
X180187D01*
X180215Y210418D01*
X180257Y210411D01*
X180319Y210404D01*
X180395Y210390D01*
X180486Y210369D01*
X180583Y210349D01*
X180687Y210314D01*
X180791Y210279D01*
X180909Y210238D01*
X181019Y210182D01*
X181130Y210127D01*
X181248Y210058D01*
X181352Y209981D01*
X181456Y209898D01*
X181546Y209801D01*
X181553Y209794D01*
X181567Y209773D01*
X181588Y209746D01*
X181623Y209704D01*
X181657Y209648D01*
X181699Y209579D01*
X181741Y209503D01*
X181789Y209413D01*
X181831Y209315D01*
X181872Y209205D01*
X181914Y209087D01*
X181949Y208955D01*
X181983Y208816D01*
X182004Y208671D01*
X182018Y208511D01*
X182025Y208345D01*
Y208255D01*
X182018Y208192D01*
X182011Y208116D01*
X181997Y208026D01*
X181983Y207922D01*
X181963Y207818D01*
X181935Y207700D01*
X181900Y207582D01*
X181859Y207457D01*
X181810Y207339D01*
X181748Y207215D01*
X181678Y207097D01*
X181602Y206986D01*
X181512Y206882D01*
X181505Y206875D01*
X181491Y206861D01*
X181456Y206833D01*
X181422Y206798D01*
X181373Y206757D01*
X181311Y206708D01*
X181241Y206660D01*
X181158Y206611D01*
X181075Y206563D01*
X180978Y206514D01*
X180874Y206466D01*
X180763Y206424D01*
X180638Y206389D01*
X180513Y206362D01*
X180382Y206348D01*
X180243Y206341D01*
X180236D01*
X180229D01*
X180208D01*
X180180D01*
X180104Y206348D01*
X180007Y206362D01*
X179889Y206382D01*
X179764Y206410D01*
X179626Y206445D01*
X179487Y206500D01*
X179480D01*
X179473Y206507D01*
X179452Y206514D01*
X179425Y206528D01*
X179348Y206570D01*
X179251Y206625D01*
X179133Y206701D01*
X179002Y206791D01*
X178863Y206896D01*
X178710Y207027D01*
X178703Y207034D01*
X178690Y207041D01*
X178669Y207069D01*
X178634Y207097D01*
X178592Y207138D01*
X178544Y207187D01*
X178482Y207242D01*
X178419Y207311D01*
X178343Y207395D01*
X178260Y207485D01*
X178163Y207582D01*
X178065Y207693D01*
X177955Y207811D01*
X177844Y207943D01*
X177719Y208088D01*
X177587Y208241D01*
X177580Y208248D01*
X177559Y208269D01*
X177532Y208310D01*
X177490Y208352D01*
X177442Y208414D01*
X177386Y208477D01*
X177261Y208622D01*
X177129Y208775D01*
X176991Y208920D01*
X176928Y208990D01*
X176873Y209052D01*
X176817Y209107D01*
X176776Y209149D01*
X176769Y209156D01*
X176741Y209184D01*
X176700Y209219D01*
X176644Y209267D01*
X176582Y209322D01*
X176512Y209378D01*
X176360Y209489D01*
Y206334D01*
X175604D01*
Y210571D01*
X175618D01*
X175652D01*
X175708D01*
X175777Y210564D01*
D02*
G37*
G36*
X24525Y213537D02*
X24518D01*
X24490D01*
X24455Y213530D01*
X24407D01*
X24344Y213524D01*
X24275Y213517D01*
X24123Y213496D01*
X23956Y213461D01*
X23790Y213413D01*
X23713Y213385D01*
X23637Y213350D01*
X23575Y213309D01*
X23519Y213267D01*
X23505Y213253D01*
X23478Y213218D01*
X23436Y213163D01*
X23387Y213087D01*
X23339Y212990D01*
X23297Y212872D01*
X23270Y212740D01*
X23256Y212587D01*
Y212532D01*
X23263Y212476D01*
X23277Y212400D01*
X23290Y212310D01*
X23318Y212220D01*
X23353Y212130D01*
X23401Y212040D01*
X23408Y212026D01*
X23429Y211998D01*
X23464Y211963D01*
X23505Y211908D01*
X23561Y211859D01*
X23630Y211804D01*
X23706Y211755D01*
X23797Y211714D01*
X23810Y211707D01*
X23845Y211700D01*
X23907Y211686D01*
X23991Y211665D01*
X24102Y211651D01*
X24240Y211637D01*
X24400Y211630D01*
X24497Y211623D01*
X24594D01*
X29004D01*
Y210778D01*
X24643D01*
X24636D01*
X24608D01*
X24566D01*
X24511D01*
X24441Y210784D01*
X24365D01*
X24275Y210791D01*
X24185Y210805D01*
X23984Y210826D01*
X23776Y210861D01*
X23575Y210909D01*
X23484Y210944D01*
X23394Y210979D01*
X23387D01*
X23374Y210986D01*
X23353Y211000D01*
X23325Y211013D01*
X23242Y211062D01*
X23145Y211131D01*
X23041Y211214D01*
X22930Y211318D01*
X22826Y211450D01*
X22729Y211596D01*
Y211603D01*
X22722Y211617D01*
X22708Y211637D01*
X22694Y211672D01*
X22673Y211707D01*
X22659Y211755D01*
X22639Y211811D01*
X22618Y211873D01*
X22569Y212019D01*
X22534Y212185D01*
X22507Y212372D01*
X22500Y212580D01*
Y212664D01*
X22507Y212719D01*
X22514Y212789D01*
X22528Y212872D01*
X22541Y212962D01*
X22562Y213059D01*
X22583Y213163D01*
X22618Y213267D01*
X22652Y213378D01*
X22701Y213482D01*
X22756Y213593D01*
X22819Y213690D01*
X22895Y213787D01*
X22978Y213877D01*
X22985Y213884D01*
X22999Y213898D01*
X23027Y213919D01*
X23068Y213946D01*
X23117Y213981D01*
X23179Y214016D01*
X23256Y214057D01*
X23339Y214099D01*
X23436Y214134D01*
X23540Y214175D01*
X23658Y214210D01*
X23790Y214245D01*
X23928Y214265D01*
X24081Y214286D01*
X24240Y214300D01*
X24414D01*
X24525Y213537D01*
D02*
G37*
G36*
X27423Y209106D02*
X27430Y209086D01*
X27451Y209051D01*
X27472Y209002D01*
X27499Y208947D01*
X27541Y208878D01*
X27583Y208801D01*
X27624Y208725D01*
X27735Y208545D01*
X27867Y208351D01*
X28006Y208150D01*
X28165Y207962D01*
X28172Y207955D01*
X28186Y207941D01*
X28207Y207914D01*
X28241Y207879D01*
X28283Y207844D01*
X28325Y207796D01*
X28442Y207692D01*
X28567Y207574D01*
X28713Y207456D01*
X28865Y207352D01*
X29025Y207262D01*
Y206756D01*
X22604D01*
Y207539D01*
X27603D01*
X27590Y207553D01*
X27555Y207588D01*
X27506Y207650D01*
X27437Y207740D01*
X27354Y207844D01*
X27264Y207976D01*
X27167Y208122D01*
X27063Y208288D01*
Y208295D01*
X27049Y208309D01*
X27035Y208330D01*
X27021Y208365D01*
X26993Y208406D01*
X26972Y208455D01*
X26910Y208566D01*
X26848Y208690D01*
X26778Y208829D01*
X26716Y208975D01*
X26660Y209113D01*
X27416D01*
X27423Y209106D01*
D02*
G37*
G36*
X368676Y381108D02*
X368759Y381101D01*
X368856Y381087D01*
X368960Y381073D01*
X369078Y381053D01*
X369203Y381025D01*
X369334Y380997D01*
X369466Y380956D01*
X369605Y380907D01*
X369744Y380852D01*
X369875Y380782D01*
X370007Y380713D01*
X370132Y380623D01*
X370139Y380616D01*
X370160Y380602D01*
X370194Y380574D01*
X370236Y380533D01*
X370291Y380484D01*
X370354Y380422D01*
X370416Y380352D01*
X370493Y380269D01*
X370569Y380179D01*
X370645Y380075D01*
X370721Y379964D01*
X370791Y379839D01*
X370867Y379707D01*
X370929Y379562D01*
X370992Y379409D01*
X371047Y379250D01*
X370215Y379056D01*
Y379063D01*
X370201Y379083D01*
X370194Y379125D01*
X370173Y379174D01*
X370153Y379229D01*
X370118Y379291D01*
X370049Y379444D01*
X369959Y379610D01*
X369841Y379784D01*
X369716Y379943D01*
X369640Y380013D01*
X369563Y380075D01*
X369556Y380082D01*
X369543Y380089D01*
X369522Y380103D01*
X369487Y380123D01*
X369445Y380151D01*
X369397Y380179D01*
X369341Y380207D01*
X369272Y380234D01*
X369196Y380262D01*
X369119Y380290D01*
X368939Y380345D01*
X368731Y380380D01*
X368620Y380394D01*
X368433D01*
X368378Y380387D01*
X368315Y380380D01*
X368239Y380373D01*
X368156Y380366D01*
X368073Y380352D01*
X367871Y380304D01*
X367663Y380241D01*
X367559Y380200D01*
X367455Y380151D01*
X367358Y380096D01*
X367261Y380033D01*
X367254Y380026D01*
X367240Y380019D01*
X367213Y379999D01*
X367178Y379971D01*
X367143Y379936D01*
X367095Y379888D01*
X367046Y379839D01*
X366991Y379784D01*
X366935Y379714D01*
X366873Y379645D01*
X366762Y379486D01*
X366658Y379298D01*
X366568Y379083D01*
Y379076D01*
X366561Y379056D01*
X366547Y379021D01*
X366540Y378979D01*
X366526Y378924D01*
X366505Y378862D01*
X366492Y378785D01*
X366471Y378709D01*
X366450Y378619D01*
X366436Y378522D01*
X366401Y378314D01*
X366381Y378092D01*
X366374Y377856D01*
Y377849D01*
Y377821D01*
Y377780D01*
X366381Y377717D01*
Y377648D01*
X366387Y377565D01*
X366394Y377475D01*
X366401Y377371D01*
X366415Y377260D01*
X366429Y377149D01*
X366471Y376906D01*
X366533Y376663D01*
X366609Y376428D01*
Y376421D01*
X366623Y376400D01*
X366637Y376372D01*
X366651Y376330D01*
X366679Y376275D01*
X366713Y376219D01*
X366790Y376088D01*
X366894Y375935D01*
X367019Y375790D01*
X367171Y375644D01*
X367254Y375582D01*
X367344Y375519D01*
X367351D01*
X367365Y375505D01*
X367393Y375491D01*
X367435Y375471D01*
X367483Y375450D01*
X367538Y375422D01*
X367601Y375401D01*
X367670Y375374D01*
X367830Y375318D01*
X368017Y375270D01*
X368218Y375235D01*
X368322Y375228D01*
X368433Y375221D01*
X368502D01*
X368551Y375228D01*
X368613Y375235D01*
X368683Y375242D01*
X368766Y375256D01*
X368849Y375270D01*
X369043Y375318D01*
X369140Y375353D01*
X369244Y375394D01*
X369348Y375443D01*
X369445Y375498D01*
X369543Y375561D01*
X369640Y375630D01*
X369646Y375637D01*
X369660Y375651D01*
X369688Y375672D01*
X369723Y375706D01*
X369757Y375748D01*
X369806Y375803D01*
X369855Y375866D01*
X369910Y375935D01*
X369966Y376018D01*
X370021Y376109D01*
X370076Y376206D01*
X370132Y376317D01*
X370181Y376435D01*
X370229Y376566D01*
X370277Y376705D01*
X370312Y376851D01*
X371158Y376636D01*
Y376622D01*
X371144Y376587D01*
X371130Y376539D01*
X371103Y376462D01*
X371075Y376379D01*
X371033Y376275D01*
X370992Y376164D01*
X370936Y376046D01*
X370874Y375914D01*
X370804Y375790D01*
X370728Y375651D01*
X370638Y375519D01*
X370541Y375394D01*
X370437Y375270D01*
X370319Y375152D01*
X370194Y375041D01*
X370187Y375034D01*
X370160Y375020D01*
X370125Y374992D01*
X370070Y374958D01*
X370007Y374916D01*
X369924Y374867D01*
X369834Y374819D01*
X369723Y374770D01*
X369605Y374722D01*
X369480Y374673D01*
X369341Y374625D01*
X369189Y374583D01*
X369029Y374548D01*
X368863Y374521D01*
X368690Y374507D01*
X368502Y374500D01*
X368405D01*
X368329Y374507D01*
X368246Y374514D01*
X368142Y374521D01*
X368031Y374534D01*
X367906Y374555D01*
X367774Y374576D01*
X367636Y374604D01*
X367497Y374638D01*
X367358Y374673D01*
X367213Y374722D01*
X367074Y374777D01*
X366942Y374840D01*
X366817Y374916D01*
X366810Y374923D01*
X366790Y374937D01*
X366755Y374958D01*
X366713Y374992D01*
X366658Y375041D01*
X366595Y375089D01*
X366526Y375152D01*
X366450Y375228D01*
X366374Y375311D01*
X366290Y375401D01*
X366214Y375498D01*
X366131Y375609D01*
X366048Y375727D01*
X365971Y375852D01*
X365902Y375991D01*
X365833Y376136D01*
X365826Y376143D01*
X365819Y376171D01*
X365805Y376219D01*
X365784Y376275D01*
X365756Y376351D01*
X365729Y376435D01*
X365701Y376539D01*
X365666Y376650D01*
X365639Y376774D01*
X365604Y376906D01*
X365576Y377045D01*
X365555Y377197D01*
X365514Y377516D01*
X365507Y377683D01*
X365500Y377849D01*
Y377863D01*
Y377891D01*
Y377946D01*
X365507Y378016D01*
X365514Y378106D01*
X365521Y378210D01*
X365535Y378321D01*
X365548Y378445D01*
X365569Y378577D01*
X365590Y378716D01*
X365659Y379014D01*
X365708Y379160D01*
X365756Y379305D01*
X365812Y379458D01*
X365881Y379596D01*
X365888Y379603D01*
X365902Y379631D01*
X365923Y379666D01*
X365951Y379721D01*
X365992Y379784D01*
X366041Y379853D01*
X366096Y379929D01*
X366159Y380019D01*
X366235Y380103D01*
X366311Y380200D01*
X366401Y380290D01*
X366498Y380387D01*
X366602Y380477D01*
X366713Y380567D01*
X366838Y380650D01*
X366963Y380727D01*
X366970Y380734D01*
X366998Y380741D01*
X367032Y380761D01*
X367088Y380789D01*
X367150Y380817D01*
X367233Y380852D01*
X367324Y380886D01*
X367421Y380921D01*
X367532Y380956D01*
X367656Y380990D01*
X367781Y381025D01*
X367920Y381053D01*
X368204Y381101D01*
X368357Y381108D01*
X368516Y381115D01*
X368606D01*
X368676Y381108D01*
D02*
G37*
G36*
X374840Y374604D02*
X374057D01*
Y379603D01*
X374043Y379590D01*
X374008Y379555D01*
X373946Y379506D01*
X373856Y379437D01*
X373752Y379354D01*
X373620Y379264D01*
X373474Y379167D01*
X373308Y379063D01*
X373301D01*
X373287Y379049D01*
X373266Y379035D01*
X373232Y379021D01*
X373190Y378993D01*
X373141Y378972D01*
X373030Y378910D01*
X372906Y378848D01*
X372767Y378778D01*
X372621Y378716D01*
X372483Y378660D01*
Y379416D01*
X372490Y379423D01*
X372510Y379430D01*
X372545Y379451D01*
X372594Y379472D01*
X372649Y379499D01*
X372718Y379541D01*
X372795Y379583D01*
X372871Y379624D01*
X373051Y379735D01*
X373245Y379867D01*
X373447Y380006D01*
X373634Y380165D01*
X373641Y380172D01*
X373655Y380186D01*
X373682Y380207D01*
X373717Y380241D01*
X373752Y380283D01*
X373800Y380325D01*
X373904Y380443D01*
X374022Y380567D01*
X374140Y380713D01*
X374244Y380866D01*
X374334Y381025D01*
X374840D01*
Y374604D01*
D02*
G37*
%LPC*%
G36*
X98347Y279494D02*
X98340D01*
X98327D01*
X98306D01*
X98271Y279487D01*
X98236D01*
X98188Y279480D01*
X98084Y279452D01*
X97966Y279410D01*
X97841Y279355D01*
X97723Y279272D01*
X97661Y279216D01*
X97605Y279161D01*
X97598Y279154D01*
X97591Y279147D01*
X97578Y279126D01*
X97557Y279098D01*
X97536Y279064D01*
X97508Y279015D01*
X97480Y278967D01*
X97453Y278904D01*
X97425Y278835D01*
X97404Y278759D01*
X97376Y278675D01*
X97356Y278585D01*
X97335Y278481D01*
X97321Y278370D01*
X97307Y278252D01*
Y276096D01*
X99422D01*
Y278010D01*
X99415Y278058D01*
Y278114D01*
X99408Y278245D01*
X99394Y278391D01*
X99374Y278544D01*
X99346Y278689D01*
X99304Y278821D01*
Y278828D01*
X99297Y278835D01*
X99283Y278876D01*
X99256Y278932D01*
X99214Y279008D01*
X99159Y279084D01*
X99096Y279168D01*
X99013Y279251D01*
X98923Y279320D01*
X98909Y279327D01*
X98874Y279348D01*
X98826Y279376D01*
X98750Y279410D01*
X98666Y279438D01*
X98569Y279466D01*
X98458Y279487D01*
X98347Y279494D01*
D02*
G37*
G36*
X58097Y279744D02*
X58090D01*
X58076D01*
X58056D01*
X58021Y279737D01*
X57986D01*
X57938Y279730D01*
X57834Y279702D01*
X57716Y279660D01*
X57591Y279605D01*
X57473Y279522D01*
X57411Y279466D01*
X57355Y279411D01*
X57348Y279404D01*
X57341Y279397D01*
X57327Y279376D01*
X57307Y279348D01*
X57286Y279314D01*
X57258Y279265D01*
X57231Y279217D01*
X57203Y279154D01*
X57175Y279085D01*
X57154Y279009D01*
X57126Y278925D01*
X57106Y278835D01*
X57085Y278731D01*
X57071Y278620D01*
X57057Y278502D01*
Y276346D01*
X59172D01*
Y278260D01*
X59165Y278308D01*
Y278364D01*
X59158Y278496D01*
X59144Y278641D01*
X59124Y278794D01*
X59096Y278939D01*
X59054Y279071D01*
Y279078D01*
X59047Y279085D01*
X59033Y279126D01*
X59006Y279182D01*
X58964Y279258D01*
X58909Y279335D01*
X58846Y279418D01*
X58763Y279501D01*
X58673Y279570D01*
X58659Y279577D01*
X58624Y279598D01*
X58576Y279626D01*
X58499Y279660D01*
X58416Y279688D01*
X58319Y279716D01*
X58208Y279737D01*
X58097Y279744D01*
D02*
G37*
%LPD*%
D12*
X89000Y218000D02*
X117000D01*
Y332500D01*
X89000D02*
X117000D01*
X89000Y218000D02*
Y332500D01*
X62800Y409200D02*
X145200D01*
X62800Y344300D02*
Y409200D01*
Y344300D02*
X145200D01*
Y409200D01*
X48750Y218250D02*
X76750D01*
Y332750D01*
X48750D02*
X76750D01*
X48750Y218250D02*
Y332750D01*
X405700Y159400D02*
Y270600D01*
X378300Y159400D02*
X405700D01*
X378300D02*
Y270600D01*
X405700D01*
X189200Y19750D02*
Y410350D01*
X161800Y19750D02*
X189200D01*
X161800D02*
Y410350D01*
X189200D01*
X36200Y19000D02*
Y409600D01*
X8800Y19000D02*
X36200D01*
X8800D02*
Y409600D01*
X36200D01*
M02*
