G04*
G04 #@! TF.GenerationSoftware,Altium Limited,Altium Designer,25.5.2 (35)*
G04*
G04 Layer_Color=255*
%FSLAX44Y44*%
%MOMM*%
G71*
G04*
G04 #@! TF.SameCoordinates,BE086167-A92D-4318-8729-62100742BBEE*
G04*
G04*
G04 #@! TF.FilePolarity,Positive*
G04*
G01*
G75*
%ADD14C,1.2500*%
%ADD15R,1.2500X1.2500*%
%ADD16R,1.5400X1.5400*%
%ADD17C,1.5400*%
%ADD18C,1.5900*%
%ADD19R,1.5900X1.5900*%
%ADD24R,1.3000X1.3000*%
%ADD27C,1.3000*%
%ADD29C,1.5000*%
G04:AMPARAMS|DCode=30|XSize=1.5mm|YSize=1.5mm|CornerRadius=0.375mm|HoleSize=0mm|Usage=FLASHONLY|Rotation=180.000|XOffset=0mm|YOffset=0mm|HoleType=Round|Shape=RoundedRectangle|*
%AMROUNDEDRECTD30*
21,1,1.5000,0.7500,0,0,180.0*
21,1,0.7500,1.5000,0,0,180.0*
1,1,0.7500,-0.3750,0.3750*
1,1,0.7500,0.3750,0.3750*
1,1,0.7500,0.3750,-0.3750*
1,1,0.7500,-0.3750,-0.3750*
%
%ADD30ROUNDEDRECTD30*%
%ADD31C,1.5200*%
%ADD32C,1.9500*%
G04:AMPARAMS|DCode=33|XSize=1.52mm|YSize=1.52mm|CornerRadius=0.38mm|HoleSize=0mm|Usage=FLASHONLY|Rotation=270.000|XOffset=0mm|YOffset=0mm|HoleType=Round|Shape=RoundedRectangle|*
%AMROUNDEDRECTD33*
21,1,1.5200,0.7600,0,0,270.0*
21,1,0.7600,1.5200,0,0,270.0*
1,1,0.7600,-0.3800,-0.3800*
1,1,0.7600,-0.3800,0.3800*
1,1,0.7600,0.3800,0.3800*
1,1,0.7600,0.3800,-0.3800*
%
%ADD33ROUNDEDRECTD33*%
G04:AMPARAMS|DCode=34|XSize=1.95mm|YSize=1.95mm|CornerRadius=0.4875mm|HoleSize=0mm|Usage=FLASHONLY|Rotation=0.000|XOffset=0mm|YOffset=0mm|HoleType=Round|Shape=RoundedRectangle|*
%AMROUNDEDRECTD34*
21,1,1.9500,0.9750,0,0,0.0*
21,1,0.9750,1.9500,0,0,0.0*
1,1,0.9750,0.4875,-0.4875*
1,1,0.9750,-0.4875,-0.4875*
1,1,0.9750,-0.4875,0.4875*
1,1,0.9750,0.4875,0.4875*
%
%ADD34ROUNDEDRECTD34*%
D14*
X103000Y325250D02*
D03*
X62750Y325500D02*
D03*
D15*
X103000Y225250D02*
D03*
X62750Y225500D02*
D03*
D16*
X136500Y354250D02*
D03*
D17*
X71500D02*
D03*
X136500Y399250D02*
D03*
X71500D02*
D03*
D18*
X175500Y164250D02*
D03*
X392000Y227700D02*
D03*
Y202300D02*
D03*
Y176900D02*
D03*
X175500Y367450D02*
D03*
X22500Y188900D02*
D03*
X175500Y113450D02*
D03*
X22500Y61900D02*
D03*
Y214300D02*
D03*
Y112700D02*
D03*
X175500Y342050D02*
D03*
Y316650D02*
D03*
Y291250D02*
D03*
Y265850D02*
D03*
Y240450D02*
D03*
Y215050D02*
D03*
Y189650D02*
D03*
Y138850D02*
D03*
Y88050D02*
D03*
Y62650D02*
D03*
Y37250D02*
D03*
X22500Y366700D02*
D03*
Y341300D02*
D03*
Y315900D02*
D03*
Y290500D02*
D03*
Y265100D02*
D03*
Y239700D02*
D03*
Y163500D02*
D03*
Y138100D02*
D03*
Y87300D02*
D03*
Y36500D02*
D03*
D19*
X392000Y253100D02*
D03*
X175500Y392850D02*
D03*
X22500Y392100D02*
D03*
D24*
X348000Y374500D02*
D03*
D27*
X383000D02*
D03*
D29*
X271400Y278300D02*
D03*
X296800D02*
D03*
X271400Y303700D02*
D03*
X296800D02*
D03*
X322200Y278300D02*
D03*
Y303700D02*
D03*
X347600Y278300D02*
D03*
D30*
Y303700D02*
D03*
D31*
X350500Y159600D02*
D03*
Y185000D02*
D03*
Y134200D02*
D03*
Y83400D02*
D03*
Y108800D02*
D03*
Y58000D02*
D03*
Y32600D02*
D03*
D32*
X121750Y51250D02*
D03*
D33*
X350500Y210400D02*
D03*
D34*
X86750Y51250D02*
D03*
M02*
