G04*
G04 #@! TF.GenerationSoftware,Altium Limited,Altium Designer,25.5.2 (35)*
G04*
G04 Layer_Color=2752767*
%FSLAX44Y44*%
%MOMM*%
G71*
G04*
G04 #@! TF.SameCoordinates,1DA6FF14-1162-4EBA-B803-9B090E078ADF*
G04*
G04*
G04 #@! TF.FilePolarity,Positive*
G04*
G01*
G75*
%ADD34C,0.1270*%
%ADD35C,0.1693*%
D34*
X1370420Y906420D02*
Y916580D01*
X1380580D01*
Y906420D01*
X1370420D01*
X1405420D02*
Y916580D01*
X1415580D01*
Y906420D01*
X1405420D01*
X1373920Y601920D02*
Y612080D01*
X1384080D01*
Y601920D01*
X1373920D01*
X1408920D02*
Y612080D01*
X1419080D01*
Y601920D01*
X1408920D01*
X1238170Y626920D02*
Y637080D01*
X1248330D01*
Y626920D01*
X1238170D01*
Y591920D02*
Y602080D01*
X1248330D01*
Y591920D01*
X1238170D01*
X1238420Y739420D02*
Y749580D01*
X1248580D01*
Y739420D01*
X1238420D01*
Y704420D02*
Y714580D01*
X1248580D01*
Y704420D01*
X1238420D01*
X1470500Y568570D02*
X1465420Y578730D01*
X1475580D01*
X1470500Y568570D01*
Y593970D02*
X1465420Y604130D01*
X1475580D01*
X1470500Y593970D01*
Y619370D02*
X1465420Y629530D01*
X1475580D01*
X1470500Y619370D01*
Y644770D02*
X1465420Y654930D01*
X1475580D01*
X1470500Y644770D01*
Y670170D02*
X1465420Y680330D01*
X1475580D01*
X1470500Y670170D01*
Y695570D02*
X1465420Y705730D01*
X1475580D01*
X1470500Y695570D01*
Y720970D02*
X1465420Y731130D01*
X1475580D01*
X1470500Y720970D01*
Y746370D02*
X1465420Y756530D01*
X1475580D01*
X1470500Y746370D01*
Y771770D02*
X1465420Y781930D01*
X1475580D01*
X1470500Y771770D01*
Y797170D02*
X1465420Y807330D01*
X1475580D01*
X1470500Y797170D01*
Y822570D02*
X1465420Y832730D01*
X1475580D01*
X1470500Y822570D01*
Y847970D02*
X1465420Y858130D01*
X1475580D01*
X1470500Y847970D01*
Y873370D02*
X1465420Y883530D01*
X1475580D01*
X1470500Y873370D01*
Y898770D02*
X1465420Y908930D01*
X1475580D01*
X1470500Y898770D01*
Y924170D02*
X1465420Y934330D01*
X1475580D01*
X1470500Y924170D01*
X1318250Y568970D02*
X1313170Y579130D01*
X1323330D01*
X1318250Y568970D01*
Y594370D02*
X1313170Y604530D01*
X1323330D01*
X1318250Y594370D01*
Y619770D02*
X1313170Y629930D01*
X1323330D01*
X1318250Y619770D01*
Y645170D02*
X1313170Y655330D01*
X1323330D01*
X1318250Y645170D01*
Y670570D02*
X1313170Y680730D01*
X1323330D01*
X1318250Y670570D01*
Y695970D02*
X1313170Y706130D01*
X1323330D01*
X1318250Y695970D01*
Y721370D02*
X1313170Y731530D01*
X1323330D01*
X1318250Y721370D01*
Y746770D02*
X1313170Y756930D01*
X1323330D01*
X1318250Y746770D01*
Y772170D02*
X1313170Y782330D01*
X1323330D01*
X1318250Y772170D01*
Y797570D02*
X1313170Y807730D01*
X1323330D01*
X1318250Y797570D01*
Y822970D02*
X1313170Y833130D01*
X1323330D01*
X1318250Y822970D01*
Y848370D02*
X1313170Y858530D01*
X1323330D01*
X1318250Y848370D01*
Y873770D02*
X1313170Y883930D01*
X1323330D01*
X1318250Y873770D01*
Y899170D02*
X1313170Y909330D01*
X1323330D01*
X1318250Y899170D01*
Y924570D02*
X1313170Y934730D01*
X1323330D01*
X1318250Y924570D01*
X1280600Y824370D02*
X1283140Y826910D01*
X1285680D01*
X1283140Y829450D01*
X1285680Y831990D01*
X1283140D01*
X1280600Y834530D01*
X1278060Y831990D01*
X1275520D01*
X1278060Y829450D01*
X1275520Y826910D01*
X1278060D01*
X1280600Y824370D01*
Y798970D02*
X1283140Y801510D01*
X1285680D01*
X1283140Y804050D01*
X1285680Y806590D01*
X1283140D01*
X1280600Y809130D01*
X1278060Y806590D01*
X1275520D01*
X1278060Y804050D01*
X1275520Y801510D01*
X1278060D01*
X1280600Y798970D01*
X1255200Y824370D02*
X1257740Y826910D01*
X1260280D01*
X1257740Y829450D01*
X1260280Y831990D01*
X1257740D01*
X1255200Y834530D01*
X1252660Y831990D01*
X1250120D01*
X1252660Y829450D01*
X1250120Y826910D01*
X1252660D01*
X1255200Y824370D01*
Y798970D02*
X1257740Y801510D01*
X1260280D01*
X1257740Y804050D01*
X1260280Y806590D01*
X1257740D01*
X1255200Y809130D01*
X1252660Y806590D01*
X1250120D01*
X1252660Y804050D01*
X1250120Y801510D01*
X1252660D01*
X1255200Y798970D01*
X1229800Y824370D02*
X1232340Y826910D01*
X1234880D01*
X1232340Y829450D01*
X1234880Y831990D01*
X1232340D01*
X1229800Y834530D01*
X1227260Y831990D01*
X1224720D01*
X1227260Y829450D01*
X1224720Y826910D01*
X1227260D01*
X1229800Y824370D01*
X1204400D02*
X1206940Y826910D01*
X1209480D01*
X1206940Y829450D01*
X1209480Y831990D01*
X1206940D01*
X1204400Y834530D01*
X1201860Y831990D01*
X1199320D01*
X1201860Y829450D01*
X1199320Y826910D01*
X1201860D01*
X1204400Y824370D01*
X1229800Y798970D02*
X1232340Y801510D01*
X1234880D01*
X1232340Y804050D01*
X1234880Y806590D01*
X1232340D01*
X1229800Y809130D01*
X1227260Y806590D01*
X1224720D01*
X1227260Y804050D01*
X1224720Y801510D01*
X1227260D01*
X1229800Y798970D01*
X1204400D02*
X1206940Y801510D01*
X1209480D01*
X1206940Y804050D01*
X1209480Y806590D01*
X1206940D01*
X1204400Y809130D01*
X1201860Y806590D01*
X1199320D01*
X1201860Y804050D01*
X1199320Y801510D01*
X1201860D01*
X1204400Y798970D01*
X1260670Y896670D02*
X1263210Y901750D01*
X1260670Y906830D01*
X1265750Y904290D01*
X1270830Y906830D01*
X1268290Y901750D01*
X1270830Y896670D01*
X1265750Y899210D01*
X1260670Y896670D01*
X1225670D02*
X1228210Y901750D01*
X1225670Y906830D01*
X1230750Y904290D01*
X1235830Y906830D01*
X1233290Y901750D01*
X1235830Y896670D01*
X1230750Y899210D01*
X1225670Y896670D01*
X1290710Y849210D02*
Y846670D01*
X1295790D01*
Y849210D01*
X1298330D01*
Y854290D01*
X1295790D01*
Y856830D01*
X1290710D01*
Y854290D01*
X1288170D01*
Y849210D01*
X1290710D01*
X1409460Y852210D02*
Y849670D01*
X1414540D01*
Y852210D01*
X1417080D01*
Y857290D01*
X1414540D01*
Y859830D01*
X1409460D01*
Y857290D01*
X1406920D01*
Y852210D01*
X1409460D01*
X1338960Y793210D02*
Y790670D01*
X1344040D01*
Y793210D01*
X1346580D01*
Y798290D01*
X1344040D01*
Y800830D01*
X1338960D01*
Y798290D01*
X1336420D01*
Y793210D01*
X1338960D01*
X1444210Y915710D02*
Y913170D01*
X1449290D01*
Y915710D01*
X1451830D01*
Y920790D01*
X1449290D01*
Y923330D01*
X1444210D01*
Y920790D01*
X1441670D01*
Y915710D01*
X1444210D01*
X1292460Y871710D02*
Y869170D01*
X1297540D01*
Y871710D01*
X1300080D01*
Y876790D01*
X1297540D01*
Y879330D01*
X1292460D01*
Y876790D01*
X1289920D01*
Y871710D01*
X1292460D01*
X1444710Y893460D02*
Y890920D01*
X1449790D01*
Y893460D01*
X1452330D01*
Y898540D01*
X1449790D01*
Y901080D01*
X1444710D01*
Y898540D01*
X1442170D01*
Y893460D01*
X1444710D01*
D35*
X1420080Y707250D02*
G03*
X1420080Y707250I-5080J0D01*
G01*
Y807250D02*
G03*
X1420080Y807250I-5080J0D01*
G01*
X1381580D02*
G03*
X1381580Y807250I-5080J0D01*
G01*
Y707250D02*
G03*
X1381580Y707250I-5080J0D01*
G01*
M02*
