G04*
G04 #@! TF.GenerationSoftware,Altium Limited,Altium Designer,25.5.2 (35)*
G04*
G04 Layer_Color=32768*
%FSLAX44Y44*%
%MOMM*%
G71*
G04*
G04 #@! TF.SameCoordinates,1DA6FF14-1162-4EBA-B803-9B090E078ADF*
G04*
G04*
G04 #@! TF.FilePolarity,Positive*
G04*
G01*
G75*
%ADD32C,0.1000*%
D32*
X1428000Y882300D02*
Y934700D01*
Y871500D02*
Y877300D01*
X1432000Y876550D02*
Y883050D01*
X1428000Y877300D02*
X1432000Y876550D01*
X1428000Y882300D02*
X1432000Y883050D01*
X1428000Y939700D02*
Y945500D01*
Y934700D02*
X1432000Y933950D01*
X1428000Y939700D02*
X1432000Y940450D01*
Y933950D02*
Y940450D01*
X1358000Y871500D02*
Y945500D01*
X1428000D01*
X1358000Y871500D02*
X1428000D01*
X1361500Y647000D02*
X1431500D01*
X1361500Y573000D02*
X1431500D01*
Y647000D01*
X1357500Y578050D02*
Y584550D01*
Y578050D02*
X1361500Y578800D01*
X1357500Y584550D02*
X1361500Y583800D01*
Y573000D02*
Y578800D01*
X1357500Y635450D02*
X1361500Y636200D01*
X1357500Y641950D02*
X1361500Y641200D01*
X1357500Y635450D02*
Y641950D01*
X1361500Y641200D02*
Y647000D01*
Y583800D02*
Y636200D01*
X1283250Y579500D02*
Y649500D01*
X1209250Y579500D02*
Y649500D01*
Y579500D02*
X1283250D01*
X1214300Y653500D02*
X1220800D01*
X1214300D02*
X1215050Y649500D01*
X1220050D02*
X1220800Y653500D01*
X1209250Y649500D02*
X1215050D01*
X1271700Y653500D02*
X1272450Y649500D01*
X1277450D02*
X1278200Y653500D01*
X1271700D02*
X1278200D01*
X1277450Y649500D02*
X1283250D01*
X1220050D02*
X1272450D01*
X1283500Y692000D02*
Y762000D01*
X1209500Y692000D02*
Y762000D01*
Y692000D02*
X1283500D01*
X1214550Y766000D02*
X1221050D01*
X1214550D02*
X1215300Y762000D01*
X1220300D02*
X1221050Y766000D01*
X1209500Y762000D02*
X1215300D01*
X1271950Y766000D02*
X1272700Y762000D01*
X1277700D02*
X1278450Y766000D01*
X1271950D02*
X1278450D01*
X1277700Y762000D02*
X1283500D01*
X1220300D02*
X1272700D01*
X1295800Y791350D02*
Y842150D01*
X1189200D02*
X1295800D01*
X1189200Y791350D02*
Y842150D01*
Y791350D02*
X1295800D01*
M02*
