M48
;Layer_Color=9474304
;FILE_FORMAT=4:4
METRIC,LZ
;TYPE=PLATED
T01F00S00C0.7112
T02F00S00C0.7500
T03F00S00C0.8000
T04F00S00C1.0200
T05F00S00C1.0400
T06F00S00C1.3000
%
T01
X013415Y0079575
X0129325Y0085175
X01295Y0087425
X01412Y0085475
X0144725Y00896
X0144675Y0091825
T02
X013765Y0070725
X01415
Y0080725
X013765
T03
X0123075Y0090175
X0126575
T04
X012044Y0080405
Y0082945
X012298
X012552
X012806
Y0080405
X012552
X012298
T05
X0131825Y0057405
Y0059945
Y0062485
Y0065025
Y0067565
Y0070105
Y0072645
Y0075185
Y0077725
X014705Y0077685
Y0075145
Y0072605
Y0070065
Y0067525
Y0064985
Y0062445
Y0059905
Y0057365
Y0080225
Y0082765
Y0085305
Y0087845
Y0090385
Y0092925
X0131825Y0092965
Y0090425
Y0087885
Y0085345
Y0082805
Y0080265
T06
X0124325Y00597
Y00632
X012435Y007095
Y007445
X01379Y00607
X01414
X014105Y009115
X013755
M30
