G04*
G04 #@! TF.GenerationSoftware,Altium Limited,Altium Designer,25.5.2 (35)*
G04*
G04 Layer_Physical_Order=1*
G04 Layer_Color=255*
%FSLAX44Y44*%
%MOMM*%
G71*
G04*
G04 #@! TF.SameCoordinates,1DA6FF14-1162-4EBA-B803-9B090E078ADF*
G04*
G04*
G04 #@! TF.FilePolarity,Positive*
G04*
G01*
G75*
%ADD13C,0.2540*%
%ADD17C,1.2500*%
%ADD18R,1.2500X1.2500*%
%ADD19C,1.5900*%
%ADD20R,1.5900X1.5900*%
%ADD23C,1.3000*%
%ADD24R,1.3000X1.3000*%
%ADD26C,1.9500*%
G04:AMPARAMS|DCode=27|XSize=1.95mm|YSize=1.95mm|CornerRadius=0.4875mm|HoleSize=0mm|Usage=FLASHONLY|Rotation=180.000|XOffset=0mm|YOffset=0mm|HoleType=Round|Shape=RoundedRectangle|*
%AMROUNDEDRECTD27*
21,1,1.9500,0.9750,0,0,180.0*
21,1,0.9750,1.9500,0,0,180.0*
1,1,0.9750,-0.4875,0.4875*
1,1,0.9750,0.4875,0.4875*
1,1,0.9750,0.4875,-0.4875*
1,1,0.9750,-0.4875,-0.4875*
%
%ADD27ROUNDEDRECTD27*%
G04:AMPARAMS|DCode=28|XSize=1.95mm|YSize=1.95mm|CornerRadius=0.4875mm|HoleSize=0mm|Usage=FLASHONLY|Rotation=270.000|XOffset=0mm|YOffset=0mm|HoleType=Round|Shape=RoundedRectangle|*
%AMROUNDEDRECTD28*
21,1,1.9500,0.9750,0,0,270.0*
21,1,0.9750,1.9500,0,0,270.0*
1,1,0.9750,-0.4875,-0.4875*
1,1,0.9750,-0.4875,0.4875*
1,1,0.9750,0.4875,0.4875*
1,1,0.9750,0.4875,-0.4875*
%
%ADD28ROUNDEDRECTD28*%
G04:AMPARAMS|DCode=29|XSize=1.5mm|YSize=1.5mm|CornerRadius=0.375mm|HoleSize=0mm|Usage=FLASHONLY|Rotation=180.000|XOffset=0mm|YOffset=0mm|HoleType=Round|Shape=RoundedRectangle|*
%AMROUNDEDRECTD29*
21,1,1.5000,0.7500,0,0,180.0*
21,1,0.7500,1.5000,0,0,180.0*
1,1,0.7500,-0.3750,0.3750*
1,1,0.7500,0.3750,0.3750*
1,1,0.7500,0.3750,-0.3750*
1,1,0.7500,-0.3750,-0.3750*
%
%ADD29ROUNDEDRECTD29*%
%ADD30C,1.5000*%
%ADD31C,1.2700*%
G36*
X1473892Y980462D02*
X1473962Y980392D01*
X1474000Y980300D01*
Y980250D01*
X1475724D01*
X1479104Y979577D01*
X1482289Y978258D01*
X1485156Y976343D01*
X1487593Y973906D01*
X1489508Y971039D01*
X1490827Y967855D01*
X1491500Y964474D01*
Y962750D01*
Y566250D01*
Y564748D01*
X1490914Y561802D01*
X1489764Y559026D01*
X1488095Y556529D01*
X1485971Y554404D01*
X1483474Y552736D01*
X1480698Y551586D01*
X1477752Y551000D01*
X1187487D01*
X1185989Y551298D01*
X1184579Y551882D01*
X1183310Y552730D01*
X1182230Y553810D01*
X1181382Y555079D01*
X1180798Y556489D01*
X1180500Y557987D01*
Y558750D01*
Y965250D01*
Y966727D01*
X1181076Y969625D01*
X1182207Y972355D01*
X1183849Y974812D01*
X1185938Y976901D01*
X1188395Y978543D01*
X1191125Y979674D01*
X1194023Y980250D01*
X1195500D01*
Y980500D01*
X1473800D01*
X1473892Y980462D01*
D02*
G37*
%LPC*%
G36*
X1480990Y939740D02*
X1460010D01*
Y933135D01*
X1458250D01*
X1456763Y932839D01*
X1455503Y931997D01*
X1450070Y926564D01*
X1447920Y927140D01*
X1445580D01*
X1443319Y926534D01*
X1441291Y925364D01*
X1439636Y923709D01*
X1438466Y921681D01*
X1437860Y919420D01*
Y917080D01*
X1438466Y914819D01*
X1439636Y912791D01*
X1441291Y911136D01*
X1443319Y909966D01*
X1445580Y909360D01*
X1447920D01*
X1450181Y909966D01*
X1452209Y911136D01*
X1453864Y912791D01*
X1455034Y914819D01*
X1455640Y917080D01*
Y919420D01*
X1455275Y920781D01*
X1457470Y922976D01*
X1460010Y921924D01*
Y918760D01*
X1480990D01*
Y939740D01*
D02*
G37*
G36*
X1328740Y940140D02*
X1307760D01*
Y919160D01*
X1328740D01*
Y940140D01*
D02*
G37*
G36*
X1377118Y923790D02*
X1376770D01*
Y912770D01*
X1387790D01*
Y913118D01*
X1386953Y916244D01*
X1385334Y919046D01*
X1383046Y921335D01*
X1380244Y922952D01*
X1377118Y923790D01*
D02*
G37*
G36*
X1374230D02*
X1373882D01*
X1370756Y922952D01*
X1367954Y921335D01*
X1365666Y919046D01*
X1364048Y916244D01*
X1363210Y913118D01*
Y912770D01*
X1374230D01*
Y923790D01*
D02*
G37*
G36*
X1471881Y914340D02*
X1469119D01*
X1466451Y913625D01*
X1464059Y912244D01*
X1462106Y910291D01*
X1460725Y907899D01*
X1460681Y907735D01*
X1455100D01*
X1453613Y907439D01*
X1452353Y906597D01*
X1450176Y904420D01*
X1448420Y904890D01*
X1446080D01*
X1443819Y904284D01*
X1441791Y903114D01*
X1440136Y901459D01*
X1438966Y899431D01*
X1438360Y897170D01*
Y894830D01*
X1438966Y892569D01*
X1440136Y890541D01*
X1441791Y888886D01*
X1443819Y887716D01*
X1446080Y887110D01*
X1448420D01*
X1450681Y887716D01*
X1452709Y888886D01*
X1454364Y890541D01*
X1455534Y892569D01*
X1456140Y894830D01*
Y897170D01*
X1455992Y897722D01*
X1457830Y899965D01*
X1460681D01*
X1460725Y899801D01*
X1462106Y897409D01*
X1464059Y895456D01*
X1466451Y894075D01*
X1469119Y893360D01*
X1471881D01*
X1474549Y894075D01*
X1476941Y895456D01*
X1478894Y897409D01*
X1480275Y899801D01*
X1480990Y902469D01*
Y905231D01*
X1480275Y907899D01*
X1478894Y910291D01*
X1476941Y912244D01*
X1474549Y913625D01*
X1471881Y914340D01*
D02*
G37*
G36*
X1239790Y910790D02*
X1232020D01*
Y903020D01*
X1239790D01*
Y910790D01*
D02*
G37*
G36*
X1229480D02*
X1221710D01*
Y903020D01*
X1229480D01*
Y910790D01*
D02*
G37*
G36*
X1387790Y910230D02*
X1376770D01*
Y899210D01*
X1377118D01*
X1380244Y900048D01*
X1383046Y901666D01*
X1385334Y903954D01*
X1386953Y906756D01*
X1387790Y909882D01*
Y910230D01*
D02*
G37*
G36*
X1374230D02*
X1363210D01*
Y909882D01*
X1364048Y906756D01*
X1365666Y903954D01*
X1367954Y901666D01*
X1370756Y900048D01*
X1373882Y899210D01*
X1374230D01*
Y910230D01*
D02*
G37*
G36*
X1319631Y914740D02*
X1316869D01*
X1314201Y914025D01*
X1311809Y912644D01*
X1309856Y910691D01*
X1308475Y908299D01*
X1307760Y905631D01*
Y902869D01*
X1308475Y900201D01*
X1309856Y897809D01*
X1311809Y895856D01*
X1314201Y894475D01*
X1316869Y893760D01*
X1319631D01*
X1322299Y894475D01*
X1324691Y895856D01*
X1326644Y897809D01*
X1328025Y900201D01*
X1328740Y902869D01*
Y905631D01*
X1328025Y908299D01*
X1326644Y910691D01*
X1324691Y912644D01*
X1322299Y914025D01*
X1319631Y914740D01*
D02*
G37*
G36*
X1266940Y910790D02*
X1264560D01*
X1262261Y910174D01*
X1260199Y908984D01*
X1258516Y907301D01*
X1257326Y905239D01*
X1256710Y902940D01*
Y900560D01*
X1257326Y898261D01*
X1258516Y896199D01*
X1260199Y894516D01*
X1262261Y893326D01*
X1264560Y892710D01*
X1266940D01*
X1269239Y893326D01*
X1271301Y894516D01*
X1272984Y896199D01*
X1274174Y898261D01*
X1274790Y900560D01*
Y902940D01*
X1274174Y905239D01*
X1272984Y907301D01*
X1271301Y908984D01*
X1269239Y910174D01*
X1266940Y910790D01*
D02*
G37*
G36*
X1239790Y900480D02*
X1232020D01*
Y892710D01*
X1239790D01*
Y900480D01*
D02*
G37*
G36*
X1229480D02*
X1221710D01*
Y892710D01*
X1229480D01*
Y900480D01*
D02*
G37*
G36*
X1319631Y889340D02*
X1316869D01*
X1314201Y888625D01*
X1311809Y887244D01*
X1309856Y885291D01*
X1308475Y882899D01*
X1307760Y880231D01*
Y877469D01*
X1308475Y874801D01*
X1309856Y872409D01*
X1311809Y870456D01*
X1314201Y869075D01*
X1316869Y868360D01*
X1319631D01*
X1322299Y869075D01*
X1324691Y870456D01*
X1326644Y872409D01*
X1328025Y874801D01*
X1328740Y877469D01*
Y880231D01*
X1328025Y882899D01*
X1326644Y885291D01*
X1324691Y887244D01*
X1322299Y888625D01*
X1319631Y889340D01*
D02*
G37*
G36*
X1471881Y888940D02*
X1469119D01*
X1466451Y888225D01*
X1464059Y886844D01*
X1462106Y884891D01*
X1460725Y882499D01*
X1460010Y879831D01*
Y877069D01*
X1460725Y874401D01*
X1462106Y872009D01*
X1464059Y870056D01*
X1466451Y868675D01*
X1469119Y867960D01*
X1471881D01*
X1474549Y868675D01*
X1476941Y870056D01*
X1478894Y872009D01*
X1480275Y874401D01*
X1480990Y877069D01*
Y879831D01*
X1480275Y882499D01*
X1478894Y884891D01*
X1476941Y886844D01*
X1474549Y888225D01*
X1471881Y888940D01*
D02*
G37*
G36*
X1296170Y883140D02*
X1293830D01*
X1291569Y882534D01*
X1289541Y881364D01*
X1287886Y879709D01*
X1286716Y877681D01*
X1286316Y876191D01*
X1285556D01*
X1284069Y875895D01*
X1282809Y875053D01*
X1270391Y862635D01*
X1261250D01*
X1259763Y862339D01*
X1258503Y861497D01*
X1248391Y851385D01*
X1210750D01*
X1209263Y851089D01*
X1208003Y850247D01*
X1201653Y843897D01*
X1200811Y842637D01*
X1200515Y841150D01*
Y838800D01*
X1198235Y837484D01*
X1196366Y835615D01*
X1195044Y833325D01*
X1194360Y830772D01*
Y828128D01*
X1195044Y825575D01*
X1196366Y823285D01*
X1198235Y821416D01*
X1200525Y820094D01*
X1203078Y819410D01*
X1205722D01*
X1208275Y820094D01*
X1210565Y821416D01*
X1212434Y823285D01*
X1213756Y825575D01*
X1214440Y828128D01*
Y830772D01*
X1213756Y833325D01*
X1212434Y835615D01*
X1210565Y837484D01*
X1210092Y837757D01*
X1209675Y840931D01*
X1212359Y843615D01*
X1244558D01*
X1245530Y841269D01*
X1241143Y836882D01*
X1240549Y835992D01*
X1238780Y835679D01*
X1237730Y835718D01*
X1235965Y837484D01*
X1233675Y838806D01*
X1231122Y839490D01*
X1228478D01*
X1225925Y838806D01*
X1223635Y837484D01*
X1221766Y835615D01*
X1220444Y833325D01*
X1219760Y830772D01*
Y828128D01*
X1220444Y825575D01*
X1221766Y823285D01*
X1223635Y821416D01*
X1225925Y820094D01*
X1228357Y819443D01*
X1228621Y819007D01*
X1229376Y816870D01*
X1228635Y816129D01*
X1227793Y814869D01*
X1227591Y813852D01*
X1225925Y813406D01*
X1223635Y812084D01*
X1221766Y810215D01*
X1220444Y807925D01*
X1219760Y805372D01*
Y802728D01*
X1220444Y800175D01*
X1221766Y797885D01*
X1223635Y796016D01*
X1225925Y794694D01*
X1228478Y794010D01*
X1231122D01*
X1233675Y794694D01*
X1235965Y796016D01*
X1237834Y797885D01*
X1239156Y800175D01*
X1239840Y802728D01*
Y805372D01*
X1239156Y807925D01*
X1237834Y810215D01*
X1237567Y810481D01*
X1237487Y813993D01*
X1245273Y821780D01*
X1246826Y823015D01*
X1248731Y821720D01*
X1249035Y821416D01*
X1251325Y820094D01*
X1253878Y819410D01*
X1256522D01*
X1259065Y820091D01*
X1266543Y812613D01*
X1267803Y811771D01*
X1269290Y811475D01*
X1270361D01*
X1271827Y808935D01*
X1271244Y807925D01*
X1270560Y805372D01*
Y802728D01*
X1271244Y800175D01*
X1272566Y797885D01*
X1274435Y796016D01*
X1276725Y794694D01*
X1279278Y794010D01*
X1281922D01*
X1284475Y794694D01*
X1286765Y796016D01*
X1288634Y797885D01*
X1289956Y800175D01*
X1290640Y802728D01*
Y805372D01*
X1289956Y807925D01*
X1289373Y808935D01*
X1290839Y811475D01*
X1308648D01*
X1309590Y809617D01*
X1309766Y808935D01*
X1308475Y806699D01*
X1307760Y804031D01*
Y801269D01*
X1308475Y798601D01*
X1309856Y796209D01*
X1311809Y794256D01*
X1314201Y792875D01*
X1316869Y792160D01*
X1319631D01*
X1322299Y792875D01*
X1324691Y794256D01*
X1326644Y796209D01*
X1328025Y798601D01*
X1328740Y801269D01*
Y804031D01*
X1328025Y806699D01*
X1326734Y808935D01*
X1326910Y809617D01*
X1327852Y811475D01*
X1337051D01*
X1341346Y807180D01*
X1340330Y804640D01*
X1338069Y804034D01*
X1336041Y802864D01*
X1334386Y801209D01*
X1333216Y799181D01*
X1332610Y796920D01*
Y794580D01*
X1333216Y792319D01*
X1334386Y790291D01*
X1336041Y788636D01*
X1338069Y787466D01*
X1340330Y786860D01*
X1342670D01*
X1343865Y784678D01*
Y736000D01*
X1344161Y734513D01*
X1345003Y733253D01*
X1367710Y710546D01*
Y698460D01*
X1372615D01*
Y619155D01*
X1372189Y619099D01*
X1370385Y618352D01*
X1368837Y617163D01*
X1367648Y615615D01*
X1366901Y613811D01*
X1366646Y611875D01*
Y610635D01*
X1365750D01*
X1364263Y610339D01*
X1363003Y609497D01*
X1331441Y577935D01*
X1328069D01*
X1328025Y578099D01*
X1326644Y580491D01*
X1324691Y582444D01*
X1322299Y583825D01*
X1319631Y584540D01*
X1316869D01*
X1314201Y583825D01*
X1311809Y582444D01*
X1309856Y580491D01*
X1308475Y578099D01*
X1307760Y575431D01*
Y572669D01*
X1308475Y570001D01*
X1309856Y567609D01*
X1311809Y565656D01*
X1314201Y564275D01*
X1316869Y563560D01*
X1319631D01*
X1322299Y564275D01*
X1324691Y565656D01*
X1326644Y567609D01*
X1328025Y570001D01*
X1328069Y570165D01*
X1333050D01*
X1334537Y570461D01*
X1335797Y571303D01*
X1364379Y599885D01*
X1364915Y599950D01*
X1367303Y599217D01*
X1367648Y598386D01*
X1368837Y596837D01*
X1370385Y595648D01*
X1372189Y594901D01*
X1374125Y594646D01*
X1383875D01*
X1385811Y594901D01*
X1387614Y595648D01*
X1389163Y596837D01*
X1390352Y598386D01*
X1391099Y600189D01*
X1391354Y602125D01*
Y611875D01*
X1391099Y613811D01*
X1390352Y615615D01*
X1389163Y617163D01*
X1387614Y618352D01*
X1385811Y619099D01*
X1383875Y619354D01*
X1380385D01*
Y698460D01*
X1385290D01*
Y716040D01*
X1373204D01*
X1351635Y737609D01*
Y787632D01*
X1351339Y789118D01*
X1350497Y790378D01*
X1349335Y791540D01*
X1349784Y792319D01*
X1350390Y794580D01*
X1352930Y795596D01*
X1354083Y794443D01*
X1355343Y793601D01*
X1356830Y793305D01*
X1448440D01*
X1449927Y793601D01*
X1451187Y794443D01*
X1455859Y799115D01*
X1460480D01*
X1460725Y798201D01*
X1462106Y795809D01*
X1464059Y793856D01*
X1466451Y792475D01*
X1469119Y791760D01*
X1471881D01*
X1474549Y792475D01*
X1476941Y793856D01*
X1478894Y795809D01*
X1480275Y798201D01*
X1480990Y800869D01*
Y803631D01*
X1480275Y806299D01*
X1478894Y808691D01*
X1476941Y810644D01*
X1474549Y812025D01*
X1471881Y812740D01*
X1469119D01*
X1466451Y812025D01*
X1464059Y810644D01*
X1462106Y808691D01*
X1461063Y806885D01*
X1454250D01*
X1452763Y806589D01*
X1451503Y805747D01*
X1446831Y801075D01*
X1423790D01*
Y816040D01*
X1406210D01*
Y811135D01*
X1384407D01*
X1383534Y812647D01*
X1381897Y814284D01*
X1379893Y815441D01*
X1377657Y816040D01*
X1375343D01*
X1373107Y815441D01*
X1371103Y814284D01*
X1369466Y812647D01*
X1368593Y811135D01*
X1355859D01*
X1349335Y817659D01*
Y826250D01*
X1349039Y827737D01*
X1348197Y828997D01*
X1327940Y849254D01*
X1328025Y849401D01*
X1328740Y852069D01*
Y854831D01*
X1328025Y857499D01*
X1326644Y859891D01*
X1324691Y861844D01*
X1322299Y863225D01*
X1319631Y863940D01*
X1316869D01*
X1314201Y863225D01*
X1311809Y861844D01*
X1309856Y859891D01*
X1308475Y857499D01*
X1307760Y854831D01*
Y852069D01*
X1308475Y849401D01*
X1309856Y847009D01*
X1311809Y845056D01*
X1314201Y843675D01*
X1316869Y842960D01*
X1319631D01*
X1322299Y843675D01*
X1322446Y843760D01*
X1341565Y824641D01*
Y821056D01*
X1341287Y820642D01*
X1339025Y819172D01*
X1338660Y819245D01*
X1327872D01*
X1326946Y821028D01*
X1326745Y821785D01*
X1328025Y824001D01*
X1328740Y826669D01*
Y829431D01*
X1328025Y832099D01*
X1326644Y834491D01*
X1324691Y836444D01*
X1322299Y837825D01*
X1319631Y838540D01*
X1316869D01*
X1314201Y837825D01*
X1311809Y836444D01*
X1309856Y834491D01*
X1308475Y832099D01*
X1307760Y829431D01*
Y826669D01*
X1308475Y824001D01*
X1309754Y821785D01*
X1309554Y821028D01*
X1308628Y819245D01*
X1290424D01*
X1290073Y819682D01*
X1289299Y821785D01*
X1290275Y823246D01*
X1290763Y825700D01*
Y828180D01*
X1280600D01*
X1270437D01*
Y825700D01*
X1270925Y823246D01*
X1271801Y821935D01*
X1269828Y820316D01*
X1264559Y825585D01*
X1265240Y828128D01*
Y830772D01*
X1264556Y833325D01*
X1263234Y835615D01*
X1261365Y837484D01*
X1259075Y838806D01*
X1257949Y839108D01*
X1257190Y841941D01*
X1263114Y847865D01*
X1285228D01*
X1286136Y846291D01*
X1287791Y844636D01*
X1289819Y843466D01*
X1292080Y842860D01*
X1294420D01*
X1296681Y843466D01*
X1298709Y844636D01*
X1300364Y846291D01*
X1301534Y848319D01*
X1302140Y850580D01*
Y852920D01*
X1301534Y855181D01*
X1300364Y857209D01*
X1298709Y858864D01*
X1296681Y860034D01*
X1294420Y860640D01*
X1292080D01*
X1289819Y860034D01*
X1287791Y858864D01*
X1286136Y857209D01*
X1285228Y855635D01*
X1277971D01*
X1276918Y858175D01*
X1287165Y868421D01*
X1288256D01*
X1289541Y867136D01*
X1291569Y865966D01*
X1293830Y865360D01*
X1296170D01*
X1298431Y865966D01*
X1300459Y867136D01*
X1302114Y868791D01*
X1303284Y870819D01*
X1303890Y873080D01*
Y875420D01*
X1303284Y877681D01*
X1302114Y879709D01*
X1300459Y881364D01*
X1298431Y882534D01*
X1296170Y883140D01*
D02*
G37*
G36*
X1415375Y923854D02*
X1405625D01*
X1403689Y923599D01*
X1401886Y922852D01*
X1400337Y921663D01*
X1399148Y920115D01*
X1398401Y918311D01*
X1398146Y916375D01*
Y906625D01*
X1398401Y904689D01*
X1399148Y902886D01*
X1400337Y901337D01*
X1401886Y900148D01*
X1403689Y899401D01*
X1405625Y899146D01*
X1408115D01*
Y862773D01*
X1406541Y861864D01*
X1404886Y860209D01*
X1403716Y858181D01*
X1403110Y855920D01*
Y853580D01*
X1403716Y851319D01*
X1404886Y849291D01*
X1406541Y847636D01*
X1408569Y846466D01*
X1410830Y845860D01*
X1413170D01*
X1415431Y846466D01*
X1417459Y847636D01*
X1419114Y849291D01*
X1420284Y851319D01*
X1420890Y853580D01*
Y855920D01*
X1420284Y858181D01*
X1419114Y860209D01*
X1417459Y861864D01*
X1415885Y862773D01*
Y899213D01*
X1417311Y899401D01*
X1419115Y900148D01*
X1420663Y901337D01*
X1421852Y902886D01*
X1422599Y904689D01*
X1422854Y906625D01*
Y916375D01*
X1422599Y918311D01*
X1421852Y920115D01*
X1420663Y921663D01*
X1419115Y922852D01*
X1417311Y923599D01*
X1415375Y923854D01*
D02*
G37*
G36*
X1471881Y863540D02*
X1469119D01*
X1466451Y862825D01*
X1464059Y861444D01*
X1462106Y859491D01*
X1460725Y857099D01*
X1460010Y854431D01*
Y851669D01*
X1460725Y849001D01*
X1462106Y846609D01*
X1464059Y844656D01*
X1466451Y843275D01*
X1469119Y842560D01*
X1471881D01*
X1474549Y843275D01*
X1476941Y844656D01*
X1478894Y846609D01*
X1480275Y849001D01*
X1480990Y851669D01*
Y854431D01*
X1480275Y857099D01*
X1478894Y859491D01*
X1476941Y861444D01*
X1474549Y862825D01*
X1471881Y863540D01*
D02*
G37*
G36*
X1284350Y839613D02*
X1281870D01*
Y830720D01*
X1290763D01*
Y833200D01*
X1290275Y835654D01*
X1288885Y837735D01*
X1286804Y839125D01*
X1284350Y839613D01*
D02*
G37*
G36*
X1279330D02*
X1276850D01*
X1274396Y839125D01*
X1272315Y837735D01*
X1270925Y835654D01*
X1270437Y833200D01*
Y830720D01*
X1279330D01*
Y839613D01*
D02*
G37*
G36*
X1471881Y838140D02*
X1469119D01*
X1466451Y837425D01*
X1464059Y836044D01*
X1462106Y834091D01*
X1460725Y831699D01*
X1460010Y829031D01*
Y826269D01*
X1460725Y823601D01*
X1462106Y821209D01*
X1464059Y819256D01*
X1466451Y817875D01*
X1469119Y817160D01*
X1471881D01*
X1474549Y817875D01*
X1476941Y819256D01*
X1478894Y821209D01*
X1480275Y823601D01*
X1480990Y826269D01*
Y829031D01*
X1480275Y831699D01*
X1478894Y834091D01*
X1476941Y836044D01*
X1474549Y837425D01*
X1471881Y838140D01*
D02*
G37*
G36*
X1256522Y814090D02*
X1253878D01*
X1251325Y813406D01*
X1249035Y812084D01*
X1247166Y810215D01*
X1245844Y807925D01*
X1245160Y805372D01*
Y802728D01*
X1245844Y800175D01*
X1247166Y797885D01*
X1249035Y796016D01*
X1251325Y794694D01*
X1253878Y794010D01*
X1256522D01*
X1259075Y794694D01*
X1261365Y796016D01*
X1263234Y797885D01*
X1264556Y800175D01*
X1265240Y802728D01*
Y805372D01*
X1264556Y807925D01*
X1263234Y810215D01*
X1261365Y812084D01*
X1259075Y813406D01*
X1256522Y814090D01*
D02*
G37*
G36*
X1205722D02*
X1203078D01*
X1200525Y813406D01*
X1198235Y812084D01*
X1196366Y810215D01*
X1195044Y807925D01*
X1194360Y805372D01*
Y802728D01*
X1195044Y800175D01*
X1196366Y797885D01*
X1198235Y796016D01*
X1200525Y794694D01*
X1203078Y794010D01*
X1205722D01*
X1208275Y794694D01*
X1210565Y796016D01*
X1212434Y797885D01*
X1213756Y800175D01*
X1214440Y802728D01*
Y805372D01*
X1213756Y807925D01*
X1212434Y810215D01*
X1210565Y812084D01*
X1208275Y813406D01*
X1205722Y814090D01*
D02*
G37*
G36*
X1319631Y787740D02*
X1316869D01*
X1314201Y787025D01*
X1311809Y785644D01*
X1309856Y783691D01*
X1308475Y781299D01*
X1307760Y778631D01*
Y775869D01*
X1308475Y773201D01*
X1309856Y770809D01*
X1311809Y768856D01*
X1314201Y767475D01*
X1316869Y766760D01*
X1319631D01*
X1322299Y767475D01*
X1324691Y768856D01*
X1326644Y770809D01*
X1328025Y773201D01*
X1328740Y775869D01*
Y778631D01*
X1328025Y781299D01*
X1326644Y783691D01*
X1324691Y785644D01*
X1322299Y787025D01*
X1319631Y787740D01*
D02*
G37*
G36*
X1471881Y787340D02*
X1469119D01*
X1466451Y786625D01*
X1464059Y785244D01*
X1462106Y783291D01*
X1460725Y780899D01*
X1460010Y778231D01*
Y775469D01*
X1460725Y772801D01*
X1462106Y770409D01*
X1464059Y768456D01*
X1466451Y767075D01*
X1469119Y766360D01*
X1471881D01*
X1474549Y767075D01*
X1476941Y768456D01*
X1478894Y770409D01*
X1480275Y772801D01*
X1480990Y775469D01*
Y778231D01*
X1480275Y780899D01*
X1478894Y783291D01*
X1476941Y785244D01*
X1474549Y786625D01*
X1471881Y787340D01*
D02*
G37*
G36*
X1319631Y762340D02*
X1316869D01*
X1314201Y761625D01*
X1311809Y760244D01*
X1309856Y758291D01*
X1308475Y755899D01*
X1307760Y753231D01*
Y750469D01*
X1308475Y747801D01*
X1309856Y745409D01*
X1311809Y743456D01*
X1314201Y742075D01*
X1316869Y741360D01*
X1319631D01*
X1322299Y742075D01*
X1324691Y743456D01*
X1326644Y745409D01*
X1328025Y747801D01*
X1328740Y750469D01*
Y753231D01*
X1328025Y755899D01*
X1326644Y758291D01*
X1324691Y760244D01*
X1322299Y761625D01*
X1319631Y762340D01*
D02*
G37*
G36*
X1471881Y761940D02*
X1469119D01*
X1466451Y761225D01*
X1464059Y759844D01*
X1462106Y757891D01*
X1460725Y755499D01*
X1460010Y752831D01*
Y750069D01*
X1460725Y747401D01*
X1462106Y745009D01*
X1464059Y743056D01*
X1466451Y741675D01*
X1469119Y740960D01*
X1471881D01*
X1474549Y741675D01*
X1476941Y743056D01*
X1478894Y745009D01*
X1480275Y747401D01*
X1480990Y750069D01*
Y752831D01*
X1480275Y755499D01*
X1478894Y757891D01*
X1476941Y759844D01*
X1474549Y761225D01*
X1471881Y761940D01*
D02*
G37*
G36*
X1248375Y756854D02*
X1238625D01*
X1236689Y756599D01*
X1234885Y755852D01*
X1233337Y754663D01*
X1232148Y753114D01*
X1231401Y751311D01*
X1231146Y749375D01*
Y739625D01*
X1231401Y737689D01*
X1232148Y735885D01*
X1233337Y734337D01*
X1234885Y733148D01*
X1236689Y732401D01*
X1238625Y732146D01*
X1248375D01*
X1250311Y732401D01*
X1252114Y733148D01*
X1253663Y734337D01*
X1254852Y735885D01*
X1255599Y737689D01*
X1255854Y739625D01*
Y749375D01*
X1255599Y751311D01*
X1254852Y753114D01*
X1253663Y754663D01*
X1252114Y755852D01*
X1250311Y756599D01*
X1248375Y756854D01*
D02*
G37*
G36*
X1319631Y736940D02*
X1316869D01*
X1314201Y736225D01*
X1311809Y734844D01*
X1309856Y732891D01*
X1308475Y730499D01*
X1307760Y727831D01*
Y725069D01*
X1308475Y722401D01*
X1309856Y720009D01*
X1311809Y718056D01*
X1314201Y716675D01*
X1316869Y715960D01*
X1319631D01*
X1322299Y716675D01*
X1324691Y718056D01*
X1326644Y720009D01*
X1328025Y722401D01*
X1328740Y725069D01*
Y727831D01*
X1328025Y730499D01*
X1326644Y732891D01*
X1324691Y734844D01*
X1322299Y736225D01*
X1319631Y736940D01*
D02*
G37*
G36*
X1471881Y736540D02*
X1469119D01*
X1466451Y735825D01*
X1464059Y734444D01*
X1462106Y732491D01*
X1460725Y730099D01*
X1460010Y727431D01*
Y724669D01*
X1460725Y722001D01*
X1462106Y719609D01*
X1464059Y717656D01*
X1466451Y716275D01*
X1469119Y715560D01*
X1471881D01*
X1474549Y716275D01*
X1476941Y717656D01*
X1478894Y719609D01*
X1480275Y722001D01*
X1480990Y724669D01*
Y727431D01*
X1480275Y730099D01*
X1478894Y732491D01*
X1476941Y734444D01*
X1474549Y735825D01*
X1471881Y736540D01*
D02*
G37*
G36*
X1416270Y716010D02*
Y708520D01*
X1423760D01*
X1423191Y710643D01*
X1422034Y712647D01*
X1420397Y714284D01*
X1418393Y715441D01*
X1416270Y716010D01*
D02*
G37*
G36*
X1413730Y716010D02*
X1411607Y715441D01*
X1409603Y714284D01*
X1407966Y712647D01*
X1406809Y710643D01*
X1406240Y708520D01*
X1413730D01*
Y716010D01*
D02*
G37*
G36*
Y705980D02*
X1406240D01*
X1406809Y703857D01*
X1407966Y701853D01*
X1409603Y700216D01*
X1411607Y699059D01*
X1413730Y698490D01*
Y705980D01*
D02*
G37*
G36*
X1423760D02*
X1416270D01*
Y698490D01*
X1418393Y699059D01*
X1420397Y700216D01*
X1422034Y701853D01*
X1423191Y703857D01*
X1423760Y705980D01*
D02*
G37*
G36*
X1245118Y721790D02*
X1241882D01*
X1238756Y720953D01*
X1235954Y719334D01*
X1233666Y717046D01*
X1232048Y714244D01*
X1231210Y711118D01*
Y707882D01*
X1232048Y704756D01*
X1233666Y701954D01*
X1235954Y699666D01*
X1238756Y698047D01*
X1241882Y697210D01*
X1245118D01*
X1248244Y698047D01*
X1251046Y699666D01*
X1253335Y701954D01*
X1254952Y704756D01*
X1255790Y707882D01*
Y711118D01*
X1254952Y714244D01*
X1253335Y717046D01*
X1251046Y719334D01*
X1248244Y720953D01*
X1245118Y721790D01*
D02*
G37*
G36*
X1319631Y711540D02*
X1316869D01*
X1314201Y710825D01*
X1311809Y709444D01*
X1309856Y707491D01*
X1308475Y705099D01*
X1307760Y702431D01*
Y699669D01*
X1308475Y697001D01*
X1309856Y694609D01*
X1311809Y692656D01*
X1314201Y691275D01*
X1316869Y690560D01*
X1319631D01*
X1322299Y691275D01*
X1324691Y692656D01*
X1326644Y694609D01*
X1328025Y697001D01*
X1328740Y699669D01*
Y702431D01*
X1328025Y705099D01*
X1326644Y707491D01*
X1324691Y709444D01*
X1322299Y710825D01*
X1319631Y711540D01*
D02*
G37*
G36*
X1471881Y711140D02*
X1469119D01*
X1466451Y710425D01*
X1464059Y709044D01*
X1462106Y707091D01*
X1460725Y704699D01*
X1460010Y702031D01*
Y699269D01*
X1460725Y696601D01*
X1462106Y694209D01*
X1464059Y692256D01*
X1466451Y690875D01*
X1469119Y690160D01*
X1471881D01*
X1474549Y690875D01*
X1476941Y692256D01*
X1478894Y694209D01*
X1480275Y696601D01*
X1480990Y699269D01*
Y702031D01*
X1480275Y704699D01*
X1478894Y707091D01*
X1476941Y709044D01*
X1474549Y710425D01*
X1471881Y711140D01*
D02*
G37*
G36*
X1319631Y686140D02*
X1316869D01*
X1314201Y685425D01*
X1311809Y684044D01*
X1309856Y682091D01*
X1308475Y679699D01*
X1307760Y677031D01*
Y674269D01*
X1308475Y671601D01*
X1309856Y669209D01*
X1311809Y667256D01*
X1314201Y665875D01*
X1316869Y665160D01*
X1319631D01*
X1322299Y665875D01*
X1324691Y667256D01*
X1326644Y669209D01*
X1328025Y671601D01*
X1328740Y674269D01*
Y677031D01*
X1328025Y679699D01*
X1326644Y682091D01*
X1324691Y684044D01*
X1322299Y685425D01*
X1319631Y686140D01*
D02*
G37*
G36*
X1471881Y685740D02*
X1469119D01*
X1466451Y685025D01*
X1464059Y683644D01*
X1462106Y681691D01*
X1460725Y679299D01*
X1460010Y676631D01*
Y673869D01*
X1460725Y671201D01*
X1462106Y668809D01*
X1464059Y666856D01*
X1466451Y665475D01*
X1469119Y664760D01*
X1471881D01*
X1474549Y665475D01*
X1476941Y666856D01*
X1478894Y668809D01*
X1480275Y671201D01*
X1480990Y673869D01*
Y676631D01*
X1480275Y679299D01*
X1478894Y681691D01*
X1476941Y683644D01*
X1474549Y685025D01*
X1471881Y685740D01*
D02*
G37*
G36*
Y660340D02*
X1471770D01*
Y651120D01*
X1480990D01*
Y651231D01*
X1480275Y653899D01*
X1478894Y656291D01*
X1476941Y658244D01*
X1474549Y659625D01*
X1471881Y660340D01*
D02*
G37*
G36*
X1469230D02*
X1469119D01*
X1466451Y659625D01*
X1464059Y658244D01*
X1462106Y656291D01*
X1460725Y653899D01*
X1460010Y651231D01*
Y651120D01*
X1469230D01*
Y660340D01*
D02*
G37*
G36*
X1319631Y660740D02*
X1316869D01*
X1314201Y660025D01*
X1311809Y658644D01*
X1309856Y656691D01*
X1308475Y654299D01*
X1307760Y651631D01*
Y648869D01*
X1308475Y646201D01*
X1309856Y643809D01*
X1311809Y641856D01*
X1314201Y640475D01*
X1316869Y639760D01*
X1319631D01*
X1322299Y640475D01*
X1324691Y641856D01*
X1326644Y643809D01*
X1328025Y646201D01*
X1328740Y648869D01*
Y651631D01*
X1328025Y654299D01*
X1326644Y656691D01*
X1324691Y658644D01*
X1322299Y660025D01*
X1319631Y660740D01*
D02*
G37*
G36*
X1480990Y648580D02*
X1471770D01*
Y639360D01*
X1471881D01*
X1474549Y640075D01*
X1476941Y641456D01*
X1478894Y643409D01*
X1480275Y645801D01*
X1480990Y648469D01*
Y648580D01*
D02*
G37*
G36*
X1469230D02*
X1460010D01*
Y648469D01*
X1460725Y645801D01*
X1462106Y643409D01*
X1464059Y641456D01*
X1466451Y640075D01*
X1469119Y639360D01*
X1469230D01*
Y648580D01*
D02*
G37*
G36*
X1248125Y644354D02*
X1238375D01*
X1236439Y644099D01*
X1234635Y643352D01*
X1233087Y642163D01*
X1231898Y640614D01*
X1231151Y638811D01*
X1230896Y636875D01*
Y627125D01*
X1231151Y625189D01*
X1231898Y623386D01*
X1233087Y621837D01*
X1234635Y620648D01*
X1236439Y619901D01*
X1238375Y619646D01*
X1248125D01*
X1250061Y619901D01*
X1251864Y620648D01*
X1253413Y621837D01*
X1254602Y623386D01*
X1255349Y625189D01*
X1255604Y627125D01*
Y636875D01*
X1255349Y638811D01*
X1254602Y640614D01*
X1253413Y642163D01*
X1251864Y643352D01*
X1250061Y644099D01*
X1248125Y644354D01*
D02*
G37*
G36*
X1319631Y635340D02*
X1316869D01*
X1314201Y634625D01*
X1311809Y633244D01*
X1309856Y631291D01*
X1308475Y628899D01*
X1307760Y626231D01*
Y623469D01*
X1308475Y620801D01*
X1309856Y618409D01*
X1311809Y616456D01*
X1314201Y615075D01*
X1316869Y614360D01*
X1319631D01*
X1322299Y615075D01*
X1324691Y616456D01*
X1326644Y618409D01*
X1328025Y620801D01*
X1328740Y623469D01*
Y626231D01*
X1328025Y628899D01*
X1326644Y631291D01*
X1324691Y633244D01*
X1322299Y634625D01*
X1319631Y635340D01*
D02*
G37*
G36*
X1471881Y634940D02*
X1469119D01*
X1466451Y634225D01*
X1464059Y632844D01*
X1462106Y630891D01*
X1460725Y628499D01*
X1460010Y625831D01*
Y623069D01*
X1460725Y620401D01*
X1462106Y618009D01*
X1464059Y616056D01*
X1466451Y614675D01*
X1469119Y613960D01*
X1471881D01*
X1474549Y614675D01*
X1476941Y616056D01*
X1478894Y618009D01*
X1480275Y620401D01*
X1480990Y623069D01*
Y625831D01*
X1480275Y628499D01*
X1478894Y630891D01*
X1476941Y632844D01*
X1474549Y634225D01*
X1471881Y634940D01*
D02*
G37*
G36*
X1415618Y619290D02*
X1415270D01*
Y608270D01*
X1426290D01*
Y608618D01*
X1425452Y611744D01*
X1423834Y614546D01*
X1421546Y616834D01*
X1418744Y618452D01*
X1415618Y619290D01*
D02*
G37*
G36*
X1412730D02*
X1412382D01*
X1409256Y618452D01*
X1406454Y616834D01*
X1404165Y614546D01*
X1402547Y611744D01*
X1401710Y608618D01*
Y608270D01*
X1412730D01*
Y619290D01*
D02*
G37*
G36*
X1319631Y609940D02*
X1319520D01*
Y600720D01*
X1328740D01*
Y600831D01*
X1328025Y603499D01*
X1326644Y605891D01*
X1324691Y607844D01*
X1322299Y609225D01*
X1319631Y609940D01*
D02*
G37*
G36*
X1316980D02*
X1316869D01*
X1314201Y609225D01*
X1311809Y607844D01*
X1309856Y605891D01*
X1308475Y603499D01*
X1307760Y600831D01*
Y600720D01*
X1316980D01*
Y609940D01*
D02*
G37*
G36*
X1426290Y605730D02*
X1415270D01*
Y594710D01*
X1415618D01*
X1418744Y595548D01*
X1421546Y597166D01*
X1423834Y599454D01*
X1425452Y602256D01*
X1426290Y605382D01*
Y605730D01*
D02*
G37*
G36*
X1412730D02*
X1401710D01*
Y605382D01*
X1402547Y602256D01*
X1404165Y599454D01*
X1406454Y597166D01*
X1409256Y595548D01*
X1412382Y594710D01*
X1412730D01*
Y605730D01*
D02*
G37*
G36*
X1328740Y598180D02*
X1319520D01*
Y588960D01*
X1319631D01*
X1322299Y589675D01*
X1324691Y591056D01*
X1326644Y593009D01*
X1328025Y595401D01*
X1328740Y598069D01*
Y598180D01*
D02*
G37*
G36*
X1316980D02*
X1307760D01*
Y598069D01*
X1308475Y595401D01*
X1309856Y593009D01*
X1311809Y591056D01*
X1314201Y589675D01*
X1316869Y588960D01*
X1316980D01*
Y598180D01*
D02*
G37*
G36*
X1471881Y609540D02*
X1469119D01*
X1466451Y608825D01*
X1464059Y607444D01*
X1462106Y605491D01*
X1460725Y603099D01*
X1460010Y600431D01*
Y597669D01*
X1460725Y595001D01*
X1462106Y592609D01*
X1464059Y590656D01*
X1466451Y589275D01*
X1469119Y588560D01*
X1471881D01*
X1474549Y589275D01*
X1476941Y590656D01*
X1478894Y592609D01*
X1480275Y595001D01*
X1480990Y597669D01*
Y600431D01*
X1480275Y603099D01*
X1478894Y605491D01*
X1476941Y607444D01*
X1474549Y608825D01*
X1471881Y609540D01*
D02*
G37*
G36*
X1244868Y609290D02*
X1241632D01*
X1238506Y608452D01*
X1235704Y606834D01*
X1233416Y604546D01*
X1231797Y601744D01*
X1230960Y598618D01*
Y595382D01*
X1231797Y592256D01*
X1233416Y589454D01*
X1235704Y587166D01*
X1238506Y585547D01*
X1241632Y584710D01*
X1244868D01*
X1247994Y585547D01*
X1250796Y587166D01*
X1253084Y589454D01*
X1254702Y592256D01*
X1255540Y595382D01*
Y598618D01*
X1254702Y601744D01*
X1253084Y604546D01*
X1250796Y606834D01*
X1247994Y608452D01*
X1244868Y609290D01*
D02*
G37*
G36*
X1471881Y584140D02*
X1469119D01*
X1466451Y583425D01*
X1464059Y582044D01*
X1462106Y580091D01*
X1460725Y577699D01*
X1460010Y575031D01*
Y572269D01*
X1460725Y569601D01*
X1462106Y567209D01*
X1464059Y565256D01*
X1466451Y563875D01*
X1469119Y563160D01*
X1471881D01*
X1474549Y563875D01*
X1476941Y565256D01*
X1478894Y567209D01*
X1480275Y569601D01*
X1480990Y572269D01*
Y575031D01*
X1480275Y577699D01*
X1478894Y580091D01*
X1476941Y582044D01*
X1474549Y583425D01*
X1471881Y584140D01*
D02*
G37*
%LPD*%
D13*
X1243890Y825890D02*
Y834135D01*
X1231382Y813382D02*
X1243890Y825890D01*
X1229800Y804050D02*
X1231382Y805632D01*
Y813382D01*
X1204400Y829450D02*
Y841150D01*
X1210750Y847500D02*
X1250000D01*
X1204400Y841150D02*
X1210750Y847500D01*
X1285556Y872306D02*
X1291306D01*
X1261250Y858750D02*
X1272000D01*
X1285556Y872306D01*
X1293250Y874250D02*
X1295000D01*
X1291306Y872306D02*
X1293250Y874250D01*
X1250000Y847500D02*
X1261250Y858750D01*
X1261505Y851750D02*
X1293250D01*
X1243890Y834135D02*
X1261505Y851750D01*
X1376500Y807250D02*
X1415000D01*
X1345450Y816050D02*
X1354250Y807250D01*
X1376500D01*
X1318250Y853450D02*
X1345450Y826250D01*
Y816050D02*
Y826250D01*
X1376500Y609500D02*
X1379000Y607000D01*
X1376500Y609500D02*
Y707250D01*
X1365750Y606750D02*
X1378750D01*
X1333050Y574050D02*
X1365750Y606750D01*
X1338660Y815360D02*
X1356830Y797190D01*
X1448440D01*
X1410500Y911500D02*
X1412000Y910000D01*
Y854750D02*
Y910000D01*
X1341500Y793882D02*
X1347750Y787632D01*
Y736000D02*
Y787632D01*
X1341500Y793882D02*
Y795750D01*
X1269290Y815360D02*
X1338660D01*
X1347750Y736000D02*
X1376500Y707250D01*
X1378750Y606750D02*
X1379000Y607000D01*
X1318250Y574050D02*
X1333050D01*
X1458250Y929250D02*
X1470500D01*
X1447250Y918250D02*
X1458250Y929250D01*
X1446750Y918250D02*
X1447250D01*
X1455100Y903850D02*
X1470500D01*
X1447250Y896000D02*
X1455100Y903850D01*
X1448440Y797190D02*
X1454250Y803000D01*
X1469750D02*
X1470500Y802250D01*
X1454250Y803000D02*
X1469750D01*
X1255200Y829450D02*
X1269290Y815360D01*
D17*
X1415000Y707250D02*
D03*
X1376500Y807250D02*
D03*
D18*
X1415000D02*
D03*
X1376500Y707250D02*
D03*
D19*
X1470500Y573650D02*
D03*
Y599050D02*
D03*
Y624450D02*
D03*
Y649850D02*
D03*
Y675250D02*
D03*
Y700650D02*
D03*
Y726050D02*
D03*
Y751450D02*
D03*
Y776850D02*
D03*
Y802250D02*
D03*
Y827650D02*
D03*
Y853050D02*
D03*
Y878450D02*
D03*
Y903850D02*
D03*
X1318250Y574050D02*
D03*
Y599450D02*
D03*
Y624850D02*
D03*
Y650250D02*
D03*
Y675650D02*
D03*
Y701050D02*
D03*
Y726450D02*
D03*
Y751850D02*
D03*
Y777250D02*
D03*
Y802650D02*
D03*
Y828050D02*
D03*
Y853450D02*
D03*
Y878850D02*
D03*
Y904250D02*
D03*
D20*
X1470500Y929250D02*
D03*
X1318250Y929650D02*
D03*
D23*
X1265750Y901750D02*
D03*
D24*
X1230750D02*
D03*
D26*
X1375500Y911500D02*
D03*
X1414000Y607000D02*
D03*
X1243250Y597000D02*
D03*
X1243500Y709500D02*
D03*
D27*
X1410500Y911500D02*
D03*
X1379000Y607000D02*
D03*
D28*
X1243250Y632000D02*
D03*
X1243500Y744500D02*
D03*
D29*
X1280600Y829450D02*
D03*
D30*
Y804050D02*
D03*
X1255200Y829450D02*
D03*
Y804050D02*
D03*
X1229800Y829450D02*
D03*
X1204400D02*
D03*
X1229800Y804050D02*
D03*
X1204400D02*
D03*
D31*
X1293250Y851750D02*
D03*
X1412000Y854750D02*
D03*
X1341500Y795750D02*
D03*
X1446750Y918250D02*
D03*
X1295000Y874250D02*
D03*
X1447250Y896000D02*
D03*
M02*
