G04*
G04 #@! TF.GenerationSoftware,Altium Limited,Altium Designer,25.5.2 (35)*
G04*
G04 Layer_Color=32768*
%FSLAX44Y44*%
%MOMM*%
G71*
G04*
G04 #@! TF.SameCoordinates,1DA6FF14-1162-4EBA-B803-9B090E078ADF*
G04*
G04*
G04 #@! TF.FilePolarity,Positive*
G04*
G01*
G75*
%ADD12C,0.2000*%
%ADD33C,0.0500*%
D12*
X1204750Y901750D02*
G03*
X1291750Y901750I43500J0D01*
G01*
D02*
G03*
X1204750Y901750I-43500J0D01*
G01*
X1401000Y814500D02*
X1429000D01*
X1401000Y700000D02*
Y814500D01*
Y700000D02*
X1429000D01*
Y814500D01*
X1362500Y700000D02*
X1390500D01*
Y814500D01*
X1362500D02*
X1390500D01*
X1362500Y700000D02*
Y814500D01*
X1456800Y946750D02*
X1484200D01*
X1456800Y556150D02*
Y946750D01*
Y556150D02*
X1484200D01*
Y946750D01*
X1304550Y947150D02*
X1331950D01*
X1304550Y556550D02*
Y947150D01*
Y556550D02*
X1331950D01*
Y947150D01*
D33*
X1434000Y869500D02*
Y947500D01*
X1356000D02*
X1434000D01*
X1356000Y869500D02*
Y947500D01*
Y869500D02*
X1434000D01*
X1355500Y649000D02*
X1433500D01*
Y571000D02*
Y649000D01*
X1355500Y571000D02*
X1433500D01*
X1355500D02*
Y649000D01*
X1285250Y577500D02*
Y655500D01*
X1207250Y577500D02*
X1285250D01*
X1207250D02*
Y655500D01*
X1285250D01*
X1285500Y690000D02*
Y768000D01*
X1207500Y690000D02*
X1285500D01*
X1207500D02*
Y768000D01*
X1285500D01*
X1299050Y788600D02*
Y844900D01*
X1185950D02*
X1299050D01*
X1185950Y788600D02*
Y844900D01*
Y788600D02*
X1299050D01*
M02*
